<?xml version='1.0' encoding='UTF-8' standalone='no'?>
<svg height="315pt" viewBox="0 0 420 315" width="420pt" xmlns="http://www.w3.org/2000/svg" xmlns:xlink="http://www.w3.org/1999/xlink">
 <title>Figure 1</title>
 <desc>
Creator: GL2PS 1.4.2, (C) 1999-2020 C. Geuzaine
For: Octave
CreationDate: Sat Jul 11 17:09:29 2026
</desc>
 <defs/>
 <polygon fill="#ffffff" points="0,0 420,0 420,315 0,315"/>
 <g>
  <polygon fill="#ffffff" points="0,315 420,315 420,0 0,0" shape-rendering="crispEdges"/>
  <clipPath id="cp00420315">
   <polygon points="0,315 420,315 420,0 0,0"/>
  </clipPath>
  <g clip-path="url(#cp00420315)">
   <polygon fill="#ffffff" points="54.6239,130.297 380.266,130.297 380.266,27.6353 54.6239,27.6353" shape-rendering="crispEdges"/>
   <polyline fill="none" points="79.1309,130.297 79.1309,27.6353" stroke="#191919" stroke-dasharray="1,3,1,3,1,3,1,3" stroke-linecap="butt" stroke-linejoin="miter" stroke-opacity="0.25" stroke-width="0.5"/>
   <polyline fill="none" points="93.4666,130.297 93.4666,27.6353" stroke="#191919" stroke-dasharray="1,3,1,3,1,3,1,3" stroke-linecap="butt" stroke-linejoin="miter" stroke-opacity="0.25" stroke-width="0.5"/>
   <polyline fill="none" points="103.638,130.297 103.638,27.6353" stroke="#191919" stroke-dasharray="1,3,1,3,1,3,1,3" stroke-linecap="butt" stroke-linejoin="miter" stroke-opacity="0.25" stroke-width="0.5"/>
   <polyline fill="none" points="111.527,130.297 111.527,27.6353" stroke="#191919" stroke-dasharray="1,3,1,3,1,3,1,3" stroke-linecap="butt" stroke-linejoin="miter" stroke-opacity="0.25" stroke-width="0.5"/>
   <polyline fill="none" points="117.974,130.297 117.974,27.6353" stroke="#191919" stroke-dasharray="1,3,1,3,1,3,1,3" stroke-linecap="butt" stroke-linejoin="miter" stroke-opacity="0.25" stroke-width="0.5"/>
   <polyline fill="none" points="123.424,130.297 123.424,27.6353" stroke="#191919" stroke-dasharray="1,3,1,3,1,3,1,3" stroke-linecap="butt" stroke-linejoin="miter" stroke-opacity="0.25" stroke-width="0.5"/>
   <polyline fill="none" points="128.145,130.297 128.145,27.6353" stroke="#191919" stroke-dasharray="1,3,1,3,1,3,1,3" stroke-linecap="butt" stroke-linejoin="miter" stroke-opacity="0.25" stroke-width="0.5"/>
   <polyline fill="none" points="132.309,130.297 132.309,27.6353" stroke="#191919" stroke-dasharray="1,3,1,3,1,3,1,3" stroke-linecap="butt" stroke-linejoin="miter" stroke-opacity="0.25" stroke-width="0.5"/>
   <polyline fill="none" points="160.541,130.297 160.541,27.6353" stroke="#191919" stroke-dasharray="1,3,1,3,1,3,1,3" stroke-linecap="butt" stroke-linejoin="miter" stroke-opacity="0.25" stroke-width="0.5"/>
   <polyline fill="none" points="174.877,130.297 174.877,27.6353" stroke="#191919" stroke-dasharray="1,3,1,3,1,3,1,3" stroke-linecap="butt" stroke-linejoin="miter" stroke-opacity="0.25" stroke-width="0.5"/>
   <polyline fill="none" points="185.049,130.297 185.049,27.6353" stroke="#191919" stroke-dasharray="1,3,1,3,1,3,1,3" stroke-linecap="butt" stroke-linejoin="miter" stroke-opacity="0.25" stroke-width="0.5"/>
   <polyline fill="none" points="192.938,130.297 192.938,27.6353" stroke="#191919" stroke-dasharray="1,3,1,3,1,3,1,3" stroke-linecap="butt" stroke-linejoin="miter" stroke-opacity="0.25" stroke-width="0.5"/>
   <polyline fill="none" points="199.384,130.297 199.384,27.6353" stroke="#191919" stroke-dasharray="1,3,1,3,1,3,1,3" stroke-linecap="butt" stroke-linejoin="miter" stroke-opacity="0.25" stroke-width="0.5"/>
   <polyline fill="none" points="204.834,130.297 204.834,27.6353" stroke="#191919" stroke-dasharray="1,3,1,3,1,3,1,3" stroke-linecap="butt" stroke-linejoin="miter" stroke-opacity="0.25" stroke-width="0.5"/>
   <polyline fill="none" points="209.556,130.297 209.556,27.6353" stroke="#191919" stroke-dasharray="1,3,1,3,1,3,1,3" stroke-linecap="butt" stroke-linejoin="miter" stroke-opacity="0.25" stroke-width="0.5"/>
   <polyline fill="none" points="213.72,130.297 213.72,27.6353" stroke="#191919" stroke-dasharray="1,3,1,3,1,3,1,3" stroke-linecap="butt" stroke-linejoin="miter" stroke-opacity="0.25" stroke-width="0.5"/>
   <polyline fill="none" points="241.952,130.297 241.952,27.6353" stroke="#191919" stroke-dasharray="1,3,1,3,1,3,1,3" stroke-linecap="butt" stroke-linejoin="miter" stroke-opacity="0.25" stroke-width="0.5"/>
   <polyline fill="none" points="256.288,130.297 256.288,27.6353" stroke="#191919" stroke-dasharray="1,3,1,3,1,3,1,3" stroke-linecap="butt" stroke-linejoin="miter" stroke-opacity="0.25" stroke-width="0.5"/>
   <polyline fill="none" points="266.459,130.297 266.459,27.6353" stroke="#191919" stroke-dasharray="1,3,1,3,1,3,1,3" stroke-linecap="butt" stroke-linejoin="miter" stroke-opacity="0.25" stroke-width="0.5"/>
   <polyline fill="none" points="274.349,130.297 274.349,27.6353" stroke="#191919" stroke-dasharray="1,3,1,3,1,3,1,3" stroke-linecap="butt" stroke-linejoin="miter" stroke-opacity="0.25" stroke-width="0.5"/>
   <polyline fill="none" points="280.795,130.297 280.795,27.6353" stroke="#191919" stroke-dasharray="1,3,1,3,1,3,1,3" stroke-linecap="butt" stroke-linejoin="miter" stroke-opacity="0.25" stroke-width="0.5"/>
   <polyline fill="none" points="286.245,130.297 286.245,27.6353" stroke="#191919" stroke-dasharray="1,3,1,3,1,3,1,3" stroke-linecap="butt" stroke-linejoin="miter" stroke-opacity="0.25" stroke-width="0.5"/>
   <polyline fill="none" points="290.966,130.297 290.966,27.6353" stroke="#191919" stroke-dasharray="1,3,1,3,1,3,1,3" stroke-linecap="butt" stroke-linejoin="miter" stroke-opacity="0.25" stroke-width="0.5"/>
   <polyline fill="none" points="295.13,130.297 295.13,27.6353" stroke="#191919" stroke-dasharray="1,3,1,3,1,3,1,3" stroke-linecap="butt" stroke-linejoin="miter" stroke-opacity="0.25" stroke-width="0.5"/>
   <polyline fill="none" points="323.363,130.297 323.363,27.6353" stroke="#191919" stroke-dasharray="1,3,1,3,1,3,1,3" stroke-linecap="butt" stroke-linejoin="miter" stroke-opacity="0.25" stroke-width="0.5"/>
   <polyline fill="none" points="337.698,130.297 337.698,27.6353" stroke="#191919" stroke-dasharray="1,3,1,3,1,3,1,3" stroke-linecap="butt" stroke-linejoin="miter" stroke-opacity="0.25" stroke-width="0.5"/>
   <polyline fill="none" points="347.87,130.297 347.87,27.6353" stroke="#191919" stroke-dasharray="1,3,1,3,1,3,1,3" stroke-linecap="butt" stroke-linejoin="miter" stroke-opacity="0.25" stroke-width="0.5"/>
   <polyline fill="none" points="355.759,130.297 355.759,27.6353" stroke="#191919" stroke-dasharray="1,3,1,3,1,3,1,3" stroke-linecap="butt" stroke-linejoin="miter" stroke-opacity="0.25" stroke-width="0.5"/>
   <polyline fill="none" points="362.205,130.297 362.205,27.6353" stroke="#191919" stroke-dasharray="1,3,1,3,1,3,1,3" stroke-linecap="butt" stroke-linejoin="miter" stroke-opacity="0.25" stroke-width="0.5"/>
   <polyline fill="none" points="367.656,130.297 367.656,27.6353" stroke="#191919" stroke-dasharray="1,3,1,3,1,3,1,3" stroke-linecap="butt" stroke-linejoin="miter" stroke-opacity="0.25" stroke-width="0.5"/>
   <polyline fill="none" points="372.377,130.297 372.377,27.6353" stroke="#191919" stroke-dasharray="1,3,1,3,1,3,1,3" stroke-linecap="butt" stroke-linejoin="miter" stroke-opacity="0.25" stroke-width="0.5"/>
   <polyline fill="none" points="376.541,130.297 376.541,27.6353" stroke="#191919" stroke-dasharray="1,3,1,3,1,3,1,3" stroke-linecap="butt" stroke-linejoin="miter" stroke-opacity="0.25" stroke-width="0.5"/>
   <polyline fill="none" points="54.6239,130.297 54.6239,27.6353" stroke="#262626" stroke-dasharray="16,0" stroke-linecap="butt" stroke-linejoin="miter" stroke-opacity="0.15" stroke-width="0.5"/>
   <polyline fill="none" points="136.034,130.297 136.034,27.6353" stroke="#262626" stroke-dasharray="16,0" stroke-linecap="butt" stroke-linejoin="miter" stroke-opacity="0.15" stroke-width="0.5"/>
   <polyline fill="none" points="217.445,130.297 217.445,27.6353" stroke="#262626" stroke-dasharray="16,0" stroke-linecap="butt" stroke-linejoin="miter" stroke-opacity="0.15" stroke-width="0.5"/>
   <polyline fill="none" points="298.856,130.297 298.856,27.6353" stroke="#262626" stroke-dasharray="16,0" stroke-linecap="butt" stroke-linejoin="miter" stroke-opacity="0.15" stroke-width="0.5"/>
   <polyline fill="none" points="380.266,130.297 380.266,27.6353" stroke="#262626" stroke-dasharray="16,0" stroke-linecap="butt" stroke-linejoin="miter" stroke-opacity="0.15" stroke-width="0.5"/>
   <polyline fill="none" points="79.1309,130.297 79.1309,128.674" stroke="#262626" stroke-linecap="butt" stroke-linejoin="miter" stroke-width="0.5"/>
   <polyline fill="none" points="79.1309,27.6353 79.1309,29.2582" stroke="#262626" stroke-linecap="butt" stroke-linejoin="miter" stroke-width="0.5"/>
   <polyline fill="none" points="93.4666,130.297 93.4666,128.674" stroke="#262626" stroke-linecap="butt" stroke-linejoin="miter" stroke-width="0.5"/>
   <polyline fill="none" points="93.4666,27.6353 93.4666,29.2582" stroke="#262626" stroke-linecap="butt" stroke-linejoin="miter" stroke-width="0.5"/>
   <polyline fill="none" points="103.638,130.297 103.638,128.674" stroke="#262626" stroke-linecap="butt" stroke-linejoin="miter" stroke-width="0.5"/>
   <polyline fill="none" points="103.638,27.6353 103.638,29.2582" stroke="#262626" stroke-linecap="butt" stroke-linejoin="miter" stroke-width="0.5"/>
   <polyline fill="none" points="111.527,130.297 111.527,128.674" stroke="#262626" stroke-linecap="butt" stroke-linejoin="miter" stroke-width="0.5"/>
   <polyline fill="none" points="111.527,27.6353 111.527,29.2582" stroke="#262626" stroke-linecap="butt" stroke-linejoin="miter" stroke-width="0.5"/>
   <polyline fill="none" points="117.974,130.297 117.974,128.674" stroke="#262626" stroke-linecap="butt" stroke-linejoin="miter" stroke-width="0.5"/>
   <polyline fill="none" points="117.974,27.6353 117.974,29.2582" stroke="#262626" stroke-linecap="butt" stroke-linejoin="miter" stroke-width="0.5"/>
   <polyline fill="none" points="123.424,130.297 123.424,128.674" stroke="#262626" stroke-linecap="butt" stroke-linejoin="miter" stroke-width="0.5"/>
   <polyline fill="none" points="123.424,27.6353 123.424,29.2582" stroke="#262626" stroke-linecap="butt" stroke-linejoin="miter" stroke-width="0.5"/>
   <polyline fill="none" points="128.145,130.297 128.145,128.674" stroke="#262626" stroke-linecap="butt" stroke-linejoin="miter" stroke-width="0.5"/>
   <polyline fill="none" points="128.145,27.6353 128.145,29.2582" stroke="#262626" stroke-linecap="butt" stroke-linejoin="miter" stroke-width="0.5"/>
   <polyline fill="none" points="132.309,130.297 132.309,128.674" stroke="#262626" stroke-linecap="butt" stroke-linejoin="miter" stroke-width="0.5"/>
   <polyline fill="none" points="132.309,27.6353 132.309,29.2582" stroke="#262626" stroke-linecap="butt" stroke-linejoin="miter" stroke-width="0.5"/>
   <polyline fill="none" points="160.541,130.297 160.541,128.674" stroke="#262626" stroke-linecap="butt" stroke-linejoin="miter" stroke-width="0.5"/>
   <polyline fill="none" points="160.541,27.6353 160.541,29.2582" stroke="#262626" stroke-linecap="butt" stroke-linejoin="miter" stroke-width="0.5"/>
   <polyline fill="none" points="174.877,130.297 174.877,128.674" stroke="#262626" stroke-linecap="butt" stroke-linejoin="miter" stroke-width="0.5"/>
   <polyline fill="none" points="174.877,27.6353 174.877,29.2582" stroke="#262626" stroke-linecap="butt" stroke-linejoin="miter" stroke-width="0.5"/>
   <polyline fill="none" points="185.049,130.297 185.049,128.674" stroke="#262626" stroke-linecap="butt" stroke-linejoin="miter" stroke-width="0.5"/>
   <polyline fill="none" points="185.049,27.6353 185.049,29.2582" stroke="#262626" stroke-linecap="butt" stroke-linejoin="miter" stroke-width="0.5"/>
   <polyline fill="none" points="192.938,130.297 192.938,128.674" stroke="#262626" stroke-linecap="butt" stroke-linejoin="miter" stroke-width="0.5"/>
   <polyline fill="none" points="192.938,27.6353 192.938,29.2582" stroke="#262626" stroke-linecap="butt" stroke-linejoin="miter" stroke-width="0.5"/>
   <polyline fill="none" points="199.384,130.297 199.384,128.674" stroke="#262626" stroke-linecap="butt" stroke-linejoin="miter" stroke-width="0.5"/>
   <polyline fill="none" points="199.384,27.6353 199.384,29.2582" stroke="#262626" stroke-linecap="butt" stroke-linejoin="miter" stroke-width="0.5"/>
   <polyline fill="none" points="204.834,130.297 204.834,128.674" stroke="#262626" stroke-linecap="butt" stroke-linejoin="miter" stroke-width="0.5"/>
   <polyline fill="none" points="204.834,27.6353 204.834,29.2582" stroke="#262626" stroke-linecap="butt" stroke-linejoin="miter" stroke-width="0.5"/>
   <polyline fill="none" points="209.556,130.297 209.556,128.674" stroke="#262626" stroke-linecap="butt" stroke-linejoin="miter" stroke-width="0.5"/>
   <polyline fill="none" points="209.556,27.6353 209.556,29.2582" stroke="#262626" stroke-linecap="butt" stroke-linejoin="miter" stroke-width="0.5"/>
   <polyline fill="none" points="213.72,130.297 213.72,128.674" stroke="#262626" stroke-linecap="butt" stroke-linejoin="miter" stroke-width="0.5"/>
   <polyline fill="none" points="213.72,27.6353 213.72,29.2582" stroke="#262626" stroke-linecap="butt" stroke-linejoin="miter" stroke-width="0.5"/>
   <polyline fill="none" points="241.952,130.297 241.952,128.674" stroke="#262626" stroke-linecap="butt" stroke-linejoin="miter" stroke-width="0.5"/>
   <polyline fill="none" points="241.952,27.6353 241.952,29.2582" stroke="#262626" stroke-linecap="butt" stroke-linejoin="miter" stroke-width="0.5"/>
   <polyline fill="none" points="256.288,130.297 256.288,128.674" stroke="#262626" stroke-linecap="butt" stroke-linejoin="miter" stroke-width="0.5"/>
   <polyline fill="none" points="256.288,27.6353 256.288,29.2582" stroke="#262626" stroke-linecap="butt" stroke-linejoin="miter" stroke-width="0.5"/>
   <polyline fill="none" points="266.459,130.297 266.459,128.674" stroke="#262626" stroke-linecap="butt" stroke-linejoin="miter" stroke-width="0.5"/>
   <polyline fill="none" points="266.459,27.6353 266.459,29.2582" stroke="#262626" stroke-linecap="butt" stroke-linejoin="miter" stroke-width="0.5"/>
   <polyline fill="none" points="274.349,130.297 274.349,128.674" stroke="#262626" stroke-linecap="butt" stroke-linejoin="miter" stroke-width="0.5"/>
   <polyline fill="none" points="274.349,27.6353 274.349,29.2582" stroke="#262626" stroke-linecap="butt" stroke-linejoin="miter" stroke-width="0.5"/>
   <polyline fill="none" points="280.795,130.297 280.795,128.674" stroke="#262626" stroke-linecap="butt" stroke-linejoin="miter" stroke-width="0.5"/>
   <polyline fill="none" points="280.795,27.6353 280.795,29.2582" stroke="#262626" stroke-linecap="butt" stroke-linejoin="miter" stroke-width="0.5"/>
   <polyline fill="none" points="286.245,130.297 286.245,128.674" stroke="#262626" stroke-linecap="butt" stroke-linejoin="miter" stroke-width="0.5"/>
   <polyline fill="none" points="286.245,27.6353 286.245,29.2582" stroke="#262626" stroke-linecap="butt" stroke-linejoin="miter" stroke-width="0.5"/>
   <polyline fill="none" points="290.966,130.297 290.966,128.674" stroke="#262626" stroke-linecap="butt" stroke-linejoin="miter" stroke-width="0.5"/>
   <polyline fill="none" points="290.966,27.6353 290.966,29.2582" stroke="#262626" stroke-linecap="butt" stroke-linejoin="miter" stroke-width="0.5"/>
   <polyline fill="none" points="295.13,130.297 295.13,128.674" stroke="#262626" stroke-linecap="butt" stroke-linejoin="miter" stroke-width="0.5"/>
   <polyline fill="none" points="295.13,27.6353 295.13,29.2582" stroke="#262626" stroke-linecap="butt" stroke-linejoin="miter" stroke-width="0.5"/>
   <polyline fill="none" points="323.363,130.297 323.363,128.674" stroke="#262626" stroke-linecap="butt" stroke-linejoin="miter" stroke-width="0.5"/>
   <polyline fill="none" points="323.363,27.6353 323.363,29.2582" stroke="#262626" stroke-linecap="butt" stroke-linejoin="miter" stroke-width="0.5"/>
   <polyline fill="none" points="337.698,130.297 337.698,128.674" stroke="#262626" stroke-linecap="butt" stroke-linejoin="miter" stroke-width="0.5"/>
   <polyline fill="none" points="337.698,27.6353 337.698,29.2582" stroke="#262626" stroke-linecap="butt" stroke-linejoin="miter" stroke-width="0.5"/>
   <polyline fill="none" points="347.87,130.297 347.87,128.674" stroke="#262626" stroke-linecap="butt" stroke-linejoin="miter" stroke-width="0.5"/>
   <polyline fill="none" points="347.87,27.6353 347.87,29.2582" stroke="#262626" stroke-linecap="butt" stroke-linejoin="miter" stroke-width="0.5"/>
   <polyline fill="none" points="355.759,130.297 355.759,128.674" stroke="#262626" stroke-linecap="butt" stroke-linejoin="miter" stroke-width="0.5"/>
   <polyline fill="none" points="355.759,27.6353 355.759,29.2582" stroke="#262626" stroke-linecap="butt" stroke-linejoin="miter" stroke-width="0.5"/>
   <polyline fill="none" points="362.205,130.297 362.205,128.674" stroke="#262626" stroke-linecap="butt" stroke-linejoin="miter" stroke-width="0.5"/>
   <polyline fill="none" points="362.205,27.6353 362.205,29.2582" stroke="#262626" stroke-linecap="butt" stroke-linejoin="miter" stroke-width="0.5"/>
   <polyline fill="none" points="367.656,130.297 367.656,128.674" stroke="#262626" stroke-linecap="butt" stroke-linejoin="miter" stroke-width="0.5"/>
   <polyline fill="none" points="367.656,27.6353 367.656,29.2582" stroke="#262626" stroke-linecap="butt" stroke-linejoin="miter" stroke-width="0.5"/>
   <polyline fill="none" points="372.377,130.297 372.377,128.674" stroke="#262626" stroke-linecap="butt" stroke-linejoin="miter" stroke-width="0.5"/>
   <polyline fill="none" points="372.377,27.6353 372.377,29.2582" stroke="#262626" stroke-linecap="butt" stroke-linejoin="miter" stroke-width="0.5"/>
   <polyline fill="none" points="376.541,130.297 376.541,128.674" stroke="#262626" stroke-linecap="butt" stroke-linejoin="miter" stroke-width="0.5"/>
   <polyline fill="none" points="376.541,27.6353 376.541,29.2582" stroke="#262626" stroke-linecap="butt" stroke-linejoin="miter" stroke-width="0.5"/>
   <polyline fill="none" points="54.6239,130.297 54.6239,127.051" stroke="#262626" stroke-linecap="butt" stroke-linejoin="miter" stroke-width="0.5"/>
   <polyline fill="none" points="54.6239,27.6353 54.6239,30.881" stroke="#262626" stroke-linecap="butt" stroke-linejoin="miter" stroke-width="0.5"/>
   <polyline fill="none" points="136.034,130.297 136.034,127.051" stroke="#262626" stroke-linecap="butt" stroke-linejoin="miter" stroke-width="0.5"/>
   <polyline fill="none" points="136.034,27.6353 136.034,30.881" stroke="#262626" stroke-linecap="butt" stroke-linejoin="miter" stroke-width="0.5"/>
   <polyline fill="none" points="217.445,130.297 217.445,127.051" stroke="#262626" stroke-linecap="butt" stroke-linejoin="miter" stroke-width="0.5"/>
   <polyline fill="none" points="217.445,27.6353 217.445,30.881" stroke="#262626" stroke-linecap="butt" stroke-linejoin="miter" stroke-width="0.5"/>
   <polyline fill="none" points="298.856,130.297 298.856,127.051" stroke="#262626" stroke-linecap="butt" stroke-linejoin="miter" stroke-width="0.5"/>
   <polyline fill="none" points="298.856,27.6353 298.856,30.881" stroke="#262626" stroke-linecap="butt" stroke-linejoin="miter" stroke-width="0.5"/>
   <polyline fill="none" points="380.266,130.297 380.266,127.051" stroke="#262626" stroke-linecap="butt" stroke-linejoin="miter" stroke-width="0.5"/>
   <polyline fill="none" points="380.266,27.6353 380.266,30.881" stroke="#262626" stroke-linecap="butt" stroke-linejoin="miter" stroke-width="0.5"/>
   <g font-family="FreeSans" font-size="10" font-style="normal" font-weight="normal" transform="translate(46.6239,147.772) rotate(-0,8,-10)" xml:space="preserve">
    <text fill="rgb(38,38,38)" x="0 6 " y="-0">10</text>
    <text fill="rgb(38,38,38)" font-size="7" x="12 " y="-4">1</text>
   </g>
   <g font-family="FreeSans" font-size="10" font-style="normal" font-weight="normal" transform="translate(128.034,147.772) rotate(-0,8,-10)" xml:space="preserve">
    <text fill="rgb(38,38,38)" x="0 6 " y="-0">10</text>
    <text fill="rgb(38,38,38)" font-size="7" x="12 " y="-4">2</text>
   </g>
   <g font-family="FreeSans" font-size="10" font-style="normal" font-weight="normal" transform="translate(209.445,147.772) rotate(-0,8,-10)" xml:space="preserve">
    <text fill="rgb(38,38,38)" x="0 6 " y="-0">10</text>
    <text fill="rgb(38,38,38)" font-size="7" x="12 " y="-4">3</text>
   </g>
   <g font-family="FreeSans" font-size="10" font-style="normal" font-weight="normal" transform="translate(290.856,147.772) rotate(-0,8,-10)" xml:space="preserve">
    <text fill="rgb(38,38,38)" x="0 6 " y="-0">10</text>
    <text fill="rgb(38,38,38)" font-size="7" x="12 " y="-4">4</text>
   </g>
   <g font-family="FreeSans" font-size="10" font-style="normal" font-weight="normal" transform="translate(372.266,147.772) rotate(-0,8,-10)" xml:space="preserve">
    <text fill="rgb(38,38,38)" x="0 6 " y="-0">10</text>
    <text fill="rgb(38,38,38)" font-size="7" x="12 " y="-4">5</text>
   </g>
   <polyline fill="none" points="54.6239,130.297 380.266,130.297" stroke="#262626" stroke-dasharray="16,0" stroke-linecap="butt" stroke-linejoin="miter" stroke-opacity="0.15" stroke-width="0.5"/>
   <polyline fill="none" points="54.6239,109.765 380.266,109.765" stroke="#262626" stroke-dasharray="16,0" stroke-linecap="butt" stroke-linejoin="miter" stroke-opacity="0.15" stroke-width="0.5"/>
   <polyline fill="none" points="54.6239,89.2324 380.266,89.2324" stroke="#262626" stroke-dasharray="16,0" stroke-linecap="butt" stroke-linejoin="miter" stroke-opacity="0.15" stroke-width="0.5"/>
   <polyline fill="none" points="54.6239,68.7 380.266,68.7" stroke="#262626" stroke-dasharray="16,0" stroke-linecap="butt" stroke-linejoin="miter" stroke-opacity="0.15" stroke-width="0.5"/>
   <polyline fill="none" points="54.6239,48.1677 380.266,48.1677" stroke="#262626" stroke-dasharray="16,0" stroke-linecap="butt" stroke-linejoin="miter" stroke-opacity="0.15" stroke-width="0.5"/>
   <polyline fill="none" points="54.6239,27.6353 380.266,27.6353" stroke="#262626" stroke-dasharray="16,0" stroke-linecap="butt" stroke-linejoin="miter" stroke-opacity="0.15" stroke-width="0.5"/>
   <polyline fill="none" points="54.6239,130.297 57.8767,130.297" stroke="#262626" stroke-linecap="butt" stroke-linejoin="miter" stroke-width="0.5"/>
   <polyline fill="none" points="380.266,130.297 377.013,130.297" stroke="#262626" stroke-linecap="butt" stroke-linejoin="miter" stroke-width="0.5"/>
   <polyline fill="none" points="54.6239,109.765 57.8767,109.765" stroke="#262626" stroke-linecap="butt" stroke-linejoin="miter" stroke-width="0.5"/>
   <polyline fill="none" points="380.266,109.765 377.013,109.765" stroke="#262626" stroke-linecap="butt" stroke-linejoin="miter" stroke-width="0.5"/>
   <polyline fill="none" points="54.6239,89.2324 57.8767,89.2324" stroke="#262626" stroke-linecap="butt" stroke-linejoin="miter" stroke-width="0.5"/>
   <polyline fill="none" points="380.266,89.2324 377.013,89.2324" stroke="#262626" stroke-linecap="butt" stroke-linejoin="miter" stroke-width="0.5"/>
   <polyline fill="none" points="54.6239,68.7 57.8767,68.7" stroke="#262626" stroke-linecap="butt" stroke-linejoin="miter" stroke-width="0.5"/>
   <polyline fill="none" points="380.266,68.7 377.013,68.7" stroke="#262626" stroke-linecap="butt" stroke-linejoin="miter" stroke-width="0.5"/>
   <polyline fill="none" points="54.6239,48.1677 57.8767,48.1677" stroke="#262626" stroke-linecap="butt" stroke-linejoin="miter" stroke-width="0.5"/>
   <polyline fill="none" points="380.266,48.1677 377.013,48.1677" stroke="#262626" stroke-linecap="butt" stroke-linejoin="miter" stroke-width="0.5"/>
   <polyline fill="none" points="54.6239,27.6353 57.8767,27.6353" stroke="#262626" stroke-linecap="butt" stroke-linejoin="miter" stroke-width="0.5"/>
   <polyline fill="none" points="380.266,27.6353 377.013,27.6353" stroke="#262626" stroke-linecap="butt" stroke-linejoin="miter" stroke-width="0.5"/>
   <g font-family="FreeSans" font-size="10" font-style="normal" font-weight="normal" transform="translate(28.6294,134.297) rotate(-0,21,-4)" xml:space="preserve">
    <text fill="rgb(38,38,38)" x="0 3 9 15 " y="-0">-400</text>
   </g>
   <g font-family="FreeSans" font-size="10" font-style="normal" font-weight="normal" transform="translate(28.6294,113.765) rotate(-0,21,-4)" xml:space="preserve">
    <text fill="rgb(38,38,38)" x="0 3 9 15 " y="-0">-300</text>
   </g>
   <g font-family="FreeSans" font-size="10" font-style="normal" font-weight="normal" transform="translate(28.6294,93.2324) rotate(-0,21,-4)" xml:space="preserve">
    <text fill="rgb(38,38,38)" x="0 3 9 15 " y="-0">-200</text>
   </g>
   <g font-family="FreeSans" font-size="10" font-style="normal" font-weight="normal" transform="translate(28.6294,72.7) rotate(-0,21,-4)" xml:space="preserve">
    <text fill="rgb(38,38,38)" x="0 3 9 15 " y="-0">-100</text>
   </g>
   <g font-family="FreeSans" font-size="10" font-style="normal" font-weight="normal" transform="translate(43.6294,52.1677) rotate(-0,6,-4)" xml:space="preserve">
    <text fill="rgb(38,38,38)" x="0 " y="-0">0</text>
   </g>
   <g font-family="FreeSans" font-size="10" font-style="normal" font-weight="normal" transform="translate(31.6294,31.6353) rotate(-0,18,-4)" xml:space="preserve">
    <text fill="rgb(38,38,38)" x="0 6 12 " y="-0">100</text>
   </g>
   <polyline fill="none" points="54.6239,130.297 380.266,130.297" stroke="#262626" stroke-dasharray="16,0" stroke-linecap="square" stroke-linejoin="miter" stroke-width="0.5"/>
   <polyline fill="none" points="54.6239,27.6353 380.266,27.6353" stroke="#262626" stroke-dasharray="16,0" stroke-linecap="square" stroke-linejoin="miter" stroke-width="0.5"/>
   <polyline fill="none" points="54.6239,130.297 54.6239,27.6353" stroke="#262626" stroke-dasharray="16,0" stroke-linecap="square" stroke-linejoin="miter" stroke-width="0.5"/>
   <polyline fill="none" points="380.266,130.297 380.266,27.6353" stroke="#262626" stroke-dasharray="16,0" stroke-linecap="square" stroke-linejoin="miter" stroke-width="0.5"/>
   <g font-family="FreeSans" font-size="11" font-style="normal" font-weight="bold" transform="translate(192.945,17.6353) rotate(-0,24.5,0)" xml:space="preserve">
    <text fill="rgb(0,0,0)" x="0 8 15 22 28 31 35 38 45 " y="-1">Bode - Zf</text>
   </g>
   <g font-family="FreeSans" font-size="11" font-style="normal" font-weight="normal" transform="translate(-10.8706,78.9662) rotate(-90,34.5,0)" xml:space="preserve">
    <text fill="rgb(38,38,38)" x="0 9 15 21 27 29 32 38 44 50 53 59 66 " y="-2">Magnitude[dB]</text>
   </g>
   <polyline fill="none" points="71.0542,54.4215 71.2986,54.4092 71.5431,54.3969 71.7876,54.3846 72.0321,54.3722 72.2765,54.3599 72.521,54.3476 72.7655,54.3352 73.01,54.3229 73.2544,54.3106 73.4989,54.2982 73.7434,54.2859 73.9879,54.2736 74.2323,54.2613 74.4768,54.2489 74.7213,54.2366 74.9658,54.2243 75.2103,54.212 75.4547,54.1996 75.6992,54.1873 75.9437,54.175 76.1881,54.1627 76.4326,54.1503 76.6771,54.138 76.9216,54.1257 77.1661,54.1133 77.4105,54.101 77.655,54.0887 77.8995,54.0764 78.144,54.064 78.3884,54.0517 78.6329,54.0394 78.8774,54.027 79.1219,54.0147 79.3663,54.0024 79.6108,53.9901 79.8553,53.9778 80.0998,53.9654 80.3443,53.9531 80.5887,53.9408 80.8332,53.9284 81.0777,53.9161 81.3222,53.9038 81.5666,53.8914 81.8111,53.8791 82.0556,53.8668 82.3001,53.8545 82.5445,53.8421 82.789,53.8298 83.0335,53.8175 83.278,53.8052 83.5224,53.7928 83.7669,53.7805 84.0114,53.7682 84.2559,53.7559 84.5004,53.7435 84.7448,53.7312 84.9893,53.7189 85.2338,53.7066 85.4783,53.6942 85.7227,53.6819 85.9672,53.6696 86.2117,53.6573 86.4562,53.645 86.7006,53.6326 86.9451,53.6203 87.1896,53.608 87.4341,53.5956 87.6785,53.5833 87.923,53.571 88.1675,53.5587 88.412,53.5464 88.6564,53.534 88.9009,53.5217 89.1454,53.5094 89.3899,53.497 89.6343,53.4847 89.8788,53.4724 90.1233,53.4601 90.3678,53.4478 90.6123,53.4354 90.8567,53.4231 91.1012,53.4108 91.3457,53.3985 91.5902,53.3861 91.8346,53.3738 92.0791,53.3615 92.3236,53.3492 92.5681,53.3369 92.8125,53.3245 93.057,53.3122 93.3015,53.2999 93.546,53.2876 93.7905,53.2752 94.0349,53.2629 94.2794,53.2506 94.5239,53.2383 94.7683,53.226 95.0128,53.2137 95.2573,53.2013 95.5018,53.189 95.7462,53.1767 95.9907,53.1644 96.2352,53.152 96.4797,53.1397 96.7242,53.1274 96.9686,53.1151 97.2131,53.1028 97.4576,53.0905 97.7021,53.0781 97.9465,53.0658 98.191,53.0535 98.4355,53.0412 98.68,53.0289 98.9244,53.0165 99.1689,53.0042 99.4134,52.9919 99.6579,52.9796 99.9024,52.9673 100.147,52.955 100.391,52.9427 100.636,52.9303 100.88,52.918 101.125,52.9057 101.369,52.8934 101.614,52.8811 101.858,52.8687 102.103,52.8564 102.347,52.8441 102.592,52.8318 102.836,52.8195 103.081,52.8072 103.325,52.7949 103.569,52.7826 103.814,52.7702 104.058,52.7579 104.303,52.7456 104.547,52.7333 104.792,52.721 105.036,52.7087 105.281,52.6964 105.525,52.6841 105.77,52.6718 106.014,52.6594 106.259,52.6471 106.503,52.6348 106.748,52.6225 106.992,52.6102 107.237,52.5979 107.481,52.5856 107.726,52.5733 107.97,52.561 108.215,52.5486 108.459,52.5363 108.703,52.524 108.948,52.5117 109.192,52.4994 109.437,52.4871 109.681,52.4748 109.926,52.4625 110.17,52.4502 110.415,52.4379 110.659,52.4256 110.904,52.4133 111.148,52.401 111.393,52.3887 111.637,52.3764 111.882,52.3641 112.126,52.3518 112.371,52.3395 112.615,52.3272 112.86,52.3149 113.104,52.3026 113.349,52.2903 113.593,52.278 113.838,52.2657 114.082,52.2534 114.326,52.2411 114.571,52.2288 114.815,52.2165 115.06,52.2042 115.304,52.1919 115.549,52.1796 115.793,52.1673 116.038,52.155 116.282,52.1427 116.527,52.1304 116.771,52.1181 117.016,52.1058 117.26,52.0936 117.505,52.0813 117.749,52.069 117.994,52.0567 118.238,52.0444 118.483,52.0321 118.727,52.0198 118.971,52.0075 119.216,51.9952 119.46,51.983 119.705,51.9707 119.949,51.9584 120.194,51.9461 120.438,51.9338 120.683,51.9215 120.927,51.9092 121.172,51.897 121.416,51.8847 121.661,51.8724 121.905,51.8601 122.15,51.8478 122.394,51.8356 122.639,51.8233 122.883,51.811 123.128,51.7987 123.372,51.7865 123.617,51.7742 123.861,51.7619 124.105,51.7496 124.35,51.7374 124.594,51.7251 124.839,51.7128 125.083,51.7006 125.328,51.6883 125.572,51.676 125.817,51.6638 126.061,51.6515 126.306,51.6392 126.55,51.627 126.795,51.6147 127.039,51.6024 127.284,51.5902 127.528,51.5779 127.773,51.5657 128.017,51.5534 128.262,51.5411 128.506,51.5289 128.751,51.5166 128.995,51.5044 129.24,51.4921 129.484,51.4799 129.728,51.4677 129.973,51.4554 130.217,51.4431 130.462,51.4309 130.706,51.4186 130.951,51.4064 131.195,51.3942 131.44,51.3819 131.684,51.3697 131.929,51.3574 132.173,51.3452 132.418,51.3329 132.662,51.3207 132.907,51.3085 133.151,51.2963 133.396,51.284 133.64,51.2718 133.885,51.2596 134.129,51.2473 134.374,51.2351 134.618,51.2229 134.862,51.2107 135.107,51.1985 135.351,51.1862 135.596,51.174 135.84,51.1618 136.085,51.1496 136.329,51.1374 136.574,51.1252 136.818,51.1129 137.063,51.1007 137.307,51.0885 137.552,51.0763 137.796,51.0641 138.041,51.0519 138.285,51.0397 138.53,51.0275 138.774,51.0153 139.019,51.0031 139.263,50.9909 139.507,50.9788 139.752,50.9666 139.996,50.9544 140.241,50.9422 140.485,50.93 140.73,50.9178 140.974,50.9057 141.219,50.8935 141.463,50.8813 141.708,50.8691 141.952,50.857 142.197,50.8448 142.441,50.8326 142.686,50.8205 142.93,50.8083 143.175,50.7962 143.419,50.784 143.664,50.7719 143.908,50.7597 144.153,50.7476 144.397,50.7354 144.642,50.7233 144.886,50.7112 145.13,50.699 145.375,50.6869 145.619,50.6747 145.864,50.6626 146.108,50.6505 146.353,50.6384 146.597,50.6263 146.842,50.6141 147.086,50.602 147.331,50.5899 147.575,50.5778 147.82,50.5657 148.064,50.5536 148.309,50.5415 148.553,50.5294 148.798,50.5173 149.042,50.5052 149.287,50.4931 149.531,50.481 149.775,50.469 150.02,50.4569 150.264,50.4449 150.509,50.4328 150.753,50.4207 150.998,50.4087 151.242,50.3966 151.487,50.3846 151.731,50.3725 151.976,50.3604 152.22,50.3484 152.465,50.3364 152.709,50.3244 152.954,50.3123 153.198,50.3003 153.443,50.2883 153.687,50.2763 153.932,50.2643 154.176,50.2523 154.421,50.2403 154.665,50.2283 154.91,50.2163 155.154,50.2043 155.398,50.1923 155.643,50.1804 155.887,50.1684 156.132,50.1564 156.376,50.1445 156.621,50.1325 156.865,50.1205 157.11,50.1086 157.354,50.0967 157.599,50.0847 157.843,50.0728 158.088,50.0609 158.332,50.049 158.577,50.037 158.821,50.0251 159.066,50.0133 159.31,50.0014 159.555,49.9895 159.799,49.9776 160.044,49.9657 160.288,49.9539 160.532,49.942 160.777,49.9302 161.021,49.9183 161.266,49.9065 161.51,49.8947 161.755,49.8828 161.999,49.871 162.244,49.8592 162.488,49.8474 162.733,49.8356 162.977,49.8238 163.222,49.812 163.466,49.8003 163.711,49.7885 163.955,49.7767 164.2,49.765 164.444,49.7532 164.689,49.7415 164.933,49.7298 165.178,49.7181 165.422,49.7064 165.666,49.6947 165.911,49.683 166.155,49.6713 166.4,49.6597 166.644,49.648 166.889,49.6364 167.133,49.6247 167.378,49.6131 167.622,49.6015 167.867,49.5898 168.111,49.5782 168.356,49.5667 168.6,49.5551 168.845,49.5435 169.089,49.532 169.334,49.5204 169.578,49.5089 169.823,49.4974 170.067,49.4859 170.312,49.4744 170.556,49.4629 170.8,49.4514 171.045,49.4399 171.289,49.4285 171.534,49.4171 171.778,49.4056 172.023,49.3942 172.267,49.3828 172.512,49.3714 172.756,49.3601 173.001,49.3487 173.245,49.3374 173.49,49.326 173.734,49.3147 173.979,49.3034 174.223,49.2922 174.468,49.2809 174.712,49.2697 174.957,49.2584 175.201,49.2472 175.446,49.236 175.69,49.2248 175.934,49.2136 176.179,49.2025 176.423,49.1913 176.668,49.1802 176.912,49.1691 177.157,49.158 177.401,49.147 177.646,49.1359 177.89,49.1249 178.135,49.1139 178.379,49.1029 178.624,49.0919 178.868,49.081 179.113,49.07 179.357,49.0591 179.602,49.0482 179.846,49.0374 180.091,49.0265 180.335,49.0157 180.58,49.0049 180.824,48.9941 181.068,48.9834 181.313,48.9727 181.557,48.9619 181.802,48.9513 182.046,48.9406 182.291,48.93 182.535,48.9193 182.78,48.9088 183.024,48.8982 183.269,48.8877 183.513,48.8772 183.758,48.8667 184.002,48.8563 184.247,48.8458 184.491,48.8354 184.736,48.8251 184.98,48.8148 185.225,48.8044 185.469,48.7942 185.714,48.7839 185.958,48.7737 186.202,48.7635 186.447,48.7534 186.691,48.7433 186.936,48.7332 187.18,48.7232 187.425,48.7132 187.669,48.7032 187.914,48.6933 188.158,48.6833 188.403,48.6735 188.647,48.6637 188.892,48.6539 189.136,48.6441 189.381,48.6344 189.625,48.6248 189.87,48.6151 190.114,48.6056 190.359,48.596 190.603,48.5865 190.848,48.5771 191.092,48.5677 191.336,48.5583 191.581,48.549 191.825,48.5397 192.07,48.5305 192.314,48.5213 192.559,48.5122 192.803,48.5031 193.048,48.4941 193.292,48.4851 193.537,48.4762 193.781,48.4673 194.026,48.4585 194.27,48.4498 194.515,48.4411 194.759,48.4325 195.004,48.4239 195.248,48.4154 195.493,48.4069 195.737,48.3985 195.982,48.3902 196.226,48.382 196.47,48.3737 196.715,48.3656 196.959,48.3576 197.204,48.3496 197.448,48.3417 197.693,48.3338 197.937,48.326 198.182,48.3184 198.426,48.3107 198.671,48.3032 198.915,48.2957 199.16,48.2884 199.404,48.2811 199.649,48.2738 199.893,48.2667 200.138,48.2597 200.382,48.2527 200.627,48.2459 200.871,48.2391 201.116,48.2325 201.36,48.2259 201.604,48.2194 201.849,48.213 202.093,48.2068 202.338,48.2006 202.582,48.1946 202.827,48.1886 203.071,48.1828 203.316,48.1771 203.56,48.1715 203.805,48.166 204.049,48.1606 204.294,48.1554 204.538,48.1503 204.783,48.1454 205.027,48.1405 205.272,48.1358 205.516,48.1313 205.761,48.1268 206.005,48.1226 206.25,48.1184 206.494,48.1145 206.738,48.1107 206.983,48.107 207.227,48.1035 207.472,48.1002 207.716,48.0971 207.961,48.0941 208.205,48.0913 208.45,48.0887 208.694,48.0863 208.939,48.0841 209.183,48.0821 209.428,48.0802 209.672,48.0786 209.917,48.0772 210.161,48.0761 210.406,48.0751 210.65,48.0744 210.895,48.074 211.139,48.0737 211.384,48.0738 211.628,48.0741 211.872,48.0746 212.117,48.0755 212.361,48.0766 212.606,48.078 212.85,48.0797 213.095,48.0817 213.339,48.084 213.584,48.0867 213.828,48.0897 214.073,48.0931 214.317,48.0968 214.562,48.1009 214.806,48.1054 215.051,48.1102 215.295,48.1155 215.54,48.1212 215.784,48.1274 216.029,48.134 216.273,48.1411 216.518,48.1486 216.762,48.1566 217.006,48.1653 217.251,48.1744 217.495,48.1841 217.74,48.1944 217.984,48.2053 218.229,48.2168 218.473,48.229 218.718,48.2419 218.962,48.2555 219.207,48.2699 219.451,48.285 219.696,48.301 219.94,48.3178 220.185,48.3356 220.429,48.3542 220.674,48.3739 220.918,48.3947 221.163,48.4164 221.407,48.4394 221.652,48.4636 221.896,48.4891 222.14,48.5159 222.385,48.5442 222.629,48.574 222.874,48.6055 223.118,48.6386 223.363,48.6737 223.607,48.7107 223.852,48.7498 224.096,48.7912 224.341,48.8351 224.585,48.8816 224.83,48.9309 225.074,48.9835 225.319,49.0393 225.563,49.099 225.808,49.1627 226.052,49.2309 226.297,49.3042 226.541,49.383 226.786,49.4681 227.03,49.5604 227.274,49.6608 227.519,49.7705 227.763,49.8911 228.008,50.0244 228.252,50.173 228.497,50.3402 228.741,50.5305 228.986,50.7502 229.23,51.0087 229.475,51.3206 229.719,51.7111 229.964,52.2285 230.208,52.9861 230.453,54.3878 230.652,109.783 230.697,57.0233 230.942,53.6758 231.186,52.5589 231.431,51.8618 231.675,51.3499 231.92,50.9428 232.164,50.6034 232.408,50.3112 232.653,50.0539 232.897,49.8234 233.142,49.6141 233.386,49.4221 233.631,49.2444 233.875,49.0787 234.12,48.9232 234.364,48.7767 234.609,48.6378 234.853,48.5057 235.098,48.3797 235.342,48.259 235.587,48.1432 235.831,48.0317 236.076,47.9241 236.32,47.8202 236.565,47.7195 236.809,47.6219 237.054,47.5271 237.298,47.4348 237.542,47.345 237.787,47.2573 238.031,47.1717 238.276,47.088 238.52,47.0062 238.765,46.926 239.009,46.8475 239.254,46.7704 239.498,46.6947 239.743,46.6204 239.987,46.5474 240.232,46.4755 240.476,46.4048 240.721,46.3351 240.965,46.2665 241.21,46.1988 241.454,46.1321 241.699,46.0663 241.943,46.0013 242.188,45.9371 242.432,45.8737 242.676,45.811 242.921,45.7491 243.165,45.6878 243.41,45.6271 243.654,45.5671 243.899,45.5078 244.143,45.4489 244.388,45.3907 244.632,45.3329 244.877,45.2757 245.121,45.219 245.366,45.1628 245.61,45.1071 245.855,45.0517 246.099,44.9969 246.344,44.9424 246.588,44.8884 246.833,44.8347 247.077,44.7814 247.322,44.7285 247.566,44.676 247.81,44.6237 248.055,44.5719 248.299,44.5204 248.544,44.4691 248.788,44.4182 249.033,44.3676 249.277,44.3172 249.522,44.2672 249.766,44.2173 250.011,44.1678 250.255,44.1186 250.5,44.0695 250.744,44.0208 250.989,43.9723 251.233,43.924 251.478,43.8759 251.722,43.828 251.967,43.7804 252.211,43.7329 252.456,43.6857 252.7,43.6387 252.944,43.5918 253.189,43.5452 253.433,43.4987 253.678,43.4524 253.922,43.4063 254.167,43.3604 254.411,43.3146 254.656,43.269 254.9,43.2235 255.145,43.1782 255.389,43.133 255.634,43.088 255.878,43.0432 256.123,42.9985 256.367,42.9539 256.612,42.9095 256.856,42.8651 257.101,42.821 257.345,42.7769 257.59,42.733 257.834,42.6892 258.078,42.6455 258.323,42.6019 258.567,42.5585 258.812,42.5151 259.056,42.4719 259.301,42.4287 259.545,42.3857 259.79,42.3428 260.034,42.3 260.279,42.2573 260.523,42.2146 260.768,42.1721 261.012,42.1297 261.257,42.0873 261.501,42.0451 261.746,42.0029 261.99,41.9608 262.235,41.9188 262.479,41.8769 262.724,41.8351 262.968,41.7933 263.212,41.7516 263.457,41.71 263.701,41.6685 263.946,41.627 264.19,41.5857 264.435,41.5443 264.679,41.5031 264.924,41.4619 265.168,41.4208 265.413,41.3798 265.657,41.3388 265.902,41.2979 266.146,41.257 266.391,41.2162 266.635,41.1755 266.88,41.1348 267.124,41.0942 267.369,41.0537 267.613,41.0132 267.858,40.9727 268.102,40.9323 268.346,40.892 268.591,40.8517 268.835,40.8115 269.08,40.7713 269.324,40.7311 269.569,40.6911 269.813,40.651 270.058,40.611 270.302,40.5711 270.547,40.5312 270.791,40.4913 271.036,40.4515 271.28,40.4117 271.525,40.372 271.769,40.3323 272.014,40.2927 272.258,40.2531 272.503,40.2135 272.747,40.174 272.992,40.1345 273.236,40.095 273.48,40.0556 273.725,40.0162 273.969,39.9769 274.214,39.9376 274.458,39.8983 274.703,39.8591 274.947,39.8199 275.192,39.7807 275.436,39.7416 275.681,39.7025 275.925,39.6634 276.17,39.6244 276.414,39.5853 276.659,39.5464 276.903,39.5074 277.148,39.4685 277.392,39.4296 277.637,39.3907 277.881,39.3519 278.126,39.313 278.37,39.2743 278.615,39.2355 278.859,39.1968 279.103,39.1581 279.348,39.1194 279.592,39.0807 279.837,39.0421 280.081,39.0035 280.326,38.9649 280.57,38.9263 280.815,38.8878 281.059,38.8493 281.304,38.8108 281.548,38.7723 281.793,38.7339 282.037,38.6954 282.282,38.657 282.526,38.6186 282.771,38.5802 283.015,38.5419 283.26,38.5036 283.504,38.4652 283.749,38.4269 283.993,38.3887 284.237,38.3504 284.482,38.3122 284.726,38.274 284.971,38.2358 285.215,38.1976 285.46,38.1594 285.704,38.1213 285.949,38.0831 286.193,38.045 286.438,38.0069 286.682,37.9688 286.927,37.9308 287.171,37.8927 287.416,37.8547 287.66,37.8167 287.905,37.7786 288.149,37.7406 288.394,37.7027 288.638,37.6647 288.882,37.6267 289.127,37.5888 289.371,37.5509 289.616,37.513 289.86,37.4751 290.105,37.4372 290.349,37.3993 290.594,37.3615 290.838,37.3236 291.083,37.2858 291.327,37.2479 291.572,37.2101 291.816,37.1723 292.061,37.1345 292.305,37.0968 292.55,37.059 292.794,37.0212 293.039,36.9835 293.283,36.9457 293.528,36.908 293.772,36.8703 294.016,36.8326 294.261,36.7949 294.505,36.7572 294.75,36.7195 294.994,36.6819 295.239,36.6442 295.483,36.6066 295.728,36.5689 295.972,36.5313 296.217,36.4937 296.461,36.4561 296.706,36.4185 296.95,36.3809 297.195,36.3433 297.439,36.3057 297.684,36.2682 297.928,36.2306 298.173,36.1931 298.417,36.1555 298.662,36.118 298.906,36.0804 299.151,36.0429 299.395,36.0054 299.639,35.9679 299.884,35.9304 300.128,35.8929 300.373,35.8554 300.617,35.8179 300.862,35.7805 301.106,35.743 301.351,35.7055 301.595,35.6681 301.84,35.6306 302.084,35.5932 302.329,35.5558 302.573,35.5183 302.818,35.4809 303.062,35.4435 303.307,35.4061 303.551,35.3687 303.796,35.3313 304.04,35.2939 304.285,35.2565 304.529,35.2191 304.773,35.1818 305.018,35.1444 305.262,35.107 305.507,35.0697 305.751,35.0323 305.996,34.995 306.24,34.9576 306.485,34.9203 306.729,34.8829 306.974,34.8456 307.218,34.8083 307.463,34.771 307.707,34.7336 307.952,34.6963 308.196,34.659 308.441,34.6217 308.685,34.5844 308.93,34.5471 309.174,34.5098 309.418,34.4725 309.663,34.4353 309.907,34.398 310.152,34.3607 310.396,34.3234 310.641,34.2862 310.885,34.2489 311.13,34.2116 311.374,34.1744 311.619,34.1371 311.863,34.0999 312.108,34.0627 312.352,34.0254 312.597,33.9882 312.841,33.9509 313.086,33.9137 313.33,33.8765 313.575,33.8392 313.819,33.802 314.064,33.7648 314.308,33.7276 314.552,33.6904 314.797,33.6532 315.041,33.6159 315.286,33.5787" stroke="#0071bc" stroke-linecap="butt" stroke-linejoin="round" stroke-width="0.5"/>
  </g>
  <clipPath id="cp00420315">
   <polygon points="0,315 420,315 420,0 0,0"/>
  </clipPath>
  <g clip-path="url(#cp00420315)">
   <polygon fill="#ffffff" points="54.6239,280.473 380.266,280.473 380.266,177.811 54.6239,177.811" shape-rendering="crispEdges"/>
   <polyline fill="none" points="79.1309,280.473 79.1309,177.811" stroke="#191919" stroke-dasharray="1,3,1,3,1,3,1,3" stroke-linecap="butt" stroke-linejoin="miter" stroke-opacity="0.25" stroke-width="0.5"/>
   <polyline fill="none" points="93.4666,280.473 93.4666,177.811" stroke="#191919" stroke-dasharray="1,3,1,3,1,3,1,3" stroke-linecap="butt" stroke-linejoin="miter" stroke-opacity="0.25" stroke-width="0.5"/>
   <polyline fill="none" points="103.638,280.473 103.638,177.811" stroke="#191919" stroke-dasharray="1,3,1,3,1,3,1,3" stroke-linecap="butt" stroke-linejoin="miter" stroke-opacity="0.25" stroke-width="0.5"/>
   <polyline fill="none" points="111.527,280.473 111.527,177.811" stroke="#191919" stroke-dasharray="1,3,1,3,1,3,1,3" stroke-linecap="butt" stroke-linejoin="miter" stroke-opacity="0.25" stroke-width="0.5"/>
   <polyline fill="none" points="117.974,280.473 117.974,177.811" stroke="#191919" stroke-dasharray="1,3,1,3,1,3,1,3" stroke-linecap="butt" stroke-linejoin="miter" stroke-opacity="0.25" stroke-width="0.5"/>
   <polyline fill="none" points="123.424,280.473 123.424,177.811" stroke="#191919" stroke-dasharray="1,3,1,3,1,3,1,3" stroke-linecap="butt" stroke-linejoin="miter" stroke-opacity="0.25" stroke-width="0.5"/>
   <polyline fill="none" points="128.145,280.473 128.145,177.811" stroke="#191919" stroke-dasharray="1,3,1,3,1,3,1,3" stroke-linecap="butt" stroke-linejoin="miter" stroke-opacity="0.25" stroke-width="0.5"/>
   <polyline fill="none" points="132.309,280.473 132.309,177.811" stroke="#191919" stroke-dasharray="1,3,1,3,1,3,1,3" stroke-linecap="butt" stroke-linejoin="miter" stroke-opacity="0.25" stroke-width="0.5"/>
   <polyline fill="none" points="160.541,280.473 160.541,177.811" stroke="#191919" stroke-dasharray="1,3,1,3,1,3,1,3" stroke-linecap="butt" stroke-linejoin="miter" stroke-opacity="0.25" stroke-width="0.5"/>
   <polyline fill="none" points="174.877,280.473 174.877,177.811" stroke="#191919" stroke-dasharray="1,3,1,3,1,3,1,3" stroke-linecap="butt" stroke-linejoin="miter" stroke-opacity="0.25" stroke-width="0.5"/>
   <polyline fill="none" points="185.049,280.473 185.049,177.811" stroke="#191919" stroke-dasharray="1,3,1,3,1,3,1,3" stroke-linecap="butt" stroke-linejoin="miter" stroke-opacity="0.25" stroke-width="0.5"/>
   <polyline fill="none" points="192.938,280.473 192.938,177.811" stroke="#191919" stroke-dasharray="1,3,1,3,1,3,1,3" stroke-linecap="butt" stroke-linejoin="miter" stroke-opacity="0.25" stroke-width="0.5"/>
   <polyline fill="none" points="199.384,280.473 199.384,177.811" stroke="#191919" stroke-dasharray="1,3,1,3,1,3,1,3" stroke-linecap="butt" stroke-linejoin="miter" stroke-opacity="0.25" stroke-width="0.5"/>
   <polyline fill="none" points="204.834,280.473 204.834,177.811" stroke="#191919" stroke-dasharray="1,3,1,3,1,3,1,3" stroke-linecap="butt" stroke-linejoin="miter" stroke-opacity="0.25" stroke-width="0.5"/>
   <polyline fill="none" points="209.556,280.473 209.556,177.811" stroke="#191919" stroke-dasharray="1,3,1,3,1,3,1,3" stroke-linecap="butt" stroke-linejoin="miter" stroke-opacity="0.25" stroke-width="0.5"/>
   <polyline fill="none" points="213.72,280.473 213.72,177.811" stroke="#191919" stroke-dasharray="1,3,1,3,1,3,1,3" stroke-linecap="butt" stroke-linejoin="miter" stroke-opacity="0.25" stroke-width="0.5"/>
   <polyline fill="none" points="241.952,280.473 241.952,177.811" stroke="#191919" stroke-dasharray="1,3,1,3,1,3,1,3" stroke-linecap="butt" stroke-linejoin="miter" stroke-opacity="0.25" stroke-width="0.5"/>
   <polyline fill="none" points="256.288,280.473 256.288,177.811" stroke="#191919" stroke-dasharray="1,3,1,3,1,3,1,3" stroke-linecap="butt" stroke-linejoin="miter" stroke-opacity="0.25" stroke-width="0.5"/>
   <polyline fill="none" points="266.459,280.473 266.459,177.811" stroke="#191919" stroke-dasharray="1,3,1,3,1,3,1,3" stroke-linecap="butt" stroke-linejoin="miter" stroke-opacity="0.25" stroke-width="0.5"/>
   <polyline fill="none" points="274.349,280.473 274.349,177.811" stroke="#191919" stroke-dasharray="1,3,1,3,1,3,1,3" stroke-linecap="butt" stroke-linejoin="miter" stroke-opacity="0.25" stroke-width="0.5"/>
   <polyline fill="none" points="280.795,280.473 280.795,177.811" stroke="#191919" stroke-dasharray="1,3,1,3,1,3,1,3" stroke-linecap="butt" stroke-linejoin="miter" stroke-opacity="0.25" stroke-width="0.5"/>
   <polyline fill="none" points="286.245,280.473 286.245,177.811" stroke="#191919" stroke-dasharray="1,3,1,3,1,3,1,3" stroke-linecap="butt" stroke-linejoin="miter" stroke-opacity="0.25" stroke-width="0.5"/>
   <polyline fill="none" points="290.966,280.473 290.966,177.811" stroke="#191919" stroke-dasharray="1,3,1,3,1,3,1,3" stroke-linecap="butt" stroke-linejoin="miter" stroke-opacity="0.25" stroke-width="0.5"/>
   <polyline fill="none" points="295.13,280.473 295.13,177.811" stroke="#191919" stroke-dasharray="1,3,1,3,1,3,1,3" stroke-linecap="butt" stroke-linejoin="miter" stroke-opacity="0.25" stroke-width="0.5"/>
   <polyline fill="none" points="323.363,280.473 323.363,177.811" stroke="#191919" stroke-dasharray="1,3,1,3,1,3,1,3" stroke-linecap="butt" stroke-linejoin="miter" stroke-opacity="0.25" stroke-width="0.5"/>
   <polyline fill="none" points="337.698,280.473 337.698,177.811" stroke="#191919" stroke-dasharray="1,3,1,3,1,3,1,3" stroke-linecap="butt" stroke-linejoin="miter" stroke-opacity="0.25" stroke-width="0.5"/>
   <polyline fill="none" points="347.87,280.473 347.87,177.811" stroke="#191919" stroke-dasharray="1,3,1,3,1,3,1,3" stroke-linecap="butt" stroke-linejoin="miter" stroke-opacity="0.25" stroke-width="0.5"/>
   <polyline fill="none" points="355.759,280.473 355.759,177.811" stroke="#191919" stroke-dasharray="1,3,1,3,1,3,1,3" stroke-linecap="butt" stroke-linejoin="miter" stroke-opacity="0.25" stroke-width="0.5"/>
   <polyline fill="none" points="362.205,280.473 362.205,177.811" stroke="#191919" stroke-dasharray="1,3,1,3,1,3,1,3" stroke-linecap="butt" stroke-linejoin="miter" stroke-opacity="0.25" stroke-width="0.5"/>
   <polyline fill="none" points="367.656,280.473 367.656,177.811" stroke="#191919" stroke-dasharray="1,3,1,3,1,3,1,3" stroke-linecap="butt" stroke-linejoin="miter" stroke-opacity="0.25" stroke-width="0.5"/>
   <polyline fill="none" points="372.377,280.473 372.377,177.811" stroke="#191919" stroke-dasharray="1,3,1,3,1,3,1,3" stroke-linecap="butt" stroke-linejoin="miter" stroke-opacity="0.25" stroke-width="0.5"/>
   <polyline fill="none" points="376.541,280.473 376.541,177.811" stroke="#191919" stroke-dasharray="1,3,1,3,1,3,1,3" stroke-linecap="butt" stroke-linejoin="miter" stroke-opacity="0.25" stroke-width="0.5"/>
   <polyline fill="none" points="54.6239,280.473 54.6239,177.811" stroke="#262626" stroke-dasharray="16,0" stroke-linecap="butt" stroke-linejoin="miter" stroke-opacity="0.15" stroke-width="0.5"/>
   <polyline fill="none" points="136.034,280.473 136.034,177.811" stroke="#262626" stroke-dasharray="16,0" stroke-linecap="butt" stroke-linejoin="miter" stroke-opacity="0.15" stroke-width="0.5"/>
   <polyline fill="none" points="217.445,280.473 217.445,177.811" stroke="#262626" stroke-dasharray="16,0" stroke-linecap="butt" stroke-linejoin="miter" stroke-opacity="0.15" stroke-width="0.5"/>
   <polyline fill="none" points="298.856,280.473 298.856,177.811" stroke="#262626" stroke-dasharray="16,0" stroke-linecap="butt" stroke-linejoin="miter" stroke-opacity="0.15" stroke-width="0.5"/>
   <polyline fill="none" points="380.266,280.473 380.266,177.811" stroke="#262626" stroke-dasharray="16,0" stroke-linecap="butt" stroke-linejoin="miter" stroke-opacity="0.15" stroke-width="0.5"/>
   <polyline fill="none" points="79.1309,280.473 79.1309,278.85" stroke="#262626" stroke-linecap="butt" stroke-linejoin="miter" stroke-width="0.5"/>
   <polyline fill="none" points="79.1309,177.811 79.1309,179.434" stroke="#262626" stroke-linecap="butt" stroke-linejoin="miter" stroke-width="0.5"/>
   <polyline fill="none" points="93.4666,280.473 93.4666,278.85" stroke="#262626" stroke-linecap="butt" stroke-linejoin="miter" stroke-width="0.5"/>
   <polyline fill="none" points="93.4666,177.811 93.4666,179.434" stroke="#262626" stroke-linecap="butt" stroke-linejoin="miter" stroke-width="0.5"/>
   <polyline fill="none" points="103.638,280.473 103.638,278.85" stroke="#262626" stroke-linecap="butt" stroke-linejoin="miter" stroke-width="0.5"/>
   <polyline fill="none" points="103.638,177.811 103.638,179.434" stroke="#262626" stroke-linecap="butt" stroke-linejoin="miter" stroke-width="0.5"/>
   <polyline fill="none" points="111.527,280.473 111.527,278.85" stroke="#262626" stroke-linecap="butt" stroke-linejoin="miter" stroke-width="0.5"/>
   <polyline fill="none" points="111.527,177.811 111.527,179.434" stroke="#262626" stroke-linecap="butt" stroke-linejoin="miter" stroke-width="0.5"/>
   <polyline fill="none" points="117.974,280.473 117.974,278.85" stroke="#262626" stroke-linecap="butt" stroke-linejoin="miter" stroke-width="0.5"/>
   <polyline fill="none" points="117.974,177.811 117.974,179.434" stroke="#262626" stroke-linecap="butt" stroke-linejoin="miter" stroke-width="0.5"/>
   <polyline fill="none" points="123.424,280.473 123.424,278.85" stroke="#262626" stroke-linecap="butt" stroke-linejoin="miter" stroke-width="0.5"/>
   <polyline fill="none" points="123.424,177.811 123.424,179.434" stroke="#262626" stroke-linecap="butt" stroke-linejoin="miter" stroke-width="0.5"/>
   <polyline fill="none" points="128.145,280.473 128.145,278.85" stroke="#262626" stroke-linecap="butt" stroke-linejoin="miter" stroke-width="0.5"/>
   <polyline fill="none" points="128.145,177.811 128.145,179.434" stroke="#262626" stroke-linecap="butt" stroke-linejoin="miter" stroke-width="0.5"/>
   <polyline fill="none" points="132.309,280.473 132.309,278.85" stroke="#262626" stroke-linecap="butt" stroke-linejoin="miter" stroke-width="0.5"/>
   <polyline fill="none" points="132.309,177.811 132.309,179.434" stroke="#262626" stroke-linecap="butt" stroke-linejoin="miter" stroke-width="0.5"/>
   <polyline fill="none" points="160.541,280.473 160.541,278.85" stroke="#262626" stroke-linecap="butt" stroke-linejoin="miter" stroke-width="0.5"/>
   <polyline fill="none" points="160.541,177.811 160.541,179.434" stroke="#262626" stroke-linecap="butt" stroke-linejoin="miter" stroke-width="0.5"/>
   <polyline fill="none" points="174.877,280.473 174.877,278.85" stroke="#262626" stroke-linecap="butt" stroke-linejoin="miter" stroke-width="0.5"/>
   <polyline fill="none" points="174.877,177.811 174.877,179.434" stroke="#262626" stroke-linecap="butt" stroke-linejoin="miter" stroke-width="0.5"/>
   <polyline fill="none" points="185.049,280.473 185.049,278.85" stroke="#262626" stroke-linecap="butt" stroke-linejoin="miter" stroke-width="0.5"/>
   <polyline fill="none" points="185.049,177.811 185.049,179.434" stroke="#262626" stroke-linecap="butt" stroke-linejoin="miter" stroke-width="0.5"/>
   <polyline fill="none" points="192.938,280.473 192.938,278.85" stroke="#262626" stroke-linecap="butt" stroke-linejoin="miter" stroke-width="0.5"/>
   <polyline fill="none" points="192.938,177.811 192.938,179.434" stroke="#262626" stroke-linecap="butt" stroke-linejoin="miter" stroke-width="0.5"/>
   <polyline fill="none" points="199.384,280.473 199.384,278.85" stroke="#262626" stroke-linecap="butt" stroke-linejoin="miter" stroke-width="0.5"/>
   <polyline fill="none" points="199.384,177.811 199.384,179.434" stroke="#262626" stroke-linecap="butt" stroke-linejoin="miter" stroke-width="0.5"/>
   <polyline fill="none" points="204.834,280.473 204.834,278.85" stroke="#262626" stroke-linecap="butt" stroke-linejoin="miter" stroke-width="0.5"/>
   <polyline fill="none" points="204.834,177.811 204.834,179.434" stroke="#262626" stroke-linecap="butt" stroke-linejoin="miter" stroke-width="0.5"/>
   <polyline fill="none" points="209.556,280.473 209.556,278.85" stroke="#262626" stroke-linecap="butt" stroke-linejoin="miter" stroke-width="0.5"/>
   <polyline fill="none" points="209.556,177.811 209.556,179.434" stroke="#262626" stroke-linecap="butt" stroke-linejoin="miter" stroke-width="0.5"/>
   <polyline fill="none" points="213.72,280.473 213.72,278.85" stroke="#262626" stroke-linecap="butt" stroke-linejoin="miter" stroke-width="0.5"/>
   <polyline fill="none" points="213.72,177.811 213.72,179.434" stroke="#262626" stroke-linecap="butt" stroke-linejoin="miter" stroke-width="0.5"/>
   <polyline fill="none" points="241.952,280.473 241.952,278.85" stroke="#262626" stroke-linecap="butt" stroke-linejoin="miter" stroke-width="0.5"/>
   <polyline fill="none" points="241.952,177.811 241.952,179.434" stroke="#262626" stroke-linecap="butt" stroke-linejoin="miter" stroke-width="0.5"/>
   <polyline fill="none" points="256.288,280.473 256.288,278.85" stroke="#262626" stroke-linecap="butt" stroke-linejoin="miter" stroke-width="0.5"/>
   <polyline fill="none" points="256.288,177.811 256.288,179.434" stroke="#262626" stroke-linecap="butt" stroke-linejoin="miter" stroke-width="0.5"/>
   <polyline fill="none" points="266.459,280.473 266.459,278.85" stroke="#262626" stroke-linecap="butt" stroke-linejoin="miter" stroke-width="0.5"/>
   <polyline fill="none" points="266.459,177.811 266.459,179.434" stroke="#262626" stroke-linecap="butt" stroke-linejoin="miter" stroke-width="0.5"/>
   <polyline fill="none" points="274.349,280.473 274.349,278.85" stroke="#262626" stroke-linecap="butt" stroke-linejoin="miter" stroke-width="0.5"/>
   <polyline fill="none" points="274.349,177.811 274.349,179.434" stroke="#262626" stroke-linecap="butt" stroke-linejoin="miter" stroke-width="0.5"/>
   <polyline fill="none" points="280.795,280.473 280.795,278.85" stroke="#262626" stroke-linecap="butt" stroke-linejoin="miter" stroke-width="0.5"/>
   <polyline fill="none" points="280.795,177.811 280.795,179.434" stroke="#262626" stroke-linecap="butt" stroke-linejoin="miter" stroke-width="0.5"/>
   <polyline fill="none" points="286.245,280.473 286.245,278.85" stroke="#262626" stroke-linecap="butt" stroke-linejoin="miter" stroke-width="0.5"/>
   <polyline fill="none" points="286.245,177.811 286.245,179.434" stroke="#262626" stroke-linecap="butt" stroke-linejoin="miter" stroke-width="0.5"/>
   <polyline fill="none" points="290.966,280.473 290.966,278.85" stroke="#262626" stroke-linecap="butt" stroke-linejoin="miter" stroke-width="0.5"/>
   <polyline fill="none" points="290.966,177.811 290.966,179.434" stroke="#262626" stroke-linecap="butt" stroke-linejoin="miter" stroke-width="0.5"/>
   <polyline fill="none" points="295.13,280.473 295.13,278.85" stroke="#262626" stroke-linecap="butt" stroke-linejoin="miter" stroke-width="0.5"/>
   <polyline fill="none" points="295.13,177.811 295.13,179.434" stroke="#262626" stroke-linecap="butt" stroke-linejoin="miter" stroke-width="0.5"/>
   <polyline fill="none" points="323.363,280.473 323.363,278.85" stroke="#262626" stroke-linecap="butt" stroke-linejoin="miter" stroke-width="0.5"/>
   <polyline fill="none" points="323.363,177.811 323.363,179.434" stroke="#262626" stroke-linecap="butt" stroke-linejoin="miter" stroke-width="0.5"/>
   <polyline fill="none" points="337.698,280.473 337.698,278.85" stroke="#262626" stroke-linecap="butt" stroke-linejoin="miter" stroke-width="0.5"/>
   <polyline fill="none" points="337.698,177.811 337.698,179.434" stroke="#262626" stroke-linecap="butt" stroke-linejoin="miter" stroke-width="0.5"/>
   <polyline fill="none" points="347.87,280.473 347.87,278.85" stroke="#262626" stroke-linecap="butt" stroke-linejoin="miter" stroke-width="0.5"/>
   <polyline fill="none" points="347.87,177.811 347.87,179.434" stroke="#262626" stroke-linecap="butt" stroke-linejoin="miter" stroke-width="0.5"/>
   <polyline fill="none" points="355.759,280.473 355.759,278.85" stroke="#262626" stroke-linecap="butt" stroke-linejoin="miter" stroke-width="0.5"/>
   <polyline fill="none" points="355.759,177.811 355.759,179.434" stroke="#262626" stroke-linecap="butt" stroke-linejoin="miter" stroke-width="0.5"/>
   <polyline fill="none" points="362.205,280.473 362.205,278.85" stroke="#262626" stroke-linecap="butt" stroke-linejoin="miter" stroke-width="0.5"/>
   <polyline fill="none" points="362.205,177.811 362.205,179.434" stroke="#262626" stroke-linecap="butt" stroke-linejoin="miter" stroke-width="0.5"/>
   <polyline fill="none" points="367.656,280.473 367.656,278.85" stroke="#262626" stroke-linecap="butt" stroke-linejoin="miter" stroke-width="0.5"/>
   <polyline fill="none" points="367.656,177.811 367.656,179.434" stroke="#262626" stroke-linecap="butt" stroke-linejoin="miter" stroke-width="0.5"/>
   <polyline fill="none" points="372.377,280.473 372.377,278.85" stroke="#262626" stroke-linecap="butt" stroke-linejoin="miter" stroke-width="0.5"/>
   <polyline fill="none" points="372.377,177.811 372.377,179.434" stroke="#262626" stroke-linecap="butt" stroke-linejoin="miter" stroke-width="0.5"/>
   <polyline fill="none" points="376.541,280.473 376.541,278.85" stroke="#262626" stroke-linecap="butt" stroke-linejoin="miter" stroke-width="0.5"/>
   <polyline fill="none" points="376.541,177.811 376.541,179.434" stroke="#262626" stroke-linecap="butt" stroke-linejoin="miter" stroke-width="0.5"/>
   <polyline fill="none" points="54.6239,280.473 54.6239,277.227" stroke="#262626" stroke-linecap="butt" stroke-linejoin="miter" stroke-width="0.5"/>
   <polyline fill="none" points="54.6239,177.811 54.6239,181.057" stroke="#262626" stroke-linecap="butt" stroke-linejoin="miter" stroke-width="0.5"/>
   <polyline fill="none" points="136.034,280.473 136.034,277.227" stroke="#262626" stroke-linecap="butt" stroke-linejoin="miter" stroke-width="0.5"/>
   <polyline fill="none" points="136.034,177.811 136.034,181.057" stroke="#262626" stroke-linecap="butt" stroke-linejoin="miter" stroke-width="0.5"/>
   <polyline fill="none" points="217.445,280.473 217.445,277.227" stroke="#262626" stroke-linecap="butt" stroke-linejoin="miter" stroke-width="0.5"/>
   <polyline fill="none" points="217.445,177.811 217.445,181.057" stroke="#262626" stroke-linecap="butt" stroke-linejoin="miter" stroke-width="0.5"/>
   <polyline fill="none" points="298.856,280.473 298.856,277.227" stroke="#262626" stroke-linecap="butt" stroke-linejoin="miter" stroke-width="0.5"/>
   <polyline fill="none" points="298.856,177.811 298.856,181.057" stroke="#262626" stroke-linecap="butt" stroke-linejoin="miter" stroke-width="0.5"/>
   <polyline fill="none" points="380.266,280.473 380.266,277.227" stroke="#262626" stroke-linecap="butt" stroke-linejoin="miter" stroke-width="0.5"/>
   <polyline fill="none" points="380.266,177.811 380.266,181.057" stroke="#262626" stroke-linecap="butt" stroke-linejoin="miter" stroke-width="0.5"/>
   <g font-family="FreeSans" font-size="10" font-style="normal" font-weight="normal" transform="translate(46.6239,297.948) rotate(-0,8,-10)" xml:space="preserve">
    <text fill="rgb(38,38,38)" x="0 6 " y="-0">10</text>
    <text fill="rgb(38,38,38)" font-size="7" x="12 " y="-4">1</text>
   </g>
   <g font-family="FreeSans" font-size="10" font-style="normal" font-weight="normal" transform="translate(128.034,297.948) rotate(-0,8,-10)" xml:space="preserve">
    <text fill="rgb(38,38,38)" x="0 6 " y="-0">10</text>
    <text fill="rgb(38,38,38)" font-size="7" x="12 " y="-4">2</text>
   </g>
   <g font-family="FreeSans" font-size="10" font-style="normal" font-weight="normal" transform="translate(209.445,297.948) rotate(-0,8,-10)" xml:space="preserve">
    <text fill="rgb(38,38,38)" x="0 6 " y="-0">10</text>
    <text fill="rgb(38,38,38)" font-size="7" x="12 " y="-4">3</text>
   </g>
   <g font-family="FreeSans" font-size="10" font-style="normal" font-weight="normal" transform="translate(290.856,297.948) rotate(-0,8,-10)" xml:space="preserve">
    <text fill="rgb(38,38,38)" x="0 6 " y="-0">10</text>
    <text fill="rgb(38,38,38)" font-size="7" x="12 " y="-4">4</text>
   </g>
   <g font-family="FreeSans" font-size="10" font-style="normal" font-weight="normal" transform="translate(372.266,297.948) rotate(-0,8,-10)" xml:space="preserve">
    <text fill="rgb(38,38,38)" x="0 6 " y="-0">10</text>
    <text fill="rgb(38,38,38)" font-size="7" x="12 " y="-4">5</text>
   </g>
   <polyline fill="none" points="54.6239,280.473 380.266,280.473" stroke="#262626" stroke-dasharray="16,0" stroke-linecap="butt" stroke-linejoin="miter" stroke-opacity="0.15" stroke-width="0.5"/>
   <polyline fill="none" points="54.6239,254.807 380.266,254.807" stroke="#262626" stroke-dasharray="16,0" stroke-linecap="butt" stroke-linejoin="miter" stroke-opacity="0.15" stroke-width="0.5"/>
   <polyline fill="none" points="54.6239,229.142 380.266,229.142" stroke="#262626" stroke-dasharray="16,0" stroke-linecap="butt" stroke-linejoin="miter" stroke-opacity="0.15" stroke-width="0.5"/>
   <polyline fill="none" points="54.6239,203.476 380.266,203.476" stroke="#262626" stroke-dasharray="16,0" stroke-linecap="butt" stroke-linejoin="miter" stroke-opacity="0.15" stroke-width="0.5"/>
   <polyline fill="none" points="54.6239,177.811 380.266,177.811" stroke="#262626" stroke-dasharray="16,0" stroke-linecap="butt" stroke-linejoin="miter" stroke-opacity="0.15" stroke-width="0.5"/>
   <polyline fill="none" points="54.6239,280.473 57.8767,280.473" stroke="#262626" stroke-linecap="butt" stroke-linejoin="miter" stroke-width="0.5"/>
   <polyline fill="none" points="380.266,280.473 377.013,280.473" stroke="#262626" stroke-linecap="butt" stroke-linejoin="miter" stroke-width="0.5"/>
   <polyline fill="none" points="54.6239,254.807 57.8767,254.807" stroke="#262626" stroke-linecap="butt" stroke-linejoin="miter" stroke-width="0.5"/>
   <polyline fill="none" points="380.266,254.807 377.013,254.807" stroke="#262626" stroke-linecap="butt" stroke-linejoin="miter" stroke-width="0.5"/>
   <polyline fill="none" points="54.6239,229.142 57.8767,229.142" stroke="#262626" stroke-linecap="butt" stroke-linejoin="miter" stroke-width="0.5"/>
   <polyline fill="none" points="380.266,229.142 377.013,229.142" stroke="#262626" stroke-linecap="butt" stroke-linejoin="miter" stroke-width="0.5"/>
   <polyline fill="none" points="54.6239,203.476 57.8767,203.476" stroke="#262626" stroke-linecap="butt" stroke-linejoin="miter" stroke-width="0.5"/>
   <polyline fill="none" points="380.266,203.476 377.013,203.476" stroke="#262626" stroke-linecap="butt" stroke-linejoin="miter" stroke-width="0.5"/>
   <polyline fill="none" points="54.6239,177.811 57.8767,177.811" stroke="#262626" stroke-linecap="butt" stroke-linejoin="miter" stroke-width="0.5"/>
   <polyline fill="none" points="380.266,177.811 377.013,177.811" stroke="#262626" stroke-linecap="butt" stroke-linejoin="miter" stroke-width="0.5"/>
   <g font-family="FreeSans" font-size="10" font-style="normal" font-weight="normal" transform="translate(28.6294,284.473) rotate(-0,21,-4)" xml:space="preserve">
    <text fill="rgb(38,38,38)" x="0 3 9 15 " y="-0">-100</text>
   </g>
   <g font-family="FreeSans" font-size="10" font-style="normal" font-weight="normal" transform="translate(34.6294,258.807) rotate(-0,15,-4)" xml:space="preserve">
    <text fill="rgb(38,38,38)" x="0 3 9 " y="-0">-50</text>
   </g>
   <g font-family="FreeSans" font-size="10" font-style="normal" font-weight="normal" transform="translate(43.6294,233.142) rotate(-0,6,-4)" xml:space="preserve">
    <text fill="rgb(38,38,38)" x="0 " y="-0">0</text>
   </g>
   <g font-family="FreeSans" font-size="10" font-style="normal" font-weight="normal" transform="translate(37.6294,207.476) rotate(-0,12,-4)" xml:space="preserve">
    <text fill="rgb(38,38,38)" x="0 6 " y="-0">50</text>
   </g>
   <g font-family="FreeSans" font-size="10" font-style="normal" font-weight="normal" transform="translate(31.6294,181.811) rotate(-0,18,-4)" xml:space="preserve">
    <text fill="rgb(38,38,38)" x="0 6 12 " y="-0">100</text>
   </g>
   <polyline fill="none" points="54.6239,280.473 380.266,280.473" stroke="#262626" stroke-dasharray="16,0" stroke-linecap="square" stroke-linejoin="miter" stroke-width="0.5"/>
   <polyline fill="none" points="54.6239,177.811 380.266,177.811" stroke="#262626" stroke-dasharray="16,0" stroke-linecap="square" stroke-linejoin="miter" stroke-width="0.5"/>
   <polyline fill="none" points="54.6239,280.473 54.6239,177.811" stroke="#262626" stroke-dasharray="16,0" stroke-linecap="square" stroke-linejoin="miter" stroke-width="0.5"/>
   <polyline fill="none" points="380.266,280.473 380.266,177.811" stroke="#262626" stroke-dasharray="16,0" stroke-linecap="square" stroke-linejoin="miter" stroke-width="0.5"/>
   <g font-family="FreeSans" font-size="11" font-style="normal" font-weight="normal" transform="translate(-3.37064,229.142) rotate(-90,27,0)" xml:space="preserve">
    <text fill="rgb(38,38,38)" x="0 7 13 19 24 30 33 39 45 51 " y="-2">Phase[deg]</text>
   </g>
   <g font-family="FreeSans" font-size="11" font-style="normal" font-weight="normal" transform="translate(181.945,314.948) rotate(-0,35.5,-12)" xml:space="preserve">
    <text fill="rgb(38,38,38)" x="0 7 11 17 23 29 35 41 47 52 55 63 68 " y="-3">Frequency[Hz]</text>
   </g>
   <polyline fill="none" points="71.0542,182.944 71.2986,182.944 71.5431,182.944 71.7876,182.944 72.0321,182.944 72.2765,182.944 72.521,182.944 72.7655,182.944 73.01,182.944 73.2544,182.944 73.4989,182.944 73.7434,182.944 73.9879,182.944 74.2323,182.944 74.4768,182.944 74.7213,182.944 74.9658,182.944 75.2103,182.944 75.4547,182.944 75.6992,182.944 75.9437,182.944 76.1881,182.944 76.4326,182.944 76.6771,182.944 76.9216,182.944 77.1661,182.944 77.4105,182.944 77.655,182.944 77.8995,182.944 78.144,182.944 78.3884,182.944 78.6329,182.944 78.8774,182.944 79.1219,182.944 79.3663,182.944 79.6108,182.944 79.8553,182.944 80.0998,182.944 80.3443,182.944 80.5887,182.944 80.8332,182.944 81.0777,182.944 81.3222,182.944 81.5666,182.944 81.8111,182.944 82.0556,182.944 82.3001,182.944 82.5445,182.944 82.789,182.944 83.0335,182.944 83.278,182.944 83.5224,182.944 83.7669,182.944 84.0114,182.944 84.2559,182.944 84.5004,182.944 84.7448,182.944 84.9893,182.944 85.2338,182.944 85.4783,182.944 85.7227,182.944 85.9672,182.944 86.2117,182.944 86.4562,182.944 86.7006,182.944 86.9451,182.944 87.1896,182.944 87.4341,182.944 87.6785,182.944 87.923,182.944 88.1675,182.944 88.412,182.944 88.6564,182.944 88.9009,182.944 89.1454,182.944 89.3899,182.944 89.6343,182.944 89.8788,182.944 90.1233,182.944 90.3678,182.944 90.6123,182.944 90.8567,182.944 91.1012,182.944 91.3457,182.944 91.5902,182.944 91.8346,182.944 92.0791,182.944 92.3236,182.944 92.5681,182.944 92.8125,182.944 93.057,182.944 93.3015,182.944 93.546,182.944 93.7905,182.944 94.0349,182.944 94.2794,182.944 94.5239,182.944 94.7683,182.944 95.0128,182.944 95.2573,182.944 95.5018,182.944 95.7462,182.944 95.9907,182.944 96.2352,182.944 96.4797,182.944 96.7242,182.944 96.9686,182.944 97.2131,182.944 97.4576,182.944 97.7021,182.944 97.9465,182.944 98.191,182.944 98.4355,182.944 98.68,182.944 98.9244,182.944 99.1689,182.944 99.4134,182.944 99.6579,182.944 99.9024,182.944 100.147,182.944 100.391,182.944 100.636,182.944 100.88,182.944 101.125,182.944 101.369,182.944 101.614,182.944 101.858,182.944 102.103,182.944 102.347,182.944 102.592,182.944 102.836,182.944 103.081,182.944 103.325,182.944 103.569,182.944 103.814,182.944 104.058,182.944 104.303,182.944 104.547,182.944 104.792,182.944 105.036,182.944 105.281,182.944 105.525,182.944 105.77,182.944 106.014,182.944 106.259,182.944 106.503,182.944 106.748,182.944 106.992,182.944 107.237,182.944 107.481,182.944 107.726,182.944 107.97,182.944 108.215,182.944 108.459,182.944 108.703,182.944 108.948,182.944 109.192,182.944 109.437,182.944 109.681,182.944 109.926,182.944 110.17,182.944 110.415,182.944 110.659,182.944 110.904,182.944 111.148,182.944 111.393,182.944 111.637,182.944 111.882,182.944 112.126,182.944 112.371,182.944 112.615,182.944 112.86,182.944 113.104,182.944 113.349,182.944 113.593,182.944 113.838,182.944 114.082,182.944 114.326,182.944 114.571,182.944 114.815,182.944 115.06,182.944 115.304,182.944 115.549,182.944 115.793,182.944 116.038,182.944 116.282,182.944 116.527,182.944 116.771,182.944 117.016,182.944 117.26,182.944 117.505,182.944 117.749,182.944 117.994,182.944 118.238,182.944 118.483,182.944 118.727,182.944 118.971,182.944 119.216,182.944 119.46,182.944 119.705,182.944 119.949,182.944 120.194,182.944 120.438,182.944 120.683,182.944 120.927,182.944 121.172,182.944 121.416,182.944 121.661,182.944 121.905,182.944 122.15,182.944 122.394,182.944 122.639,182.944 122.883,182.944 123.128,182.944 123.372,182.944 123.617,182.944 123.861,182.944 124.105,182.944 124.35,182.944 124.594,182.944 124.839,182.944 125.083,182.944 125.328,182.944 125.572,182.944 125.817,182.944 126.061,182.944 126.306,182.944 126.55,182.944 126.795,182.944 127.039,182.944 127.284,182.944 127.528,182.944 127.773,182.944 128.017,182.944 128.262,182.944 128.506,182.944 128.751,182.944 128.995,182.944 129.24,182.944 129.484,182.944 129.728,182.944 129.973,182.944 130.217,182.944 130.462,182.944 130.706,182.944 130.951,182.944 131.195,182.944 131.44,182.944 131.684,182.944 131.929,182.944 132.173,182.944 132.418,182.944 132.662,182.944 132.907,182.944 133.151,182.944 133.396,182.944 133.64,182.944 133.885,182.944 134.129,182.944 134.374,182.944 134.618,182.944 134.862,182.944 135.107,182.944 135.351,182.944 135.596,182.944 135.84,182.944 136.085,182.944 136.329,182.944 136.574,182.944 136.818,182.944 137.063,182.944 137.307,182.944 137.552,182.944 137.796,182.944 138.041,182.944 138.285,182.944 138.53,182.944 138.774,182.944 139.019,182.944 139.263,182.944 139.507,182.944 139.752,182.944 139.996,182.944 140.241,182.944 140.485,182.944 140.73,182.944 140.974,182.944 141.219,182.944 141.463,182.944 141.708,182.944 141.952,182.944 142.197,182.944 142.441,182.944 142.686,182.944 142.93,182.944 143.175,182.944 143.419,182.944 143.664,182.944 143.908,182.944 144.153,182.944 144.397,182.944 144.642,182.944 144.886,182.944 145.13,182.944 145.375,182.944 145.619,182.944 145.864,182.944 146.108,182.944 146.353,182.944 146.597,182.944 146.842,182.944 147.086,182.944 147.331,182.944 147.575,182.944 147.82,182.944 148.064,182.944 148.309,182.944 148.553,182.944 148.798,182.944 149.042,182.944 149.287,182.944 149.531,182.944 149.775,182.944 150.02,182.944 150.264,182.944 150.509,182.944 150.753,182.944 150.998,182.944 151.242,182.944 151.487,182.944 151.731,182.944 151.976,182.944 152.22,182.944 152.465,182.944 152.709,182.944 152.954,182.944 153.198,182.944 153.443,182.944 153.687,182.944 153.932,182.944 154.176,182.944 154.421,182.944 154.665,182.944 154.91,182.944 155.154,182.944 155.398,182.944 155.643,182.944 155.887,182.944 156.132,182.944 156.376,182.944 156.621,182.944 156.865,182.944 157.11,182.944 157.354,182.944 157.599,182.944 157.843,182.944 158.088,182.944 158.332,182.944 158.577,182.944 158.821,182.944 159.066,182.944 159.31,182.944 159.555,182.944 159.799,182.944 160.044,182.944 160.288,182.944 160.532,182.944 160.777,182.944 161.021,182.944 161.266,182.944 161.51,182.944 161.755,182.944 161.999,182.944 162.244,182.944 162.488,182.944 162.733,182.944 162.977,182.944 163.222,182.944 163.466,182.944 163.711,182.944 163.955,182.944 164.2,182.944 164.444,182.944 164.689,182.944 164.933,182.944 165.178,182.944 165.422,182.944 165.666,182.944 165.911,182.944 166.155,182.944 166.4,182.944 166.644,182.944 166.889,182.944 167.133,182.944 167.378,182.944 167.622,182.944 167.867,182.944 168.111,182.944 168.356,182.944 168.6,182.944 168.845,182.944 169.089,182.944 169.334,182.944 169.578,182.944 169.823,182.944 170.067,182.944 170.312,182.944 170.556,182.944 170.8,182.944 171.045,182.944 171.289,182.944 171.534,182.944 171.778,182.944 172.023,182.944 172.267,182.944 172.512,182.944 172.756,182.944 173.001,182.944 173.245,182.944 173.49,182.944 173.734,182.944 173.979,182.944 174.223,182.944 174.468,182.944 174.712,182.944 174.957,182.944 175.201,182.944 175.446,182.944 175.69,182.944 175.934,182.944 176.179,182.944 176.423,182.944 176.668,182.944 176.912,182.944 177.157,182.944 177.401,182.944 177.646,182.944 177.89,182.944 178.135,182.944 178.379,182.944 178.624,182.944 178.868,182.944 179.113,182.944 179.357,182.944 179.602,182.944 179.846,182.944 180.091,182.944 180.335,182.944 180.58,182.944 180.824,182.944 181.068,182.944 181.313,182.944 181.557,182.944 181.802,182.944 182.046,182.944 182.291,182.944 182.535,182.944 182.78,182.944 183.024,182.944 183.269,182.944 183.513,182.944 183.758,182.944 184.002,182.944 184.247,182.944 184.491,182.944 184.736,182.944 184.98,182.944 185.225,182.944 185.469,182.944 185.714,182.944 185.958,182.944 186.202,182.944 186.447,182.944 186.691,182.944 186.936,182.944 187.18,182.944 187.425,182.944 187.669,182.944 187.914,182.944 188.158,182.944 188.403,182.944 188.647,182.944 188.892,182.944 189.136,182.944 189.381,182.944 189.625,182.944 189.87,182.944 190.114,182.944 190.359,182.944 190.603,182.944 190.848,182.944 191.092,182.944 191.336,182.944 191.581,182.944 191.825,182.944 192.07,182.944 192.314,182.944 192.559,182.944 192.803,182.944 193.048,182.944 193.292,182.944 193.537,182.944 193.781,182.944 194.026,182.944 194.27,182.944 194.515,182.944 194.759,182.944 195.004,182.944 195.248,182.944 195.493,182.944 195.737,182.944 195.982,182.944 196.226,182.944 196.47,182.944 196.715,182.944 196.959,182.944 197.204,182.944 197.448,182.944 197.693,182.944 197.937,182.944 198.182,182.944 198.426,182.944 198.671,182.944 198.915,182.944 199.16,182.944 199.404,182.944 199.649,182.944 199.893,182.944 200.138,182.944 200.382,182.944 200.627,182.944 200.871,182.944 201.116,182.944 201.36,182.944 201.604,182.944 201.849,182.944 202.093,182.944 202.338,182.944 202.582,182.944 202.827,182.944 203.071,182.944 203.316,182.944 203.56,182.944 203.805,182.944 204.049,182.944 204.294,182.944 204.538,182.944 204.783,182.944 205.027,182.944 205.272,182.944 205.516,182.944 205.761,182.944 206.005,182.944 206.25,182.944 206.494,182.944 206.738,182.944 206.983,182.944 207.227,182.944 207.472,182.944 207.716,182.944 207.961,182.944 208.205,182.944 208.45,182.944 208.694,182.944 208.939,182.944 209.183,182.944 209.428,182.944 209.672,182.944 209.917,182.944 210.161,182.944 210.406,182.944 210.65,182.944 210.895,182.944 211.139,182.944 211.384,182.944 211.628,182.944 211.872,182.944 212.117,182.944 212.361,182.944 212.606,182.944 212.85,182.944 213.095,182.944 213.339,182.944 213.584,182.944 213.828,182.944 214.073,182.944 214.317,182.944 214.562,182.944 214.806,182.944 215.051,182.944 215.295,182.944 215.54,182.944 215.784,182.944 216.029,182.944 216.273,182.944 216.518,182.944 216.762,182.944 217.006,182.944 217.251,182.944 217.495,182.944 217.74,182.944 217.984,182.944 218.229,182.944 218.473,182.944 218.718,182.944 218.962,182.944 219.207,182.944 219.451,182.944 219.696,182.944 219.94,182.944 220.185,182.944 220.429,182.944 220.674,182.944 220.918,182.944 221.163,182.944 221.407,182.944 221.652,182.944 221.896,182.944 222.14,182.944 222.385,182.944 222.629,182.944 222.874,182.944 223.118,182.944 223.363,182.944 223.607,182.944 223.852,182.944 224.096,182.944 224.341,182.944 224.585,182.944 224.83,182.944 225.074,182.944 225.319,182.944 225.563,182.944 225.808,182.944 226.052,182.944 226.297,182.944 226.541,182.944 226.786,182.944 227.03,182.944 227.274,182.944 227.519,182.944 227.763,182.944 228.008,182.944 228.252,182.944 228.497,182.944 228.741,182.944 228.986,182.944 229.23,182.944 229.475,182.944 229.719,182.944 229.964,182.944 230.208,182.944 230.453,182.944 230.652,275.339 230.697,275.339 230.942,275.339 231.186,275.339 231.431,275.339 231.675,275.339 231.92,275.339 232.164,275.339 232.408,275.339 232.653,275.339 232.897,275.339 233.142,275.339 233.386,275.339 233.631,275.339 233.875,275.339 234.12,275.339 234.364,275.339 234.609,275.339 234.853,275.339 235.098,275.339 235.342,275.339 235.587,275.339 235.831,275.339 236.076,275.339 236.32,275.339 236.565,275.339 236.809,275.339 237.054,275.339 237.298,275.339 237.542,275.339 237.787,275.339 238.031,275.339 238.276,275.339 238.52,275.339 238.765,275.339 239.009,275.339 239.254,275.339 239.498,275.339 239.743,275.339 239.987,275.339 240.232,275.339 240.476,275.339 240.721,275.339 240.965,275.339 241.21,275.339 241.454,275.339 241.699,275.339 241.943,275.339 242.188,275.339 242.432,275.339 242.676,275.339 242.921,275.339 243.165,275.339 243.41,275.339 243.654,275.339 243.899,275.339 244.143,275.339 244.388,275.339 244.632,275.339 244.877,275.339 245.121,275.339 245.366,275.339 245.61,275.339 245.855,275.339 246.099,275.339 246.344,275.339 246.588,275.339 246.833,275.339 247.077,275.339 247.322,275.339 247.566,275.339 247.81,275.339 248.055,275.339 248.299,275.339 248.544,275.339 248.788,275.339 249.033,275.339 249.277,275.339 249.522,275.339 249.766,275.339 250.011,275.339 250.255,275.339 250.5,275.339 250.744,275.339 250.989,275.339 251.233,275.339 251.478,275.339 251.722,275.339 251.967,275.339 252.211,275.339 252.456,275.339 252.7,275.339 252.944,275.339 253.189,275.339 253.433,275.339 253.678,275.339 253.922,275.339 254.167,275.339 254.411,275.339 254.656,275.339 254.9,275.339 255.145,275.339 255.389,275.339 255.634,275.339 255.878,275.339 256.123,275.339 256.367,275.339 256.612,275.339 256.856,275.339 257.101,275.339 257.345,275.339 257.59,275.339 257.834,275.339 258.078,275.339 258.323,275.339 258.567,275.339 258.812,275.339 259.056,275.339 259.301,275.339 259.545,275.339 259.79,275.339 260.034,275.339 260.279,275.339 260.523,275.339 260.768,275.339 261.012,275.339 261.257,275.339 261.501,275.339 261.746,275.339 261.99,275.339 262.235,275.339 262.479,275.339 262.724,275.339 262.968,275.339 263.212,275.339 263.457,275.339 263.701,275.339 263.946,275.339 264.19,275.339 264.435,275.339 264.679,275.339 264.924,275.339 265.168,275.339 265.413,275.339 265.657,275.339 265.902,275.339 266.146,275.339 266.391,275.339 266.635,275.339 266.88,275.339 267.124,275.339 267.369,275.339 267.613,275.339 267.858,275.339 268.102,275.339 268.346,275.339 268.591,275.339 268.835,275.339 269.08,275.339 269.324,275.339 269.569,275.339 269.813,275.339 270.058,275.339 270.302,275.339 270.547,275.339 270.791,275.339 271.036,275.339 271.28,275.339 271.525,275.339 271.769,275.339 272.014,275.339 272.258,275.339 272.503,275.339 272.747,275.339 272.992,275.339 273.236,275.339 273.48,275.339 273.725,275.339 273.969,275.339 274.214,275.339 274.458,275.339 274.703,275.339 274.947,275.339 275.192,275.339 275.436,275.339 275.681,275.339 275.925,275.339 276.17,275.339 276.414,275.339 276.659,275.339 276.903,275.339 277.148,275.339 277.392,275.339 277.637,275.339 277.881,275.339 278.126,275.339 278.37,275.339 278.615,275.339 278.859,275.339 279.103,275.339 279.348,275.339 279.592,275.339 279.837,275.339 280.081,275.339 280.326,275.339 280.57,275.339 280.815,275.339 281.059,275.339 281.304,275.339 281.548,275.339 281.793,275.339 282.037,275.339 282.282,275.339 282.526,275.339 282.771,275.339 283.015,275.339 283.26,275.339 283.504,275.339 283.749,275.339 283.993,275.339 284.237,275.339 284.482,275.339 284.726,275.339 284.971,275.339 285.215,275.339 285.46,275.339 285.704,275.339 285.949,275.339 286.193,275.339 286.438,275.339 286.682,275.339 286.927,275.339 287.171,275.339 287.416,275.339 287.66,275.339 287.905,275.339 288.149,275.339 288.394,275.339 288.638,275.339 288.882,275.339 289.127,275.339 289.371,275.339 289.616,275.339 289.86,275.339 290.105,275.339 290.349,275.339 290.594,275.339 290.838,275.339 291.083,275.339 291.327,275.339 291.572,275.339 291.816,275.339 292.061,275.339 292.305,275.339 292.55,275.339 292.794,275.339 293.039,275.339 293.283,275.339 293.528,275.339 293.772,275.339 294.016,275.339 294.261,275.339 294.505,275.339 294.75,275.339 294.994,275.339 295.239,275.339 295.483,275.339 295.728,275.339 295.972,275.339 296.217,275.339 296.461,275.339 296.706,275.339 296.95,275.339 297.195,275.339 297.439,275.339 297.684,275.339 297.928,275.339 298.173,275.339 298.417,275.339 298.662,275.339 298.906,275.339 299.151,275.339 299.395,275.339 299.639,275.339 299.884,275.339 300.128,275.339 300.373,275.339 300.617,275.339 300.862,275.339 301.106,275.339 301.351,275.339 301.595,275.339 301.84,275.339 302.084,275.339 302.329,275.339 302.573,275.339 302.818,275.339 303.062,275.339 303.307,275.339 303.551,275.339 303.796,275.339 304.04,275.339 304.285,275.339 304.529,275.339 304.773,275.339 305.018,275.339 305.262,275.339 305.507,275.339 305.751,275.339 305.996,275.339 306.24,275.339 306.485,275.339 306.729,275.339 306.974,275.339 307.218,275.339 307.463,275.339 307.707,275.339 307.952,275.339 308.196,275.339 308.441,275.339 308.685,275.339 308.93,275.339 309.174,275.339 309.418,275.339 309.663,275.339 309.907,275.339 310.152,275.339 310.396,275.339 310.641,275.339 310.885,275.339 311.13,275.339 311.374,275.339 311.619,275.339 311.863,275.339 312.108,275.339 312.352,275.339 312.597,275.339 312.841,275.339 313.086,275.339 313.33,275.339 313.575,275.339 313.819,275.339 314.064,275.339 314.308,275.339 314.552,275.339 314.797,275.339 315.041,275.339 315.286,275.339" stroke="#0071bc" stroke-linecap="butt" stroke-linejoin="round" stroke-width="0.5"/>
  </g>
 </g>
</svg>
