<?xml version='1.0' encoding='UTF-8' standalone='no'?>
<svg height="315pt" viewBox="0 0 420 315" width="420pt" xmlns="http://www.w3.org/2000/svg" xmlns:xlink="http://www.w3.org/1999/xlink">
 <title>Figure 1</title>
 <desc>
Creator: GL2PS 1.4.2, (C) 1999-2020 C. Geuzaine
For: Octave
CreationDate: Sat Jul 11 16:12:15 2026
</desc>
 <defs/>
 <polygon fill="#ffffff" points="0,0 420,0 420,315 0,315"/>
 <g>
  <polygon fill="#ffffff" points="0,315 420,315 420,0 0,0" shape-rendering="crispEdges"/>
  <clipPath id="cp00420315">
   <polygon points="0,315 420,315 420,0 0,0"/>
  </clipPath>
  <g clip-path="url(#cp00420315)">
   <polygon fill="#ffffff" points="54.6239,130.297 380.266,130.297 380.266,27.6353 54.6239,27.6353" shape-rendering="crispEdges"/>
   <polyline fill="none" points="79.1309,130.297 79.1309,27.6353" stroke="#191919" stroke-dasharray="1,3,1,3,1,3,1,3" stroke-linecap="butt" stroke-linejoin="miter" stroke-opacity="0.25" stroke-width="0.5"/>
   <polyline fill="none" points="93.4666,130.297 93.4666,27.6353" stroke="#191919" stroke-dasharray="1,3,1,3,1,3,1,3" stroke-linecap="butt" stroke-linejoin="miter" stroke-opacity="0.25" stroke-width="0.5"/>
   <polyline fill="none" points="103.638,130.297 103.638,27.6353" stroke="#191919" stroke-dasharray="1,3,1,3,1,3,1,3" stroke-linecap="butt" stroke-linejoin="miter" stroke-opacity="0.25" stroke-width="0.5"/>
   <polyline fill="none" points="111.527,130.297 111.527,27.6353" stroke="#191919" stroke-dasharray="1,3,1,3,1,3,1,3" stroke-linecap="butt" stroke-linejoin="miter" stroke-opacity="0.25" stroke-width="0.5"/>
   <polyline fill="none" points="117.974,130.297 117.974,27.6353" stroke="#191919" stroke-dasharray="1,3,1,3,1,3,1,3" stroke-linecap="butt" stroke-linejoin="miter" stroke-opacity="0.25" stroke-width="0.5"/>
   <polyline fill="none" points="123.424,130.297 123.424,27.6353" stroke="#191919" stroke-dasharray="1,3,1,3,1,3,1,3" stroke-linecap="butt" stroke-linejoin="miter" stroke-opacity="0.25" stroke-width="0.5"/>
   <polyline fill="none" points="128.145,130.297 128.145,27.6353" stroke="#191919" stroke-dasharray="1,3,1,3,1,3,1,3" stroke-linecap="butt" stroke-linejoin="miter" stroke-opacity="0.25" stroke-width="0.5"/>
   <polyline fill="none" points="132.309,130.297 132.309,27.6353" stroke="#191919" stroke-dasharray="1,3,1,3,1,3,1,3" stroke-linecap="butt" stroke-linejoin="miter" stroke-opacity="0.25" stroke-width="0.5"/>
   <polyline fill="none" points="160.541,130.297 160.541,27.6353" stroke="#191919" stroke-dasharray="1,3,1,3,1,3,1,3" stroke-linecap="butt" stroke-linejoin="miter" stroke-opacity="0.25" stroke-width="0.5"/>
   <polyline fill="none" points="174.877,130.297 174.877,27.6353" stroke="#191919" stroke-dasharray="1,3,1,3,1,3,1,3" stroke-linecap="butt" stroke-linejoin="miter" stroke-opacity="0.25" stroke-width="0.5"/>
   <polyline fill="none" points="185.049,130.297 185.049,27.6353" stroke="#191919" stroke-dasharray="1,3,1,3,1,3,1,3" stroke-linecap="butt" stroke-linejoin="miter" stroke-opacity="0.25" stroke-width="0.5"/>
   <polyline fill="none" points="192.938,130.297 192.938,27.6353" stroke="#191919" stroke-dasharray="1,3,1,3,1,3,1,3" stroke-linecap="butt" stroke-linejoin="miter" stroke-opacity="0.25" stroke-width="0.5"/>
   <polyline fill="none" points="199.384,130.297 199.384,27.6353" stroke="#191919" stroke-dasharray="1,3,1,3,1,3,1,3" stroke-linecap="butt" stroke-linejoin="miter" stroke-opacity="0.25" stroke-width="0.5"/>
   <polyline fill="none" points="204.834,130.297 204.834,27.6353" stroke="#191919" stroke-dasharray="1,3,1,3,1,3,1,3" stroke-linecap="butt" stroke-linejoin="miter" stroke-opacity="0.25" stroke-width="0.5"/>
   <polyline fill="none" points="209.556,130.297 209.556,27.6353" stroke="#191919" stroke-dasharray="1,3,1,3,1,3,1,3" stroke-linecap="butt" stroke-linejoin="miter" stroke-opacity="0.25" stroke-width="0.5"/>
   <polyline fill="none" points="213.72,130.297 213.72,27.6353" stroke="#191919" stroke-dasharray="1,3,1,3,1,3,1,3" stroke-linecap="butt" stroke-linejoin="miter" stroke-opacity="0.25" stroke-width="0.5"/>
   <polyline fill="none" points="241.952,130.297 241.952,27.6353" stroke="#191919" stroke-dasharray="1,3,1,3,1,3,1,3" stroke-linecap="butt" stroke-linejoin="miter" stroke-opacity="0.25" stroke-width="0.5"/>
   <polyline fill="none" points="256.288,130.297 256.288,27.6353" stroke="#191919" stroke-dasharray="1,3,1,3,1,3,1,3" stroke-linecap="butt" stroke-linejoin="miter" stroke-opacity="0.25" stroke-width="0.5"/>
   <polyline fill="none" points="266.459,130.297 266.459,27.6353" stroke="#191919" stroke-dasharray="1,3,1,3,1,3,1,3" stroke-linecap="butt" stroke-linejoin="miter" stroke-opacity="0.25" stroke-width="0.5"/>
   <polyline fill="none" points="274.349,130.297 274.349,27.6353" stroke="#191919" stroke-dasharray="1,3,1,3,1,3,1,3" stroke-linecap="butt" stroke-linejoin="miter" stroke-opacity="0.25" stroke-width="0.5"/>
   <polyline fill="none" points="280.795,130.297 280.795,27.6353" stroke="#191919" stroke-dasharray="1,3,1,3,1,3,1,3" stroke-linecap="butt" stroke-linejoin="miter" stroke-opacity="0.25" stroke-width="0.5"/>
   <polyline fill="none" points="286.245,130.297 286.245,27.6353" stroke="#191919" stroke-dasharray="1,3,1,3,1,3,1,3" stroke-linecap="butt" stroke-linejoin="miter" stroke-opacity="0.25" stroke-width="0.5"/>
   <polyline fill="none" points="290.966,130.297 290.966,27.6353" stroke="#191919" stroke-dasharray="1,3,1,3,1,3,1,3" stroke-linecap="butt" stroke-linejoin="miter" stroke-opacity="0.25" stroke-width="0.5"/>
   <polyline fill="none" points="295.13,130.297 295.13,27.6353" stroke="#191919" stroke-dasharray="1,3,1,3,1,3,1,3" stroke-linecap="butt" stroke-linejoin="miter" stroke-opacity="0.25" stroke-width="0.5"/>
   <polyline fill="none" points="323.363,130.297 323.363,27.6353" stroke="#191919" stroke-dasharray="1,3,1,3,1,3,1,3" stroke-linecap="butt" stroke-linejoin="miter" stroke-opacity="0.25" stroke-width="0.5"/>
   <polyline fill="none" points="337.698,130.297 337.698,27.6353" stroke="#191919" stroke-dasharray="1,3,1,3,1,3,1,3" stroke-linecap="butt" stroke-linejoin="miter" stroke-opacity="0.25" stroke-width="0.5"/>
   <polyline fill="none" points="347.87,130.297 347.87,27.6353" stroke="#191919" stroke-dasharray="1,3,1,3,1,3,1,3" stroke-linecap="butt" stroke-linejoin="miter" stroke-opacity="0.25" stroke-width="0.5"/>
   <polyline fill="none" points="355.759,130.297 355.759,27.6353" stroke="#191919" stroke-dasharray="1,3,1,3,1,3,1,3" stroke-linecap="butt" stroke-linejoin="miter" stroke-opacity="0.25" stroke-width="0.5"/>
   <polyline fill="none" points="362.205,130.297 362.205,27.6353" stroke="#191919" stroke-dasharray="1,3,1,3,1,3,1,3" stroke-linecap="butt" stroke-linejoin="miter" stroke-opacity="0.25" stroke-width="0.5"/>
   <polyline fill="none" points="367.656,130.297 367.656,27.6353" stroke="#191919" stroke-dasharray="1,3,1,3,1,3,1,3" stroke-linecap="butt" stroke-linejoin="miter" stroke-opacity="0.25" stroke-width="0.5"/>
   <polyline fill="none" points="372.377,130.297 372.377,27.6353" stroke="#191919" stroke-dasharray="1,3,1,3,1,3,1,3" stroke-linecap="butt" stroke-linejoin="miter" stroke-opacity="0.25" stroke-width="0.5"/>
   <polyline fill="none" points="376.541,130.297 376.541,27.6353" stroke="#191919" stroke-dasharray="1,3,1,3,1,3,1,3" stroke-linecap="butt" stroke-linejoin="miter" stroke-opacity="0.25" stroke-width="0.5"/>
   <polyline fill="none" points="54.6239,130.297 54.6239,27.6353" stroke="#262626" stroke-dasharray="16,0" stroke-linecap="butt" stroke-linejoin="miter" stroke-opacity="0.15" stroke-width="0.5"/>
   <polyline fill="none" points="136.034,130.297 136.034,27.6353" stroke="#262626" stroke-dasharray="16,0" stroke-linecap="butt" stroke-linejoin="miter" stroke-opacity="0.15" stroke-width="0.5"/>
   <polyline fill="none" points="217.445,130.297 217.445,27.6353" stroke="#262626" stroke-dasharray="16,0" stroke-linecap="butt" stroke-linejoin="miter" stroke-opacity="0.15" stroke-width="0.5"/>
   <polyline fill="none" points="298.856,130.297 298.856,27.6353" stroke="#262626" stroke-dasharray="16,0" stroke-linecap="butt" stroke-linejoin="miter" stroke-opacity="0.15" stroke-width="0.5"/>
   <polyline fill="none" points="380.266,130.297 380.266,27.6353" stroke="#262626" stroke-dasharray="16,0" stroke-linecap="butt" stroke-linejoin="miter" stroke-opacity="0.15" stroke-width="0.5"/>
   <polyline fill="none" points="79.1309,130.297 79.1309,128.674" stroke="#262626" stroke-linecap="butt" stroke-linejoin="miter" stroke-width="0.5"/>
   <polyline fill="none" points="79.1309,27.6353 79.1309,29.2582" stroke="#262626" stroke-linecap="butt" stroke-linejoin="miter" stroke-width="0.5"/>
   <polyline fill="none" points="93.4666,130.297 93.4666,128.674" stroke="#262626" stroke-linecap="butt" stroke-linejoin="miter" stroke-width="0.5"/>
   <polyline fill="none" points="93.4666,27.6353 93.4666,29.2582" stroke="#262626" stroke-linecap="butt" stroke-linejoin="miter" stroke-width="0.5"/>
   <polyline fill="none" points="103.638,130.297 103.638,128.674" stroke="#262626" stroke-linecap="butt" stroke-linejoin="miter" stroke-width="0.5"/>
   <polyline fill="none" points="103.638,27.6353 103.638,29.2582" stroke="#262626" stroke-linecap="butt" stroke-linejoin="miter" stroke-width="0.5"/>
   <polyline fill="none" points="111.527,130.297 111.527,128.674" stroke="#262626" stroke-linecap="butt" stroke-linejoin="miter" stroke-width="0.5"/>
   <polyline fill="none" points="111.527,27.6353 111.527,29.2582" stroke="#262626" stroke-linecap="butt" stroke-linejoin="miter" stroke-width="0.5"/>
   <polyline fill="none" points="117.974,130.297 117.974,128.674" stroke="#262626" stroke-linecap="butt" stroke-linejoin="miter" stroke-width="0.5"/>
   <polyline fill="none" points="117.974,27.6353 117.974,29.2582" stroke="#262626" stroke-linecap="butt" stroke-linejoin="miter" stroke-width="0.5"/>
   <polyline fill="none" points="123.424,130.297 123.424,128.674" stroke="#262626" stroke-linecap="butt" stroke-linejoin="miter" stroke-width="0.5"/>
   <polyline fill="none" points="123.424,27.6353 123.424,29.2582" stroke="#262626" stroke-linecap="butt" stroke-linejoin="miter" stroke-width="0.5"/>
   <polyline fill="none" points="128.145,130.297 128.145,128.674" stroke="#262626" stroke-linecap="butt" stroke-linejoin="miter" stroke-width="0.5"/>
   <polyline fill="none" points="128.145,27.6353 128.145,29.2582" stroke="#262626" stroke-linecap="butt" stroke-linejoin="miter" stroke-width="0.5"/>
   <polyline fill="none" points="132.309,130.297 132.309,128.674" stroke="#262626" stroke-linecap="butt" stroke-linejoin="miter" stroke-width="0.5"/>
   <polyline fill="none" points="132.309,27.6353 132.309,29.2582" stroke="#262626" stroke-linecap="butt" stroke-linejoin="miter" stroke-width="0.5"/>
   <polyline fill="none" points="160.541,130.297 160.541,128.674" stroke="#262626" stroke-linecap="butt" stroke-linejoin="miter" stroke-width="0.5"/>
   <polyline fill="none" points="160.541,27.6353 160.541,29.2582" stroke="#262626" stroke-linecap="butt" stroke-linejoin="miter" stroke-width="0.5"/>
   <polyline fill="none" points="174.877,130.297 174.877,128.674" stroke="#262626" stroke-linecap="butt" stroke-linejoin="miter" stroke-width="0.5"/>
   <polyline fill="none" points="174.877,27.6353 174.877,29.2582" stroke="#262626" stroke-linecap="butt" stroke-linejoin="miter" stroke-width="0.5"/>
   <polyline fill="none" points="185.049,130.297 185.049,128.674" stroke="#262626" stroke-linecap="butt" stroke-linejoin="miter" stroke-width="0.5"/>
   <polyline fill="none" points="185.049,27.6353 185.049,29.2582" stroke="#262626" stroke-linecap="butt" stroke-linejoin="miter" stroke-width="0.5"/>
   <polyline fill="none" points="192.938,130.297 192.938,128.674" stroke="#262626" stroke-linecap="butt" stroke-linejoin="miter" stroke-width="0.5"/>
   <polyline fill="none" points="192.938,27.6353 192.938,29.2582" stroke="#262626" stroke-linecap="butt" stroke-linejoin="miter" stroke-width="0.5"/>
   <polyline fill="none" points="199.384,130.297 199.384,128.674" stroke="#262626" stroke-linecap="butt" stroke-linejoin="miter" stroke-width="0.5"/>
   <polyline fill="none" points="199.384,27.6353 199.384,29.2582" stroke="#262626" stroke-linecap="butt" stroke-linejoin="miter" stroke-width="0.5"/>
   <polyline fill="none" points="204.834,130.297 204.834,128.674" stroke="#262626" stroke-linecap="butt" stroke-linejoin="miter" stroke-width="0.5"/>
   <polyline fill="none" points="204.834,27.6353 204.834,29.2582" stroke="#262626" stroke-linecap="butt" stroke-linejoin="miter" stroke-width="0.5"/>
   <polyline fill="none" points="209.556,130.297 209.556,128.674" stroke="#262626" stroke-linecap="butt" stroke-linejoin="miter" stroke-width="0.5"/>
   <polyline fill="none" points="209.556,27.6353 209.556,29.2582" stroke="#262626" stroke-linecap="butt" stroke-linejoin="miter" stroke-width="0.5"/>
   <polyline fill="none" points="213.72,130.297 213.72,128.674" stroke="#262626" stroke-linecap="butt" stroke-linejoin="miter" stroke-width="0.5"/>
   <polyline fill="none" points="213.72,27.6353 213.72,29.2582" stroke="#262626" stroke-linecap="butt" stroke-linejoin="miter" stroke-width="0.5"/>
   <polyline fill="none" points="241.952,130.297 241.952,128.674" stroke="#262626" stroke-linecap="butt" stroke-linejoin="miter" stroke-width="0.5"/>
   <polyline fill="none" points="241.952,27.6353 241.952,29.2582" stroke="#262626" stroke-linecap="butt" stroke-linejoin="miter" stroke-width="0.5"/>
   <polyline fill="none" points="256.288,130.297 256.288,128.674" stroke="#262626" stroke-linecap="butt" stroke-linejoin="miter" stroke-width="0.5"/>
   <polyline fill="none" points="256.288,27.6353 256.288,29.2582" stroke="#262626" stroke-linecap="butt" stroke-linejoin="miter" stroke-width="0.5"/>
   <polyline fill="none" points="266.459,130.297 266.459,128.674" stroke="#262626" stroke-linecap="butt" stroke-linejoin="miter" stroke-width="0.5"/>
   <polyline fill="none" points="266.459,27.6353 266.459,29.2582" stroke="#262626" stroke-linecap="butt" stroke-linejoin="miter" stroke-width="0.5"/>
   <polyline fill="none" points="274.349,130.297 274.349,128.674" stroke="#262626" stroke-linecap="butt" stroke-linejoin="miter" stroke-width="0.5"/>
   <polyline fill="none" points="274.349,27.6353 274.349,29.2582" stroke="#262626" stroke-linecap="butt" stroke-linejoin="miter" stroke-width="0.5"/>
   <polyline fill="none" points="280.795,130.297 280.795,128.674" stroke="#262626" stroke-linecap="butt" stroke-linejoin="miter" stroke-width="0.5"/>
   <polyline fill="none" points="280.795,27.6353 280.795,29.2582" stroke="#262626" stroke-linecap="butt" stroke-linejoin="miter" stroke-width="0.5"/>
   <polyline fill="none" points="286.245,130.297 286.245,128.674" stroke="#262626" stroke-linecap="butt" stroke-linejoin="miter" stroke-width="0.5"/>
   <polyline fill="none" points="286.245,27.6353 286.245,29.2582" stroke="#262626" stroke-linecap="butt" stroke-linejoin="miter" stroke-width="0.5"/>
   <polyline fill="none" points="290.966,130.297 290.966,128.674" stroke="#262626" stroke-linecap="butt" stroke-linejoin="miter" stroke-width="0.5"/>
   <polyline fill="none" points="290.966,27.6353 290.966,29.2582" stroke="#262626" stroke-linecap="butt" stroke-linejoin="miter" stroke-width="0.5"/>
   <polyline fill="none" points="295.13,130.297 295.13,128.674" stroke="#262626" stroke-linecap="butt" stroke-linejoin="miter" stroke-width="0.5"/>
   <polyline fill="none" points="295.13,27.6353 295.13,29.2582" stroke="#262626" stroke-linecap="butt" stroke-linejoin="miter" stroke-width="0.5"/>
   <polyline fill="none" points="323.363,130.297 323.363,128.674" stroke="#262626" stroke-linecap="butt" stroke-linejoin="miter" stroke-width="0.5"/>
   <polyline fill="none" points="323.363,27.6353 323.363,29.2582" stroke="#262626" stroke-linecap="butt" stroke-linejoin="miter" stroke-width="0.5"/>
   <polyline fill="none" points="337.698,130.297 337.698,128.674" stroke="#262626" stroke-linecap="butt" stroke-linejoin="miter" stroke-width="0.5"/>
   <polyline fill="none" points="337.698,27.6353 337.698,29.2582" stroke="#262626" stroke-linecap="butt" stroke-linejoin="miter" stroke-width="0.5"/>
   <polyline fill="none" points="347.87,130.297 347.87,128.674" stroke="#262626" stroke-linecap="butt" stroke-linejoin="miter" stroke-width="0.5"/>
   <polyline fill="none" points="347.87,27.6353 347.87,29.2582" stroke="#262626" stroke-linecap="butt" stroke-linejoin="miter" stroke-width="0.5"/>
   <polyline fill="none" points="355.759,130.297 355.759,128.674" stroke="#262626" stroke-linecap="butt" stroke-linejoin="miter" stroke-width="0.5"/>
   <polyline fill="none" points="355.759,27.6353 355.759,29.2582" stroke="#262626" stroke-linecap="butt" stroke-linejoin="miter" stroke-width="0.5"/>
   <polyline fill="none" points="362.205,130.297 362.205,128.674" stroke="#262626" stroke-linecap="butt" stroke-linejoin="miter" stroke-width="0.5"/>
   <polyline fill="none" points="362.205,27.6353 362.205,29.2582" stroke="#262626" stroke-linecap="butt" stroke-linejoin="miter" stroke-width="0.5"/>
   <polyline fill="none" points="367.656,130.297 367.656,128.674" stroke="#262626" stroke-linecap="butt" stroke-linejoin="miter" stroke-width="0.5"/>
   <polyline fill="none" points="367.656,27.6353 367.656,29.2582" stroke="#262626" stroke-linecap="butt" stroke-linejoin="miter" stroke-width="0.5"/>
   <polyline fill="none" points="372.377,130.297 372.377,128.674" stroke="#262626" stroke-linecap="butt" stroke-linejoin="miter" stroke-width="0.5"/>
   <polyline fill="none" points="372.377,27.6353 372.377,29.2582" stroke="#262626" stroke-linecap="butt" stroke-linejoin="miter" stroke-width="0.5"/>
   <polyline fill="none" points="376.541,130.297 376.541,128.674" stroke="#262626" stroke-linecap="butt" stroke-linejoin="miter" stroke-width="0.5"/>
   <polyline fill="none" points="376.541,27.6353 376.541,29.2582" stroke="#262626" stroke-linecap="butt" stroke-linejoin="miter" stroke-width="0.5"/>
   <polyline fill="none" points="54.6239,130.297 54.6239,127.051" stroke="#262626" stroke-linecap="butt" stroke-linejoin="miter" stroke-width="0.5"/>
   <polyline fill="none" points="54.6239,27.6353 54.6239,30.881" stroke="#262626" stroke-linecap="butt" stroke-linejoin="miter" stroke-width="0.5"/>
   <polyline fill="none" points="136.034,130.297 136.034,127.051" stroke="#262626" stroke-linecap="butt" stroke-linejoin="miter" stroke-width="0.5"/>
   <polyline fill="none" points="136.034,27.6353 136.034,30.881" stroke="#262626" stroke-linecap="butt" stroke-linejoin="miter" stroke-width="0.5"/>
   <polyline fill="none" points="217.445,130.297 217.445,127.051" stroke="#262626" stroke-linecap="butt" stroke-linejoin="miter" stroke-width="0.5"/>
   <polyline fill="none" points="217.445,27.6353 217.445,30.881" stroke="#262626" stroke-linecap="butt" stroke-linejoin="miter" stroke-width="0.5"/>
   <polyline fill="none" points="298.856,130.297 298.856,127.051" stroke="#262626" stroke-linecap="butt" stroke-linejoin="miter" stroke-width="0.5"/>
   <polyline fill="none" points="298.856,27.6353 298.856,30.881" stroke="#262626" stroke-linecap="butt" stroke-linejoin="miter" stroke-width="0.5"/>
   <polyline fill="none" points="380.266,130.297 380.266,127.051" stroke="#262626" stroke-linecap="butt" stroke-linejoin="miter" stroke-width="0.5"/>
   <polyline fill="none" points="380.266,27.6353 380.266,30.881" stroke="#262626" stroke-linecap="butt" stroke-linejoin="miter" stroke-width="0.5"/>
   <g font-family="FreeSans" font-size="10" font-style="normal" font-weight="normal" transform="translate(46.6239,147.772) rotate(-0,8,-10)" xml:space="preserve">
    <text fill="rgb(38,38,38)" x="0 6 " y="-0">10</text>
    <text fill="rgb(38,38,38)" font-size="7" x="12 " y="-4">1</text>
   </g>
   <g font-family="FreeSans" font-size="10" font-style="normal" font-weight="normal" transform="translate(128.034,147.772) rotate(-0,8,-10)" xml:space="preserve">
    <text fill="rgb(38,38,38)" x="0 6 " y="-0">10</text>
    <text fill="rgb(38,38,38)" font-size="7" x="12 " y="-4">2</text>
   </g>
   <g font-family="FreeSans" font-size="10" font-style="normal" font-weight="normal" transform="translate(209.445,147.772) rotate(-0,8,-10)" xml:space="preserve">
    <text fill="rgb(38,38,38)" x="0 6 " y="-0">10</text>
    <text fill="rgb(38,38,38)" font-size="7" x="12 " y="-4">3</text>
   </g>
   <g font-family="FreeSans" font-size="10" font-style="normal" font-weight="normal" transform="translate(290.856,147.772) rotate(-0,8,-10)" xml:space="preserve">
    <text fill="rgb(38,38,38)" x="0 6 " y="-0">10</text>
    <text fill="rgb(38,38,38)" font-size="7" x="12 " y="-4">4</text>
   </g>
   <g font-family="FreeSans" font-size="10" font-style="normal" font-weight="normal" transform="translate(372.266,147.772) rotate(-0,8,-10)" xml:space="preserve">
    <text fill="rgb(38,38,38)" x="0 6 " y="-0">10</text>
    <text fill="rgb(38,38,38)" font-size="7" x="12 " y="-4">5</text>
   </g>
   <polyline fill="none" points="54.6239,130.297 380.266,130.297" stroke="#262626" stroke-dasharray="16,0" stroke-linecap="butt" stroke-linejoin="miter" stroke-opacity="0.15" stroke-width="0.5"/>
   <polyline fill="none" points="54.6239,109.765 380.266,109.765" stroke="#262626" stroke-dasharray="16,0" stroke-linecap="butt" stroke-linejoin="miter" stroke-opacity="0.15" stroke-width="0.5"/>
   <polyline fill="none" points="54.6239,89.2324 380.266,89.2324" stroke="#262626" stroke-dasharray="16,0" stroke-linecap="butt" stroke-linejoin="miter" stroke-opacity="0.15" stroke-width="0.5"/>
   <polyline fill="none" points="54.6239,68.7 380.266,68.7" stroke="#262626" stroke-dasharray="16,0" stroke-linecap="butt" stroke-linejoin="miter" stroke-opacity="0.15" stroke-width="0.5"/>
   <polyline fill="none" points="54.6239,48.1677 380.266,48.1677" stroke="#262626" stroke-dasharray="16,0" stroke-linecap="butt" stroke-linejoin="miter" stroke-opacity="0.15" stroke-width="0.5"/>
   <polyline fill="none" points="54.6239,27.6353 380.266,27.6353" stroke="#262626" stroke-dasharray="16,0" stroke-linecap="butt" stroke-linejoin="miter" stroke-opacity="0.15" stroke-width="0.5"/>
   <polyline fill="none" points="54.6239,130.297 57.8767,130.297" stroke="#262626" stroke-linecap="butt" stroke-linejoin="miter" stroke-width="0.5"/>
   <polyline fill="none" points="380.266,130.297 377.013,130.297" stroke="#262626" stroke-linecap="butt" stroke-linejoin="miter" stroke-width="0.5"/>
   <polyline fill="none" points="54.6239,109.765 57.8767,109.765" stroke="#262626" stroke-linecap="butt" stroke-linejoin="miter" stroke-width="0.5"/>
   <polyline fill="none" points="380.266,109.765 377.013,109.765" stroke="#262626" stroke-linecap="butt" stroke-linejoin="miter" stroke-width="0.5"/>
   <polyline fill="none" points="54.6239,89.2324 57.8767,89.2324" stroke="#262626" stroke-linecap="butt" stroke-linejoin="miter" stroke-width="0.5"/>
   <polyline fill="none" points="380.266,89.2324 377.013,89.2324" stroke="#262626" stroke-linecap="butt" stroke-linejoin="miter" stroke-width="0.5"/>
   <polyline fill="none" points="54.6239,68.7 57.8767,68.7" stroke="#262626" stroke-linecap="butt" stroke-linejoin="miter" stroke-width="0.5"/>
   <polyline fill="none" points="380.266,68.7 377.013,68.7" stroke="#262626" stroke-linecap="butt" stroke-linejoin="miter" stroke-width="0.5"/>
   <polyline fill="none" points="54.6239,48.1677 57.8767,48.1677" stroke="#262626" stroke-linecap="butt" stroke-linejoin="miter" stroke-width="0.5"/>
   <polyline fill="none" points="380.266,48.1677 377.013,48.1677" stroke="#262626" stroke-linecap="butt" stroke-linejoin="miter" stroke-width="0.5"/>
   <polyline fill="none" points="54.6239,27.6353 57.8767,27.6353" stroke="#262626" stroke-linecap="butt" stroke-linejoin="miter" stroke-width="0.5"/>
   <polyline fill="none" points="380.266,27.6353 377.013,27.6353" stroke="#262626" stroke-linecap="butt" stroke-linejoin="miter" stroke-width="0.5"/>
   <g font-family="FreeSans" font-size="10" font-style="normal" font-weight="normal" transform="translate(28.6294,134.297) rotate(-0,21,-4)" xml:space="preserve">
    <text fill="rgb(38,38,38)" x="0 3 9 15 " y="-0">-200</text>
   </g>
   <g font-family="FreeSans" font-size="10" font-style="normal" font-weight="normal" transform="translate(28.6294,113.765) rotate(-0,21,-4)" xml:space="preserve">
    <text fill="rgb(38,38,38)" x="0 3 9 15 " y="-0">-100</text>
   </g>
   <g font-family="FreeSans" font-size="10" font-style="normal" font-weight="normal" transform="translate(43.6294,93.2324) rotate(-0,6,-4)" xml:space="preserve">
    <text fill="rgb(38,38,38)" x="0 " y="-0">0</text>
   </g>
   <g font-family="FreeSans" font-size="10" font-style="normal" font-weight="normal" transform="translate(31.6294,72.7) rotate(-0,18,-4)" xml:space="preserve">
    <text fill="rgb(38,38,38)" x="0 6 12 " y="-0">100</text>
   </g>
   <g font-family="FreeSans" font-size="10" font-style="normal" font-weight="normal" transform="translate(31.6294,52.1677) rotate(-0,18,-4)" xml:space="preserve">
    <text fill="rgb(38,38,38)" x="0 6 12 " y="-0">200</text>
   </g>
   <g font-family="FreeSans" font-size="10" font-style="normal" font-weight="normal" transform="translate(31.6294,31.6353) rotate(-0,18,-4)" xml:space="preserve">
    <text fill="rgb(38,38,38)" x="0 6 12 " y="-0">300</text>
   </g>
   <polyline fill="none" points="54.6239,130.297 380.266,130.297" stroke="#262626" stroke-dasharray="16,0" stroke-linecap="square" stroke-linejoin="miter" stroke-width="0.5"/>
   <polyline fill="none" points="54.6239,27.6353 380.266,27.6353" stroke="#262626" stroke-dasharray="16,0" stroke-linecap="square" stroke-linejoin="miter" stroke-width="0.5"/>
   <polyline fill="none" points="54.6239,130.297 54.6239,27.6353" stroke="#262626" stroke-dasharray="16,0" stroke-linecap="square" stroke-linejoin="miter" stroke-width="0.5"/>
   <polyline fill="none" points="380.266,130.297 380.266,27.6353" stroke="#262626" stroke-dasharray="16,0" stroke-linecap="square" stroke-linejoin="miter" stroke-width="0.5"/>
   <g font-family="FreeSans" font-size="11" font-style="normal" font-weight="bold" transform="translate(186.945,17.6353) rotate(-0,30.5,0)" xml:space="preserve">
    <text fill="rgb(0,0,0)" x="0 8 15 22 28 31 35 38 47 51 57 " y="-3">Bode - G(s)</text>
   </g>
   <g font-family="FreeSans" font-size="11" font-style="normal" font-weight="normal" transform="translate(-10.8706,78.9662) rotate(-90,34.5,0)" xml:space="preserve">
    <text fill="rgb(38,38,38)" x="0 9 15 21 27 29 32 38 44 50 53 59 66 " y="-2">Magnitude[dB]</text>
   </g>
   <polyline fill="none" points="71.0542,93.3418 71.2986,93.3541 71.5431,93.3664 71.7876,93.3787 72.0321,93.3911 72.2765,93.4034 72.521,93.4157 72.7655,93.428 73.01,93.4403 73.2544,93.4527 73.4989,93.465 73.7434,93.4773 73.9879,93.4896 74.2323,93.502 74.4768,93.5143 74.7213,93.5266 74.9658,93.5389 75.2103,93.5512 75.4547,93.5636 75.6992,93.5759 75.9437,93.5882 76.1881,93.6005 76.4326,93.6128 76.6771,93.6252 76.9216,93.6375 77.1661,93.6498 77.4105,93.6621 77.655,93.6744 77.8995,93.6868 78.144,93.6991 78.3884,93.7114 78.6329,93.7237 78.8774,93.736 79.1219,93.7483 79.3663,93.7607 79.6108,93.773 79.8553,93.7853 80.0998,93.7976 80.3443,93.8099 80.5887,93.8223 80.8332,93.8346 81.0777,93.8469 81.3222,93.8592 81.5666,93.8715 81.8111,93.8838 82.0556,93.8961 82.3001,93.9084 82.5445,93.9208 82.789,93.9331 83.0335,93.9454 83.278,93.9577 83.5224,93.97 83.7669,93.9823 84.0114,93.9947 84.2559,94.007 84.5004,94.0193 84.7448,94.0316 84.9893,94.0439 85.2338,94.0562 85.4783,94.0685 85.7227,94.0808 85.9672,94.0932 86.2117,94.1055 86.4562,94.1178 86.7006,94.1301 86.9451,94.1424 87.1896,94.1547 87.4341,94.167 87.6785,94.1793 87.923,94.1916 88.1675,94.2039 88.412,94.2162 88.6564,94.2286 88.9009,94.2409 89.1454,94.2532 89.3899,94.2655 89.6343,94.2778 89.8788,94.2901 90.1233,94.3024 90.3678,94.3147 90.6123,94.327 90.8567,94.3393 91.1012,94.3516 91.3457,94.3639 91.5902,94.3762 91.8346,94.3885 92.0791,94.4008 92.3236,94.4131 92.5681,94.4254 92.8125,94.4377 93.057,94.45 93.3015,94.4623 93.546,94.4746 93.7905,94.4869 94.0349,94.4992 94.2794,94.5115 94.5239,94.5238 94.7683,94.5361 95.0128,94.5484 95.2573,94.5607 95.5018,94.573 95.7462,94.5853 95.9907,94.5976 96.2352,94.6099 96.4797,94.6222 96.7242,94.6345 96.9686,94.6468 97.2131,94.6591 97.4576,94.6714 97.7021,94.6837 97.9465,94.696 98.191,94.7083 98.4355,94.7206 98.68,94.7328 98.9244,94.7451 99.1689,94.7574 99.4134,94.7697 99.6579,94.782 99.9024,94.7943 100.147,94.8066 100.391,94.8188 100.636,94.8311 100.88,94.8434 101.125,94.8557 101.369,94.868 101.614,94.8803 101.858,94.8925 102.103,94.9048 102.347,94.9171 102.592,94.9294 102.836,94.9417 103.081,94.9539 103.325,94.9662 103.569,94.9785 103.814,94.9908 104.058,95.0031 104.303,95.0153 104.547,95.0276 104.792,95.0399 105.036,95.0521 105.281,95.0644 105.525,95.0767 105.77,95.0889 106.014,95.1012 106.259,95.1135 106.503,95.1257 106.748,95.138 106.992,95.1503 107.237,95.1625 107.481,95.1748 107.726,95.1871 107.97,95.1993 108.215,95.2116 108.459,95.2238 108.703,95.2361 108.948,95.2484 109.192,95.2606 109.437,95.2729 109.681,95.2851 109.926,95.2974 110.17,95.3096 110.415,95.3219 110.659,95.3341 110.904,95.3464 111.148,95.3586 111.393,95.3708 111.637,95.3831 111.882,95.3953 112.126,95.4076 112.371,95.4198 112.615,95.4321 112.86,95.4443 113.104,95.4565 113.349,95.4688 113.593,95.481 113.838,95.4932 114.082,95.5055 114.326,95.5177 114.571,95.5299 114.815,95.5422 115.06,95.5544 115.304,95.5666 115.549,95.5788 115.793,95.591 116.038,95.6033 116.282,95.6155 116.527,95.6277 116.771,95.6399 117.016,95.6521 117.26,95.6643 117.505,95.6765 117.749,95.6888 117.994,95.701 118.238,95.7132 118.483,95.7254 118.727,95.7376 118.971,95.7498 119.216,95.762 119.46,95.7742 119.705,95.7863 119.949,95.7985 120.194,95.8107 120.438,95.8229 120.683,95.8351 120.927,95.8473 121.172,95.8595 121.416,95.8716 121.661,95.8838 121.905,95.896 122.15,95.9082 122.394,95.9203 122.639,95.9325 122.883,95.9447 123.128,95.9568 123.372,95.969 123.617,95.9812 123.861,95.9933 124.105,96.0055 124.35,96.0176 124.594,96.0298 124.839,96.0419 125.083,96.054 125.328,96.0662 125.572,96.0783 125.817,96.0905 126.061,96.1026 126.306,96.1147 126.55,96.1269 126.795,96.139 127.039,96.1511 127.284,96.1632 127.528,96.1753 127.773,96.1875 128.017,96.1996 128.262,96.2117 128.506,96.2238 128.751,96.2359 128.995,96.248 129.24,96.2601 129.484,96.2721 129.728,96.2842 129.973,96.2963 130.217,96.3084 130.462,96.3205 130.706,96.3325 130.951,96.3446 131.195,96.3567 131.44,96.3687 131.684,96.3808 131.929,96.3928 132.173,96.4049 132.418,96.4169 132.662,96.429 132.907,96.441 133.151,96.453 133.396,96.4651 133.64,96.4771 133.885,96.4891 134.129,96.5011 134.374,96.5132 134.618,96.5252 134.862,96.5372 135.107,96.5492 135.351,96.5612 135.596,96.5731 135.84,96.5851 136.085,96.5971 136.329,96.6091 136.574,96.621 136.818,96.633 137.063,96.645 137.307,96.6569 137.552,96.6689 137.796,96.6808 138.041,96.6927 138.285,96.7047 138.53,96.7166 138.774,96.7285 139.019,96.7404 139.263,96.7523 139.507,96.7642 139.752,96.7761 139.996,96.788 140.241,96.7999 140.485,96.8118 140.73,96.8237 140.974,96.8355 141.219,96.8474 141.463,96.8592 141.708,96.8711 141.952,96.8829 142.197,96.8947 142.441,96.9066 142.686,96.9184 142.93,96.9302 143.175,96.942 143.419,96.9538 143.664,96.9656 143.908,96.9773 144.153,96.9891 144.397,97.0009 144.642,97.0126 144.886,97.0244 145.13,97.0361 145.375,97.0478 145.619,97.0595 145.864,97.0713 146.108,97.083 146.353,97.0947 146.597,97.1063 146.842,97.118 147.086,97.1297 147.331,97.1413 147.575,97.153 147.82,97.1646 148.064,97.1762 148.309,97.1879 148.553,97.1995 148.798,97.2111 149.042,97.2226 149.287,97.2342 149.531,97.2458 149.775,97.2573 150.02,97.2689 150.264,97.2804 150.509,97.2919 150.753,97.3034 150.998,97.3149 151.242,97.3264 151.487,97.3379 151.731,97.3493 151.976,97.3608 152.22,97.3722 152.465,97.3836 152.709,97.395 152.954,97.4064 153.198,97.4178 153.443,97.4292 153.687,97.4405 153.932,97.4519 154.176,97.4632 154.421,97.4745 154.665,97.4858 154.91,97.4971 155.154,97.5083 155.398,97.5196 155.643,97.5308 155.887,97.542 156.132,97.5532 156.376,97.5644 156.621,97.5756 156.865,97.5867 157.11,97.5978 157.354,97.6089 157.599,97.6201 157.843,97.6311 158.088,97.6422 158.332,97.6532 158.577,97.6642 158.821,97.6752 159.066,97.6862 159.31,97.6972 159.555,97.7081 159.799,97.7191 160.044,97.73 160.288,97.7408 160.532,97.7517 160.777,97.7625 161.021,97.7734 161.266,97.7842 161.51,97.7949 161.755,97.8057 161.999,97.8164 162.244,97.8271 162.488,97.8378 162.733,97.8484 162.977,97.8591 163.222,97.8697 163.466,97.8802 163.711,97.8908 163.955,97.9013 164.2,97.9118 164.444,97.9223 164.689,97.9327 164.933,97.9431 165.178,97.9535 165.422,97.9639 165.666,97.9742 165.911,97.9845 166.155,97.9947 166.4,98.005 166.644,98.0152 166.889,98.0253 167.133,98.0355 167.378,98.0456 167.622,98.0556 167.867,98.0657 168.111,98.0757 168.356,98.0856 168.6,98.0956 168.845,98.1054 169.089,98.1153 169.334,98.1251 169.578,98.1349 169.823,98.1446 170.067,98.1543 170.312,98.164 170.556,98.1736 170.8,98.1832 171.045,98.1927 171.289,98.2022 171.534,98.2116 171.778,98.221 172.023,98.2303 172.267,98.2397 172.512,98.2489 172.756,98.2581 173.001,98.2673 173.245,98.2764 173.49,98.2854 173.734,98.2944 173.979,98.3034 174.223,98.3123 174.468,98.3211 174.712,98.3299 174.957,98.3387 175.201,98.3473 175.446,98.356 175.69,98.3645 175.934,98.373 176.179,98.3814 176.423,98.3898 176.668,98.3981 176.912,98.4064 177.157,98.4145 177.401,98.4226 177.646,98.4307 177.89,98.4386 178.135,98.4465 178.379,98.4544 178.624,98.4621 178.868,98.4698 179.113,98.4774 179.357,98.4849 179.602,98.4923 179.846,98.4997 180.091,98.507 180.335,98.5141 180.58,98.5213 180.824,98.5283 181.068,98.5352 181.313,98.542 181.557,98.5487 181.802,98.5554 182.046,98.5619 182.291,98.5684 182.535,98.5747 182.78,98.5809 183.024,98.5871 183.269,98.5931 183.513,98.599 183.758,98.6048 184.002,98.6105 184.247,98.616 184.491,98.6215 184.736,98.6268 184.98,98.632 185.225,98.637 185.469,98.642 185.714,98.6468 185.958,98.6514 186.202,98.6559 186.447,98.6603 186.691,98.6645 186.936,98.6686 187.18,98.6725 187.425,98.6763 187.669,98.6799 187.914,98.6833 188.158,98.6866 188.403,98.6897 188.647,98.6926 188.892,98.6954 189.136,98.6979 189.381,98.7003 189.625,98.7024 189.87,98.7044 190.114,98.7061 190.359,98.7077 190.603,98.709 190.848,98.7101 191.092,98.711 191.336,98.7116 191.581,98.712 191.825,98.7122 192.07,98.7121 192.314,98.7117 192.559,98.711 192.803,98.7101 193.048,98.7089 193.292,98.7074 193.537,98.7056 193.781,98.7035 194.026,98.7011 194.27,98.6983 194.515,98.6952 194.759,98.6917 195.004,98.6879 195.248,98.6837 195.493,98.6791 195.737,98.6741 195.982,98.6687 196.226,98.6629 196.47,98.6566 196.715,98.6499 196.959,98.6427 197.204,98.6349 197.448,98.6267 197.693,98.618 197.937,98.6087 198.182,98.5988 198.426,98.5883 198.671,98.5772 198.915,98.5655 199.16,98.5531 199.404,98.54 199.649,98.5262 199.893,98.5116 200.138,98.4962 200.382,98.48 200.627,98.4629 200.871,98.4449 201.116,98.4259 201.36,98.4059 201.604,98.3849 201.849,98.3627 202.093,98.3394 202.338,98.3149 202.582,98.289 202.827,98.2617 203.071,98.233 203.316,98.2027 203.56,98.1708 203.805,98.1371 204.049,98.1015 204.294,98.0638 204.538,98.024 204.783,97.9819 205.027,97.9373 205.272,97.89 205.516,97.8397 205.761,97.7862 206.005,97.7293 206.25,97.6685 206.494,97.6035 206.738,97.5338 206.983,97.459 207.227,97.3783 207.472,97.2912 207.716,97.1966 207.961,97.0936 208.205,96.9809 208.45,96.8568 208.694,96.7192 208.939,96.5654 209.183,96.3919 209.428,96.1937 209.672,95.9637 209.917,95.6912 210.161,95.3593 210.406,94.9379 210.65,94.3665 210.895,93.4896 211.139,91.6015 211.266,35.2923 211.384,91.4826 211.628,93.5157 211.872,94.4611 212.117,95.0901 212.361,95.5654 212.606,95.9495 212.85,96.2733 213.095,96.5541 213.339,96.8027 213.584,97.0265 213.828,97.2303 214.073,97.4178 214.317,97.5917 214.562,97.7542 214.806,97.9069 215.051,98.0511 215.295,98.1879 215.54,98.3181 215.784,98.4425 216.029,98.5616 216.273,98.6761 216.518,98.7864 216.762,98.8929 217.006,98.9958 217.251,99.0955 217.495,99.1923 217.74,99.2864 217.984,99.3779 218.229,99.4671 218.473,99.5541 218.718,99.6391 218.962,99.7223 219.207,99.8036 219.451,99.8833 219.696,99.9614 219.94,100.038 220.185,100.113 220.429,100.187 220.674,100.26 220.918,100.331 221.163,100.402 221.407,100.471 221.652,100.54 221.896,100.607 222.14,100.673 222.385,100.739 222.629,100.804 222.874,100.868 223.118,100.931 223.363,100.993 223.607,101.055 223.852,101.116 224.096,101.177 224.341,101.236 224.585,101.296 224.83,101.354 225.074,101.412 225.319,101.47 225.563,101.527 225.808,101.584 226.052,101.64 226.297,101.695 226.541,101.75 226.786,101.805 227.03,101.86 227.274,101.913 227.519,101.967 227.763,102.02 228.008,102.073 228.252,102.125 228.497,102.178 228.741,102.229 228.986,102.281 229.23,102.332 229.475,102.383 229.719,102.433 229.964,102.484 230.208,102.533 230.453,102.583 230.697,102.633 230.942,102.682 231.186,102.731 231.431,102.779 231.675,102.828 231.92,102.876 232.164,102.924 232.408,102.972 232.653,103.02 232.897,103.067 233.142,103.114 233.386,103.161 233.631,103.208 233.875,103.254 234.12,103.301 234.364,103.347 234.609,103.393 234.853,103.439 235.098,103.485 235.342,103.53 235.587,103.576 235.831,103.621 236.076,103.666 236.32,103.711 236.565,103.756 236.809,103.801 237.054,103.845 237.298,103.89 237.542,103.934 237.787,103.978 238.031,104.022 238.276,104.066 238.52,104.11 238.765,104.153 239.009,104.197 239.254,104.24 239.498,104.284 239.743,104.327 239.987,104.37 240.232,104.413 240.476,104.456 240.721,104.499 240.965,104.541 241.21,104.584 241.454,104.626 241.699,104.669 241.943,104.711 242.188,104.753 242.432,104.795 242.676,104.838 242.921,104.879 243.165,104.921 243.41,104.963 243.654,105.005 243.899,105.047 244.143,105.088 244.388,105.13 244.632,105.171 244.877,105.212 245.121,105.254 245.366,105.295 245.61,105.336 245.855,105.377 246.099,105.418 246.344,105.459 246.588,105.5 246.833,105.541 247.077,105.582 247.322,105.622 247.566,105.663 247.81,105.704 248.055,105.744 248.299,105.785 248.544,105.825 248.788,105.865 249.033,105.906 249.277,105.946 249.522,105.986 249.766,106.026 250.011,106.067 250.255,106.107 250.5,106.147 250.744,106.187 250.989,106.227 251.233,106.267 251.478,106.306 251.722,106.346 251.967,106.386 252.211,106.426 252.456,106.465 252.7,106.505 252.944,106.545 253.189,106.584 253.433,106.624 253.678,106.663 253.922,106.703 254.167,106.742 254.411,106.781 254.656,106.821 254.9,106.86 255.145,106.899 255.389,106.938 255.634,106.978 255.878,107.017 256.123,107.056 256.367,107.095 256.612,107.134 256.856,107.173 257.101,107.212 257.345,107.251 257.59,107.29 257.834,107.329 258.078,107.368 258.323,107.407 258.567,107.445 258.812,107.484 259.056,107.523 259.301,107.562 259.545,107.601 259.79,107.639 260.034,107.678 260.279,107.717 260.523,107.755 260.768,107.794 261.012,107.832 261.257,107.871 261.501,107.91 261.746,107.948 261.99,107.986 262.235,108.025 262.479,108.063 262.724,108.102 262.968,108.14 263.212,108.179 263.457,108.217 263.701,108.255 263.946,108.294 264.19,108.332 264.435,108.37 264.679,108.409 264.924,108.447 265.168,108.485 265.413,108.523 265.657,108.561 265.902,108.6 266.146,108.638 266.391,108.676 266.635,108.714 266.88,108.752 267.124,108.79 267.369,108.828 267.613,108.866 267.858,108.904 268.102,108.942 268.346,108.98 268.591,109.018 268.835,109.056 269.08,109.094 269.324,109.132 269.569,109.17 269.813,109.208 270.058,109.246 270.302,109.284 270.547,109.322 270.791,109.36 271.036,109.398 271.28,109.436 271.525,109.473 271.769,109.511 272.014,109.549 272.258,109.587 272.503,109.625 272.747,109.663 272.992,109.7 273.236,109.738 273.48,109.776 273.725,109.814 273.969,109.851 274.214,109.889 274.458,109.927 274.703,109.964 274.947,110.002 275.192,110.04 275.436,110.077 275.681,110.115 275.925,110.153 276.17,110.19 276.414,110.228 276.659,110.266 276.903,110.303 277.148,110.341 277.392,110.379 277.637,110.416 277.881,110.454 278.126,110.491 278.37,110.529 278.615,110.566 278.859,110.604 279.103,110.641 279.348,110.679 279.592,110.717 279.837,110.754 280.081,110.792 280.326,110.829 280.57,110.867 280.815,110.904 281.059,110.942 281.304,110.979 281.548,111.017 281.793,111.054 282.037,111.091 282.282,111.129 282.526,111.166 282.771,111.204 283.015,111.241 283.26,111.279 283.504,111.316 283.749,111.353 283.993,111.391 284.237,111.428 284.482,111.466 284.726,111.503 284.971,111.54 285.215,111.578 285.46,111.615 285.704,111.653 285.949,111.69 286.193,111.727 286.438,111.765 286.682,111.802 286.927,111.839 287.171,111.877 287.416,111.914 287.66,111.951 287.905,111.989 288.149,112.026 288.394,112.063 288.638,112.101 288.882,112.138 289.127,112.175 289.371,112.213 289.616,112.25 289.86,112.287 290.105,112.324 290.349,112.362 290.594,112.399 290.838,112.436 291.083,112.473 291.327,112.511 291.572,112.548 291.816,112.585 292.061,112.623 292.305,112.66 292.55,112.697 292.794,112.734 293.039,112.771 293.283,112.809 293.528,112.846 293.772,112.883 294.016,112.92 294.261,112.958 294.505,112.995 294.75,113.032 294.994,113.069 295.239,113.107 295.483,113.144 295.728,113.181 295.972,113.218 296.217,113.255 296.461,113.293 296.706,113.33 296.95,113.367 297.195,113.404 297.439,113.441 297.684,113.478 297.928,113.516 298.173,113.553 298.417,113.59 298.662,113.627 298.906,113.664 299.151,113.702 299.395,113.739 299.639,113.776 299.884,113.813 300.128,113.85 300.373,113.887 300.617,113.924 300.862,113.962 301.106,113.999 301.351,114.036 301.595,114.073 301.84,114.11 302.084,114.147 302.329,114.185 302.573,114.222 302.818,114.259 303.062,114.296 303.307,114.333 303.551,114.37 303.796,114.407 304.04,114.444 304.285,114.482 304.529,114.519 304.773,114.556 305.018,114.593 305.262,114.63 305.507,114.667 305.751,114.704 305.996,114.741 306.24,114.779 306.485,114.816 306.729,114.853 306.974,114.89 307.218,114.927 307.463,114.964 307.707,115.001 307.952,115.038 308.196,115.075 308.441,115.112 308.685,115.15 308.93,115.187 309.174,115.224 309.418,115.261 309.663,115.298 309.907,115.335 310.152,115.372 310.396,115.409 310.641,115.446 310.885,115.483 311.13,115.52 311.374,115.557 311.619,115.595 311.863,115.632 312.108,115.669 312.352,115.706 312.597,115.743 312.841,115.78 313.086,115.817 313.33,115.854 313.575,115.891 313.819,115.928 314.064,115.965 314.308,116.002 314.552,116.039 314.797,116.077 315.041,116.114 315.286,116.151" stroke="#0071bc" stroke-linecap="butt" stroke-linejoin="round" stroke-width="0.5"/>
  </g>
  <clipPath id="cp00420315">
   <polygon points="0,315 420,315 420,0 0,0"/>
  </clipPath>
  <g clip-path="url(#cp00420315)">
   <polygon fill="#ffffff" points="54.6239,280.473 380.266,280.473 380.266,177.811 54.6239,177.811" shape-rendering="crispEdges"/>
   <polyline fill="none" points="79.1309,280.473 79.1309,177.811" stroke="#191919" stroke-dasharray="1,3,1,3,1,3,1,3" stroke-linecap="butt" stroke-linejoin="miter" stroke-opacity="0.25" stroke-width="0.5"/>
   <polyline fill="none" points="93.4666,280.473 93.4666,177.811" stroke="#191919" stroke-dasharray="1,3,1,3,1,3,1,3" stroke-linecap="butt" stroke-linejoin="miter" stroke-opacity="0.25" stroke-width="0.5"/>
   <polyline fill="none" points="103.638,280.473 103.638,177.811" stroke="#191919" stroke-dasharray="1,3,1,3,1,3,1,3" stroke-linecap="butt" stroke-linejoin="miter" stroke-opacity="0.25" stroke-width="0.5"/>
   <polyline fill="none" points="111.527,280.473 111.527,177.811" stroke="#191919" stroke-dasharray="1,3,1,3,1,3,1,3" stroke-linecap="butt" stroke-linejoin="miter" stroke-opacity="0.25" stroke-width="0.5"/>
   <polyline fill="none" points="117.974,280.473 117.974,177.811" stroke="#191919" stroke-dasharray="1,3,1,3,1,3,1,3" stroke-linecap="butt" stroke-linejoin="miter" stroke-opacity="0.25" stroke-width="0.5"/>
   <polyline fill="none" points="123.424,280.473 123.424,177.811" stroke="#191919" stroke-dasharray="1,3,1,3,1,3,1,3" stroke-linecap="butt" stroke-linejoin="miter" stroke-opacity="0.25" stroke-width="0.5"/>
   <polyline fill="none" points="128.145,280.473 128.145,177.811" stroke="#191919" stroke-dasharray="1,3,1,3,1,3,1,3" stroke-linecap="butt" stroke-linejoin="miter" stroke-opacity="0.25" stroke-width="0.5"/>
   <polyline fill="none" points="132.309,280.473 132.309,177.811" stroke="#191919" stroke-dasharray="1,3,1,3,1,3,1,3" stroke-linecap="butt" stroke-linejoin="miter" stroke-opacity="0.25" stroke-width="0.5"/>
   <polyline fill="none" points="160.541,280.473 160.541,177.811" stroke="#191919" stroke-dasharray="1,3,1,3,1,3,1,3" stroke-linecap="butt" stroke-linejoin="miter" stroke-opacity="0.25" stroke-width="0.5"/>
   <polyline fill="none" points="174.877,280.473 174.877,177.811" stroke="#191919" stroke-dasharray="1,3,1,3,1,3,1,3" stroke-linecap="butt" stroke-linejoin="miter" stroke-opacity="0.25" stroke-width="0.5"/>
   <polyline fill="none" points="185.049,280.473 185.049,177.811" stroke="#191919" stroke-dasharray="1,3,1,3,1,3,1,3" stroke-linecap="butt" stroke-linejoin="miter" stroke-opacity="0.25" stroke-width="0.5"/>
   <polyline fill="none" points="192.938,280.473 192.938,177.811" stroke="#191919" stroke-dasharray="1,3,1,3,1,3,1,3" stroke-linecap="butt" stroke-linejoin="miter" stroke-opacity="0.25" stroke-width="0.5"/>
   <polyline fill="none" points="199.384,280.473 199.384,177.811" stroke="#191919" stroke-dasharray="1,3,1,3,1,3,1,3" stroke-linecap="butt" stroke-linejoin="miter" stroke-opacity="0.25" stroke-width="0.5"/>
   <polyline fill="none" points="204.834,280.473 204.834,177.811" stroke="#191919" stroke-dasharray="1,3,1,3,1,3,1,3" stroke-linecap="butt" stroke-linejoin="miter" stroke-opacity="0.25" stroke-width="0.5"/>
   <polyline fill="none" points="209.556,280.473 209.556,177.811" stroke="#191919" stroke-dasharray="1,3,1,3,1,3,1,3" stroke-linecap="butt" stroke-linejoin="miter" stroke-opacity="0.25" stroke-width="0.5"/>
   <polyline fill="none" points="213.72,280.473 213.72,177.811" stroke="#191919" stroke-dasharray="1,3,1,3,1,3,1,3" stroke-linecap="butt" stroke-linejoin="miter" stroke-opacity="0.25" stroke-width="0.5"/>
   <polyline fill="none" points="241.952,280.473 241.952,177.811" stroke="#191919" stroke-dasharray="1,3,1,3,1,3,1,3" stroke-linecap="butt" stroke-linejoin="miter" stroke-opacity="0.25" stroke-width="0.5"/>
   <polyline fill="none" points="256.288,280.473 256.288,177.811" stroke="#191919" stroke-dasharray="1,3,1,3,1,3,1,3" stroke-linecap="butt" stroke-linejoin="miter" stroke-opacity="0.25" stroke-width="0.5"/>
   <polyline fill="none" points="266.459,280.473 266.459,177.811" stroke="#191919" stroke-dasharray="1,3,1,3,1,3,1,3" stroke-linecap="butt" stroke-linejoin="miter" stroke-opacity="0.25" stroke-width="0.5"/>
   <polyline fill="none" points="274.349,280.473 274.349,177.811" stroke="#191919" stroke-dasharray="1,3,1,3,1,3,1,3" stroke-linecap="butt" stroke-linejoin="miter" stroke-opacity="0.25" stroke-width="0.5"/>
   <polyline fill="none" points="280.795,280.473 280.795,177.811" stroke="#191919" stroke-dasharray="1,3,1,3,1,3,1,3" stroke-linecap="butt" stroke-linejoin="miter" stroke-opacity="0.25" stroke-width="0.5"/>
   <polyline fill="none" points="286.245,280.473 286.245,177.811" stroke="#191919" stroke-dasharray="1,3,1,3,1,3,1,3" stroke-linecap="butt" stroke-linejoin="miter" stroke-opacity="0.25" stroke-width="0.5"/>
   <polyline fill="none" points="290.966,280.473 290.966,177.811" stroke="#191919" stroke-dasharray="1,3,1,3,1,3,1,3" stroke-linecap="butt" stroke-linejoin="miter" stroke-opacity="0.25" stroke-width="0.5"/>
   <polyline fill="none" points="295.13,280.473 295.13,177.811" stroke="#191919" stroke-dasharray="1,3,1,3,1,3,1,3" stroke-linecap="butt" stroke-linejoin="miter" stroke-opacity="0.25" stroke-width="0.5"/>
   <polyline fill="none" points="323.363,280.473 323.363,177.811" stroke="#191919" stroke-dasharray="1,3,1,3,1,3,1,3" stroke-linecap="butt" stroke-linejoin="miter" stroke-opacity="0.25" stroke-width="0.5"/>
   <polyline fill="none" points="337.698,280.473 337.698,177.811" stroke="#191919" stroke-dasharray="1,3,1,3,1,3,1,3" stroke-linecap="butt" stroke-linejoin="miter" stroke-opacity="0.25" stroke-width="0.5"/>
   <polyline fill="none" points="347.87,280.473 347.87,177.811" stroke="#191919" stroke-dasharray="1,3,1,3,1,3,1,3" stroke-linecap="butt" stroke-linejoin="miter" stroke-opacity="0.25" stroke-width="0.5"/>
   <polyline fill="none" points="355.759,280.473 355.759,177.811" stroke="#191919" stroke-dasharray="1,3,1,3,1,3,1,3" stroke-linecap="butt" stroke-linejoin="miter" stroke-opacity="0.25" stroke-width="0.5"/>
   <polyline fill="none" points="362.205,280.473 362.205,177.811" stroke="#191919" stroke-dasharray="1,3,1,3,1,3,1,3" stroke-linecap="butt" stroke-linejoin="miter" stroke-opacity="0.25" stroke-width="0.5"/>
   <polyline fill="none" points="367.656,280.473 367.656,177.811" stroke="#191919" stroke-dasharray="1,3,1,3,1,3,1,3" stroke-linecap="butt" stroke-linejoin="miter" stroke-opacity="0.25" stroke-width="0.5"/>
   <polyline fill="none" points="372.377,280.473 372.377,177.811" stroke="#191919" stroke-dasharray="1,3,1,3,1,3,1,3" stroke-linecap="butt" stroke-linejoin="miter" stroke-opacity="0.25" stroke-width="0.5"/>
   <polyline fill="none" points="376.541,280.473 376.541,177.811" stroke="#191919" stroke-dasharray="1,3,1,3,1,3,1,3" stroke-linecap="butt" stroke-linejoin="miter" stroke-opacity="0.25" stroke-width="0.5"/>
   <polyline fill="none" points="54.6239,280.473 54.6239,177.811" stroke="#262626" stroke-dasharray="16,0" stroke-linecap="butt" stroke-linejoin="miter" stroke-opacity="0.15" stroke-width="0.5"/>
   <polyline fill="none" points="136.034,280.473 136.034,177.811" stroke="#262626" stroke-dasharray="16,0" stroke-linecap="butt" stroke-linejoin="miter" stroke-opacity="0.15" stroke-width="0.5"/>
   <polyline fill="none" points="217.445,280.473 217.445,177.811" stroke="#262626" stroke-dasharray="16,0" stroke-linecap="butt" stroke-linejoin="miter" stroke-opacity="0.15" stroke-width="0.5"/>
   <polyline fill="none" points="298.856,280.473 298.856,177.811" stroke="#262626" stroke-dasharray="16,0" stroke-linecap="butt" stroke-linejoin="miter" stroke-opacity="0.15" stroke-width="0.5"/>
   <polyline fill="none" points="380.266,280.473 380.266,177.811" stroke="#262626" stroke-dasharray="16,0" stroke-linecap="butt" stroke-linejoin="miter" stroke-opacity="0.15" stroke-width="0.5"/>
   <polyline fill="none" points="79.1309,280.473 79.1309,278.85" stroke="#262626" stroke-linecap="butt" stroke-linejoin="miter" stroke-width="0.5"/>
   <polyline fill="none" points="79.1309,177.811 79.1309,179.434" stroke="#262626" stroke-linecap="butt" stroke-linejoin="miter" stroke-width="0.5"/>
   <polyline fill="none" points="93.4666,280.473 93.4666,278.85" stroke="#262626" stroke-linecap="butt" stroke-linejoin="miter" stroke-width="0.5"/>
   <polyline fill="none" points="93.4666,177.811 93.4666,179.434" stroke="#262626" stroke-linecap="butt" stroke-linejoin="miter" stroke-width="0.5"/>
   <polyline fill="none" points="103.638,280.473 103.638,278.85" stroke="#262626" stroke-linecap="butt" stroke-linejoin="miter" stroke-width="0.5"/>
   <polyline fill="none" points="103.638,177.811 103.638,179.434" stroke="#262626" stroke-linecap="butt" stroke-linejoin="miter" stroke-width="0.5"/>
   <polyline fill="none" points="111.527,280.473 111.527,278.85" stroke="#262626" stroke-linecap="butt" stroke-linejoin="miter" stroke-width="0.5"/>
   <polyline fill="none" points="111.527,177.811 111.527,179.434" stroke="#262626" stroke-linecap="butt" stroke-linejoin="miter" stroke-width="0.5"/>
   <polyline fill="none" points="117.974,280.473 117.974,278.85" stroke="#262626" stroke-linecap="butt" stroke-linejoin="miter" stroke-width="0.5"/>
   <polyline fill="none" points="117.974,177.811 117.974,179.434" stroke="#262626" stroke-linecap="butt" stroke-linejoin="miter" stroke-width="0.5"/>
   <polyline fill="none" points="123.424,280.473 123.424,278.85" stroke="#262626" stroke-linecap="butt" stroke-linejoin="miter" stroke-width="0.5"/>
   <polyline fill="none" points="123.424,177.811 123.424,179.434" stroke="#262626" stroke-linecap="butt" stroke-linejoin="miter" stroke-width="0.5"/>
   <polyline fill="none" points="128.145,280.473 128.145,278.85" stroke="#262626" stroke-linecap="butt" stroke-linejoin="miter" stroke-width="0.5"/>
   <polyline fill="none" points="128.145,177.811 128.145,179.434" stroke="#262626" stroke-linecap="butt" stroke-linejoin="miter" stroke-width="0.5"/>
   <polyline fill="none" points="132.309,280.473 132.309,278.85" stroke="#262626" stroke-linecap="butt" stroke-linejoin="miter" stroke-width="0.5"/>
   <polyline fill="none" points="132.309,177.811 132.309,179.434" stroke="#262626" stroke-linecap="butt" stroke-linejoin="miter" stroke-width="0.5"/>
   <polyline fill="none" points="160.541,280.473 160.541,278.85" stroke="#262626" stroke-linecap="butt" stroke-linejoin="miter" stroke-width="0.5"/>
   <polyline fill="none" points="160.541,177.811 160.541,179.434" stroke="#262626" stroke-linecap="butt" stroke-linejoin="miter" stroke-width="0.5"/>
   <polyline fill="none" points="174.877,280.473 174.877,278.85" stroke="#262626" stroke-linecap="butt" stroke-linejoin="miter" stroke-width="0.5"/>
   <polyline fill="none" points="174.877,177.811 174.877,179.434" stroke="#262626" stroke-linecap="butt" stroke-linejoin="miter" stroke-width="0.5"/>
   <polyline fill="none" points="185.049,280.473 185.049,278.85" stroke="#262626" stroke-linecap="butt" stroke-linejoin="miter" stroke-width="0.5"/>
   <polyline fill="none" points="185.049,177.811 185.049,179.434" stroke="#262626" stroke-linecap="butt" stroke-linejoin="miter" stroke-width="0.5"/>
   <polyline fill="none" points="192.938,280.473 192.938,278.85" stroke="#262626" stroke-linecap="butt" stroke-linejoin="miter" stroke-width="0.5"/>
   <polyline fill="none" points="192.938,177.811 192.938,179.434" stroke="#262626" stroke-linecap="butt" stroke-linejoin="miter" stroke-width="0.5"/>
   <polyline fill="none" points="199.384,280.473 199.384,278.85" stroke="#262626" stroke-linecap="butt" stroke-linejoin="miter" stroke-width="0.5"/>
   <polyline fill="none" points="199.384,177.811 199.384,179.434" stroke="#262626" stroke-linecap="butt" stroke-linejoin="miter" stroke-width="0.5"/>
   <polyline fill="none" points="204.834,280.473 204.834,278.85" stroke="#262626" stroke-linecap="butt" stroke-linejoin="miter" stroke-width="0.5"/>
   <polyline fill="none" points="204.834,177.811 204.834,179.434" stroke="#262626" stroke-linecap="butt" stroke-linejoin="miter" stroke-width="0.5"/>
   <polyline fill="none" points="209.556,280.473 209.556,278.85" stroke="#262626" stroke-linecap="butt" stroke-linejoin="miter" stroke-width="0.5"/>
   <polyline fill="none" points="209.556,177.811 209.556,179.434" stroke="#262626" stroke-linecap="butt" stroke-linejoin="miter" stroke-width="0.5"/>
   <polyline fill="none" points="213.72,280.473 213.72,278.85" stroke="#262626" stroke-linecap="butt" stroke-linejoin="miter" stroke-width="0.5"/>
   <polyline fill="none" points="213.72,177.811 213.72,179.434" stroke="#262626" stroke-linecap="butt" stroke-linejoin="miter" stroke-width="0.5"/>
   <polyline fill="none" points="241.952,280.473 241.952,278.85" stroke="#262626" stroke-linecap="butt" stroke-linejoin="miter" stroke-width="0.5"/>
   <polyline fill="none" points="241.952,177.811 241.952,179.434" stroke="#262626" stroke-linecap="butt" stroke-linejoin="miter" stroke-width="0.5"/>
   <polyline fill="none" points="256.288,280.473 256.288,278.85" stroke="#262626" stroke-linecap="butt" stroke-linejoin="miter" stroke-width="0.5"/>
   <polyline fill="none" points="256.288,177.811 256.288,179.434" stroke="#262626" stroke-linecap="butt" stroke-linejoin="miter" stroke-width="0.5"/>
   <polyline fill="none" points="266.459,280.473 266.459,278.85" stroke="#262626" stroke-linecap="butt" stroke-linejoin="miter" stroke-width="0.5"/>
   <polyline fill="none" points="266.459,177.811 266.459,179.434" stroke="#262626" stroke-linecap="butt" stroke-linejoin="miter" stroke-width="0.5"/>
   <polyline fill="none" points="274.349,280.473 274.349,278.85" stroke="#262626" stroke-linecap="butt" stroke-linejoin="miter" stroke-width="0.5"/>
   <polyline fill="none" points="274.349,177.811 274.349,179.434" stroke="#262626" stroke-linecap="butt" stroke-linejoin="miter" stroke-width="0.5"/>
   <polyline fill="none" points="280.795,280.473 280.795,278.85" stroke="#262626" stroke-linecap="butt" stroke-linejoin="miter" stroke-width="0.5"/>
   <polyline fill="none" points="280.795,177.811 280.795,179.434" stroke="#262626" stroke-linecap="butt" stroke-linejoin="miter" stroke-width="0.5"/>
   <polyline fill="none" points="286.245,280.473 286.245,278.85" stroke="#262626" stroke-linecap="butt" stroke-linejoin="miter" stroke-width="0.5"/>
   <polyline fill="none" points="286.245,177.811 286.245,179.434" stroke="#262626" stroke-linecap="butt" stroke-linejoin="miter" stroke-width="0.5"/>
   <polyline fill="none" points="290.966,280.473 290.966,278.85" stroke="#262626" stroke-linecap="butt" stroke-linejoin="miter" stroke-width="0.5"/>
   <polyline fill="none" points="290.966,177.811 290.966,179.434" stroke="#262626" stroke-linecap="butt" stroke-linejoin="miter" stroke-width="0.5"/>
   <polyline fill="none" points="295.13,280.473 295.13,278.85" stroke="#262626" stroke-linecap="butt" stroke-linejoin="miter" stroke-width="0.5"/>
   <polyline fill="none" points="295.13,177.811 295.13,179.434" stroke="#262626" stroke-linecap="butt" stroke-linejoin="miter" stroke-width="0.5"/>
   <polyline fill="none" points="323.363,280.473 323.363,278.85" stroke="#262626" stroke-linecap="butt" stroke-linejoin="miter" stroke-width="0.5"/>
   <polyline fill="none" points="323.363,177.811 323.363,179.434" stroke="#262626" stroke-linecap="butt" stroke-linejoin="miter" stroke-width="0.5"/>
   <polyline fill="none" points="337.698,280.473 337.698,278.85" stroke="#262626" stroke-linecap="butt" stroke-linejoin="miter" stroke-width="0.5"/>
   <polyline fill="none" points="337.698,177.811 337.698,179.434" stroke="#262626" stroke-linecap="butt" stroke-linejoin="miter" stroke-width="0.5"/>
   <polyline fill="none" points="347.87,280.473 347.87,278.85" stroke="#262626" stroke-linecap="butt" stroke-linejoin="miter" stroke-width="0.5"/>
   <polyline fill="none" points="347.87,177.811 347.87,179.434" stroke="#262626" stroke-linecap="butt" stroke-linejoin="miter" stroke-width="0.5"/>
   <polyline fill="none" points="355.759,280.473 355.759,278.85" stroke="#262626" stroke-linecap="butt" stroke-linejoin="miter" stroke-width="0.5"/>
   <polyline fill="none" points="355.759,177.811 355.759,179.434" stroke="#262626" stroke-linecap="butt" stroke-linejoin="miter" stroke-width="0.5"/>
   <polyline fill="none" points="362.205,280.473 362.205,278.85" stroke="#262626" stroke-linecap="butt" stroke-linejoin="miter" stroke-width="0.5"/>
   <polyline fill="none" points="362.205,177.811 362.205,179.434" stroke="#262626" stroke-linecap="butt" stroke-linejoin="miter" stroke-width="0.5"/>
   <polyline fill="none" points="367.656,280.473 367.656,278.85" stroke="#262626" stroke-linecap="butt" stroke-linejoin="miter" stroke-width="0.5"/>
   <polyline fill="none" points="367.656,177.811 367.656,179.434" stroke="#262626" stroke-linecap="butt" stroke-linejoin="miter" stroke-width="0.5"/>
   <polyline fill="none" points="372.377,280.473 372.377,278.85" stroke="#262626" stroke-linecap="butt" stroke-linejoin="miter" stroke-width="0.5"/>
   <polyline fill="none" points="372.377,177.811 372.377,179.434" stroke="#262626" stroke-linecap="butt" stroke-linejoin="miter" stroke-width="0.5"/>
   <polyline fill="none" points="376.541,280.473 376.541,278.85" stroke="#262626" stroke-linecap="butt" stroke-linejoin="miter" stroke-width="0.5"/>
   <polyline fill="none" points="376.541,177.811 376.541,179.434" stroke="#262626" stroke-linecap="butt" stroke-linejoin="miter" stroke-width="0.5"/>
   <polyline fill="none" points="54.6239,280.473 54.6239,277.227" stroke="#262626" stroke-linecap="butt" stroke-linejoin="miter" stroke-width="0.5"/>
   <polyline fill="none" points="54.6239,177.811 54.6239,181.057" stroke="#262626" stroke-linecap="butt" stroke-linejoin="miter" stroke-width="0.5"/>
   <polyline fill="none" points="136.034,280.473 136.034,277.227" stroke="#262626" stroke-linecap="butt" stroke-linejoin="miter" stroke-width="0.5"/>
   <polyline fill="none" points="136.034,177.811 136.034,181.057" stroke="#262626" stroke-linecap="butt" stroke-linejoin="miter" stroke-width="0.5"/>
   <polyline fill="none" points="217.445,280.473 217.445,277.227" stroke="#262626" stroke-linecap="butt" stroke-linejoin="miter" stroke-width="0.5"/>
   <polyline fill="none" points="217.445,177.811 217.445,181.057" stroke="#262626" stroke-linecap="butt" stroke-linejoin="miter" stroke-width="0.5"/>
   <polyline fill="none" points="298.856,280.473 298.856,277.227" stroke="#262626" stroke-linecap="butt" stroke-linejoin="miter" stroke-width="0.5"/>
   <polyline fill="none" points="298.856,177.811 298.856,181.057" stroke="#262626" stroke-linecap="butt" stroke-linejoin="miter" stroke-width="0.5"/>
   <polyline fill="none" points="380.266,280.473 380.266,277.227" stroke="#262626" stroke-linecap="butt" stroke-linejoin="miter" stroke-width="0.5"/>
   <polyline fill="none" points="380.266,177.811 380.266,181.057" stroke="#262626" stroke-linecap="butt" stroke-linejoin="miter" stroke-width="0.5"/>
   <g font-family="FreeSans" font-size="10" font-style="normal" font-weight="normal" transform="translate(46.6239,297.948) rotate(-0,8,-10)" xml:space="preserve">
    <text fill="rgb(38,38,38)" x="0 6 " y="-0">10</text>
    <text fill="rgb(38,38,38)" font-size="7" x="12 " y="-4">1</text>
   </g>
   <g font-family="FreeSans" font-size="10" font-style="normal" font-weight="normal" transform="translate(128.034,297.948) rotate(-0,8,-10)" xml:space="preserve">
    <text fill="rgb(38,38,38)" x="0 6 " y="-0">10</text>
    <text fill="rgb(38,38,38)" font-size="7" x="12 " y="-4">2</text>
   </g>
   <g font-family="FreeSans" font-size="10" font-style="normal" font-weight="normal" transform="translate(209.445,297.948) rotate(-0,8,-10)" xml:space="preserve">
    <text fill="rgb(38,38,38)" x="0 6 " y="-0">10</text>
    <text fill="rgb(38,38,38)" font-size="7" x="12 " y="-4">3</text>
   </g>
   <g font-family="FreeSans" font-size="10" font-style="normal" font-weight="normal" transform="translate(290.856,297.948) rotate(-0,8,-10)" xml:space="preserve">
    <text fill="rgb(38,38,38)" x="0 6 " y="-0">10</text>
    <text fill="rgb(38,38,38)" font-size="7" x="12 " y="-4">4</text>
   </g>
   <g font-family="FreeSans" font-size="10" font-style="normal" font-weight="normal" transform="translate(372.266,297.948) rotate(-0,8,-10)" xml:space="preserve">
    <text fill="rgb(38,38,38)" x="0 6 " y="-0">10</text>
    <text fill="rgb(38,38,38)" font-size="7" x="12 " y="-4">5</text>
   </g>
   <polyline fill="none" points="54.6239,280.473 380.266,280.473" stroke="#262626" stroke-dasharray="16,0" stroke-linecap="butt" stroke-linejoin="miter" stroke-opacity="0.15" stroke-width="0.5"/>
   <polyline fill="none" points="54.6239,254.807 380.266,254.807" stroke="#262626" stroke-dasharray="16,0" stroke-linecap="butt" stroke-linejoin="miter" stroke-opacity="0.15" stroke-width="0.5"/>
   <polyline fill="none" points="54.6239,229.142 380.266,229.142" stroke="#262626" stroke-dasharray="16,0" stroke-linecap="butt" stroke-linejoin="miter" stroke-opacity="0.15" stroke-width="0.5"/>
   <polyline fill="none" points="54.6239,203.476 380.266,203.476" stroke="#262626" stroke-dasharray="16,0" stroke-linecap="butt" stroke-linejoin="miter" stroke-opacity="0.15" stroke-width="0.5"/>
   <polyline fill="none" points="54.6239,177.811 380.266,177.811" stroke="#262626" stroke-dasharray="16,0" stroke-linecap="butt" stroke-linejoin="miter" stroke-opacity="0.15" stroke-width="0.5"/>
   <polyline fill="none" points="54.6239,280.473 57.8767,280.473" stroke="#262626" stroke-linecap="butt" stroke-linejoin="miter" stroke-width="0.5"/>
   <polyline fill="none" points="380.266,280.473 377.013,280.473" stroke="#262626" stroke-linecap="butt" stroke-linejoin="miter" stroke-width="0.5"/>
   <polyline fill="none" points="54.6239,254.807 57.8767,254.807" stroke="#262626" stroke-linecap="butt" stroke-linejoin="miter" stroke-width="0.5"/>
   <polyline fill="none" points="380.266,254.807 377.013,254.807" stroke="#262626" stroke-linecap="butt" stroke-linejoin="miter" stroke-width="0.5"/>
   <polyline fill="none" points="54.6239,229.142 57.8767,229.142" stroke="#262626" stroke-linecap="butt" stroke-linejoin="miter" stroke-width="0.5"/>
   <polyline fill="none" points="380.266,229.142 377.013,229.142" stroke="#262626" stroke-linecap="butt" stroke-linejoin="miter" stroke-width="0.5"/>
   <polyline fill="none" points="54.6239,203.476 57.8767,203.476" stroke="#262626" stroke-linecap="butt" stroke-linejoin="miter" stroke-width="0.5"/>
   <polyline fill="none" points="380.266,203.476 377.013,203.476" stroke="#262626" stroke-linecap="butt" stroke-linejoin="miter" stroke-width="0.5"/>
   <polyline fill="none" points="54.6239,177.811 57.8767,177.811" stroke="#262626" stroke-linecap="butt" stroke-linejoin="miter" stroke-width="0.5"/>
   <polyline fill="none" points="380.266,177.811 377.013,177.811" stroke="#262626" stroke-linecap="butt" stroke-linejoin="miter" stroke-width="0.5"/>
   <g font-family="FreeSans" font-size="10" font-style="normal" font-weight="normal" transform="translate(28.6294,284.473) rotate(-0,21,-4)" xml:space="preserve">
    <text fill="rgb(38,38,38)" x="0 3 9 15 " y="-0">-100</text>
   </g>
   <g font-family="FreeSans" font-size="10" font-style="normal" font-weight="normal" transform="translate(34.6294,258.807) rotate(-0,15,-4)" xml:space="preserve">
    <text fill="rgb(38,38,38)" x="0 3 9 " y="-0">-50</text>
   </g>
   <g font-family="FreeSans" font-size="10" font-style="normal" font-weight="normal" transform="translate(43.6294,233.142) rotate(-0,6,-4)" xml:space="preserve">
    <text fill="rgb(38,38,38)" x="0 " y="-0">0</text>
   </g>
   <g font-family="FreeSans" font-size="10" font-style="normal" font-weight="normal" transform="translate(37.6294,207.476) rotate(-0,12,-4)" xml:space="preserve">
    <text fill="rgb(38,38,38)" x="0 6 " y="-0">50</text>
   </g>
   <g font-family="FreeSans" font-size="10" font-style="normal" font-weight="normal" transform="translate(31.6294,181.811) rotate(-0,18,-4)" xml:space="preserve">
    <text fill="rgb(38,38,38)" x="0 6 12 " y="-0">100</text>
   </g>
   <polyline fill="none" points="54.6239,280.473 380.266,280.473" stroke="#262626" stroke-dasharray="16,0" stroke-linecap="square" stroke-linejoin="miter" stroke-width="0.5"/>
   <polyline fill="none" points="54.6239,177.811 380.266,177.811" stroke="#262626" stroke-dasharray="16,0" stroke-linecap="square" stroke-linejoin="miter" stroke-width="0.5"/>
   <polyline fill="none" points="54.6239,280.473 54.6239,177.811" stroke="#262626" stroke-dasharray="16,0" stroke-linecap="square" stroke-linejoin="miter" stroke-width="0.5"/>
   <polyline fill="none" points="380.266,280.473 380.266,177.811" stroke="#262626" stroke-dasharray="16,0" stroke-linecap="square" stroke-linejoin="miter" stroke-width="0.5"/>
   <g font-family="FreeSans" font-size="11" font-style="normal" font-weight="normal" transform="translate(-3.37064,229.142) rotate(-90,27,0)" xml:space="preserve">
    <text fill="rgb(38,38,38)" x="0 7 13 19 24 30 33 39 45 51 " y="-2">Phase[deg]</text>
   </g>
   <g font-family="FreeSans" font-size="11" font-style="normal" font-weight="normal" transform="translate(181.945,314.948) rotate(-0,35.5,-12)" xml:space="preserve">
    <text fill="rgb(38,38,38)" x="0 7 11 17 23 29 35 41 47 52 55 63 68 " y="-3">Frequency[Hz]</text>
   </g>
   <polyline fill="none" points="71.0542,275.339 71.2986,275.339 71.5431,275.339 71.7876,275.339 72.0321,275.339 72.2765,275.339 72.521,275.339 72.7655,275.339 73.01,275.339 73.2544,275.339 73.4989,275.339 73.7434,275.339 73.9879,275.339 74.2323,275.339 74.4768,275.339 74.7213,275.339 74.9658,275.339 75.2103,275.339 75.4547,275.339 75.6992,275.339 75.9437,275.339 76.1881,275.339 76.4326,275.339 76.6771,275.339 76.9216,275.339 77.1661,275.339 77.4105,275.339 77.655,275.339 77.8995,275.339 78.144,275.339 78.3884,275.339 78.6329,275.339 78.8774,275.339 79.1219,275.339 79.3663,275.339 79.6108,275.339 79.8553,275.339 80.0998,275.339 80.3443,275.339 80.5887,275.339 80.8332,275.339 81.0777,275.339 81.3222,275.339 81.5666,275.339 81.8111,275.339 82.0556,275.339 82.3001,275.339 82.5445,275.339 82.789,275.339 83.0335,275.339 83.278,275.339 83.5224,275.339 83.7669,275.339 84.0114,275.339 84.2559,275.339 84.5004,275.339 84.7448,275.339 84.9893,275.339 85.2338,275.339 85.4783,275.339 85.7227,275.339 85.9672,275.339 86.2117,275.339 86.4562,275.339 86.7006,275.339 86.9451,275.339 87.1896,275.339 87.4341,275.339 87.6785,275.339 87.923,275.339 88.1675,275.339 88.412,275.339 88.6564,275.339 88.9009,275.339 89.1454,275.339 89.3899,275.339 89.6343,275.339 89.8788,275.339 90.1233,275.339 90.3678,275.339 90.6123,275.339 90.8567,275.339 91.1012,275.339 91.3457,275.339 91.5902,275.339 91.8346,275.339 92.0791,275.339 92.3236,275.339 92.5681,275.339 92.8125,275.339 93.057,275.339 93.3015,275.339 93.546,275.339 93.7905,275.339 94.0349,275.339 94.2794,275.339 94.5239,275.339 94.7683,275.339 95.0128,275.339 95.2573,275.339 95.5018,275.339 95.7462,275.339 95.9907,275.339 96.2352,275.339 96.4797,275.339 96.7242,275.339 96.9686,275.339 97.2131,275.339 97.4576,275.339 97.7021,275.339 97.9465,275.339 98.191,275.339 98.4355,275.339 98.68,275.339 98.9244,275.339 99.1689,275.339 99.4134,275.339 99.6579,275.339 99.9024,275.339 100.147,275.339 100.391,275.339 100.636,275.339 100.88,275.339 101.125,275.339 101.369,275.339 101.614,275.339 101.858,275.339 102.103,275.339 102.347,275.339 102.592,275.339 102.836,275.339 103.081,275.339 103.325,275.339 103.569,275.339 103.814,275.339 104.058,275.339 104.303,275.339 104.547,275.339 104.792,275.339 105.036,275.339 105.281,275.339 105.525,275.339 105.77,275.339 106.014,275.339 106.259,275.339 106.503,275.339 106.748,275.339 106.992,275.339 107.237,275.339 107.481,275.339 107.726,275.339 107.97,275.339 108.215,275.339 108.459,275.339 108.703,275.339 108.948,275.339 109.192,275.339 109.437,275.339 109.681,275.339 109.926,275.339 110.17,275.339 110.415,275.339 110.659,275.339 110.904,275.339 111.148,275.339 111.393,275.339 111.637,275.339 111.882,275.339 112.126,275.339 112.371,275.339 112.615,275.339 112.86,275.339 113.104,275.339 113.349,275.339 113.593,275.339 113.838,275.339 114.082,275.339 114.326,275.339 114.571,275.339 114.815,275.339 115.06,275.339 115.304,275.339 115.549,275.339 115.793,275.339 116.038,275.339 116.282,275.339 116.527,275.339 116.771,275.339 117.016,275.339 117.26,275.339 117.505,275.339 117.749,275.339 117.994,275.339 118.238,275.339 118.483,275.339 118.727,275.339 118.971,275.339 119.216,275.339 119.46,275.339 119.705,275.339 119.949,275.339 120.194,275.339 120.438,275.339 120.683,275.339 120.927,275.339 121.172,275.339 121.416,275.339 121.661,275.339 121.905,275.339 122.15,275.339 122.394,275.339 122.639,275.339 122.883,275.339 123.128,275.339 123.372,275.339 123.617,275.339 123.861,275.339 124.105,275.339 124.35,275.339 124.594,275.339 124.839,275.339 125.083,275.339 125.328,275.339 125.572,275.339 125.817,275.339 126.061,275.339 126.306,275.339 126.55,275.339 126.795,275.339 127.039,275.339 127.284,275.339 127.528,275.339 127.773,275.339 128.017,275.339 128.262,275.339 128.506,275.339 128.751,275.339 128.995,275.339 129.24,275.339 129.484,275.339 129.728,275.339 129.973,275.339 130.217,275.339 130.462,275.339 130.706,275.339 130.951,275.339 131.195,275.339 131.44,275.339 131.684,275.339 131.929,275.339 132.173,275.339 132.418,275.339 132.662,275.339 132.907,275.339 133.151,275.339 133.396,275.339 133.64,275.339 133.885,275.339 134.129,275.339 134.374,275.339 134.618,275.339 134.862,275.339 135.107,275.339 135.351,275.339 135.596,275.339 135.84,275.339 136.085,275.339 136.329,275.339 136.574,275.339 136.818,275.339 137.063,275.339 137.307,275.339 137.552,275.339 137.796,275.339 138.041,275.339 138.285,275.339 138.53,275.339 138.774,275.339 139.019,275.339 139.263,275.339 139.507,275.339 139.752,275.339 139.996,275.339 140.241,275.339 140.485,275.339 140.73,275.339 140.974,275.339 141.219,275.339 141.463,275.339 141.708,275.339 141.952,275.339 142.197,275.339 142.441,275.339 142.686,275.339 142.93,275.339 143.175,275.339 143.419,275.339 143.664,275.339 143.908,275.339 144.153,275.339 144.397,275.339 144.642,275.339 144.886,275.339 145.13,275.339 145.375,275.339 145.619,275.339 145.864,275.339 146.108,275.339 146.353,275.339 146.597,275.339 146.842,275.339 147.086,275.339 147.331,275.339 147.575,275.339 147.82,275.339 148.064,275.339 148.309,275.339 148.553,275.339 148.798,275.339 149.042,275.339 149.287,275.339 149.531,275.339 149.775,275.339 150.02,275.339 150.264,275.339 150.509,275.339 150.753,275.339 150.998,275.339 151.242,275.339 151.487,275.339 151.731,275.339 151.976,275.339 152.22,275.339 152.465,275.339 152.709,275.339 152.954,275.339 153.198,275.339 153.443,275.339 153.687,275.339 153.932,275.339 154.176,275.339 154.421,275.339 154.665,275.339 154.91,275.339 155.154,275.339 155.398,275.339 155.643,275.339 155.887,275.339 156.132,275.339 156.376,275.339 156.621,275.339 156.865,275.339 157.11,275.339 157.354,275.339 157.599,275.339 157.843,275.339 158.088,275.339 158.332,275.339 158.577,275.339 158.821,275.339 159.066,275.339 159.31,275.339 159.555,275.339 159.799,275.339 160.044,275.339 160.288,275.339 160.532,275.339 160.777,275.339 161.021,275.339 161.266,275.339 161.51,275.339 161.755,275.339 161.999,275.339 162.244,275.339 162.488,275.339 162.733,275.339 162.977,275.339 163.222,275.339 163.466,275.339 163.711,275.339 163.955,275.339 164.2,275.339 164.444,275.339 164.689,275.339 164.933,275.339 165.178,275.339 165.422,275.339 165.666,275.339 165.911,275.339 166.155,275.339 166.4,275.339 166.644,275.339 166.889,275.339 167.133,275.339 167.378,275.339 167.622,275.339 167.867,275.339 168.111,275.339 168.356,275.339 168.6,275.339 168.845,275.339 169.089,275.339 169.334,275.339 169.578,275.339 169.823,275.339 170.067,275.339 170.312,275.339 170.556,275.339 170.8,275.339 171.045,275.339 171.289,275.339 171.534,275.339 171.778,275.339 172.023,275.339 172.267,275.339 172.512,275.339 172.756,275.339 173.001,275.339 173.245,275.339 173.49,275.339 173.734,275.339 173.979,275.339 174.223,275.339 174.468,275.339 174.712,275.339 174.957,275.339 175.201,275.339 175.446,275.339 175.69,275.339 175.934,275.339 176.179,275.339 176.423,275.339 176.668,275.339 176.912,275.339 177.157,275.339 177.401,275.339 177.646,275.339 177.89,275.339 178.135,275.339 178.379,275.339 178.624,275.339 178.868,275.339 179.113,275.339 179.357,275.339 179.602,275.339 179.846,275.339 180.091,275.339 180.335,275.339 180.58,275.339 180.824,275.339 181.068,275.339 181.313,275.339 181.557,275.339 181.802,275.339 182.046,275.339 182.291,275.339 182.535,275.339 182.78,275.339 183.024,275.339 183.269,275.339 183.513,275.339 183.758,275.339 184.002,275.339 184.247,275.339 184.491,275.339 184.736,275.339 184.98,275.339 185.225,275.339 185.469,275.339 185.714,275.339 185.958,275.339 186.202,275.339 186.447,275.339 186.691,275.339 186.936,275.339 187.18,275.339 187.425,275.339 187.669,275.339 187.914,275.339 188.158,275.339 188.403,275.339 188.647,275.339 188.892,275.339 189.136,275.339 189.381,275.339 189.625,275.339 189.87,275.339 190.114,275.339 190.359,275.339 190.603,275.339 190.848,275.339 191.092,275.339 191.336,275.339 191.581,275.339 191.825,275.339 192.07,275.339 192.314,275.339 192.559,275.339 192.803,275.339 193.048,275.339 193.292,275.339 193.537,275.339 193.781,275.339 194.026,275.339 194.27,275.339 194.515,275.339 194.759,275.339 195.004,275.339 195.248,275.339 195.493,275.339 195.737,275.339 195.982,275.339 196.226,275.339 196.47,275.339 196.715,275.339 196.959,275.339 197.204,275.339 197.448,275.339 197.693,275.339 197.937,275.339 198.182,275.339 198.426,275.339 198.671,275.339 198.915,275.339 199.16,275.339 199.404,275.339 199.649,275.339 199.893,275.339 200.138,275.339 200.382,275.339 200.627,275.339 200.871,275.339 201.116,275.339 201.36,275.339 201.604,275.339 201.849,275.339 202.093,275.339 202.338,275.339 202.582,275.339 202.827,275.339 203.071,275.339 203.316,275.339 203.56,275.339 203.805,275.339 204.049,275.339 204.294,275.339 204.538,275.339 204.783,275.339 205.027,275.339 205.272,275.339 205.516,275.339 205.761,275.339 206.005,275.339 206.25,275.339 206.494,275.339 206.738,275.339 206.983,275.339 207.227,275.339 207.472,275.339 207.716,275.339 207.961,275.339 208.205,275.339 208.45,275.339 208.694,275.339 208.939,275.339 209.183,275.339 209.428,275.339 209.672,275.339 209.917,275.339 210.161,275.339 210.406,275.339 210.65,275.339 210.895,275.339 211.139,275.339 211.266,275.339 211.384,182.944 211.628,182.944 211.872,182.944 212.117,182.944 212.361,182.944 212.606,182.944 212.85,182.944 213.095,182.944 213.339,182.944 213.584,182.944 213.828,182.944 214.073,182.944 214.317,182.944 214.562,182.944 214.806,182.944 215.051,182.944 215.295,182.944 215.54,182.944 215.784,182.944 216.029,182.944 216.273,182.944 216.518,182.944 216.762,182.944 217.006,182.944 217.251,182.944 217.495,182.944 217.74,182.944 217.984,182.944 218.229,182.944 218.473,182.944 218.718,182.944 218.962,182.944 219.207,182.944 219.451,182.944 219.696,182.944 219.94,182.944 220.185,182.944 220.429,182.944 220.674,182.944 220.918,182.944 221.163,182.944 221.407,182.944 221.652,182.944 221.896,182.944 222.14,182.944 222.385,182.944 222.629,182.944 222.874,182.944 223.118,182.944 223.363,182.944 223.607,182.944 223.852,182.944 224.096,182.944 224.341,182.944 224.585,182.944 224.83,182.944 225.074,182.944 225.319,182.944 225.563,182.944 225.808,182.944 226.052,182.944 226.297,182.944 226.541,182.944 226.786,182.944 227.03,182.944 227.274,182.944 227.519,182.944 227.763,182.944 228.008,182.944 228.252,182.944 228.497,182.944 228.741,182.944 228.986,182.944 229.23,182.944 229.475,182.944 229.719,182.944 229.964,182.944 230.208,182.944 230.453,182.944 230.697,182.944 230.942,182.944 231.186,182.944 231.431,182.944 231.675,182.944 231.92,182.944 232.164,182.944 232.408,182.944 232.653,182.944 232.897,182.944 233.142,182.944 233.386,182.944 233.631,182.944 233.875,182.944 234.12,182.944 234.364,182.944 234.609,182.944 234.853,182.944 235.098,182.944 235.342,182.944 235.587,182.944 235.831,182.944 236.076,182.944 236.32,182.944 236.565,182.944 236.809,182.944 237.054,182.944 237.298,182.944 237.542,182.944 237.787,182.944 238.031,182.944 238.276,182.944 238.52,182.944 238.765,182.944 239.009,182.944 239.254,182.944 239.498,182.944 239.743,182.944 239.987,182.944 240.232,182.944 240.476,182.944 240.721,182.944 240.965,182.944 241.21,182.944 241.454,182.944 241.699,182.944 241.943,182.944 242.188,182.944 242.432,182.944 242.676,182.944 242.921,182.944 243.165,182.944 243.41,182.944 243.654,182.944 243.899,182.944 244.143,182.944 244.388,182.944 244.632,182.944 244.877,182.944 245.121,182.944 245.366,182.944 245.61,182.944 245.855,182.944 246.099,182.944 246.344,182.944 246.588,182.944 246.833,182.944 247.077,182.944 247.322,182.944 247.566,182.944 247.81,182.944 248.055,182.944 248.299,182.944 248.544,182.944 248.788,182.944 249.033,182.944 249.277,182.944 249.522,182.944 249.766,182.944 250.011,182.944 250.255,182.944 250.5,182.944 250.744,182.944 250.989,182.944 251.233,182.944 251.478,182.944 251.722,182.944 251.967,182.944 252.211,182.944 252.456,182.944 252.7,182.944 252.944,182.944 253.189,182.944 253.433,182.944 253.678,182.944 253.922,182.944 254.167,182.944 254.411,182.944 254.656,182.944 254.9,182.944 255.145,182.944 255.389,182.944 255.634,182.944 255.878,182.944 256.123,182.944 256.367,182.944 256.612,182.944 256.856,182.944 257.101,182.944 257.345,182.944 257.59,182.944 257.834,182.944 258.078,182.944 258.323,182.944 258.567,182.944 258.812,182.944 259.056,182.944 259.301,182.944 259.545,182.944 259.79,182.944 260.034,182.944 260.279,182.944 260.523,182.944 260.768,182.944 261.012,182.944 261.257,182.944 261.501,182.944 261.746,182.944 261.99,182.944 262.235,182.944 262.479,182.944 262.724,182.944 262.968,182.944 263.212,182.944 263.457,182.944 263.701,182.944 263.946,182.944 264.19,182.944 264.435,182.944 264.679,182.944 264.924,182.944 265.168,182.944 265.413,182.944 265.657,182.944 265.902,182.944 266.146,182.944 266.391,182.944 266.635,182.944 266.88,182.944 267.124,182.944 267.369,182.944 267.613,182.944 267.858,182.944 268.102,182.944 268.346,182.944 268.591,182.944 268.835,182.944 269.08,182.944 269.324,182.944 269.569,182.944 269.813,182.944 270.058,182.944 270.302,182.944 270.547,182.944 270.791,182.944 271.036,182.944 271.28,182.944 271.525,182.944 271.769,182.944 272.014,182.944 272.258,182.944 272.503,182.944 272.747,182.944 272.992,182.944 273.236,182.944 273.48,182.944 273.725,182.944 273.969,182.944 274.214,182.944 274.458,182.944 274.703,182.944 274.947,182.944 275.192,182.944 275.436,182.944 275.681,182.944 275.925,182.944 276.17,182.944 276.414,182.944 276.659,182.944 276.903,182.944 277.148,182.944 277.392,182.944 277.637,182.944 277.881,182.944 278.126,182.944 278.37,182.944 278.615,182.944 278.859,182.944 279.103,182.944 279.348,182.944 279.592,182.944 279.837,182.944 280.081,182.944 280.326,182.944 280.57,182.944 280.815,182.944 281.059,182.944 281.304,182.944 281.548,182.944 281.793,182.944 282.037,182.944 282.282,182.944 282.526,182.944 282.771,182.944 283.015,182.944 283.26,182.944 283.504,182.944 283.749,182.944 283.993,182.944 284.237,182.944 284.482,182.944 284.726,182.944 284.971,182.944 285.215,182.944 285.46,182.944 285.704,182.944 285.949,182.944 286.193,182.944 286.438,182.944 286.682,182.944 286.927,182.944 287.171,182.944 287.416,182.944 287.66,182.944 287.905,182.944 288.149,182.944 288.394,182.944 288.638,182.944 288.882,182.944 289.127,182.944 289.371,182.944 289.616,182.944 289.86,182.944 290.105,182.944 290.349,182.944 290.594,182.944 290.838,182.944 291.083,182.944 291.327,182.944 291.572,182.944 291.816,182.944 292.061,182.944 292.305,182.944 292.55,182.944 292.794,182.944 293.039,182.944 293.283,182.944 293.528,182.944 293.772,182.944 294.016,182.944 294.261,182.944 294.505,182.944 294.75,182.944 294.994,182.944 295.239,182.944 295.483,182.944 295.728,182.944 295.972,182.944 296.217,182.944 296.461,182.944 296.706,182.944 296.95,182.944 297.195,182.944 297.439,182.944 297.684,182.944 297.928,182.944 298.173,182.944 298.417,182.944 298.662,182.944 298.906,182.944 299.151,182.944 299.395,182.944 299.639,182.944 299.884,182.944 300.128,182.944 300.373,182.944 300.617,182.944 300.862,182.944 301.106,182.944 301.351,182.944 301.595,182.944 301.84,182.944 302.084,182.944 302.329,182.944 302.573,182.944 302.818,182.944 303.062,182.944 303.307,182.944 303.551,182.944 303.796,182.944 304.04,182.944 304.285,182.944 304.529,182.944 304.773,182.944 305.018,182.944 305.262,182.944 305.507,182.944 305.751,182.944 305.996,182.944 306.24,182.944 306.485,182.944 306.729,182.944 306.974,182.944 307.218,182.944 307.463,182.944 307.707,182.944 307.952,182.944 308.196,182.944 308.441,182.944 308.685,182.944 308.93,182.944 309.174,182.944 309.418,182.944 309.663,182.944 309.907,182.944 310.152,182.944 310.396,182.944 310.641,182.944 310.885,182.944 311.13,182.944 311.374,182.944 311.619,182.944 311.863,182.944 312.108,182.944 312.352,182.944 312.597,182.944 312.841,182.944 313.086,182.944 313.33,182.944 313.575,182.944 313.819,182.944 314.064,182.944 314.308,182.944 314.552,182.944 314.797,182.944 315.041,182.944 315.286,182.944" stroke="#0071bc" stroke-linecap="butt" stroke-linejoin="round" stroke-width="0.5"/>
  </g>
 </g>
</svg>
