<?xml version='1.0' encoding='UTF-8' standalone='no'?>
<svg height="315pt" viewBox="0 0 420 315" width="420pt" xmlns="http://www.w3.org/2000/svg" xmlns:xlink="http://www.w3.org/1999/xlink">
 <title>Figure 1</title>
 <desc>
Creator: GL2PS 1.4.2, (C) 1999-2020 C. Geuzaine
For: Octave
CreationDate: Sat Jul 11 16:23:05 2026
</desc>
 <defs/>
 <polygon fill="#ffffff" points="0,0 420,0 420,315 0,315"/>
 <g>
  <polygon fill="#ffffff" points="0,315 420,315 420,0 0,0" shape-rendering="crispEdges"/>
  <clipPath id="cp00420315">
   <polygon points="0,315 420,315 420,0 0,0"/>
  </clipPath>
  <g clip-path="url(#cp00420315)">
   <polygon fill="#ffffff" points="54.6239,130.297 380.266,130.297 380.266,27.6353 54.6239,27.6353" shape-rendering="crispEdges"/>
   <polyline fill="none" points="79.1309,130.297 79.1309,27.6353" stroke="#191919" stroke-dasharray="1,3,1,3,1,3,1,3" stroke-linecap="butt" stroke-linejoin="miter" stroke-opacity="0.25" stroke-width="0.5"/>
   <polyline fill="none" points="93.4666,130.297 93.4666,27.6353" stroke="#191919" stroke-dasharray="1,3,1,3,1,3,1,3" stroke-linecap="butt" stroke-linejoin="miter" stroke-opacity="0.25" stroke-width="0.5"/>
   <polyline fill="none" points="103.638,130.297 103.638,27.6353" stroke="#191919" stroke-dasharray="1,3,1,3,1,3,1,3" stroke-linecap="butt" stroke-linejoin="miter" stroke-opacity="0.25" stroke-width="0.5"/>
   <polyline fill="none" points="111.527,130.297 111.527,27.6353" stroke="#191919" stroke-dasharray="1,3,1,3,1,3,1,3" stroke-linecap="butt" stroke-linejoin="miter" stroke-opacity="0.25" stroke-width="0.5"/>
   <polyline fill="none" points="117.974,130.297 117.974,27.6353" stroke="#191919" stroke-dasharray="1,3,1,3,1,3,1,3" stroke-linecap="butt" stroke-linejoin="miter" stroke-opacity="0.25" stroke-width="0.5"/>
   <polyline fill="none" points="123.424,130.297 123.424,27.6353" stroke="#191919" stroke-dasharray="1,3,1,3,1,3,1,3" stroke-linecap="butt" stroke-linejoin="miter" stroke-opacity="0.25" stroke-width="0.5"/>
   <polyline fill="none" points="128.145,130.297 128.145,27.6353" stroke="#191919" stroke-dasharray="1,3,1,3,1,3,1,3" stroke-linecap="butt" stroke-linejoin="miter" stroke-opacity="0.25" stroke-width="0.5"/>
   <polyline fill="none" points="132.309,130.297 132.309,27.6353" stroke="#191919" stroke-dasharray="1,3,1,3,1,3,1,3" stroke-linecap="butt" stroke-linejoin="miter" stroke-opacity="0.25" stroke-width="0.5"/>
   <polyline fill="none" points="160.541,130.297 160.541,27.6353" stroke="#191919" stroke-dasharray="1,3,1,3,1,3,1,3" stroke-linecap="butt" stroke-linejoin="miter" stroke-opacity="0.25" stroke-width="0.5"/>
   <polyline fill="none" points="174.877,130.297 174.877,27.6353" stroke="#191919" stroke-dasharray="1,3,1,3,1,3,1,3" stroke-linecap="butt" stroke-linejoin="miter" stroke-opacity="0.25" stroke-width="0.5"/>
   <polyline fill="none" points="185.049,130.297 185.049,27.6353" stroke="#191919" stroke-dasharray="1,3,1,3,1,3,1,3" stroke-linecap="butt" stroke-linejoin="miter" stroke-opacity="0.25" stroke-width="0.5"/>
   <polyline fill="none" points="192.938,130.297 192.938,27.6353" stroke="#191919" stroke-dasharray="1,3,1,3,1,3,1,3" stroke-linecap="butt" stroke-linejoin="miter" stroke-opacity="0.25" stroke-width="0.5"/>
   <polyline fill="none" points="199.384,130.297 199.384,27.6353" stroke="#191919" stroke-dasharray="1,3,1,3,1,3,1,3" stroke-linecap="butt" stroke-linejoin="miter" stroke-opacity="0.25" stroke-width="0.5"/>
   <polyline fill="none" points="204.834,130.297 204.834,27.6353" stroke="#191919" stroke-dasharray="1,3,1,3,1,3,1,3" stroke-linecap="butt" stroke-linejoin="miter" stroke-opacity="0.25" stroke-width="0.5"/>
   <polyline fill="none" points="209.556,130.297 209.556,27.6353" stroke="#191919" stroke-dasharray="1,3,1,3,1,3,1,3" stroke-linecap="butt" stroke-linejoin="miter" stroke-opacity="0.25" stroke-width="0.5"/>
   <polyline fill="none" points="213.72,130.297 213.72,27.6353" stroke="#191919" stroke-dasharray="1,3,1,3,1,3,1,3" stroke-linecap="butt" stroke-linejoin="miter" stroke-opacity="0.25" stroke-width="0.5"/>
   <polyline fill="none" points="241.952,130.297 241.952,27.6353" stroke="#191919" stroke-dasharray="1,3,1,3,1,3,1,3" stroke-linecap="butt" stroke-linejoin="miter" stroke-opacity="0.25" stroke-width="0.5"/>
   <polyline fill="none" points="256.288,130.297 256.288,27.6353" stroke="#191919" stroke-dasharray="1,3,1,3,1,3,1,3" stroke-linecap="butt" stroke-linejoin="miter" stroke-opacity="0.25" stroke-width="0.5"/>
   <polyline fill="none" points="266.459,130.297 266.459,27.6353" stroke="#191919" stroke-dasharray="1,3,1,3,1,3,1,3" stroke-linecap="butt" stroke-linejoin="miter" stroke-opacity="0.25" stroke-width="0.5"/>
   <polyline fill="none" points="274.349,130.297 274.349,27.6353" stroke="#191919" stroke-dasharray="1,3,1,3,1,3,1,3" stroke-linecap="butt" stroke-linejoin="miter" stroke-opacity="0.25" stroke-width="0.5"/>
   <polyline fill="none" points="280.795,130.297 280.795,27.6353" stroke="#191919" stroke-dasharray="1,3,1,3,1,3,1,3" stroke-linecap="butt" stroke-linejoin="miter" stroke-opacity="0.25" stroke-width="0.5"/>
   <polyline fill="none" points="286.245,130.297 286.245,27.6353" stroke="#191919" stroke-dasharray="1,3,1,3,1,3,1,3" stroke-linecap="butt" stroke-linejoin="miter" stroke-opacity="0.25" stroke-width="0.5"/>
   <polyline fill="none" points="290.966,130.297 290.966,27.6353" stroke="#191919" stroke-dasharray="1,3,1,3,1,3,1,3" stroke-linecap="butt" stroke-linejoin="miter" stroke-opacity="0.25" stroke-width="0.5"/>
   <polyline fill="none" points="295.13,130.297 295.13,27.6353" stroke="#191919" stroke-dasharray="1,3,1,3,1,3,1,3" stroke-linecap="butt" stroke-linejoin="miter" stroke-opacity="0.25" stroke-width="0.5"/>
   <polyline fill="none" points="323.363,130.297 323.363,27.6353" stroke="#191919" stroke-dasharray="1,3,1,3,1,3,1,3" stroke-linecap="butt" stroke-linejoin="miter" stroke-opacity="0.25" stroke-width="0.5"/>
   <polyline fill="none" points="337.698,130.297 337.698,27.6353" stroke="#191919" stroke-dasharray="1,3,1,3,1,3,1,3" stroke-linecap="butt" stroke-linejoin="miter" stroke-opacity="0.25" stroke-width="0.5"/>
   <polyline fill="none" points="347.87,130.297 347.87,27.6353" stroke="#191919" stroke-dasharray="1,3,1,3,1,3,1,3" stroke-linecap="butt" stroke-linejoin="miter" stroke-opacity="0.25" stroke-width="0.5"/>
   <polyline fill="none" points="355.759,130.297 355.759,27.6353" stroke="#191919" stroke-dasharray="1,3,1,3,1,3,1,3" stroke-linecap="butt" stroke-linejoin="miter" stroke-opacity="0.25" stroke-width="0.5"/>
   <polyline fill="none" points="362.205,130.297 362.205,27.6353" stroke="#191919" stroke-dasharray="1,3,1,3,1,3,1,3" stroke-linecap="butt" stroke-linejoin="miter" stroke-opacity="0.25" stroke-width="0.5"/>
   <polyline fill="none" points="367.656,130.297 367.656,27.6353" stroke="#191919" stroke-dasharray="1,3,1,3,1,3,1,3" stroke-linecap="butt" stroke-linejoin="miter" stroke-opacity="0.25" stroke-width="0.5"/>
   <polyline fill="none" points="372.377,130.297 372.377,27.6353" stroke="#191919" stroke-dasharray="1,3,1,3,1,3,1,3" stroke-linecap="butt" stroke-linejoin="miter" stroke-opacity="0.25" stroke-width="0.5"/>
   <polyline fill="none" points="376.541,130.297 376.541,27.6353" stroke="#191919" stroke-dasharray="1,3,1,3,1,3,1,3" stroke-linecap="butt" stroke-linejoin="miter" stroke-opacity="0.25" stroke-width="0.5"/>
   <polyline fill="none" points="54.6239,130.297 54.6239,27.6353" stroke="#262626" stroke-dasharray="16,0" stroke-linecap="butt" stroke-linejoin="miter" stroke-opacity="0.15" stroke-width="0.5"/>
   <polyline fill="none" points="136.034,130.297 136.034,27.6353" stroke="#262626" stroke-dasharray="16,0" stroke-linecap="butt" stroke-linejoin="miter" stroke-opacity="0.15" stroke-width="0.5"/>
   <polyline fill="none" points="217.445,130.297 217.445,27.6353" stroke="#262626" stroke-dasharray="16,0" stroke-linecap="butt" stroke-linejoin="miter" stroke-opacity="0.15" stroke-width="0.5"/>
   <polyline fill="none" points="298.856,130.297 298.856,27.6353" stroke="#262626" stroke-dasharray="16,0" stroke-linecap="butt" stroke-linejoin="miter" stroke-opacity="0.15" stroke-width="0.5"/>
   <polyline fill="none" points="380.266,130.297 380.266,27.6353" stroke="#262626" stroke-dasharray="16,0" stroke-linecap="butt" stroke-linejoin="miter" stroke-opacity="0.15" stroke-width="0.5"/>
   <polyline fill="none" points="79.1309,130.297 79.1309,128.674" stroke="#262626" stroke-linecap="butt" stroke-linejoin="miter" stroke-width="0.5"/>
   <polyline fill="none" points="79.1309,27.6353 79.1309,29.2582" stroke="#262626" stroke-linecap="butt" stroke-linejoin="miter" stroke-width="0.5"/>
   <polyline fill="none" points="93.4666,130.297 93.4666,128.674" stroke="#262626" stroke-linecap="butt" stroke-linejoin="miter" stroke-width="0.5"/>
   <polyline fill="none" points="93.4666,27.6353 93.4666,29.2582" stroke="#262626" stroke-linecap="butt" stroke-linejoin="miter" stroke-width="0.5"/>
   <polyline fill="none" points="103.638,130.297 103.638,128.674" stroke="#262626" stroke-linecap="butt" stroke-linejoin="miter" stroke-width="0.5"/>
   <polyline fill="none" points="103.638,27.6353 103.638,29.2582" stroke="#262626" stroke-linecap="butt" stroke-linejoin="miter" stroke-width="0.5"/>
   <polyline fill="none" points="111.527,130.297 111.527,128.674" stroke="#262626" stroke-linecap="butt" stroke-linejoin="miter" stroke-width="0.5"/>
   <polyline fill="none" points="111.527,27.6353 111.527,29.2582" stroke="#262626" stroke-linecap="butt" stroke-linejoin="miter" stroke-width="0.5"/>
   <polyline fill="none" points="117.974,130.297 117.974,128.674" stroke="#262626" stroke-linecap="butt" stroke-linejoin="miter" stroke-width="0.5"/>
   <polyline fill="none" points="117.974,27.6353 117.974,29.2582" stroke="#262626" stroke-linecap="butt" stroke-linejoin="miter" stroke-width="0.5"/>
   <polyline fill="none" points="123.424,130.297 123.424,128.674" stroke="#262626" stroke-linecap="butt" stroke-linejoin="miter" stroke-width="0.5"/>
   <polyline fill="none" points="123.424,27.6353 123.424,29.2582" stroke="#262626" stroke-linecap="butt" stroke-linejoin="miter" stroke-width="0.5"/>
   <polyline fill="none" points="128.145,130.297 128.145,128.674" stroke="#262626" stroke-linecap="butt" stroke-linejoin="miter" stroke-width="0.5"/>
   <polyline fill="none" points="128.145,27.6353 128.145,29.2582" stroke="#262626" stroke-linecap="butt" stroke-linejoin="miter" stroke-width="0.5"/>
   <polyline fill="none" points="132.309,130.297 132.309,128.674" stroke="#262626" stroke-linecap="butt" stroke-linejoin="miter" stroke-width="0.5"/>
   <polyline fill="none" points="132.309,27.6353 132.309,29.2582" stroke="#262626" stroke-linecap="butt" stroke-linejoin="miter" stroke-width="0.5"/>
   <polyline fill="none" points="160.541,130.297 160.541,128.674" stroke="#262626" stroke-linecap="butt" stroke-linejoin="miter" stroke-width="0.5"/>
   <polyline fill="none" points="160.541,27.6353 160.541,29.2582" stroke="#262626" stroke-linecap="butt" stroke-linejoin="miter" stroke-width="0.5"/>
   <polyline fill="none" points="174.877,130.297 174.877,128.674" stroke="#262626" stroke-linecap="butt" stroke-linejoin="miter" stroke-width="0.5"/>
   <polyline fill="none" points="174.877,27.6353 174.877,29.2582" stroke="#262626" stroke-linecap="butt" stroke-linejoin="miter" stroke-width="0.5"/>
   <polyline fill="none" points="185.049,130.297 185.049,128.674" stroke="#262626" stroke-linecap="butt" stroke-linejoin="miter" stroke-width="0.5"/>
   <polyline fill="none" points="185.049,27.6353 185.049,29.2582" stroke="#262626" stroke-linecap="butt" stroke-linejoin="miter" stroke-width="0.5"/>
   <polyline fill="none" points="192.938,130.297 192.938,128.674" stroke="#262626" stroke-linecap="butt" stroke-linejoin="miter" stroke-width="0.5"/>
   <polyline fill="none" points="192.938,27.6353 192.938,29.2582" stroke="#262626" stroke-linecap="butt" stroke-linejoin="miter" stroke-width="0.5"/>
   <polyline fill="none" points="199.384,130.297 199.384,128.674" stroke="#262626" stroke-linecap="butt" stroke-linejoin="miter" stroke-width="0.5"/>
   <polyline fill="none" points="199.384,27.6353 199.384,29.2582" stroke="#262626" stroke-linecap="butt" stroke-linejoin="miter" stroke-width="0.5"/>
   <polyline fill="none" points="204.834,130.297 204.834,128.674" stroke="#262626" stroke-linecap="butt" stroke-linejoin="miter" stroke-width="0.5"/>
   <polyline fill="none" points="204.834,27.6353 204.834,29.2582" stroke="#262626" stroke-linecap="butt" stroke-linejoin="miter" stroke-width="0.5"/>
   <polyline fill="none" points="209.556,130.297 209.556,128.674" stroke="#262626" stroke-linecap="butt" stroke-linejoin="miter" stroke-width="0.5"/>
   <polyline fill="none" points="209.556,27.6353 209.556,29.2582" stroke="#262626" stroke-linecap="butt" stroke-linejoin="miter" stroke-width="0.5"/>
   <polyline fill="none" points="213.72,130.297 213.72,128.674" stroke="#262626" stroke-linecap="butt" stroke-linejoin="miter" stroke-width="0.5"/>
   <polyline fill="none" points="213.72,27.6353 213.72,29.2582" stroke="#262626" stroke-linecap="butt" stroke-linejoin="miter" stroke-width="0.5"/>
   <polyline fill="none" points="241.952,130.297 241.952,128.674" stroke="#262626" stroke-linecap="butt" stroke-linejoin="miter" stroke-width="0.5"/>
   <polyline fill="none" points="241.952,27.6353 241.952,29.2582" stroke="#262626" stroke-linecap="butt" stroke-linejoin="miter" stroke-width="0.5"/>
   <polyline fill="none" points="256.288,130.297 256.288,128.674" stroke="#262626" stroke-linecap="butt" stroke-linejoin="miter" stroke-width="0.5"/>
   <polyline fill="none" points="256.288,27.6353 256.288,29.2582" stroke="#262626" stroke-linecap="butt" stroke-linejoin="miter" stroke-width="0.5"/>
   <polyline fill="none" points="266.459,130.297 266.459,128.674" stroke="#262626" stroke-linecap="butt" stroke-linejoin="miter" stroke-width="0.5"/>
   <polyline fill="none" points="266.459,27.6353 266.459,29.2582" stroke="#262626" stroke-linecap="butt" stroke-linejoin="miter" stroke-width="0.5"/>
   <polyline fill="none" points="274.349,130.297 274.349,128.674" stroke="#262626" stroke-linecap="butt" stroke-linejoin="miter" stroke-width="0.5"/>
   <polyline fill="none" points="274.349,27.6353 274.349,29.2582" stroke="#262626" stroke-linecap="butt" stroke-linejoin="miter" stroke-width="0.5"/>
   <polyline fill="none" points="280.795,130.297 280.795,128.674" stroke="#262626" stroke-linecap="butt" stroke-linejoin="miter" stroke-width="0.5"/>
   <polyline fill="none" points="280.795,27.6353 280.795,29.2582" stroke="#262626" stroke-linecap="butt" stroke-linejoin="miter" stroke-width="0.5"/>
   <polyline fill="none" points="286.245,130.297 286.245,128.674" stroke="#262626" stroke-linecap="butt" stroke-linejoin="miter" stroke-width="0.5"/>
   <polyline fill="none" points="286.245,27.6353 286.245,29.2582" stroke="#262626" stroke-linecap="butt" stroke-linejoin="miter" stroke-width="0.5"/>
   <polyline fill="none" points="290.966,130.297 290.966,128.674" stroke="#262626" stroke-linecap="butt" stroke-linejoin="miter" stroke-width="0.5"/>
   <polyline fill="none" points="290.966,27.6353 290.966,29.2582" stroke="#262626" stroke-linecap="butt" stroke-linejoin="miter" stroke-width="0.5"/>
   <polyline fill="none" points="295.13,130.297 295.13,128.674" stroke="#262626" stroke-linecap="butt" stroke-linejoin="miter" stroke-width="0.5"/>
   <polyline fill="none" points="295.13,27.6353 295.13,29.2582" stroke="#262626" stroke-linecap="butt" stroke-linejoin="miter" stroke-width="0.5"/>
   <polyline fill="none" points="323.363,130.297 323.363,128.674" stroke="#262626" stroke-linecap="butt" stroke-linejoin="miter" stroke-width="0.5"/>
   <polyline fill="none" points="323.363,27.6353 323.363,29.2582" stroke="#262626" stroke-linecap="butt" stroke-linejoin="miter" stroke-width="0.5"/>
   <polyline fill="none" points="337.698,130.297 337.698,128.674" stroke="#262626" stroke-linecap="butt" stroke-linejoin="miter" stroke-width="0.5"/>
   <polyline fill="none" points="337.698,27.6353 337.698,29.2582" stroke="#262626" stroke-linecap="butt" stroke-linejoin="miter" stroke-width="0.5"/>
   <polyline fill="none" points="347.87,130.297 347.87,128.674" stroke="#262626" stroke-linecap="butt" stroke-linejoin="miter" stroke-width="0.5"/>
   <polyline fill="none" points="347.87,27.6353 347.87,29.2582" stroke="#262626" stroke-linecap="butt" stroke-linejoin="miter" stroke-width="0.5"/>
   <polyline fill="none" points="355.759,130.297 355.759,128.674" stroke="#262626" stroke-linecap="butt" stroke-linejoin="miter" stroke-width="0.5"/>
   <polyline fill="none" points="355.759,27.6353 355.759,29.2582" stroke="#262626" stroke-linecap="butt" stroke-linejoin="miter" stroke-width="0.5"/>
   <polyline fill="none" points="362.205,130.297 362.205,128.674" stroke="#262626" stroke-linecap="butt" stroke-linejoin="miter" stroke-width="0.5"/>
   <polyline fill="none" points="362.205,27.6353 362.205,29.2582" stroke="#262626" stroke-linecap="butt" stroke-linejoin="miter" stroke-width="0.5"/>
   <polyline fill="none" points="367.656,130.297 367.656,128.674" stroke="#262626" stroke-linecap="butt" stroke-linejoin="miter" stroke-width="0.5"/>
   <polyline fill="none" points="367.656,27.6353 367.656,29.2582" stroke="#262626" stroke-linecap="butt" stroke-linejoin="miter" stroke-width="0.5"/>
   <polyline fill="none" points="372.377,130.297 372.377,128.674" stroke="#262626" stroke-linecap="butt" stroke-linejoin="miter" stroke-width="0.5"/>
   <polyline fill="none" points="372.377,27.6353 372.377,29.2582" stroke="#262626" stroke-linecap="butt" stroke-linejoin="miter" stroke-width="0.5"/>
   <polyline fill="none" points="376.541,130.297 376.541,128.674" stroke="#262626" stroke-linecap="butt" stroke-linejoin="miter" stroke-width="0.5"/>
   <polyline fill="none" points="376.541,27.6353 376.541,29.2582" stroke="#262626" stroke-linecap="butt" stroke-linejoin="miter" stroke-width="0.5"/>
   <polyline fill="none" points="54.6239,130.297 54.6239,127.051" stroke="#262626" stroke-linecap="butt" stroke-linejoin="miter" stroke-width="0.5"/>
   <polyline fill="none" points="54.6239,27.6353 54.6239,30.8811" stroke="#262626" stroke-linecap="butt" stroke-linejoin="miter" stroke-width="0.5"/>
   <polyline fill="none" points="136.034,130.297 136.034,127.051" stroke="#262626" stroke-linecap="butt" stroke-linejoin="miter" stroke-width="0.5"/>
   <polyline fill="none" points="136.034,27.6353 136.034,30.8811" stroke="#262626" stroke-linecap="butt" stroke-linejoin="miter" stroke-width="0.5"/>
   <polyline fill="none" points="217.445,130.297 217.445,127.051" stroke="#262626" stroke-linecap="butt" stroke-linejoin="miter" stroke-width="0.5"/>
   <polyline fill="none" points="217.445,27.6353 217.445,30.8811" stroke="#262626" stroke-linecap="butt" stroke-linejoin="miter" stroke-width="0.5"/>
   <polyline fill="none" points="298.856,130.297 298.856,127.051" stroke="#262626" stroke-linecap="butt" stroke-linejoin="miter" stroke-width="0.5"/>
   <polyline fill="none" points="298.856,27.6353 298.856,30.8811" stroke="#262626" stroke-linecap="butt" stroke-linejoin="miter" stroke-width="0.5"/>
   <polyline fill="none" points="380.266,130.297 380.266,127.051" stroke="#262626" stroke-linecap="butt" stroke-linejoin="miter" stroke-width="0.5"/>
   <polyline fill="none" points="380.266,27.6353 380.266,30.8811" stroke="#262626" stroke-linecap="butt" stroke-linejoin="miter" stroke-width="0.5"/>
   <g font-family="FreeSans" font-size="10" font-style="normal" font-weight="normal" transform="translate(46.6239,147.772) rotate(-0,8,-10)" xml:space="preserve">
    <text fill="rgb(38,38,38)" x="0 6 " y="-0">10</text>
    <text fill="rgb(38,38,38)" font-size="7" x="12 " y="-4">1</text>
   </g>
   <g font-family="FreeSans" font-size="10" font-style="normal" font-weight="normal" transform="translate(128.034,147.772) rotate(-0,8,-10)" xml:space="preserve">
    <text fill="rgb(38,38,38)" x="0 6 " y="-0">10</text>
    <text fill="rgb(38,38,38)" font-size="7" x="12 " y="-4">2</text>
   </g>
   <g font-family="FreeSans" font-size="10" font-style="normal" font-weight="normal" transform="translate(209.445,147.772) rotate(-0,8,-10)" xml:space="preserve">
    <text fill="rgb(38,38,38)" x="0 6 " y="-0">10</text>
    <text fill="rgb(38,38,38)" font-size="7" x="12 " y="-4">3</text>
   </g>
   <g font-family="FreeSans" font-size="10" font-style="normal" font-weight="normal" transform="translate(290.856,147.772) rotate(-0,8,-10)" xml:space="preserve">
    <text fill="rgb(38,38,38)" x="0 6 " y="-0">10</text>
    <text fill="rgb(38,38,38)" font-size="7" x="12 " y="-4">4</text>
   </g>
   <g font-family="FreeSans" font-size="10" font-style="normal" font-weight="normal" transform="translate(372.266,147.772) rotate(-0,8,-10)" xml:space="preserve">
    <text fill="rgb(38,38,38)" x="0 6 " y="-0">10</text>
    <text fill="rgb(38,38,38)" font-size="7" x="12 " y="-4">5</text>
   </g>
   <polyline fill="none" points="54.6239,130.297 380.266,130.297" stroke="#262626" stroke-dasharray="16,0" stroke-linecap="butt" stroke-linejoin="miter" stroke-opacity="0.15" stroke-width="0.5"/>
   <polyline fill="none" points="54.6239,109.765 380.266,109.765" stroke="#262626" stroke-dasharray="16,0" stroke-linecap="butt" stroke-linejoin="miter" stroke-opacity="0.15" stroke-width="0.5"/>
   <polyline fill="none" points="54.6239,89.2324 380.266,89.2324" stroke="#262626" stroke-dasharray="16,0" stroke-linecap="butt" stroke-linejoin="miter" stroke-opacity="0.15" stroke-width="0.5"/>
   <polyline fill="none" points="54.6239,68.7 380.266,68.7" stroke="#262626" stroke-dasharray="16,0" stroke-linecap="butt" stroke-linejoin="miter" stroke-opacity="0.15" stroke-width="0.5"/>
   <polyline fill="none" points="54.6239,48.1677 380.266,48.1677" stroke="#262626" stroke-dasharray="16,0" stroke-linecap="butt" stroke-linejoin="miter" stroke-opacity="0.15" stroke-width="0.5"/>
   <polyline fill="none" points="54.6239,27.6353 380.266,27.6353" stroke="#262626" stroke-dasharray="16,0" stroke-linecap="butt" stroke-linejoin="miter" stroke-opacity="0.15" stroke-width="0.5"/>
   <polyline fill="none" points="54.6239,130.297 57.8767,130.297" stroke="#262626" stroke-linecap="butt" stroke-linejoin="miter" stroke-width="0.5"/>
   <polyline fill="none" points="380.266,130.297 377.013,130.297" stroke="#262626" stroke-linecap="butt" stroke-linejoin="miter" stroke-width="0.5"/>
   <polyline fill="none" points="54.6239,109.765 57.8767,109.765" stroke="#262626" stroke-linecap="butt" stroke-linejoin="miter" stroke-width="0.5"/>
   <polyline fill="none" points="380.266,109.765 377.013,109.765" stroke="#262626" stroke-linecap="butt" stroke-linejoin="miter" stroke-width="0.5"/>
   <polyline fill="none" points="54.6239,89.2324 57.8767,89.2324" stroke="#262626" stroke-linecap="butt" stroke-linejoin="miter" stroke-width="0.5"/>
   <polyline fill="none" points="380.266,89.2324 377.013,89.2324" stroke="#262626" stroke-linecap="butt" stroke-linejoin="miter" stroke-width="0.5"/>
   <polyline fill="none" points="54.6239,68.7 57.8767,68.7" stroke="#262626" stroke-linecap="butt" stroke-linejoin="miter" stroke-width="0.5"/>
   <polyline fill="none" points="380.266,68.7 377.013,68.7" stroke="#262626" stroke-linecap="butt" stroke-linejoin="miter" stroke-width="0.5"/>
   <polyline fill="none" points="54.6239,48.1677 57.8767,48.1677" stroke="#262626" stroke-linecap="butt" stroke-linejoin="miter" stroke-width="0.5"/>
   <polyline fill="none" points="380.266,48.1677 377.013,48.1677" stroke="#262626" stroke-linecap="butt" stroke-linejoin="miter" stroke-width="0.5"/>
   <polyline fill="none" points="54.6239,27.6353 57.8767,27.6353" stroke="#262626" stroke-linecap="butt" stroke-linejoin="miter" stroke-width="0.5"/>
   <polyline fill="none" points="380.266,27.6353 377.013,27.6353" stroke="#262626" stroke-linecap="butt" stroke-linejoin="miter" stroke-width="0.5"/>
   <g font-family="FreeSans" font-size="10" font-style="normal" font-weight="normal" transform="translate(28.6294,134.297) rotate(-0,21,-4)" xml:space="preserve">
    <text fill="rgb(38,38,38)" x="0 3 9 15 " y="-0">-100</text>
   </g>
   <g font-family="FreeSans" font-size="10" font-style="normal" font-weight="normal" transform="translate(43.6294,113.765) rotate(-0,6,-4)" xml:space="preserve">
    <text fill="rgb(38,38,38)" x="0 " y="-0">0</text>
   </g>
   <g font-family="FreeSans" font-size="10" font-style="normal" font-weight="normal" transform="translate(31.6294,93.2324) rotate(-0,18,-4)" xml:space="preserve">
    <text fill="rgb(38,38,38)" x="0 6 12 " y="-0">100</text>
   </g>
   <g font-family="FreeSans" font-size="10" font-style="normal" font-weight="normal" transform="translate(31.6294,72.7) rotate(-0,18,-4)" xml:space="preserve">
    <text fill="rgb(38,38,38)" x="0 6 12 " y="-0">200</text>
   </g>
   <g font-family="FreeSans" font-size="10" font-style="normal" font-weight="normal" transform="translate(31.6294,52.1677) rotate(-0,18,-4)" xml:space="preserve">
    <text fill="rgb(38,38,38)" x="0 6 12 " y="-0">300</text>
   </g>
   <g font-family="FreeSans" font-size="10" font-style="normal" font-weight="normal" transform="translate(31.6294,31.6353) rotate(-0,18,-4)" xml:space="preserve">
    <text fill="rgb(38,38,38)" x="0 6 12 " y="-0">400</text>
   </g>
   <polyline fill="none" points="54.6239,130.297 380.266,130.297" stroke="#262626" stroke-dasharray="16,0" stroke-linecap="square" stroke-linejoin="miter" stroke-width="0.5"/>
   <polyline fill="none" points="54.6239,27.6353 380.266,27.6353" stroke="#262626" stroke-dasharray="16,0" stroke-linecap="square" stroke-linejoin="miter" stroke-width="0.5"/>
   <polyline fill="none" points="54.6239,130.297 54.6239,27.6353" stroke="#262626" stroke-dasharray="16,0" stroke-linecap="square" stroke-linejoin="miter" stroke-width="0.5"/>
   <polyline fill="none" points="380.266,130.297 380.266,27.6353" stroke="#262626" stroke-dasharray="16,0" stroke-linecap="square" stroke-linejoin="miter" stroke-width="0.5"/>
   <g font-family="FreeSans" font-size="11" font-style="normal" font-weight="bold" transform="translate(186.945,17.6353) rotate(-0,30.5,0)" xml:space="preserve">
    <text fill="rgb(0,0,0)" x="0 8 15 22 28 31 35 38 47 51 57 " y="-3">Bode - G(s)</text>
   </g>
   <g font-family="FreeSans" font-size="11" font-style="normal" font-weight="normal" transform="translate(-10.8706,78.9662) rotate(-90,34.5,0)" xml:space="preserve">
    <text fill="rgb(38,38,38)" x="0 9 15 21 27 29 32 38 44 50 53 59 66 " y="-2">Magnitude[dB]</text>
   </g>
   <polyline fill="none" points="71.0542,103.511 71.2986,103.523 71.5431,103.536 71.7876,103.548 72.0321,103.56 72.2765,103.572 72.521,103.585 72.7655,103.597 73.01,103.609 73.2544,103.622 73.4989,103.634 73.7434,103.646 73.9879,103.659 74.2323,103.671 74.4768,103.683 74.7213,103.696 74.9658,103.708 75.2103,103.72 75.4547,103.733 75.6992,103.745 75.9437,103.757 76.1881,103.77 76.4326,103.782 76.6771,103.794 76.9216,103.807 77.1661,103.819 77.4105,103.831 77.655,103.844 77.8995,103.856 78.144,103.868 78.3884,103.881 78.6329,103.893 78.8774,103.905 79.1219,103.918 79.3663,103.93 79.6108,103.942 79.8553,103.955 80.0998,103.967 80.3443,103.979 80.5887,103.992 80.8332,104.004 81.0777,104.016 81.3222,104.029 81.5666,104.041 81.8111,104.053 82.0556,104.066 82.3001,104.078 82.5445,104.09 82.789,104.103 83.0335,104.115 83.278,104.127 83.5224,104.14 83.7669,104.152 84.0114,104.164 84.2559,104.177 84.5004,104.189 84.7448,104.201 84.9893,104.214 85.2338,104.226 85.4783,104.238 85.7227,104.25 85.9672,104.263 86.2117,104.275 86.4562,104.287 86.7006,104.3 86.9451,104.312 87.1896,104.324 87.4341,104.337 87.6785,104.349 87.923,104.361 88.1675,104.374 88.412,104.386 88.6564,104.398 88.9009,104.411 89.1454,104.423 89.3899,104.435 89.6343,104.448 89.8788,104.46 90.1233,104.472 90.3678,104.485 90.6123,104.497 90.8567,104.509 91.1012,104.522 91.3457,104.534 91.5902,104.546 91.8346,104.559 92.0791,104.571 92.3236,104.583 92.5681,104.596 92.8125,104.608 93.057,104.62 93.3015,104.633 93.546,104.645 93.7905,104.657 94.0349,104.669 94.2794,104.682 94.5239,104.694 94.7683,104.706 95.0128,104.719 95.2573,104.731 95.5018,104.743 95.7462,104.756 95.9907,104.768 96.2352,104.78 96.4797,104.793 96.7242,104.805 96.9686,104.817 97.2131,104.83 97.4576,104.842 97.7021,104.854 97.9465,104.867 98.191,104.879 98.4355,104.891 98.68,104.904 98.9244,104.916 99.1689,104.928 99.4134,104.94 99.6579,104.953 99.9024,104.965 100.147,104.977 100.391,104.99 100.636,105.002 100.88,105.014 101.125,105.027 101.369,105.039 101.614,105.051 101.858,105.064 102.103,105.076 102.347,105.088 102.592,105.101 102.836,105.113 103.081,105.125 103.325,105.138 103.569,105.15 103.814,105.162 104.058,105.174 104.303,105.187 104.547,105.199 104.792,105.211 105.036,105.224 105.281,105.236 105.525,105.248 105.77,105.261 106.014,105.273 106.259,105.285 106.503,105.298 106.748,105.31 106.992,105.322 107.237,105.335 107.481,105.347 107.726,105.359 107.97,105.371 108.215,105.384 108.459,105.396 108.703,105.408 108.948,105.421 109.192,105.433 109.437,105.445 109.681,105.458 109.926,105.47 110.17,105.482 110.415,105.494 110.659,105.507 110.904,105.519 111.148,105.531 111.393,105.544 111.637,105.556 111.882,105.568 112.126,105.581 112.371,105.593 112.615,105.605 112.86,105.618 113.104,105.63 113.349,105.642 113.593,105.654 113.838,105.667 114.082,105.679 114.326,105.691 114.571,105.704 114.815,105.716 115.06,105.728 115.304,105.74 115.549,105.753 115.793,105.765 116.038,105.777 116.282,105.79 116.527,105.802 116.771,105.814 117.016,105.827 117.26,105.839 117.505,105.851 117.749,105.863 117.994,105.876 118.238,105.888 118.483,105.9 118.727,105.913 118.971,105.925 119.216,105.937 119.46,105.949 119.705,105.962 119.949,105.974 120.194,105.986 120.438,105.999 120.683,106.011 120.927,106.023 121.172,106.035 121.416,106.048 121.661,106.06 121.905,106.072 122.15,106.085 122.394,106.097 122.639,106.109 122.883,106.121 123.128,106.134 123.372,106.146 123.617,106.158 123.861,106.17 124.105,106.183 124.35,106.195 124.594,106.207 124.839,106.22 125.083,106.232 125.328,106.244 125.572,106.256 125.817,106.269 126.061,106.281 126.306,106.293 126.55,106.305 126.795,106.318 127.039,106.33 127.284,106.342 127.528,106.354 127.773,106.367 128.017,106.379 128.262,106.391 128.506,106.404 128.751,106.416 128.995,106.428 129.24,106.44 129.484,106.453 129.728,106.465 129.973,106.477 130.217,106.489 130.462,106.502 130.706,106.514 130.951,106.526 131.195,106.538 131.44,106.55 131.684,106.563 131.929,106.575 132.173,106.587 132.418,106.599 132.662,106.612 132.907,106.624 133.151,106.636 133.396,106.648 133.64,106.661 133.885,106.673 134.129,106.685 134.374,106.697 134.618,106.71 134.862,106.722 135.107,106.734 135.351,106.746 135.596,106.758 135.84,106.771 136.085,106.783 136.329,106.795 136.574,106.807 136.818,106.819 137.063,106.832 137.307,106.844 137.552,106.856 137.796,106.868 138.041,106.88 138.285,106.893 138.53,106.905 138.774,106.917 139.019,106.929 139.263,106.941 139.507,106.954 139.752,106.966 139.996,106.978 140.241,106.99 140.485,107.002 140.73,107.015 140.974,107.027 141.219,107.039 141.463,107.051 141.708,107.063 141.952,107.075 142.197,107.088 142.441,107.1 142.686,107.112 142.93,107.124 143.175,107.136 143.419,107.148 143.664,107.161 143.908,107.173 144.153,107.185 144.397,107.197 144.642,107.209 144.886,107.221 145.13,107.233 145.375,107.246 145.619,107.258 145.864,107.27 146.108,107.282 146.353,107.294 146.597,107.306 146.842,107.318 147.086,107.33 147.331,107.342 147.575,107.355 147.82,107.367 148.064,107.379 148.309,107.391 148.553,107.403 148.798,107.415 149.042,107.427 149.287,107.439 149.531,107.451 149.775,107.463 150.02,107.475 150.264,107.488 150.509,107.5 150.753,107.512 150.998,107.524 151.242,107.536 151.487,107.548 151.731,107.56 151.976,107.572 152.22,107.584 152.465,107.596 152.709,107.608 152.954,107.62 153.198,107.632 153.443,107.644 153.687,107.656 153.932,107.668 154.176,107.68 154.421,107.692 154.665,107.704 154.91,107.716 155.154,107.728 155.398,107.74 155.643,107.752 155.887,107.764 156.132,107.776 156.376,107.788 156.621,107.8 156.865,107.812 157.11,107.824 157.354,107.836 157.599,107.848 157.843,107.86 158.088,107.872 158.332,107.883 158.577,107.895 158.821,107.907 159.066,107.919 159.31,107.931 159.555,107.943 159.799,107.955 160.044,107.967 160.288,107.979 160.532,107.99 160.777,108.002 161.021,108.014 161.266,108.026 161.51,108.038 161.755,108.05 161.999,108.061 162.244,108.073 162.488,108.085 162.733,108.097 162.977,108.109 163.222,108.12 163.466,108.132 163.711,108.144 163.955,108.156 164.2,108.167 164.444,108.179 164.689,108.191 164.933,108.203 165.178,108.214 165.422,108.226 165.666,108.238 165.911,108.249 166.155,108.261 166.4,108.273 166.644,108.284 166.889,108.296 167.133,108.308 167.378,108.319 167.622,108.331 167.867,108.343 168.111,108.354 168.356,108.366 168.6,108.377 168.845,108.389 169.089,108.4 169.334,108.412 169.578,108.424 169.823,108.435 170.067,108.447 170.312,108.458 170.556,108.47 170.8,108.481 171.045,108.492 171.289,108.504 171.534,108.515 171.778,108.527 172.023,108.538 172.267,108.55 172.512,108.561 172.756,108.572 173.001,108.584 173.245,108.595 173.49,108.606 173.734,108.618 173.979,108.629 174.223,108.64 174.468,108.652 174.712,108.663 174.957,108.674 175.201,108.685 175.446,108.696 175.69,108.708 175.934,108.719 176.179,108.73 176.423,108.741 176.668,108.752 176.912,108.763 177.157,108.774 177.401,108.785 177.646,108.796 177.89,108.808 178.135,108.819 178.379,108.83 178.624,108.84 178.868,108.851 179.113,108.862 179.357,108.873 179.602,108.884 179.846,108.895 180.091,108.906 180.335,108.917 180.58,108.927 180.824,108.938 181.068,108.949 181.313,108.96 181.557,108.97 181.802,108.981 182.046,108.992 182.291,109.002 182.535,109.013 182.78,109.024 183.024,109.034 183.269,109.045 183.513,109.055 183.758,109.066 184.002,109.076 184.247,109.087 184.491,109.097 184.736,109.107 184.98,109.118 185.225,109.128 185.469,109.138 185.714,109.148 185.958,109.159 186.202,109.169 186.447,109.179 186.691,109.189 186.936,109.199 187.18,109.209 187.425,109.219 187.669,109.229 187.914,109.239 188.158,109.249 188.403,109.259 188.647,109.269 188.892,109.279 189.136,109.288 189.381,109.298 189.625,109.308 189.87,109.317 190.114,109.327 190.359,109.336 190.603,109.346 190.848,109.355 191.092,109.365 191.336,109.374 191.581,109.383 191.825,109.393 192.07,109.402 192.314,109.411 192.559,109.42 192.803,109.429 193.048,109.438 193.292,109.447 193.537,109.456 193.781,109.465 194.026,109.474 194.27,109.483 194.515,109.491 194.759,109.5 195.004,109.509 195.248,109.517 195.493,109.525 195.737,109.534 195.982,109.542 196.226,109.55 196.47,109.559 196.715,109.567 196.959,109.575 197.204,109.583 197.448,109.591 197.693,109.599 197.937,109.606 198.182,109.614 198.426,109.622 198.671,109.629 198.915,109.637 199.16,109.644 199.404,109.651 199.649,109.659 199.893,109.666 200.138,109.673 200.382,109.68 200.627,109.687 200.871,109.693 201.116,109.7 201.36,109.707 201.604,109.713 201.849,109.719 202.093,109.726 202.338,109.732 202.582,109.738 202.827,109.744 203.071,109.75 203.316,109.755 203.56,109.761 203.805,109.766 204.049,109.772 204.294,109.777 204.538,109.782 204.783,109.787 205.027,109.792 205.272,109.797 205.516,109.801 205.761,109.806 206.005,109.81 206.25,109.814 206.494,109.818 206.738,109.822 206.983,109.825 207.227,109.829 207.472,109.832 207.716,109.835 207.961,109.838 208.205,109.841 208.45,109.844 208.694,109.846 208.939,109.848 209.183,109.85 209.428,109.852 209.672,109.854 209.917,109.855 210.161,109.856 210.406,109.857 210.65,109.858 210.895,109.858 211.139,109.859 211.384,109.859 211.628,109.858 211.872,109.858 212.117,109.857 212.361,109.856 212.606,109.854 212.85,109.853 213.095,109.851 213.339,109.848 213.584,109.846 213.828,109.843 214.073,109.839 214.317,109.836 214.562,109.832 214.806,109.827 215.051,109.822 215.295,109.817 215.54,109.811 215.784,109.805 216.029,109.798 216.273,109.791 216.518,109.784 216.762,109.776 217.006,109.767 217.251,109.758 217.495,109.748 217.74,109.738 217.984,109.727 218.229,109.716 218.473,109.703 218.718,109.69 218.962,109.677 219.207,109.663 219.451,109.647 219.696,109.631 219.94,109.615 220.185,109.597 220.429,109.578 220.674,109.558 220.918,109.538 221.163,109.516 221.407,109.493 221.652,109.469 221.896,109.443 222.14,109.416 222.385,109.388 222.629,109.358 222.874,109.327 223.118,109.294 223.363,109.259 223.607,109.222 223.852,109.183 224.096,109.141 224.341,109.097 224.585,109.051 224.83,109.001 225.074,108.949 225.319,108.893 225.563,108.833 225.808,108.77 226.052,108.701 226.297,108.628 226.541,108.549 226.786,108.464 227.03,108.372 227.274,108.272 227.519,108.162 227.763,108.041 228.008,107.908 228.252,107.759 228.497,107.592 228.741,107.402 228.986,107.182 229.23,106.924 229.475,106.612 229.719,106.221 229.964,105.704 230.208,104.946 230.453,103.545 230.652,48.1493 230.697,100.909 230.942,104.257 231.186,105.373 231.431,106.071 231.675,106.583 231.92,106.99 232.164,107.329 232.408,107.621 232.653,107.878 232.897,108.109 233.142,108.318 233.386,108.51 233.631,108.688 233.875,108.854 234.12,109.009 234.364,109.156 234.609,109.295 234.853,109.427 235.098,109.553 235.342,109.673 235.587,109.789 235.831,109.901 236.076,110.008 236.32,110.112 236.565,110.213 236.809,110.31 237.054,110.405 237.298,110.498 237.542,110.587 237.787,110.675 238.031,110.761 238.276,110.844 238.52,110.926 238.765,111.006 239.009,111.085 239.254,111.162 239.498,111.238 239.743,111.312 239.987,111.385 240.232,111.457 240.476,111.528 240.721,111.597 240.965,111.666 241.21,111.734 241.454,111.8 241.699,111.866 241.943,111.931 242.188,111.995 242.432,112.059 242.676,112.121 242.921,112.183 243.165,112.245 243.41,112.305 243.654,112.365 243.899,112.425 244.143,112.483 244.388,112.542 244.632,112.599 244.877,112.657 245.121,112.713 245.366,112.77 245.61,112.825 245.855,112.881 246.099,112.936 246.344,112.99 246.588,113.044 246.833,113.098 247.077,113.151 247.322,113.204 247.566,113.256 247.81,113.309 248.055,113.361 248.299,113.412 248.544,113.463 248.788,113.514 249.033,113.565 249.277,113.615 249.522,113.665 249.766,113.715 250.011,113.765 250.255,113.814 250.5,113.863 250.744,113.912 250.989,113.96 251.233,114.008 251.478,114.057 251.722,114.104 251.967,114.152 252.211,114.199 252.456,114.247 252.7,114.294 252.944,114.341 253.189,114.387 253.433,114.434 253.678,114.48 253.922,114.526 254.167,114.572 254.411,114.618 254.656,114.663 254.9,114.709 255.145,114.754 255.389,114.799 255.634,114.844 255.878,114.889 256.123,114.934 256.367,114.979 256.612,115.023 256.856,115.067 257.101,115.111 257.345,115.155 257.59,115.199 257.834,115.243 258.078,115.287 258.323,115.33 258.567,115.374 258.812,115.417 259.056,115.461 259.301,115.504 259.545,115.547 259.79,115.59 260.034,115.632 260.279,115.675 260.523,115.718 260.768,115.76 261.012,115.803 261.257,115.845 261.501,115.887 261.746,115.93 261.99,115.972 262.235,116.014 262.479,116.055 262.724,116.097 262.968,116.139 263.212,116.181 263.457,116.222 263.701,116.264 263.946,116.305 264.19,116.347 264.435,116.388 264.679,116.429 264.924,116.47 265.168,116.512 265.413,116.553 265.657,116.594 265.902,116.635 266.146,116.675 266.391,116.716 266.635,116.757 266.88,116.798 267.124,116.838 267.369,116.879 267.613,116.919 267.858,116.96 268.102,117 268.346,117.04 268.591,117.081 268.835,117.121 269.08,117.161 269.324,117.201 269.569,117.241 269.813,117.281 270.058,117.321 270.302,117.361 270.547,117.401 270.791,117.441 271.036,117.481 271.28,117.521 271.525,117.56 271.769,117.6 272.014,117.64 272.258,117.679 272.503,117.719 272.747,117.758 272.992,117.798 273.236,117.837 273.48,117.877 273.725,117.916 273.969,117.955 274.214,117.995 274.458,118.034 274.703,118.073 274.947,118.113 275.192,118.152 275.436,118.191 275.681,118.23 275.925,118.269 276.17,118.308 276.414,118.347 276.659,118.386 276.903,118.425 277.148,118.464 277.392,118.503 277.637,118.542 277.881,118.581 278.126,118.619 278.37,118.658 278.615,118.697 278.859,118.736 279.103,118.774 279.348,118.813 279.592,118.852 279.837,118.89 280.081,118.929 280.326,118.968 280.57,119.006 280.815,119.045 281.059,119.083 281.304,119.122 281.548,119.16 281.793,119.199 282.037,119.237 282.282,119.275 282.526,119.314 282.771,119.352 283.015,119.391 283.26,119.429 283.504,119.467 283.749,119.505 283.993,119.544 284.237,119.582 284.482,119.62 284.726,119.658 284.971,119.697 285.215,119.735 285.46,119.773 285.704,119.811 285.949,119.849 286.193,119.887 286.438,119.925 286.682,119.964 286.927,120.002 287.171,120.04 287.416,120.078 287.66,120.116 287.905,120.154 288.149,120.192 288.394,120.23 288.638,120.268 288.882,120.306 289.127,120.344 289.371,120.382 289.616,120.419 289.86,120.457 290.105,120.495 290.349,120.533 290.594,120.571 290.838,120.609 291.083,120.647 291.327,120.684 291.572,120.722 291.816,120.76 292.061,120.798 292.305,120.836 292.55,120.873 292.794,120.911 293.039,120.949 293.283,120.987 293.528,121.024 293.772,121.062 294.016,121.1 294.261,121.137 294.505,121.175 294.75,121.213 294.994,121.251 295.239,121.288 295.483,121.326 295.728,121.363 295.972,121.401 296.217,121.439 296.461,121.476 296.706,121.514 296.95,121.551 297.195,121.589 297.439,121.627 297.684,121.664 297.928,121.702 298.173,121.739 298.417,121.777 298.662,121.814 298.906,121.852 299.151,121.889 299.395,121.927 299.639,121.965 299.884,122.002 300.128,122.039 300.373,122.077 300.617,122.114 300.862,122.152 301.106,122.189 301.351,122.227 301.595,122.264 301.84,122.302 302.084,122.339 302.329,122.377 302.573,122.414 302.818,122.451 303.062,122.489 303.307,122.526 303.551,122.564 303.796,122.601 304.04,122.638 304.285,122.676 304.529,122.713 304.773,122.751 305.018,122.788 305.262,122.825 305.507,122.863 305.751,122.9 305.996,122.937 306.24,122.975 306.485,123.012 306.729,123.049 306.974,123.087 307.218,123.124 307.463,123.161 307.707,123.199 307.952,123.236 308.196,123.273 308.441,123.311 308.685,123.348 308.93,123.385 309.174,123.423 309.418,123.46 309.663,123.497 309.907,123.534 310.152,123.572 310.396,123.609 310.641,123.646 310.885,123.684 311.13,123.721 311.374,123.758 311.619,123.795 311.863,123.833 312.108,123.87 312.352,123.907 312.597,123.944 312.841,123.981 313.086,124.019 313.33,124.056 313.575,124.093 313.819,124.13 314.064,124.168 314.308,124.205 314.552,124.242 314.797,124.279 315.041,124.316 315.286,124.354" stroke="#0071bc" stroke-linecap="butt" stroke-linejoin="round" stroke-width="0.5"/>
  </g>
  <clipPath id="cp00420315">
   <polygon points="0,315 420,315 420,0 0,0"/>
  </clipPath>
  <g clip-path="url(#cp00420315)">
   <polygon fill="#ffffff" points="54.6239,280.473 380.266,280.473 380.266,177.811 54.6239,177.811" shape-rendering="crispEdges"/>
   <polyline fill="none" points="79.1309,280.473 79.1309,177.811" stroke="#191919" stroke-dasharray="1,3,1,3,1,3,1,3" stroke-linecap="butt" stroke-linejoin="miter" stroke-opacity="0.25" stroke-width="0.5"/>
   <polyline fill="none" points="93.4666,280.473 93.4666,177.811" stroke="#191919" stroke-dasharray="1,3,1,3,1,3,1,3" stroke-linecap="butt" stroke-linejoin="miter" stroke-opacity="0.25" stroke-width="0.5"/>
   <polyline fill="none" points="103.638,280.473 103.638,177.811" stroke="#191919" stroke-dasharray="1,3,1,3,1,3,1,3" stroke-linecap="butt" stroke-linejoin="miter" stroke-opacity="0.25" stroke-width="0.5"/>
   <polyline fill="none" points="111.527,280.473 111.527,177.811" stroke="#191919" stroke-dasharray="1,3,1,3,1,3,1,3" stroke-linecap="butt" stroke-linejoin="miter" stroke-opacity="0.25" stroke-width="0.5"/>
   <polyline fill="none" points="117.974,280.473 117.974,177.811" stroke="#191919" stroke-dasharray="1,3,1,3,1,3,1,3" stroke-linecap="butt" stroke-linejoin="miter" stroke-opacity="0.25" stroke-width="0.5"/>
   <polyline fill="none" points="123.424,280.473 123.424,177.811" stroke="#191919" stroke-dasharray="1,3,1,3,1,3,1,3" stroke-linecap="butt" stroke-linejoin="miter" stroke-opacity="0.25" stroke-width="0.5"/>
   <polyline fill="none" points="128.145,280.473 128.145,177.811" stroke="#191919" stroke-dasharray="1,3,1,3,1,3,1,3" stroke-linecap="butt" stroke-linejoin="miter" stroke-opacity="0.25" stroke-width="0.5"/>
   <polyline fill="none" points="132.309,280.473 132.309,177.811" stroke="#191919" stroke-dasharray="1,3,1,3,1,3,1,3" stroke-linecap="butt" stroke-linejoin="miter" stroke-opacity="0.25" stroke-width="0.5"/>
   <polyline fill="none" points="160.541,280.473 160.541,177.811" stroke="#191919" stroke-dasharray="1,3,1,3,1,3,1,3" stroke-linecap="butt" stroke-linejoin="miter" stroke-opacity="0.25" stroke-width="0.5"/>
   <polyline fill="none" points="174.877,280.473 174.877,177.811" stroke="#191919" stroke-dasharray="1,3,1,3,1,3,1,3" stroke-linecap="butt" stroke-linejoin="miter" stroke-opacity="0.25" stroke-width="0.5"/>
   <polyline fill="none" points="185.049,280.473 185.049,177.811" stroke="#191919" stroke-dasharray="1,3,1,3,1,3,1,3" stroke-linecap="butt" stroke-linejoin="miter" stroke-opacity="0.25" stroke-width="0.5"/>
   <polyline fill="none" points="192.938,280.473 192.938,177.811" stroke="#191919" stroke-dasharray="1,3,1,3,1,3,1,3" stroke-linecap="butt" stroke-linejoin="miter" stroke-opacity="0.25" stroke-width="0.5"/>
   <polyline fill="none" points="199.384,280.473 199.384,177.811" stroke="#191919" stroke-dasharray="1,3,1,3,1,3,1,3" stroke-linecap="butt" stroke-linejoin="miter" stroke-opacity="0.25" stroke-width="0.5"/>
   <polyline fill="none" points="204.834,280.473 204.834,177.811" stroke="#191919" stroke-dasharray="1,3,1,3,1,3,1,3" stroke-linecap="butt" stroke-linejoin="miter" stroke-opacity="0.25" stroke-width="0.5"/>
   <polyline fill="none" points="209.556,280.473 209.556,177.811" stroke="#191919" stroke-dasharray="1,3,1,3,1,3,1,3" stroke-linecap="butt" stroke-linejoin="miter" stroke-opacity="0.25" stroke-width="0.5"/>
   <polyline fill="none" points="213.72,280.473 213.72,177.811" stroke="#191919" stroke-dasharray="1,3,1,3,1,3,1,3" stroke-linecap="butt" stroke-linejoin="miter" stroke-opacity="0.25" stroke-width="0.5"/>
   <polyline fill="none" points="241.952,280.473 241.952,177.811" stroke="#191919" stroke-dasharray="1,3,1,3,1,3,1,3" stroke-linecap="butt" stroke-linejoin="miter" stroke-opacity="0.25" stroke-width="0.5"/>
   <polyline fill="none" points="256.288,280.473 256.288,177.811" stroke="#191919" stroke-dasharray="1,3,1,3,1,3,1,3" stroke-linecap="butt" stroke-linejoin="miter" stroke-opacity="0.25" stroke-width="0.5"/>
   <polyline fill="none" points="266.459,280.473 266.459,177.811" stroke="#191919" stroke-dasharray="1,3,1,3,1,3,1,3" stroke-linecap="butt" stroke-linejoin="miter" stroke-opacity="0.25" stroke-width="0.5"/>
   <polyline fill="none" points="274.349,280.473 274.349,177.811" stroke="#191919" stroke-dasharray="1,3,1,3,1,3,1,3" stroke-linecap="butt" stroke-linejoin="miter" stroke-opacity="0.25" stroke-width="0.5"/>
   <polyline fill="none" points="280.795,280.473 280.795,177.811" stroke="#191919" stroke-dasharray="1,3,1,3,1,3,1,3" stroke-linecap="butt" stroke-linejoin="miter" stroke-opacity="0.25" stroke-width="0.5"/>
   <polyline fill="none" points="286.245,280.473 286.245,177.811" stroke="#191919" stroke-dasharray="1,3,1,3,1,3,1,3" stroke-linecap="butt" stroke-linejoin="miter" stroke-opacity="0.25" stroke-width="0.5"/>
   <polyline fill="none" points="290.966,280.473 290.966,177.811" stroke="#191919" stroke-dasharray="1,3,1,3,1,3,1,3" stroke-linecap="butt" stroke-linejoin="miter" stroke-opacity="0.25" stroke-width="0.5"/>
   <polyline fill="none" points="295.13,280.473 295.13,177.811" stroke="#191919" stroke-dasharray="1,3,1,3,1,3,1,3" stroke-linecap="butt" stroke-linejoin="miter" stroke-opacity="0.25" stroke-width="0.5"/>
   <polyline fill="none" points="323.363,280.473 323.363,177.811" stroke="#191919" stroke-dasharray="1,3,1,3,1,3,1,3" stroke-linecap="butt" stroke-linejoin="miter" stroke-opacity="0.25" stroke-width="0.5"/>
   <polyline fill="none" points="337.698,280.473 337.698,177.811" stroke="#191919" stroke-dasharray="1,3,1,3,1,3,1,3" stroke-linecap="butt" stroke-linejoin="miter" stroke-opacity="0.25" stroke-width="0.5"/>
   <polyline fill="none" points="347.87,280.473 347.87,177.811" stroke="#191919" stroke-dasharray="1,3,1,3,1,3,1,3" stroke-linecap="butt" stroke-linejoin="miter" stroke-opacity="0.25" stroke-width="0.5"/>
   <polyline fill="none" points="355.759,280.473 355.759,177.811" stroke="#191919" stroke-dasharray="1,3,1,3,1,3,1,3" stroke-linecap="butt" stroke-linejoin="miter" stroke-opacity="0.25" stroke-width="0.5"/>
   <polyline fill="none" points="362.205,280.473 362.205,177.811" stroke="#191919" stroke-dasharray="1,3,1,3,1,3,1,3" stroke-linecap="butt" stroke-linejoin="miter" stroke-opacity="0.25" stroke-width="0.5"/>
   <polyline fill="none" points="367.656,280.473 367.656,177.811" stroke="#191919" stroke-dasharray="1,3,1,3,1,3,1,3" stroke-linecap="butt" stroke-linejoin="miter" stroke-opacity="0.25" stroke-width="0.5"/>
   <polyline fill="none" points="372.377,280.473 372.377,177.811" stroke="#191919" stroke-dasharray="1,3,1,3,1,3,1,3" stroke-linecap="butt" stroke-linejoin="miter" stroke-opacity="0.25" stroke-width="0.5"/>
   <polyline fill="none" points="376.541,280.473 376.541,177.811" stroke="#191919" stroke-dasharray="1,3,1,3,1,3,1,3" stroke-linecap="butt" stroke-linejoin="miter" stroke-opacity="0.25" stroke-width="0.5"/>
   <polyline fill="none" points="54.6239,280.473 54.6239,177.811" stroke="#262626" stroke-dasharray="16,0" stroke-linecap="butt" stroke-linejoin="miter" stroke-opacity="0.15" stroke-width="0.5"/>
   <polyline fill="none" points="136.034,280.473 136.034,177.811" stroke="#262626" stroke-dasharray="16,0" stroke-linecap="butt" stroke-linejoin="miter" stroke-opacity="0.15" stroke-width="0.5"/>
   <polyline fill="none" points="217.445,280.473 217.445,177.811" stroke="#262626" stroke-dasharray="16,0" stroke-linecap="butt" stroke-linejoin="miter" stroke-opacity="0.15" stroke-width="0.5"/>
   <polyline fill="none" points="298.856,280.473 298.856,177.811" stroke="#262626" stroke-dasharray="16,0" stroke-linecap="butt" stroke-linejoin="miter" stroke-opacity="0.15" stroke-width="0.5"/>
   <polyline fill="none" points="380.266,280.473 380.266,177.811" stroke="#262626" stroke-dasharray="16,0" stroke-linecap="butt" stroke-linejoin="miter" stroke-opacity="0.15" stroke-width="0.5"/>
   <polyline fill="none" points="79.1309,280.473 79.1309,278.85" stroke="#262626" stroke-linecap="butt" stroke-linejoin="miter" stroke-width="0.5"/>
   <polyline fill="none" points="79.1309,177.811 79.1309,179.434" stroke="#262626" stroke-linecap="butt" stroke-linejoin="miter" stroke-width="0.5"/>
   <polyline fill="none" points="93.4666,280.473 93.4666,278.85" stroke="#262626" stroke-linecap="butt" stroke-linejoin="miter" stroke-width="0.5"/>
   <polyline fill="none" points="93.4666,177.811 93.4666,179.434" stroke="#262626" stroke-linecap="butt" stroke-linejoin="miter" stroke-width="0.5"/>
   <polyline fill="none" points="103.638,280.473 103.638,278.85" stroke="#262626" stroke-linecap="butt" stroke-linejoin="miter" stroke-width="0.5"/>
   <polyline fill="none" points="103.638,177.811 103.638,179.434" stroke="#262626" stroke-linecap="butt" stroke-linejoin="miter" stroke-width="0.5"/>
   <polyline fill="none" points="111.527,280.473 111.527,278.85" stroke="#262626" stroke-linecap="butt" stroke-linejoin="miter" stroke-width="0.5"/>
   <polyline fill="none" points="111.527,177.811 111.527,179.434" stroke="#262626" stroke-linecap="butt" stroke-linejoin="miter" stroke-width="0.5"/>
   <polyline fill="none" points="117.974,280.473 117.974,278.85" stroke="#262626" stroke-linecap="butt" stroke-linejoin="miter" stroke-width="0.5"/>
   <polyline fill="none" points="117.974,177.811 117.974,179.434" stroke="#262626" stroke-linecap="butt" stroke-linejoin="miter" stroke-width="0.5"/>
   <polyline fill="none" points="123.424,280.473 123.424,278.85" stroke="#262626" stroke-linecap="butt" stroke-linejoin="miter" stroke-width="0.5"/>
   <polyline fill="none" points="123.424,177.811 123.424,179.434" stroke="#262626" stroke-linecap="butt" stroke-linejoin="miter" stroke-width="0.5"/>
   <polyline fill="none" points="128.145,280.473 128.145,278.85" stroke="#262626" stroke-linecap="butt" stroke-linejoin="miter" stroke-width="0.5"/>
   <polyline fill="none" points="128.145,177.811 128.145,179.434" stroke="#262626" stroke-linecap="butt" stroke-linejoin="miter" stroke-width="0.5"/>
   <polyline fill="none" points="132.309,280.473 132.309,278.85" stroke="#262626" stroke-linecap="butt" stroke-linejoin="miter" stroke-width="0.5"/>
   <polyline fill="none" points="132.309,177.811 132.309,179.434" stroke="#262626" stroke-linecap="butt" stroke-linejoin="miter" stroke-width="0.5"/>
   <polyline fill="none" points="160.541,280.473 160.541,278.85" stroke="#262626" stroke-linecap="butt" stroke-linejoin="miter" stroke-width="0.5"/>
   <polyline fill="none" points="160.541,177.811 160.541,179.434" stroke="#262626" stroke-linecap="butt" stroke-linejoin="miter" stroke-width="0.5"/>
   <polyline fill="none" points="174.877,280.473 174.877,278.85" stroke="#262626" stroke-linecap="butt" stroke-linejoin="miter" stroke-width="0.5"/>
   <polyline fill="none" points="174.877,177.811 174.877,179.434" stroke="#262626" stroke-linecap="butt" stroke-linejoin="miter" stroke-width="0.5"/>
   <polyline fill="none" points="185.049,280.473 185.049,278.85" stroke="#262626" stroke-linecap="butt" stroke-linejoin="miter" stroke-width="0.5"/>
   <polyline fill="none" points="185.049,177.811 185.049,179.434" stroke="#262626" stroke-linecap="butt" stroke-linejoin="miter" stroke-width="0.5"/>
   <polyline fill="none" points="192.938,280.473 192.938,278.85" stroke="#262626" stroke-linecap="butt" stroke-linejoin="miter" stroke-width="0.5"/>
   <polyline fill="none" points="192.938,177.811 192.938,179.434" stroke="#262626" stroke-linecap="butt" stroke-linejoin="miter" stroke-width="0.5"/>
   <polyline fill="none" points="199.384,280.473 199.384,278.85" stroke="#262626" stroke-linecap="butt" stroke-linejoin="miter" stroke-width="0.5"/>
   <polyline fill="none" points="199.384,177.811 199.384,179.434" stroke="#262626" stroke-linecap="butt" stroke-linejoin="miter" stroke-width="0.5"/>
   <polyline fill="none" points="204.834,280.473 204.834,278.85" stroke="#262626" stroke-linecap="butt" stroke-linejoin="miter" stroke-width="0.5"/>
   <polyline fill="none" points="204.834,177.811 204.834,179.434" stroke="#262626" stroke-linecap="butt" stroke-linejoin="miter" stroke-width="0.5"/>
   <polyline fill="none" points="209.556,280.473 209.556,278.85" stroke="#262626" stroke-linecap="butt" stroke-linejoin="miter" stroke-width="0.5"/>
   <polyline fill="none" points="209.556,177.811 209.556,179.434" stroke="#262626" stroke-linecap="butt" stroke-linejoin="miter" stroke-width="0.5"/>
   <polyline fill="none" points="213.72,280.473 213.72,278.85" stroke="#262626" stroke-linecap="butt" stroke-linejoin="miter" stroke-width="0.5"/>
   <polyline fill="none" points="213.72,177.811 213.72,179.434" stroke="#262626" stroke-linecap="butt" stroke-linejoin="miter" stroke-width="0.5"/>
   <polyline fill="none" points="241.952,280.473 241.952,278.85" stroke="#262626" stroke-linecap="butt" stroke-linejoin="miter" stroke-width="0.5"/>
   <polyline fill="none" points="241.952,177.811 241.952,179.434" stroke="#262626" stroke-linecap="butt" stroke-linejoin="miter" stroke-width="0.5"/>
   <polyline fill="none" points="256.288,280.473 256.288,278.85" stroke="#262626" stroke-linecap="butt" stroke-linejoin="miter" stroke-width="0.5"/>
   <polyline fill="none" points="256.288,177.811 256.288,179.434" stroke="#262626" stroke-linecap="butt" stroke-linejoin="miter" stroke-width="0.5"/>
   <polyline fill="none" points="266.459,280.473 266.459,278.85" stroke="#262626" stroke-linecap="butt" stroke-linejoin="miter" stroke-width="0.5"/>
   <polyline fill="none" points="266.459,177.811 266.459,179.434" stroke="#262626" stroke-linecap="butt" stroke-linejoin="miter" stroke-width="0.5"/>
   <polyline fill="none" points="274.349,280.473 274.349,278.85" stroke="#262626" stroke-linecap="butt" stroke-linejoin="miter" stroke-width="0.5"/>
   <polyline fill="none" points="274.349,177.811 274.349,179.434" stroke="#262626" stroke-linecap="butt" stroke-linejoin="miter" stroke-width="0.5"/>
   <polyline fill="none" points="280.795,280.473 280.795,278.85" stroke="#262626" stroke-linecap="butt" stroke-linejoin="miter" stroke-width="0.5"/>
   <polyline fill="none" points="280.795,177.811 280.795,179.434" stroke="#262626" stroke-linecap="butt" stroke-linejoin="miter" stroke-width="0.5"/>
   <polyline fill="none" points="286.245,280.473 286.245,278.85" stroke="#262626" stroke-linecap="butt" stroke-linejoin="miter" stroke-width="0.5"/>
   <polyline fill="none" points="286.245,177.811 286.245,179.434" stroke="#262626" stroke-linecap="butt" stroke-linejoin="miter" stroke-width="0.5"/>
   <polyline fill="none" points="290.966,280.473 290.966,278.85" stroke="#262626" stroke-linecap="butt" stroke-linejoin="miter" stroke-width="0.5"/>
   <polyline fill="none" points="290.966,177.811 290.966,179.434" stroke="#262626" stroke-linecap="butt" stroke-linejoin="miter" stroke-width="0.5"/>
   <polyline fill="none" points="295.13,280.473 295.13,278.85" stroke="#262626" stroke-linecap="butt" stroke-linejoin="miter" stroke-width="0.5"/>
   <polyline fill="none" points="295.13,177.811 295.13,179.434" stroke="#262626" stroke-linecap="butt" stroke-linejoin="miter" stroke-width="0.5"/>
   <polyline fill="none" points="323.363,280.473 323.363,278.85" stroke="#262626" stroke-linecap="butt" stroke-linejoin="miter" stroke-width="0.5"/>
   <polyline fill="none" points="323.363,177.811 323.363,179.434" stroke="#262626" stroke-linecap="butt" stroke-linejoin="miter" stroke-width="0.5"/>
   <polyline fill="none" points="337.698,280.473 337.698,278.85" stroke="#262626" stroke-linecap="butt" stroke-linejoin="miter" stroke-width="0.5"/>
   <polyline fill="none" points="337.698,177.811 337.698,179.434" stroke="#262626" stroke-linecap="butt" stroke-linejoin="miter" stroke-width="0.5"/>
   <polyline fill="none" points="347.87,280.473 347.87,278.85" stroke="#262626" stroke-linecap="butt" stroke-linejoin="miter" stroke-width="0.5"/>
   <polyline fill="none" points="347.87,177.811 347.87,179.434" stroke="#262626" stroke-linecap="butt" stroke-linejoin="miter" stroke-width="0.5"/>
   <polyline fill="none" points="355.759,280.473 355.759,278.85" stroke="#262626" stroke-linecap="butt" stroke-linejoin="miter" stroke-width="0.5"/>
   <polyline fill="none" points="355.759,177.811 355.759,179.434" stroke="#262626" stroke-linecap="butt" stroke-linejoin="miter" stroke-width="0.5"/>
   <polyline fill="none" points="362.205,280.473 362.205,278.85" stroke="#262626" stroke-linecap="butt" stroke-linejoin="miter" stroke-width="0.5"/>
   <polyline fill="none" points="362.205,177.811 362.205,179.434" stroke="#262626" stroke-linecap="butt" stroke-linejoin="miter" stroke-width="0.5"/>
   <polyline fill="none" points="367.656,280.473 367.656,278.85" stroke="#262626" stroke-linecap="butt" stroke-linejoin="miter" stroke-width="0.5"/>
   <polyline fill="none" points="367.656,177.811 367.656,179.434" stroke="#262626" stroke-linecap="butt" stroke-linejoin="miter" stroke-width="0.5"/>
   <polyline fill="none" points="372.377,280.473 372.377,278.85" stroke="#262626" stroke-linecap="butt" stroke-linejoin="miter" stroke-width="0.5"/>
   <polyline fill="none" points="372.377,177.811 372.377,179.434" stroke="#262626" stroke-linecap="butt" stroke-linejoin="miter" stroke-width="0.5"/>
   <polyline fill="none" points="376.541,280.473 376.541,278.85" stroke="#262626" stroke-linecap="butt" stroke-linejoin="miter" stroke-width="0.5"/>
   <polyline fill="none" points="376.541,177.811 376.541,179.434" stroke="#262626" stroke-linecap="butt" stroke-linejoin="miter" stroke-width="0.5"/>
   <polyline fill="none" points="54.6239,280.473 54.6239,277.227" stroke="#262626" stroke-linecap="butt" stroke-linejoin="miter" stroke-width="0.5"/>
   <polyline fill="none" points="54.6239,177.811 54.6239,181.057" stroke="#262626" stroke-linecap="butt" stroke-linejoin="miter" stroke-width="0.5"/>
   <polyline fill="none" points="136.034,280.473 136.034,277.227" stroke="#262626" stroke-linecap="butt" stroke-linejoin="miter" stroke-width="0.5"/>
   <polyline fill="none" points="136.034,177.811 136.034,181.057" stroke="#262626" stroke-linecap="butt" stroke-linejoin="miter" stroke-width="0.5"/>
   <polyline fill="none" points="217.445,280.473 217.445,277.227" stroke="#262626" stroke-linecap="butt" stroke-linejoin="miter" stroke-width="0.5"/>
   <polyline fill="none" points="217.445,177.811 217.445,181.057" stroke="#262626" stroke-linecap="butt" stroke-linejoin="miter" stroke-width="0.5"/>
   <polyline fill="none" points="298.856,280.473 298.856,277.227" stroke="#262626" stroke-linecap="butt" stroke-linejoin="miter" stroke-width="0.5"/>
   <polyline fill="none" points="298.856,177.811 298.856,181.057" stroke="#262626" stroke-linecap="butt" stroke-linejoin="miter" stroke-width="0.5"/>
   <polyline fill="none" points="380.266,280.473 380.266,277.227" stroke="#262626" stroke-linecap="butt" stroke-linejoin="miter" stroke-width="0.5"/>
   <polyline fill="none" points="380.266,177.811 380.266,181.057" stroke="#262626" stroke-linecap="butt" stroke-linejoin="miter" stroke-width="0.5"/>
   <g font-family="FreeSans" font-size="10" font-style="normal" font-weight="normal" transform="translate(46.6239,297.948) rotate(-0,8,-10)" xml:space="preserve">
    <text fill="rgb(38,38,38)" x="0 6 " y="-0">10</text>
    <text fill="rgb(38,38,38)" font-size="7" x="12 " y="-4">1</text>
   </g>
   <g font-family="FreeSans" font-size="10" font-style="normal" font-weight="normal" transform="translate(128.034,297.948) rotate(-0,8,-10)" xml:space="preserve">
    <text fill="rgb(38,38,38)" x="0 6 " y="-0">10</text>
    <text fill="rgb(38,38,38)" font-size="7" x="12 " y="-4">2</text>
   </g>
   <g font-family="FreeSans" font-size="10" font-style="normal" font-weight="normal" transform="translate(209.445,297.948) rotate(-0,8,-10)" xml:space="preserve">
    <text fill="rgb(38,38,38)" x="0 6 " y="-0">10</text>
    <text fill="rgb(38,38,38)" font-size="7" x="12 " y="-4">3</text>
   </g>
   <g font-family="FreeSans" font-size="10" font-style="normal" font-weight="normal" transform="translate(290.856,297.948) rotate(-0,8,-10)" xml:space="preserve">
    <text fill="rgb(38,38,38)" x="0 6 " y="-0">10</text>
    <text fill="rgb(38,38,38)" font-size="7" x="12 " y="-4">4</text>
   </g>
   <g font-family="FreeSans" font-size="10" font-style="normal" font-weight="normal" transform="translate(372.266,297.948) rotate(-0,8,-10)" xml:space="preserve">
    <text fill="rgb(38,38,38)" x="0 6 " y="-0">10</text>
    <text fill="rgb(38,38,38)" font-size="7" x="12 " y="-4">5</text>
   </g>
   <polyline fill="none" points="54.6239,280.473 380.266,280.473" stroke="#262626" stroke-dasharray="16,0" stroke-linecap="butt" stroke-linejoin="miter" stroke-opacity="0.15" stroke-width="0.5"/>
   <polyline fill="none" points="54.6239,254.807 380.266,254.807" stroke="#262626" stroke-dasharray="16,0" stroke-linecap="butt" stroke-linejoin="miter" stroke-opacity="0.15" stroke-width="0.5"/>
   <polyline fill="none" points="54.6239,229.142 380.266,229.142" stroke="#262626" stroke-dasharray="16,0" stroke-linecap="butt" stroke-linejoin="miter" stroke-opacity="0.15" stroke-width="0.5"/>
   <polyline fill="none" points="54.6239,203.476 380.266,203.476" stroke="#262626" stroke-dasharray="16,0" stroke-linecap="butt" stroke-linejoin="miter" stroke-opacity="0.15" stroke-width="0.5"/>
   <polyline fill="none" points="54.6239,177.811 380.266,177.811" stroke="#262626" stroke-dasharray="16,0" stroke-linecap="butt" stroke-linejoin="miter" stroke-opacity="0.15" stroke-width="0.5"/>
   <polyline fill="none" points="54.6239,280.473 57.8767,280.473" stroke="#262626" stroke-linecap="butt" stroke-linejoin="miter" stroke-width="0.5"/>
   <polyline fill="none" points="380.266,280.473 377.013,280.473" stroke="#262626" stroke-linecap="butt" stroke-linejoin="miter" stroke-width="0.5"/>
   <polyline fill="none" points="54.6239,254.807 57.8767,254.807" stroke="#262626" stroke-linecap="butt" stroke-linejoin="miter" stroke-width="0.5"/>
   <polyline fill="none" points="380.266,254.807 377.013,254.807" stroke="#262626" stroke-linecap="butt" stroke-linejoin="miter" stroke-width="0.5"/>
   <polyline fill="none" points="54.6239,229.142 57.8767,229.142" stroke="#262626" stroke-linecap="butt" stroke-linejoin="miter" stroke-width="0.5"/>
   <polyline fill="none" points="380.266,229.142 377.013,229.142" stroke="#262626" stroke-linecap="butt" stroke-linejoin="miter" stroke-width="0.5"/>
   <polyline fill="none" points="54.6239,203.476 57.8767,203.476" stroke="#262626" stroke-linecap="butt" stroke-linejoin="miter" stroke-width="0.5"/>
   <polyline fill="none" points="380.266,203.476 377.013,203.476" stroke="#262626" stroke-linecap="butt" stroke-linejoin="miter" stroke-width="0.5"/>
   <polyline fill="none" points="54.6239,177.811 57.8767,177.811" stroke="#262626" stroke-linecap="butt" stroke-linejoin="miter" stroke-width="0.5"/>
   <polyline fill="none" points="380.266,177.811 377.013,177.811" stroke="#262626" stroke-linecap="butt" stroke-linejoin="miter" stroke-width="0.5"/>
   <g font-family="FreeSans" font-size="10" font-style="normal" font-weight="normal" transform="translate(28.6294,284.473) rotate(-0,21,-4)" xml:space="preserve">
    <text fill="rgb(38,38,38)" x="0 3 9 15 " y="-0">-100</text>
   </g>
   <g font-family="FreeSans" font-size="10" font-style="normal" font-weight="normal" transform="translate(34.6294,258.807) rotate(-0,15,-4)" xml:space="preserve">
    <text fill="rgb(38,38,38)" x="0 3 9 " y="-0">-50</text>
   </g>
   <g font-family="FreeSans" font-size="10" font-style="normal" font-weight="normal" transform="translate(43.6294,233.142) rotate(-0,6,-4)" xml:space="preserve">
    <text fill="rgb(38,38,38)" x="0 " y="-0">0</text>
   </g>
   <g font-family="FreeSans" font-size="10" font-style="normal" font-weight="normal" transform="translate(37.6294,207.476) rotate(-0,12,-4)" xml:space="preserve">
    <text fill="rgb(38,38,38)" x="0 6 " y="-0">50</text>
   </g>
   <g font-family="FreeSans" font-size="10" font-style="normal" font-weight="normal" transform="translate(31.6294,181.811) rotate(-0,18,-4)" xml:space="preserve">
    <text fill="rgb(38,38,38)" x="0 6 12 " y="-0">100</text>
   </g>
   <polyline fill="none" points="54.6239,280.473 380.266,280.473" stroke="#262626" stroke-dasharray="16,0" stroke-linecap="square" stroke-linejoin="miter" stroke-width="0.5"/>
   <polyline fill="none" points="54.6239,177.811 380.266,177.811" stroke="#262626" stroke-dasharray="16,0" stroke-linecap="square" stroke-linejoin="miter" stroke-width="0.5"/>
   <polyline fill="none" points="54.6239,280.473 54.6239,177.811" stroke="#262626" stroke-dasharray="16,0" stroke-linecap="square" stroke-linejoin="miter" stroke-width="0.5"/>
   <polyline fill="none" points="380.266,280.473 380.266,177.811" stroke="#262626" stroke-dasharray="16,0" stroke-linecap="square" stroke-linejoin="miter" stroke-width="0.5"/>
   <g font-family="FreeSans" font-size="11" font-style="normal" font-weight="normal" transform="translate(-3.37064,229.142) rotate(-90,27,0)" xml:space="preserve">
    <text fill="rgb(38,38,38)" x="0 7 13 19 24 30 33 39 45 51 " y="-2">Phase[deg]</text>
   </g>
   <g font-family="FreeSans" font-size="11" font-style="normal" font-weight="normal" transform="translate(181.945,314.948) rotate(-0,35.5,-12)" xml:space="preserve">
    <text fill="rgb(38,38,38)" x="0 7 11 17 23 29 35 41 47 52 55 63 68 " y="-3">Frequency[Hz]</text>
   </g>
   <polyline fill="none" points="71.0542,275.339 71.2986,275.339 71.5431,275.339 71.7876,275.339 72.0321,275.339 72.2765,275.339 72.521,275.339 72.7655,275.339 73.01,275.339 73.2544,275.339 73.4989,275.339 73.7434,275.339 73.9879,275.339 74.2323,275.339 74.4768,275.339 74.7213,275.339 74.9658,275.339 75.2103,275.339 75.4547,275.339 75.6992,275.339 75.9437,275.339 76.1881,275.339 76.4326,275.339 76.6771,275.339 76.9216,275.339 77.1661,275.339 77.4105,275.339 77.655,275.339 77.8995,275.339 78.144,275.339 78.3884,275.339 78.6329,275.339 78.8774,275.339 79.1219,275.339 79.3663,275.339 79.6108,275.339 79.8553,275.339 80.0998,275.339 80.3443,275.339 80.5887,275.339 80.8332,275.339 81.0777,275.339 81.3222,275.339 81.5666,275.339 81.8111,275.339 82.0556,275.339 82.3001,275.339 82.5445,275.339 82.789,275.339 83.0335,275.339 83.278,275.339 83.5224,275.339 83.7669,275.339 84.0114,275.339 84.2559,275.339 84.5004,275.339 84.7448,275.339 84.9893,275.339 85.2338,275.339 85.4783,275.339 85.7227,275.339 85.9672,275.339 86.2117,275.339 86.4562,275.339 86.7006,275.339 86.9451,275.339 87.1896,275.339 87.4341,275.339 87.6785,275.339 87.923,275.339 88.1675,275.339 88.412,275.339 88.6564,275.339 88.9009,275.339 89.1454,275.339 89.3899,275.339 89.6343,275.339 89.8788,275.339 90.1233,275.339 90.3678,275.339 90.6123,275.339 90.8567,275.339 91.1012,275.339 91.3457,275.339 91.5902,275.339 91.8346,275.339 92.0791,275.339 92.3236,275.339 92.5681,275.339 92.8125,275.339 93.057,275.339 93.3015,275.339 93.546,275.339 93.7905,275.339 94.0349,275.339 94.2794,275.339 94.5239,275.339 94.7683,275.339 95.0128,275.339 95.2573,275.339 95.5018,275.339 95.7462,275.339 95.9907,275.339 96.2352,275.339 96.4797,275.339 96.7242,275.339 96.9686,275.339 97.2131,275.339 97.4576,275.339 97.7021,275.339 97.9465,275.339 98.191,275.339 98.4355,275.339 98.68,275.339 98.9244,275.339 99.1689,275.339 99.4134,275.339 99.6579,275.339 99.9024,275.339 100.147,275.339 100.391,275.339 100.636,275.339 100.88,275.339 101.125,275.339 101.369,275.339 101.614,275.339 101.858,275.339 102.103,275.339 102.347,275.339 102.592,275.339 102.836,275.339 103.081,275.339 103.325,275.339 103.569,275.339 103.814,275.339 104.058,275.339 104.303,275.339 104.547,275.339 104.792,275.339 105.036,275.339 105.281,275.339 105.525,275.339 105.77,275.339 106.014,275.339 106.259,275.339 106.503,275.339 106.748,275.339 106.992,275.339 107.237,275.339 107.481,275.339 107.726,275.339 107.97,275.339 108.215,275.339 108.459,275.339 108.703,275.339 108.948,275.339 109.192,275.339 109.437,275.339 109.681,275.339 109.926,275.339 110.17,275.339 110.415,275.339 110.659,275.339 110.904,275.339 111.148,275.339 111.393,275.339 111.637,275.339 111.882,275.339 112.126,275.339 112.371,275.339 112.615,275.339 112.86,275.339 113.104,275.339 113.349,275.339 113.593,275.339 113.838,275.339 114.082,275.339 114.326,275.339 114.571,275.339 114.815,275.339 115.06,275.339 115.304,275.339 115.549,275.339 115.793,275.339 116.038,275.339 116.282,275.339 116.527,275.339 116.771,275.339 117.016,275.339 117.26,275.339 117.505,275.339 117.749,275.339 117.994,275.339 118.238,275.339 118.483,275.339 118.727,275.339 118.971,275.339 119.216,275.339 119.46,275.339 119.705,275.339 119.949,275.339 120.194,275.339 120.438,275.339 120.683,275.339 120.927,275.339 121.172,275.339 121.416,275.339 121.661,275.339 121.905,275.339 122.15,275.339 122.394,275.339 122.639,275.339 122.883,275.339 123.128,275.339 123.372,275.339 123.617,275.339 123.861,275.339 124.105,275.339 124.35,275.339 124.594,275.339 124.839,275.339 125.083,275.339 125.328,275.339 125.572,275.339 125.817,275.339 126.061,275.339 126.306,275.339 126.55,275.339 126.795,275.339 127.039,275.339 127.284,275.339 127.528,275.339 127.773,275.339 128.017,275.339 128.262,275.339 128.506,275.339 128.751,275.339 128.995,275.339 129.24,275.339 129.484,275.339 129.728,275.339 129.973,275.339 130.217,275.339 130.462,275.339 130.706,275.339 130.951,275.339 131.195,275.339 131.44,275.339 131.684,275.339 131.929,275.339 132.173,275.339 132.418,275.339 132.662,275.339 132.907,275.339 133.151,275.339 133.396,275.339 133.64,275.339 133.885,275.339 134.129,275.339 134.374,275.339 134.618,275.339 134.862,275.339 135.107,275.339 135.351,275.339 135.596,275.339 135.84,275.339 136.085,275.339 136.329,275.339 136.574,275.339 136.818,275.339 137.063,275.339 137.307,275.339 137.552,275.339 137.796,275.339 138.041,275.339 138.285,275.339 138.53,275.339 138.774,275.339 139.019,275.339 139.263,275.339 139.507,275.339 139.752,275.339 139.996,275.339 140.241,275.339 140.485,275.339 140.73,275.339 140.974,275.339 141.219,275.339 141.463,275.339 141.708,275.339 141.952,275.339 142.197,275.339 142.441,275.339 142.686,275.339 142.93,275.339 143.175,275.339 143.419,275.339 143.664,275.339 143.908,275.339 144.153,275.339 144.397,275.339 144.642,275.339 144.886,275.339 145.13,275.339 145.375,275.339 145.619,275.339 145.864,275.339 146.108,275.339 146.353,275.339 146.597,275.339 146.842,275.339 147.086,275.339 147.331,275.339 147.575,275.339 147.82,275.339 148.064,275.339 148.309,275.339 148.553,275.339 148.798,275.339 149.042,275.339 149.287,275.339 149.531,275.339 149.775,275.339 150.02,275.339 150.264,275.339 150.509,275.339 150.753,275.339 150.998,275.339 151.242,275.339 151.487,275.339 151.731,275.339 151.976,275.339 152.22,275.339 152.465,275.339 152.709,275.339 152.954,275.339 153.198,275.339 153.443,275.339 153.687,275.339 153.932,275.339 154.176,275.339 154.421,275.339 154.665,275.339 154.91,275.339 155.154,275.339 155.398,275.339 155.643,275.339 155.887,275.339 156.132,275.339 156.376,275.339 156.621,275.339 156.865,275.339 157.11,275.339 157.354,275.339 157.599,275.339 157.843,275.339 158.088,275.339 158.332,275.339 158.577,275.339 158.821,275.339 159.066,275.339 159.31,275.339 159.555,275.339 159.799,275.339 160.044,275.339 160.288,275.339 160.532,275.339 160.777,275.339 161.021,275.339 161.266,275.339 161.51,275.339 161.755,275.339 161.999,275.339 162.244,275.339 162.488,275.339 162.733,275.339 162.977,275.339 163.222,275.339 163.466,275.339 163.711,275.339 163.955,275.339 164.2,275.339 164.444,275.339 164.689,275.339 164.933,275.339 165.178,275.339 165.422,275.339 165.666,275.339 165.911,275.339 166.155,275.339 166.4,275.339 166.644,275.339 166.889,275.339 167.133,275.339 167.378,275.339 167.622,275.339 167.867,275.339 168.111,275.339 168.356,275.339 168.6,275.339 168.845,275.339 169.089,275.339 169.334,275.339 169.578,275.339 169.823,275.339 170.067,275.339 170.312,275.339 170.556,275.339 170.8,275.339 171.045,275.339 171.289,275.339 171.534,275.339 171.778,275.339 172.023,275.339 172.267,275.339 172.512,275.339 172.756,275.339 173.001,275.339 173.245,275.339 173.49,275.339 173.734,275.339 173.979,275.339 174.223,275.339 174.468,275.339 174.712,275.339 174.957,275.339 175.201,275.339 175.446,275.339 175.69,275.339 175.934,275.339 176.179,275.339 176.423,275.339 176.668,275.339 176.912,275.339 177.157,275.339 177.401,275.339 177.646,275.339 177.89,275.339 178.135,275.339 178.379,275.339 178.624,275.339 178.868,275.339 179.113,275.339 179.357,275.339 179.602,275.339 179.846,275.339 180.091,275.339 180.335,275.339 180.58,275.339 180.824,275.339 181.068,275.339 181.313,275.339 181.557,275.339 181.802,275.339 182.046,275.339 182.291,275.339 182.535,275.339 182.78,275.339 183.024,275.339 183.269,275.339 183.513,275.339 183.758,275.339 184.002,275.339 184.247,275.339 184.491,275.339 184.736,275.339 184.98,275.339 185.225,275.339 185.469,275.339 185.714,275.339 185.958,275.339 186.202,275.339 186.447,275.339 186.691,275.339 186.936,275.339 187.18,275.339 187.425,275.339 187.669,275.339 187.914,275.339 188.158,275.339 188.403,275.339 188.647,275.339 188.892,275.339 189.136,275.339 189.381,275.339 189.625,275.339 189.87,275.339 190.114,275.339 190.359,275.339 190.603,275.339 190.848,275.339 191.092,275.339 191.336,275.339 191.581,275.339 191.825,275.339 192.07,275.339 192.314,275.339 192.559,275.339 192.803,275.339 193.048,275.339 193.292,275.339 193.537,275.339 193.781,275.339 194.026,275.339 194.27,275.339 194.515,275.339 194.759,275.339 195.004,275.339 195.248,275.339 195.493,275.339 195.737,275.339 195.982,275.339 196.226,275.339 196.47,275.339 196.715,275.339 196.959,275.339 197.204,275.339 197.448,275.339 197.693,275.339 197.937,275.339 198.182,275.339 198.426,275.339 198.671,275.339 198.915,275.339 199.16,275.339 199.404,275.339 199.649,275.339 199.893,275.339 200.138,275.339 200.382,275.339 200.627,275.339 200.871,275.339 201.116,275.339 201.36,275.339 201.604,275.339 201.849,275.339 202.093,275.339 202.338,275.339 202.582,275.339 202.827,275.339 203.071,275.339 203.316,275.339 203.56,275.339 203.805,275.339 204.049,275.339 204.294,275.339 204.538,275.339 204.783,275.339 205.027,275.339 205.272,275.339 205.516,275.339 205.761,275.339 206.005,275.339 206.25,275.339 206.494,275.339 206.738,275.339 206.983,275.339 207.227,275.339 207.472,275.339 207.716,275.339 207.961,275.339 208.205,275.339 208.45,275.339 208.694,275.339 208.939,275.339 209.183,275.339 209.428,275.339 209.672,275.339 209.917,275.339 210.161,275.339 210.406,275.339 210.65,275.339 210.895,275.339 211.139,275.339 211.384,275.339 211.628,275.339 211.872,275.339 212.117,275.339 212.361,275.339 212.606,275.339 212.85,275.339 213.095,275.339 213.339,275.339 213.584,275.339 213.828,275.339 214.073,275.339 214.317,275.339 214.562,275.339 214.806,275.339 215.051,275.339 215.295,275.339 215.54,275.339 215.784,275.339 216.029,275.339 216.273,275.339 216.518,275.339 216.762,275.339 217.006,275.339 217.251,275.339 217.495,275.339 217.74,275.339 217.984,275.339 218.229,275.339 218.473,275.339 218.718,275.339 218.962,275.339 219.207,275.339 219.451,275.339 219.696,275.339 219.94,275.339 220.185,275.339 220.429,275.339 220.674,275.339 220.918,275.339 221.163,275.339 221.407,275.339 221.652,275.339 221.896,275.339 222.14,275.339 222.385,275.339 222.629,275.339 222.874,275.339 223.118,275.339 223.363,275.339 223.607,275.339 223.852,275.339 224.096,275.339 224.341,275.339 224.585,275.339 224.83,275.339 225.074,275.339 225.319,275.339 225.563,275.339 225.808,275.339 226.052,275.339 226.297,275.339 226.541,275.339 226.786,275.339 227.03,275.339 227.274,275.339 227.519,275.339 227.763,275.339 228.008,275.339 228.252,275.339 228.497,275.339 228.741,275.339 228.986,275.339 229.23,275.339 229.475,275.339 229.719,275.339 229.964,275.339 230.208,275.339 230.453,275.339 230.652,182.944 230.697,182.944 230.942,182.944 231.186,182.944 231.431,182.944 231.675,182.944 231.92,182.944 232.164,182.944 232.408,182.944 232.653,182.944 232.897,182.944 233.142,182.944 233.386,182.944 233.631,182.944 233.875,182.944 234.12,182.944 234.364,182.944 234.609,182.944 234.853,182.944 235.098,182.944 235.342,182.944 235.587,182.944 235.831,182.944 236.076,182.944 236.32,182.944 236.565,182.944 236.809,182.944 237.054,182.944 237.298,182.944 237.542,182.944 237.787,182.944 238.031,182.944 238.276,182.944 238.52,182.944 238.765,182.944 239.009,182.944 239.254,182.944 239.498,182.944 239.743,182.944 239.987,182.944 240.232,182.944 240.476,182.944 240.721,182.944 240.965,182.944 241.21,182.944 241.454,182.944 241.699,182.944 241.943,182.944 242.188,182.944 242.432,182.944 242.676,182.944 242.921,182.944 243.165,182.944 243.41,182.944 243.654,182.944 243.899,182.944 244.143,182.944 244.388,182.944 244.632,182.944 244.877,182.944 245.121,182.944 245.366,182.944 245.61,182.944 245.855,182.944 246.099,182.944 246.344,182.944 246.588,182.944 246.833,182.944 247.077,182.944 247.322,182.944 247.566,182.944 247.81,182.944 248.055,182.944 248.299,182.944 248.544,182.944 248.788,182.944 249.033,182.944 249.277,182.944 249.522,182.944 249.766,182.944 250.011,182.944 250.255,182.944 250.5,182.944 250.744,182.944 250.989,182.944 251.233,182.944 251.478,182.944 251.722,182.944 251.967,182.944 252.211,182.944 252.456,182.944 252.7,182.944 252.944,182.944 253.189,182.944 253.433,182.944 253.678,182.944 253.922,182.944 254.167,182.944 254.411,182.944 254.656,182.944 254.9,182.944 255.145,182.944 255.389,182.944 255.634,182.944 255.878,182.944 256.123,182.944 256.367,182.944 256.612,182.944 256.856,182.944 257.101,182.944 257.345,182.944 257.59,182.944 257.834,182.944 258.078,182.944 258.323,182.944 258.567,182.944 258.812,182.944 259.056,182.944 259.301,182.944 259.545,182.944 259.79,182.944 260.034,182.944 260.279,182.944 260.523,182.944 260.768,182.944 261.012,182.944 261.257,182.944 261.501,182.944 261.746,182.944 261.99,182.944 262.235,182.944 262.479,182.944 262.724,182.944 262.968,182.944 263.212,182.944 263.457,182.944 263.701,182.944 263.946,182.944 264.19,182.944 264.435,182.944 264.679,182.944 264.924,182.944 265.168,182.944 265.413,182.944 265.657,182.944 265.902,182.944 266.146,182.944 266.391,182.944 266.635,182.944 266.88,182.944 267.124,182.944 267.369,182.944 267.613,182.944 267.858,182.944 268.102,182.944 268.346,182.944 268.591,182.944 268.835,182.944 269.08,182.944 269.324,182.944 269.569,182.944 269.813,182.944 270.058,182.944 270.302,182.944 270.547,182.944 270.791,182.944 271.036,182.944 271.28,182.944 271.525,182.944 271.769,182.944 272.014,182.944 272.258,182.944 272.503,182.944 272.747,182.944 272.992,182.944 273.236,182.944 273.48,182.944 273.725,182.944 273.969,182.944 274.214,182.944 274.458,182.944 274.703,182.944 274.947,182.944 275.192,182.944 275.436,182.944 275.681,182.944 275.925,182.944 276.17,182.944 276.414,182.944 276.659,182.944 276.903,182.944 277.148,182.944 277.392,182.944 277.637,182.944 277.881,182.944 278.126,182.944 278.37,182.944 278.615,182.944 278.859,182.944 279.103,182.944 279.348,182.944 279.592,182.944 279.837,182.944 280.081,182.944 280.326,182.944 280.57,182.944 280.815,182.944 281.059,182.944 281.304,182.944 281.548,182.944 281.793,182.944 282.037,182.944 282.282,182.944 282.526,182.944 282.771,182.944 283.015,182.944 283.26,182.944 283.504,182.944 283.749,182.944 283.993,182.944 284.237,182.944 284.482,182.944 284.726,182.944 284.971,182.944 285.215,182.944 285.46,182.944 285.704,182.944 285.949,182.944 286.193,182.944 286.438,182.944 286.682,182.944 286.927,182.944 287.171,182.944 287.416,182.944 287.66,182.944 287.905,182.944 288.149,182.944 288.394,182.944 288.638,182.944 288.882,182.944 289.127,182.944 289.371,182.944 289.616,182.944 289.86,182.944 290.105,182.944 290.349,182.944 290.594,182.944 290.838,182.944 291.083,182.944 291.327,182.944 291.572,182.944 291.816,182.944 292.061,182.944 292.305,182.944 292.55,182.944 292.794,182.944 293.039,182.944 293.283,182.944 293.528,182.944 293.772,182.944 294.016,182.944 294.261,182.944 294.505,182.944 294.75,182.944 294.994,182.944 295.239,182.944 295.483,182.944 295.728,182.944 295.972,182.944 296.217,182.944 296.461,182.944 296.706,182.944 296.95,182.944 297.195,182.944 297.439,182.944 297.684,182.944 297.928,182.944 298.173,182.944 298.417,182.944 298.662,182.944 298.906,182.944 299.151,182.944 299.395,182.944 299.639,182.944 299.884,182.944 300.128,182.944 300.373,182.944 300.617,182.944 300.862,182.944 301.106,182.944 301.351,182.944 301.595,182.944 301.84,182.944 302.084,182.944 302.329,182.944 302.573,182.944 302.818,182.944 303.062,182.944 303.307,182.944 303.551,182.944 303.796,182.944 304.04,182.944 304.285,182.944 304.529,182.944 304.773,182.944 305.018,182.944 305.262,182.944 305.507,182.944 305.751,182.944 305.996,182.944 306.24,182.944 306.485,182.944 306.729,182.944 306.974,182.944 307.218,182.944 307.463,182.944 307.707,182.944 307.952,182.944 308.196,182.944 308.441,182.944 308.685,182.944 308.93,182.944 309.174,182.944 309.418,182.944 309.663,182.944 309.907,182.944 310.152,182.944 310.396,182.944 310.641,182.944 310.885,182.944 311.13,182.944 311.374,182.944 311.619,182.944 311.863,182.944 312.108,182.944 312.352,182.944 312.597,182.944 312.841,182.944 313.086,182.944 313.33,182.944 313.575,182.944 313.819,182.944 314.064,182.944 314.308,182.944 314.552,182.944 314.797,182.944 315.041,182.944 315.286,182.944" stroke="#0071bc" stroke-linecap="butt" stroke-linejoin="round" stroke-width="0.5"/>
  </g>
 </g>
</svg>
