<?xml version='1.0' encoding='UTF-8' standalone='no'?>
<svg height="315pt" viewBox="0 0 420 315" width="420pt" xmlns="http://www.w3.org/2000/svg" xmlns:xlink="http://www.w3.org/1999/xlink">
 <title>Figure 1</title>
 <desc>
Creator: GL2PS 1.4.2, (C) 1999-2020 C. Geuzaine
For: Octave
CreationDate: Mon Jul 13 18:23:59 2026
</desc>
 <defs/>
 <polygon fill="#ffffff" points="0,0 420,0 420,315 0,315"/>
 <g>
  <polygon fill="#ffffff" points="0,315 420,315 420,0 0,0" shape-rendering="crispEdges"/>
  <clipPath id="cp00420315">
   <polygon points="0,315 420,315 420,0 0,0"/>
  </clipPath>
  <g clip-path="url(#cp00420315)">
   <polygon fill="#ffffff" points="54.6239,130.297 380.266,130.297 380.266,27.6353 54.6239,27.6353" shape-rendering="crispEdges"/>
   <polyline fill="none" points="79.1309,130.297 79.1309,27.6353" stroke="#191919" stroke-dasharray="1,3,1,3,1,3,1,3" stroke-linecap="butt" stroke-linejoin="miter" stroke-opacity="0.25" stroke-width="0.5"/>
   <polyline fill="none" points="93.4666,130.297 93.4666,27.6353" stroke="#191919" stroke-dasharray="1,3,1,3,1,3,1,3" stroke-linecap="butt" stroke-linejoin="miter" stroke-opacity="0.25" stroke-width="0.5"/>
   <polyline fill="none" points="103.638,130.297 103.638,27.6353" stroke="#191919" stroke-dasharray="1,3,1,3,1,3,1,3" stroke-linecap="butt" stroke-linejoin="miter" stroke-opacity="0.25" stroke-width="0.5"/>
   <polyline fill="none" points="111.527,130.297 111.527,27.6353" stroke="#191919" stroke-dasharray="1,3,1,3,1,3,1,3" stroke-linecap="butt" stroke-linejoin="miter" stroke-opacity="0.25" stroke-width="0.5"/>
   <polyline fill="none" points="117.974,130.297 117.974,27.6353" stroke="#191919" stroke-dasharray="1,3,1,3,1,3,1,3" stroke-linecap="butt" stroke-linejoin="miter" stroke-opacity="0.25" stroke-width="0.5"/>
   <polyline fill="none" points="123.424,130.297 123.424,27.6353" stroke="#191919" stroke-dasharray="1,3,1,3,1,3,1,3" stroke-linecap="butt" stroke-linejoin="miter" stroke-opacity="0.25" stroke-width="0.5"/>
   <polyline fill="none" points="128.145,130.297 128.145,27.6353" stroke="#191919" stroke-dasharray="1,3,1,3,1,3,1,3" stroke-linecap="butt" stroke-linejoin="miter" stroke-opacity="0.25" stroke-width="0.5"/>
   <polyline fill="none" points="132.309,130.297 132.309,27.6353" stroke="#191919" stroke-dasharray="1,3,1,3,1,3,1,3" stroke-linecap="butt" stroke-linejoin="miter" stroke-opacity="0.25" stroke-width="0.5"/>
   <polyline fill="none" points="160.541,130.297 160.541,27.6353" stroke="#191919" stroke-dasharray="1,3,1,3,1,3,1,3" stroke-linecap="butt" stroke-linejoin="miter" stroke-opacity="0.25" stroke-width="0.5"/>
   <polyline fill="none" points="174.877,130.297 174.877,27.6353" stroke="#191919" stroke-dasharray="1,3,1,3,1,3,1,3" stroke-linecap="butt" stroke-linejoin="miter" stroke-opacity="0.25" stroke-width="0.5"/>
   <polyline fill="none" points="185.049,130.297 185.049,27.6353" stroke="#191919" stroke-dasharray="1,3,1,3,1,3,1,3" stroke-linecap="butt" stroke-linejoin="miter" stroke-opacity="0.25" stroke-width="0.5"/>
   <polyline fill="none" points="192.938,130.297 192.938,27.6353" stroke="#191919" stroke-dasharray="1,3,1,3,1,3,1,3" stroke-linecap="butt" stroke-linejoin="miter" stroke-opacity="0.25" stroke-width="0.5"/>
   <polyline fill="none" points="199.384,130.297 199.384,27.6353" stroke="#191919" stroke-dasharray="1,3,1,3,1,3,1,3" stroke-linecap="butt" stroke-linejoin="miter" stroke-opacity="0.25" stroke-width="0.5"/>
   <polyline fill="none" points="204.834,130.297 204.834,27.6353" stroke="#191919" stroke-dasharray="1,3,1,3,1,3,1,3" stroke-linecap="butt" stroke-linejoin="miter" stroke-opacity="0.25" stroke-width="0.5"/>
   <polyline fill="none" points="209.556,130.297 209.556,27.6353" stroke="#191919" stroke-dasharray="1,3,1,3,1,3,1,3" stroke-linecap="butt" stroke-linejoin="miter" stroke-opacity="0.25" stroke-width="0.5"/>
   <polyline fill="none" points="213.72,130.297 213.72,27.6353" stroke="#191919" stroke-dasharray="1,3,1,3,1,3,1,3" stroke-linecap="butt" stroke-linejoin="miter" stroke-opacity="0.25" stroke-width="0.5"/>
   <polyline fill="none" points="241.952,130.297 241.952,27.6353" stroke="#191919" stroke-dasharray="1,3,1,3,1,3,1,3" stroke-linecap="butt" stroke-linejoin="miter" stroke-opacity="0.25" stroke-width="0.5"/>
   <polyline fill="none" points="256.288,130.297 256.288,27.6353" stroke="#191919" stroke-dasharray="1,3,1,3,1,3,1,3" stroke-linecap="butt" stroke-linejoin="miter" stroke-opacity="0.25" stroke-width="0.5"/>
   <polyline fill="none" points="266.459,130.297 266.459,27.6353" stroke="#191919" stroke-dasharray="1,3,1,3,1,3,1,3" stroke-linecap="butt" stroke-linejoin="miter" stroke-opacity="0.25" stroke-width="0.5"/>
   <polyline fill="none" points="274.349,130.297 274.349,27.6353" stroke="#191919" stroke-dasharray="1,3,1,3,1,3,1,3" stroke-linecap="butt" stroke-linejoin="miter" stroke-opacity="0.25" stroke-width="0.5"/>
   <polyline fill="none" points="280.795,130.297 280.795,27.6353" stroke="#191919" stroke-dasharray="1,3,1,3,1,3,1,3" stroke-linecap="butt" stroke-linejoin="miter" stroke-opacity="0.25" stroke-width="0.5"/>
   <polyline fill="none" points="286.245,130.297 286.245,27.6353" stroke="#191919" stroke-dasharray="1,3,1,3,1,3,1,3" stroke-linecap="butt" stroke-linejoin="miter" stroke-opacity="0.25" stroke-width="0.5"/>
   <polyline fill="none" points="290.966,130.297 290.966,27.6353" stroke="#191919" stroke-dasharray="1,3,1,3,1,3,1,3" stroke-linecap="butt" stroke-linejoin="miter" stroke-opacity="0.25" stroke-width="0.5"/>
   <polyline fill="none" points="295.13,130.297 295.13,27.6353" stroke="#191919" stroke-dasharray="1,3,1,3,1,3,1,3" stroke-linecap="butt" stroke-linejoin="miter" stroke-opacity="0.25" stroke-width="0.5"/>
   <polyline fill="none" points="323.363,130.297 323.363,27.6353" stroke="#191919" stroke-dasharray="1,3,1,3,1,3,1,3" stroke-linecap="butt" stroke-linejoin="miter" stroke-opacity="0.25" stroke-width="0.5"/>
   <polyline fill="none" points="337.698,130.297 337.698,27.6353" stroke="#191919" stroke-dasharray="1,3,1,3,1,3,1,3" stroke-linecap="butt" stroke-linejoin="miter" stroke-opacity="0.25" stroke-width="0.5"/>
   <polyline fill="none" points="347.87,130.297 347.87,27.6353" stroke="#191919" stroke-dasharray="1,3,1,3,1,3,1,3" stroke-linecap="butt" stroke-linejoin="miter" stroke-opacity="0.25" stroke-width="0.5"/>
   <polyline fill="none" points="355.759,130.297 355.759,27.6353" stroke="#191919" stroke-dasharray="1,3,1,3,1,3,1,3" stroke-linecap="butt" stroke-linejoin="miter" stroke-opacity="0.25" stroke-width="0.5"/>
   <polyline fill="none" points="362.205,130.297 362.205,27.6353" stroke="#191919" stroke-dasharray="1,3,1,3,1,3,1,3" stroke-linecap="butt" stroke-linejoin="miter" stroke-opacity="0.25" stroke-width="0.5"/>
   <polyline fill="none" points="367.656,130.297 367.656,27.6353" stroke="#191919" stroke-dasharray="1,3,1,3,1,3,1,3" stroke-linecap="butt" stroke-linejoin="miter" stroke-opacity="0.25" stroke-width="0.5"/>
   <polyline fill="none" points="372.377,130.297 372.377,27.6353" stroke="#191919" stroke-dasharray="1,3,1,3,1,3,1,3" stroke-linecap="butt" stroke-linejoin="miter" stroke-opacity="0.25" stroke-width="0.5"/>
   <polyline fill="none" points="376.541,130.297 376.541,27.6353" stroke="#191919" stroke-dasharray="1,3,1,3,1,3,1,3" stroke-linecap="butt" stroke-linejoin="miter" stroke-opacity="0.25" stroke-width="0.5"/>
   <polyline fill="none" points="54.6239,130.297 54.6239,27.6353" stroke="#262626" stroke-dasharray="16,0" stroke-linecap="butt" stroke-linejoin="miter" stroke-opacity="0.15" stroke-width="0.5"/>
   <polyline fill="none" points="136.034,130.297 136.034,27.6353" stroke="#262626" stroke-dasharray="16,0" stroke-linecap="butt" stroke-linejoin="miter" stroke-opacity="0.15" stroke-width="0.5"/>
   <polyline fill="none" points="217.445,130.297 217.445,27.6353" stroke="#262626" stroke-dasharray="16,0" stroke-linecap="butt" stroke-linejoin="miter" stroke-opacity="0.15" stroke-width="0.5"/>
   <polyline fill="none" points="298.856,130.297 298.856,27.6353" stroke="#262626" stroke-dasharray="16,0" stroke-linecap="butt" stroke-linejoin="miter" stroke-opacity="0.15" stroke-width="0.5"/>
   <polyline fill="none" points="380.266,130.297 380.266,27.6353" stroke="#262626" stroke-dasharray="16,0" stroke-linecap="butt" stroke-linejoin="miter" stroke-opacity="0.15" stroke-width="0.5"/>
   <polyline fill="none" points="79.1309,130.297 79.1309,128.674" stroke="#262626" stroke-linecap="butt" stroke-linejoin="miter" stroke-width="0.5"/>
   <polyline fill="none" points="79.1309,27.6353 79.1309,29.2582" stroke="#262626" stroke-linecap="butt" stroke-linejoin="miter" stroke-width="0.5"/>
   <polyline fill="none" points="93.4666,130.297 93.4666,128.674" stroke="#262626" stroke-linecap="butt" stroke-linejoin="miter" stroke-width="0.5"/>
   <polyline fill="none" points="93.4666,27.6353 93.4666,29.2582" stroke="#262626" stroke-linecap="butt" stroke-linejoin="miter" stroke-width="0.5"/>
   <polyline fill="none" points="103.638,130.297 103.638,128.674" stroke="#262626" stroke-linecap="butt" stroke-linejoin="miter" stroke-width="0.5"/>
   <polyline fill="none" points="103.638,27.6353 103.638,29.2582" stroke="#262626" stroke-linecap="butt" stroke-linejoin="miter" stroke-width="0.5"/>
   <polyline fill="none" points="111.527,130.297 111.527,128.674" stroke="#262626" stroke-linecap="butt" stroke-linejoin="miter" stroke-width="0.5"/>
   <polyline fill="none" points="111.527,27.6353 111.527,29.2582" stroke="#262626" stroke-linecap="butt" stroke-linejoin="miter" stroke-width="0.5"/>
   <polyline fill="none" points="117.974,130.297 117.974,128.674" stroke="#262626" stroke-linecap="butt" stroke-linejoin="miter" stroke-width="0.5"/>
   <polyline fill="none" points="117.974,27.6353 117.974,29.2582" stroke="#262626" stroke-linecap="butt" stroke-linejoin="miter" stroke-width="0.5"/>
   <polyline fill="none" points="123.424,130.297 123.424,128.674" stroke="#262626" stroke-linecap="butt" stroke-linejoin="miter" stroke-width="0.5"/>
   <polyline fill="none" points="123.424,27.6353 123.424,29.2582" stroke="#262626" stroke-linecap="butt" stroke-linejoin="miter" stroke-width="0.5"/>
   <polyline fill="none" points="128.145,130.297 128.145,128.674" stroke="#262626" stroke-linecap="butt" stroke-linejoin="miter" stroke-width="0.5"/>
   <polyline fill="none" points="128.145,27.6353 128.145,29.2582" stroke="#262626" stroke-linecap="butt" stroke-linejoin="miter" stroke-width="0.5"/>
   <polyline fill="none" points="132.309,130.297 132.309,128.674" stroke="#262626" stroke-linecap="butt" stroke-linejoin="miter" stroke-width="0.5"/>
   <polyline fill="none" points="132.309,27.6353 132.309,29.2582" stroke="#262626" stroke-linecap="butt" stroke-linejoin="miter" stroke-width="0.5"/>
   <polyline fill="none" points="160.541,130.297 160.541,128.674" stroke="#262626" stroke-linecap="butt" stroke-linejoin="miter" stroke-width="0.5"/>
   <polyline fill="none" points="160.541,27.6353 160.541,29.2582" stroke="#262626" stroke-linecap="butt" stroke-linejoin="miter" stroke-width="0.5"/>
   <polyline fill="none" points="174.877,130.297 174.877,128.674" stroke="#262626" stroke-linecap="butt" stroke-linejoin="miter" stroke-width="0.5"/>
   <polyline fill="none" points="174.877,27.6353 174.877,29.2582" stroke="#262626" stroke-linecap="butt" stroke-linejoin="miter" stroke-width="0.5"/>
   <polyline fill="none" points="185.049,130.297 185.049,128.674" stroke="#262626" stroke-linecap="butt" stroke-linejoin="miter" stroke-width="0.5"/>
   <polyline fill="none" points="185.049,27.6353 185.049,29.2582" stroke="#262626" stroke-linecap="butt" stroke-linejoin="miter" stroke-width="0.5"/>
   <polyline fill="none" points="192.938,130.297 192.938,128.674" stroke="#262626" stroke-linecap="butt" stroke-linejoin="miter" stroke-width="0.5"/>
   <polyline fill="none" points="192.938,27.6353 192.938,29.2582" stroke="#262626" stroke-linecap="butt" stroke-linejoin="miter" stroke-width="0.5"/>
   <polyline fill="none" points="199.384,130.297 199.384,128.674" stroke="#262626" stroke-linecap="butt" stroke-linejoin="miter" stroke-width="0.5"/>
   <polyline fill="none" points="199.384,27.6353 199.384,29.2582" stroke="#262626" stroke-linecap="butt" stroke-linejoin="miter" stroke-width="0.5"/>
   <polyline fill="none" points="204.834,130.297 204.834,128.674" stroke="#262626" stroke-linecap="butt" stroke-linejoin="miter" stroke-width="0.5"/>
   <polyline fill="none" points="204.834,27.6353 204.834,29.2582" stroke="#262626" stroke-linecap="butt" stroke-linejoin="miter" stroke-width="0.5"/>
   <polyline fill="none" points="209.556,130.297 209.556,128.674" stroke="#262626" stroke-linecap="butt" stroke-linejoin="miter" stroke-width="0.5"/>
   <polyline fill="none" points="209.556,27.6353 209.556,29.2582" stroke="#262626" stroke-linecap="butt" stroke-linejoin="miter" stroke-width="0.5"/>
   <polyline fill="none" points="213.72,130.297 213.72,128.674" stroke="#262626" stroke-linecap="butt" stroke-linejoin="miter" stroke-width="0.5"/>
   <polyline fill="none" points="213.72,27.6353 213.72,29.2582" stroke="#262626" stroke-linecap="butt" stroke-linejoin="miter" stroke-width="0.5"/>
   <polyline fill="none" points="241.952,130.297 241.952,128.674" stroke="#262626" stroke-linecap="butt" stroke-linejoin="miter" stroke-width="0.5"/>
   <polyline fill="none" points="241.952,27.6353 241.952,29.2582" stroke="#262626" stroke-linecap="butt" stroke-linejoin="miter" stroke-width="0.5"/>
   <polyline fill="none" points="256.288,130.297 256.288,128.674" stroke="#262626" stroke-linecap="butt" stroke-linejoin="miter" stroke-width="0.5"/>
   <polyline fill="none" points="256.288,27.6353 256.288,29.2582" stroke="#262626" stroke-linecap="butt" stroke-linejoin="miter" stroke-width="0.5"/>
   <polyline fill="none" points="266.459,130.297 266.459,128.674" stroke="#262626" stroke-linecap="butt" stroke-linejoin="miter" stroke-width="0.5"/>
   <polyline fill="none" points="266.459,27.6353 266.459,29.2582" stroke="#262626" stroke-linecap="butt" stroke-linejoin="miter" stroke-width="0.5"/>
   <polyline fill="none" points="274.349,130.297 274.349,128.674" stroke="#262626" stroke-linecap="butt" stroke-linejoin="miter" stroke-width="0.5"/>
   <polyline fill="none" points="274.349,27.6353 274.349,29.2582" stroke="#262626" stroke-linecap="butt" stroke-linejoin="miter" stroke-width="0.5"/>
   <polyline fill="none" points="280.795,130.297 280.795,128.674" stroke="#262626" stroke-linecap="butt" stroke-linejoin="miter" stroke-width="0.5"/>
   <polyline fill="none" points="280.795,27.6353 280.795,29.2582" stroke="#262626" stroke-linecap="butt" stroke-linejoin="miter" stroke-width="0.5"/>
   <polyline fill="none" points="286.245,130.297 286.245,128.674" stroke="#262626" stroke-linecap="butt" stroke-linejoin="miter" stroke-width="0.5"/>
   <polyline fill="none" points="286.245,27.6353 286.245,29.2582" stroke="#262626" stroke-linecap="butt" stroke-linejoin="miter" stroke-width="0.5"/>
   <polyline fill="none" points="290.966,130.297 290.966,128.674" stroke="#262626" stroke-linecap="butt" stroke-linejoin="miter" stroke-width="0.5"/>
   <polyline fill="none" points="290.966,27.6353 290.966,29.2582" stroke="#262626" stroke-linecap="butt" stroke-linejoin="miter" stroke-width="0.5"/>
   <polyline fill="none" points="295.13,130.297 295.13,128.674" stroke="#262626" stroke-linecap="butt" stroke-linejoin="miter" stroke-width="0.5"/>
   <polyline fill="none" points="295.13,27.6353 295.13,29.2582" stroke="#262626" stroke-linecap="butt" stroke-linejoin="miter" stroke-width="0.5"/>
   <polyline fill="none" points="323.363,130.297 323.363,128.674" stroke="#262626" stroke-linecap="butt" stroke-linejoin="miter" stroke-width="0.5"/>
   <polyline fill="none" points="323.363,27.6353 323.363,29.2582" stroke="#262626" stroke-linecap="butt" stroke-linejoin="miter" stroke-width="0.5"/>
   <polyline fill="none" points="337.698,130.297 337.698,128.674" stroke="#262626" stroke-linecap="butt" stroke-linejoin="miter" stroke-width="0.5"/>
   <polyline fill="none" points="337.698,27.6353 337.698,29.2582" stroke="#262626" stroke-linecap="butt" stroke-linejoin="miter" stroke-width="0.5"/>
   <polyline fill="none" points="347.87,130.297 347.87,128.674" stroke="#262626" stroke-linecap="butt" stroke-linejoin="miter" stroke-width="0.5"/>
   <polyline fill="none" points="347.87,27.6353 347.87,29.2582" stroke="#262626" stroke-linecap="butt" stroke-linejoin="miter" stroke-width="0.5"/>
   <polyline fill="none" points="355.759,130.297 355.759,128.674" stroke="#262626" stroke-linecap="butt" stroke-linejoin="miter" stroke-width="0.5"/>
   <polyline fill="none" points="355.759,27.6353 355.759,29.2582" stroke="#262626" stroke-linecap="butt" stroke-linejoin="miter" stroke-width="0.5"/>
   <polyline fill="none" points="362.205,130.297 362.205,128.674" stroke="#262626" stroke-linecap="butt" stroke-linejoin="miter" stroke-width="0.5"/>
   <polyline fill="none" points="362.205,27.6353 362.205,29.2582" stroke="#262626" stroke-linecap="butt" stroke-linejoin="miter" stroke-width="0.5"/>
   <polyline fill="none" points="367.656,130.297 367.656,128.674" stroke="#262626" stroke-linecap="butt" stroke-linejoin="miter" stroke-width="0.5"/>
   <polyline fill="none" points="367.656,27.6353 367.656,29.2582" stroke="#262626" stroke-linecap="butt" stroke-linejoin="miter" stroke-width="0.5"/>
   <polyline fill="none" points="372.377,130.297 372.377,128.674" stroke="#262626" stroke-linecap="butt" stroke-linejoin="miter" stroke-width="0.5"/>
   <polyline fill="none" points="372.377,27.6353 372.377,29.2582" stroke="#262626" stroke-linecap="butt" stroke-linejoin="miter" stroke-width="0.5"/>
   <polyline fill="none" points="376.541,130.297 376.541,128.674" stroke="#262626" stroke-linecap="butt" stroke-linejoin="miter" stroke-width="0.5"/>
   <polyline fill="none" points="376.541,27.6353 376.541,29.2582" stroke="#262626" stroke-linecap="butt" stroke-linejoin="miter" stroke-width="0.5"/>
   <polyline fill="none" points="54.6239,130.297 54.6239,127.051" stroke="#262626" stroke-linecap="butt" stroke-linejoin="miter" stroke-width="0.5"/>
   <polyline fill="none" points="54.6239,27.6353 54.6239,30.881" stroke="#262626" stroke-linecap="butt" stroke-linejoin="miter" stroke-width="0.5"/>
   <polyline fill="none" points="136.034,130.297 136.034,127.051" stroke="#262626" stroke-linecap="butt" stroke-linejoin="miter" stroke-width="0.5"/>
   <polyline fill="none" points="136.034,27.6353 136.034,30.881" stroke="#262626" stroke-linecap="butt" stroke-linejoin="miter" stroke-width="0.5"/>
   <polyline fill="none" points="217.445,130.297 217.445,127.051" stroke="#262626" stroke-linecap="butt" stroke-linejoin="miter" stroke-width="0.5"/>
   <polyline fill="none" points="217.445,27.6353 217.445,30.881" stroke="#262626" stroke-linecap="butt" stroke-linejoin="miter" stroke-width="0.5"/>
   <polyline fill="none" points="298.856,130.297 298.856,127.051" stroke="#262626" stroke-linecap="butt" stroke-linejoin="miter" stroke-width="0.5"/>
   <polyline fill="none" points="298.856,27.6353 298.856,30.881" stroke="#262626" stroke-linecap="butt" stroke-linejoin="miter" stroke-width="0.5"/>
   <polyline fill="none" points="380.266,130.297 380.266,127.051" stroke="#262626" stroke-linecap="butt" stroke-linejoin="miter" stroke-width="0.5"/>
   <polyline fill="none" points="380.266,27.6353 380.266,30.881" stroke="#262626" stroke-linecap="butt" stroke-linejoin="miter" stroke-width="0.5"/>
   <g font-family="FreeSans" font-size="10" font-style="normal" font-weight="normal" transform="translate(46.6239,147.772) rotate(-0,8,-10)" xml:space="preserve">
    <text fill="rgb(38,38,38)" x="0 6 " y="-0">10</text>
    <text fill="rgb(38,38,38)" font-size="7" x="12 " y="-4">2</text>
   </g>
   <g font-family="FreeSans" font-size="10" font-style="normal" font-weight="normal" transform="translate(128.034,147.772) rotate(-0,8,-10)" xml:space="preserve">
    <text fill="rgb(38,38,38)" x="0 6 " y="-0">10</text>
    <text fill="rgb(38,38,38)" font-size="7" x="12 " y="-4">3</text>
   </g>
   <g font-family="FreeSans" font-size="10" font-style="normal" font-weight="normal" transform="translate(209.445,147.772) rotate(-0,8,-10)" xml:space="preserve">
    <text fill="rgb(38,38,38)" x="0 6 " y="-0">10</text>
    <text fill="rgb(38,38,38)" font-size="7" x="12 " y="-4">4</text>
   </g>
   <g font-family="FreeSans" font-size="10" font-style="normal" font-weight="normal" transform="translate(290.856,147.772) rotate(-0,8,-10)" xml:space="preserve">
    <text fill="rgb(38,38,38)" x="0 6 " y="-0">10</text>
    <text fill="rgb(38,38,38)" font-size="7" x="12 " y="-4">5</text>
   </g>
   <g font-family="FreeSans" font-size="10" font-style="normal" font-weight="normal" transform="translate(372.266,147.772) rotate(-0,8,-10)" xml:space="preserve">
    <text fill="rgb(38,38,38)" x="0 6 " y="-0">10</text>
    <text fill="rgb(38,38,38)" font-size="7" x="12 " y="-4">6</text>
   </g>
   <polyline fill="none" points="54.6239,130.297 380.266,130.297" stroke="#262626" stroke-dasharray="16,0" stroke-linecap="butt" stroke-linejoin="miter" stroke-opacity="0.15" stroke-width="0.5"/>
   <polyline fill="none" points="54.6239,115.631 380.266,115.631" stroke="#262626" stroke-dasharray="16,0" stroke-linecap="butt" stroke-linejoin="miter" stroke-opacity="0.15" stroke-width="0.5"/>
   <polyline fill="none" points="54.6239,100.965 380.266,100.965" stroke="#262626" stroke-dasharray="16,0" stroke-linecap="butt" stroke-linejoin="miter" stroke-opacity="0.15" stroke-width="0.5"/>
   <polyline fill="none" points="54.6239,86.2992 380.266,86.2992" stroke="#262626" stroke-dasharray="16,0" stroke-linecap="butt" stroke-linejoin="miter" stroke-opacity="0.15" stroke-width="0.5"/>
   <polyline fill="none" points="54.6239,71.6332 380.266,71.6332" stroke="#262626" stroke-dasharray="16,0" stroke-linecap="butt" stroke-linejoin="miter" stroke-opacity="0.15" stroke-width="0.5"/>
   <polyline fill="none" points="54.6239,56.9673 380.266,56.9673" stroke="#262626" stroke-dasharray="16,0" stroke-linecap="butt" stroke-linejoin="miter" stroke-opacity="0.15" stroke-width="0.5"/>
   <polyline fill="none" points="54.6239,42.3013 380.266,42.3013" stroke="#262626" stroke-dasharray="16,0" stroke-linecap="butt" stroke-linejoin="miter" stroke-opacity="0.15" stroke-width="0.5"/>
   <polyline fill="none" points="54.6239,27.6353 380.266,27.6353" stroke="#262626" stroke-dasharray="16,0" stroke-linecap="butt" stroke-linejoin="miter" stroke-opacity="0.15" stroke-width="0.5"/>
   <polyline fill="none" points="54.6239,130.297 57.8767,130.297" stroke="#262626" stroke-linecap="butt" stroke-linejoin="miter" stroke-width="0.5"/>
   <polyline fill="none" points="380.266,130.297 377.013,130.297" stroke="#262626" stroke-linecap="butt" stroke-linejoin="miter" stroke-width="0.5"/>
   <polyline fill="none" points="54.6239,115.631 57.8767,115.631" stroke="#262626" stroke-linecap="butt" stroke-linejoin="miter" stroke-width="0.5"/>
   <polyline fill="none" points="380.266,115.631 377.013,115.631" stroke="#262626" stroke-linecap="butt" stroke-linejoin="miter" stroke-width="0.5"/>
   <polyline fill="none" points="54.6239,100.965 57.8767,100.965" stroke="#262626" stroke-linecap="butt" stroke-linejoin="miter" stroke-width="0.5"/>
   <polyline fill="none" points="380.266,100.965 377.013,100.965" stroke="#262626" stroke-linecap="butt" stroke-linejoin="miter" stroke-width="0.5"/>
   <polyline fill="none" points="54.6239,86.2992 57.8767,86.2992" stroke="#262626" stroke-linecap="butt" stroke-linejoin="miter" stroke-width="0.5"/>
   <polyline fill="none" points="380.266,86.2992 377.013,86.2992" stroke="#262626" stroke-linecap="butt" stroke-linejoin="miter" stroke-width="0.5"/>
   <polyline fill="none" points="54.6239,71.6332 57.8767,71.6332" stroke="#262626" stroke-linecap="butt" stroke-linejoin="miter" stroke-width="0.5"/>
   <polyline fill="none" points="380.266,71.6332 377.013,71.6332" stroke="#262626" stroke-linecap="butt" stroke-linejoin="miter" stroke-width="0.5"/>
   <polyline fill="none" points="54.6239,56.9673 57.8767,56.9673" stroke="#262626" stroke-linecap="butt" stroke-linejoin="miter" stroke-width="0.5"/>
   <polyline fill="none" points="380.266,56.9673 377.013,56.9673" stroke="#262626" stroke-linecap="butt" stroke-linejoin="miter" stroke-width="0.5"/>
   <polyline fill="none" points="54.6239,42.3013 57.8767,42.3013" stroke="#262626" stroke-linecap="butt" stroke-linejoin="miter" stroke-width="0.5"/>
   <polyline fill="none" points="380.266,42.3013 377.013,42.3013" stroke="#262626" stroke-linecap="butt" stroke-linejoin="miter" stroke-width="0.5"/>
   <polyline fill="none" points="54.6239,27.6353 57.8767,27.6353" stroke="#262626" stroke-linecap="butt" stroke-linejoin="miter" stroke-width="0.5"/>
   <polyline fill="none" points="380.266,27.6353 377.013,27.6353" stroke="#262626" stroke-linecap="butt" stroke-linejoin="miter" stroke-width="0.5"/>
   <g font-family="FreeSans" font-size="10" font-style="normal" font-weight="normal" transform="translate(28.6294,134.297) rotate(-0,21,-4)" xml:space="preserve">
    <text fill="rgb(38,38,38)" x="0 3 9 15 " y="-0">-300</text>
   </g>
   <g font-family="FreeSans" font-size="10" font-style="normal" font-weight="normal" transform="translate(28.6294,119.631) rotate(-0,21,-4)" xml:space="preserve">
    <text fill="rgb(38,38,38)" x="0 3 9 15 " y="-0">-250</text>
   </g>
   <g font-family="FreeSans" font-size="10" font-style="normal" font-weight="normal" transform="translate(28.6294,104.965) rotate(-0,21,-4)" xml:space="preserve">
    <text fill="rgb(38,38,38)" x="0 3 9 15 " y="-0">-200</text>
   </g>
   <g font-family="FreeSans" font-size="10" font-style="normal" font-weight="normal" transform="translate(28.6294,90.2992) rotate(-0,21,-4)" xml:space="preserve">
    <text fill="rgb(38,38,38)" x="0 3 9 15 " y="-0">-150</text>
   </g>
   <g font-family="FreeSans" font-size="10" font-style="normal" font-weight="normal" transform="translate(28.6294,75.6332) rotate(-0,21,-4)" xml:space="preserve">
    <text fill="rgb(38,38,38)" x="0 3 9 15 " y="-0">-100</text>
   </g>
   <g font-family="FreeSans" font-size="10" font-style="normal" font-weight="normal" transform="translate(34.6294,60.9673) rotate(-0,15,-4)" xml:space="preserve">
    <text fill="rgb(38,38,38)" x="0 3 9 " y="-0">-50</text>
   </g>
   <g font-family="FreeSans" font-size="10" font-style="normal" font-weight="normal" transform="translate(43.6294,46.3013) rotate(-0,6,-4)" xml:space="preserve">
    <text fill="rgb(38,38,38)" x="0 " y="-0">0</text>
   </g>
   <g font-family="FreeSans" font-size="10" font-style="normal" font-weight="normal" transform="translate(37.6294,31.6353) rotate(-0,12,-4)" xml:space="preserve">
    <text fill="rgb(38,38,38)" x="0 6 " y="-0">50</text>
   </g>
   <polyline fill="none" points="54.6239,130.297 380.266,130.297" stroke="#262626" stroke-dasharray="16,0" stroke-linecap="square" stroke-linejoin="miter" stroke-width="0.5"/>
   <polyline fill="none" points="54.6239,27.6353 380.266,27.6353" stroke="#262626" stroke-dasharray="16,0" stroke-linecap="square" stroke-linejoin="miter" stroke-width="0.5"/>
   <polyline fill="none" points="54.6239,130.297 54.6239,27.6353" stroke="#262626" stroke-dasharray="16,0" stroke-linecap="square" stroke-linejoin="miter" stroke-width="0.5"/>
   <polyline fill="none" points="380.266,130.297 380.266,27.6353" stroke="#262626" stroke-dasharray="16,0" stroke-linecap="square" stroke-linejoin="miter" stroke-width="0.5"/>
   <g font-family="FreeSans" font-size="11" font-style="normal" font-weight="bold" transform="translate(192.945,17.6353) rotate(-0,24.5,0)" xml:space="preserve">
    <text fill="rgb(0,0,0)" x="0 8 15 22 28 31 35 38 45 " y="-1">Bode - Zf</text>
   </g>
   <g font-family="FreeSans" font-size="11" font-style="normal" font-weight="normal" transform="translate(-10.8706,78.9662) rotate(-90,34.5,0)" xml:space="preserve">
    <text fill="rgb(38,38,38)" x="0 9 15 21 27 29 32 38 44 50 53 59 66 " y="-2">Magnitude[dB]</text>
   </g>
   <polyline fill="none" points="71.0542,32.3386 71.2986,32.3562 71.5431,32.3739 71.7876,32.3916 72.0321,32.4093 72.2766,32.4269 72.521,32.4446 72.7655,32.4623 73.01,32.4799 73.2545,32.4977 73.4989,32.5153 73.7434,32.533 73.9879,32.5507 74.2324,32.5684 74.4768,32.5861 74.7213,32.6037 74.9658,32.6214 75.2103,32.6391 75.4547,32.6568 75.6992,32.6745 75.9437,32.6922 76.1882,32.7099 76.4326,32.7276 76.6771,32.7453 76.9216,32.763 77.1661,32.7807 77.4105,32.7984 77.655,32.816 77.8995,32.8338 78.144,32.8515 78.3885,32.8692 78.6329,32.8869 78.8774,32.9046 79.1219,32.9223 79.3663,32.94 79.6108,32.9577 79.8553,32.9754 80.0998,32.9931 80.3442,33.0108 80.5887,33.0285 80.8332,33.0462 81.0777,33.064 81.3222,33.0817 81.5666,33.0994 81.8111,33.1171 82.0556,33.1348 82.3001,33.1526 82.5445,33.1703 82.789,33.188 83.0335,33.2057 83.278,33.2234 83.5225,33.2412 83.7669,33.2589 84.0114,33.2767 84.2559,33.2944 84.5004,33.3121 84.7448,33.3299 84.9893,33.3476 85.2338,33.3654 85.4783,33.3831 85.7227,33.4008 85.9672,33.4186 86.2117,33.4363 86.4562,33.4541 86.7006,33.4718 86.9451,33.4896 87.1896,33.5074 87.4341,33.5251 87.6785,33.5429 87.923,33.5606 88.1675,33.5784 88.412,33.5962 88.6565,33.6139 88.9009,33.6317 89.1454,33.6495 89.3899,33.6673 89.6344,33.685 89.8788,33.7028 90.1233,33.7206 90.3678,33.7384 90.6123,33.7562 90.8567,33.774 91.1012,33.7917 91.3457,33.8095 91.5902,33.8273 91.8346,33.8451 92.0791,33.8629 92.3236,33.8807 92.5681,33.8986 92.8125,33.9164 93.057,33.9342 93.3015,33.952 93.546,33.9698 93.7905,33.9876 94.0349,34.0055 94.2794,34.0233 94.5239,34.0411 94.7684,34.0589 95.0128,34.0768 95.2573,34.0946 95.5018,34.1125 95.7463,34.1303 95.9907,34.1481 96.2352,34.166 96.4797,34.1839 96.7242,34.2017 96.9686,34.2196 97.2131,34.2374 97.4576,34.2553 97.7021,34.2732 97.9466,34.291 98.191,34.3089 98.4355,34.3268 98.68,34.3447 98.9245,34.3626 99.1689,34.3805 99.4134,34.3984 99.6579,34.4163 99.9024,34.4342 100.147,34.4521 100.391,34.47 100.636,34.4879 100.88,34.5059 101.125,34.5238 101.369,34.5417 101.614,34.5596 101.858,34.5776 102.103,34.5955 102.347,34.6135 102.592,34.6314 102.836,34.6494 103.081,34.6674 103.325,34.6853 103.569,34.7033 103.814,34.7213 104.058,34.7393 104.303,34.7572 104.547,34.7752 104.792,34.7932 105.036,34.8112 105.281,34.8292 105.525,34.8473 105.77,34.8653 106.014,34.8833 106.259,34.9013 106.503,34.9194 106.748,34.9374 106.992,34.9555 107.237,34.9735 107.481,34.9916 107.726,35.0096 107.97,35.0277 108.215,35.0458 108.459,35.0639 108.703,35.082 108.948,35.1001 109.192,35.1182 109.437,35.1363 109.681,35.1544 109.926,35.1725 110.17,35.1907 110.415,35.2088 110.659,35.227 110.904,35.2451 111.148,35.2633 111.393,35.2815 111.637,35.2997 111.882,35.3179 112.126,35.3361 112.371,35.3542 112.615,35.3725 112.86,35.3907 113.104,35.4089 113.349,35.4272 113.593,35.4454 113.838,35.4637 114.082,35.4819 114.326,35.5002 114.571,35.5185 114.815,35.5368 115.06,35.5551 115.304,35.5734 115.549,35.5917 115.793,35.6101 116.038,35.6284 116.282,35.6468 116.527,35.6652 116.771,35.6835 117.016,35.7019 117.26,35.7203 117.505,35.7387 117.749,35.7571 117.994,35.7756 118.238,35.794 118.483,35.8125 118.727,35.8309 118.971,35.8494 119.216,35.8679 119.46,35.8864 119.705,35.9049 119.949,35.9235 120.194,35.942 120.438,35.9605 120.683,35.9791 120.927,35.9977 121.172,36.0163 121.416,36.0349 121.661,36.0535 121.905,36.0722 122.15,36.0908 122.394,36.1095 122.639,36.1282 122.883,36.1469 123.128,36.1656 123.372,36.1843 123.617,36.2031 123.861,36.2218 124.106,36.2406 124.35,36.2594 124.594,36.2782 124.839,36.2971 125.083,36.3159 125.328,36.3348 125.572,36.3536 125.817,36.3726 126.061,36.3915 126.306,36.4104 126.55,36.4294 126.795,36.4484 127.039,36.4673 127.284,36.4864 127.528,36.5054 127.773,36.5245 128.017,36.5435 128.262,36.5627 128.506,36.5818 128.751,36.6009 128.995,36.6201 129.24,36.6393 129.484,36.6585 129.728,36.6777 129.973,36.697 130.217,36.7162 130.462,36.7356 130.706,36.7549 130.951,36.7743 131.195,36.7936 131.44,36.813 131.684,36.8325 131.929,36.8519 132.173,36.8714 132.418,36.8909 132.662,36.9105 132.907,36.9301 133.151,36.9496 133.396,36.9693 133.64,36.989 133.885,37.0086 134.129,37.0284 134.374,37.0481 134.618,37.0679 134.862,37.0877 135.107,37.1075 135.351,37.1274 135.596,37.1473 135.84,37.1673 136.085,37.1873 136.329,37.2073 136.574,37.2273 136.818,37.2474 137.063,37.2675 137.307,37.2877 137.552,37.3079 137.796,37.3282 138.041,37.3484 138.285,37.3687 138.53,37.3891 138.774,37.4095 139.019,37.43 139.263,37.4504 139.507,37.471 139.752,37.4915 139.996,37.5122 140.241,37.5328 140.485,37.5535 140.73,37.5743 140.974,37.5951 141.219,37.6159 141.463,37.6368 141.708,37.6578 141.952,37.6788 142.197,37.6999 142.441,37.721 142.686,37.7421 142.93,37.7633 143.175,37.7846 143.419,37.8059 143.664,37.8273 143.908,37.8488 144.153,37.8703 144.397,37.8918 144.642,37.9135 144.886,37.9352 145.13,37.9569 145.375,37.9787 145.619,38.0006 145.864,38.0225 146.108,38.0445 146.353,38.0666 146.597,38.0887 146.842,38.111 147.086,38.1333 147.331,38.1556 147.575,38.1781 147.82,38.2006 148.064,38.2232 148.309,38.2459 148.553,38.2686 148.798,38.2915 149.042,38.3144 149.287,38.3374 149.531,38.3605 149.775,38.3837 150.02,38.407 150.264,38.4304 150.509,38.4538 150.753,38.4774 150.998,38.501 151.242,38.5247 151.487,38.5486 151.731,38.5726 151.976,38.5966 152.22,38.6208 152.465,38.6451 152.709,38.6694 152.954,38.6939 153.198,38.7186 153.443,38.7433 153.687,38.7681 153.932,38.7931 154.176,38.8182 154.421,38.8434 154.665,38.8688 154.91,38.8943 155.154,38.9199 155.398,38.9456 155.643,38.9715 155.887,38.9975 156.132,39.0237 156.376,39.05 156.621,39.0765 156.865,39.1032 157.11,39.13 157.354,39.1569 157.599,39.184 157.843,39.2113 158.088,39.2388 158.332,39.2664 158.577,39.2943 158.821,39.3222 159.066,39.3504 159.31,39.3788 159.555,39.4074 159.799,39.4362 160.044,39.4651 160.288,39.4944 160.532,39.5238 160.777,39.5534 161.021,39.5833 161.266,39.6133 161.51,39.6437 161.755,39.6742 161.999,39.705 162.244,39.7361 162.488,39.7675 162.733,39.799 162.977,39.8309 163.222,39.8631 163.466,39.8955 163.711,39.9282 163.955,39.9612 164.2,39.9946 164.444,40.0283 164.689,40.0623 164.933,40.0966 165.178,40.1313 165.422,40.1663 165.666,40.2017 165.911,40.2374 166.155,40.2736 166.4,40.3101 166.644,40.3471 166.889,40.3845 167.133,40.4223 167.378,40.4605 167.622,40.4992 167.867,40.5385 168.111,40.5781 168.356,40.6183 168.6,40.659 168.845,40.7002 169.089,40.742 169.334,40.7844 169.578,40.8274 169.823,40.8709 170.067,40.9151 170.312,40.96 170.556,41.0055 170.8,41.0518 171.045,41.0988 171.289,41.1465 171.534,41.195 171.778,41.2444 172.023,41.2946 172.267,41.3456 172.512,41.3976 172.756,41.4506 173.001,41.5045 173.245,41.5595 173.49,41.6156 173.734,41.6729 173.979,41.7313 174.223,41.791 174.468,41.8519 174.712,41.9142 174.957,41.978 175.201,42.0433 175.446,42.1102 175.69,42.1788 175.934,42.2491 176.179,42.3213 176.423,42.3955 176.668,42.4718 176.912,42.5503 177.157,42.6312 177.401,42.7146 177.646,42.8007 177.89,42.8897 178.135,42.9818 178.379,43.0772 178.624,43.1762 178.868,43.2791 179.113,43.3861 179.357,43.4978 179.602,43.6144 179.846,43.7366 180.091,43.8647 180.335,43.9995 180.58,44.1417 180.824,44.2922 181.068,44.452 181.313,44.6223 181.557,44.8048 181.802,45.0012 182.046,45.2138 182.291,45.4458 182.535,45.7008 182.78,45.9841 183.024,46.3028 183.269,46.6669 183.513,47.0917 183.758,47.6018 184.002,48.24 184.247,49.0933 184.491,50.3853 184.736,53.1376 184.861,117.426 184.98,53.2805 185.225,50.433 185.469,49.1218 185.714,48.2604 185.958,47.6176 186.202,47.1047 186.447,46.6779 186.691,46.3123 186.936,45.9925 187.18,45.7083 187.425,45.4526 187.669,45.2201 187.914,45.0069 188.158,44.8101 188.403,44.6273 188.647,44.4566 188.892,44.2965 189.136,44.1458 189.381,44.0034 189.625,43.8684 189.87,43.7401 190.114,43.6178 190.359,43.501 190.603,43.3892 190.848,43.282 191.092,43.179 191.336,43.0799 191.581,42.9844 191.825,42.8922 192.07,42.8031 192.314,42.7169 192.559,42.6335 192.803,42.5525 193.048,42.4739 193.292,42.3976 193.537,42.3234 193.781,42.2511 194.026,42.1807 194.27,42.1121 194.515,42.0452 194.759,41.9798 195.004,41.916 195.248,41.8536 195.493,41.7926 195.737,41.7329 195.982,41.6745 196.226,41.6172 196.47,41.5611 196.715,41.5061 196.959,41.4521 197.204,41.3991 197.448,41.3471 197.693,41.296 197.937,41.2458 198.182,41.1964 198.426,41.1479 198.671,41.1001 198.915,41.0531 199.16,41.0068 199.404,40.9613 199.649,40.9164 199.893,40.8722 200.138,40.8286 200.382,40.7856 200.627,40.7432 200.871,40.7014 201.116,40.6602 201.36,40.6194 201.604,40.5793 201.849,40.5396 202.093,40.5003 202.338,40.4616 202.582,40.4233 202.827,40.3855 203.071,40.3481 203.316,40.3112 203.56,40.2746 203.805,40.2384 204.049,40.2027 204.294,40.1673 204.538,40.1322 204.783,40.0975 205.027,40.0632 205.272,40.0292 205.516,39.9955 205.761,39.9622 206.005,39.9291 206.25,39.8964 206.494,39.864 206.738,39.8318 206.983,39.7999 207.227,39.7683 207.472,39.737 207.716,39.7059 207.961,39.6751 208.205,39.6445 208.45,39.6142 208.694,39.5841 208.939,39.5542 209.183,39.5246 209.428,39.4952 209.672,39.466 209.917,39.437 210.161,39.4082 210.406,39.3796 210.65,39.3512 210.895,39.323 211.139,39.295 211.384,39.2672 211.628,39.2396 211.872,39.2121 212.117,39.1848 212.361,39.1577 212.606,39.1307 212.85,39.1039 213.095,39.0773 213.339,39.0508 213.584,39.0244 213.828,38.9983 214.073,38.9722 214.317,38.9464 214.562,38.9206 214.806,38.895 215.051,38.8695 215.295,38.8441 215.54,38.8189 215.784,38.7938 216.029,38.7688 216.273,38.744 216.518,38.7192 216.762,38.6946 217.006,38.6701 217.251,38.6458 217.495,38.6215 217.74,38.5973 217.984,38.5732 218.229,38.5493 218.473,38.5254 218.718,38.5017 218.962,38.478 219.207,38.4545 219.451,38.431 219.696,38.4076 219.94,38.3844 220.185,38.3612 220.429,38.3381 220.674,38.3151 220.918,38.2921 221.163,38.2693 221.407,38.2465 221.652,38.2238 221.896,38.2012 222.14,38.1787 222.385,38.1563 222.629,38.1339 222.874,38.1116 223.118,38.0894 223.363,38.0672 223.607,38.0451 223.852,38.0231 224.096,38.0012 224.341,37.9793 224.585,37.9575 224.83,37.9357 225.074,37.9141 225.319,37.8924 225.563,37.8709 225.808,37.8494 226.052,37.8279 226.297,37.8065 226.541,37.7852 226.786,37.7639 227.03,37.7427 227.274,37.7216 227.519,37.7004 227.763,37.6794 228.008,37.6584 228.252,37.6375 228.497,37.6165 228.741,37.5957 228.986,37.5749 229.23,37.5541 229.475,37.5334 229.719,37.5128 229.964,37.4921 230.208,37.4716 230.453,37.451 230.697,37.4305 230.942,37.4101 231.186,37.3897 231.431,37.3693 231.675,37.349 231.92,37.3287 232.164,37.3085 232.408,37.2883 232.653,37.2681 232.897,37.248 233.142,37.2279 233.386,37.2079 233.631,37.1878 233.875,37.1678 234.12,37.1479 234.364,37.128 234.609,37.1081 234.853,37.0883 235.098,37.0684 235.342,37.0486 235.587,37.0289 235.831,37.0092 236.076,36.9895 236.32,36.9698 236.565,36.9502 236.809,36.9306 237.054,36.911 237.298,36.8915 237.542,36.872 237.787,36.8525 238.031,36.833 238.276,36.8136 238.52,36.7942 238.765,36.7748 239.009,36.7554 239.254,36.7361 239.498,36.7168 239.743,36.6975 239.987,36.6783 240.232,36.659 240.476,36.6398 240.721,36.6206 240.965,36.6014 241.21,36.5823 241.454,36.5632 241.699,36.5441 241.943,36.525 242.188,36.506 242.432,36.4869 242.676,36.4679 242.921,36.4489 243.165,36.4299 243.41,36.4109 243.654,36.392 243.899,36.3731 244.143,36.3542 244.388,36.3353 244.632,36.3164 244.877,36.2976 245.121,36.2787 245.366,36.2599 245.61,36.2411 245.855,36.2224 246.099,36.2036 246.344,36.1848 246.588,36.1661 246.833,36.1474 247.077,36.1287 247.322,36.11 247.566,36.0913 247.81,36.0727 248.055,36.054 248.299,36.0354 248.544,36.0168 248.788,35.9982 249.033,35.9796 249.277,35.9611 249.522,35.9425 249.766,35.924 250.011,35.9055 250.255,35.8869 250.5,35.8684 250.744,35.8499 250.989,35.8315 251.233,35.813 251.478,35.7945 251.722,35.7761 251.967,35.7577 252.211,35.7392 252.456,35.7208 252.7,35.7024 252.944,35.684 253.189,35.6656 253.433,35.6473 253.678,35.6289 253.922,35.6106 254.167,35.5923 254.411,35.5739 254.656,35.5556 254.9,35.5373 255.145,35.519 255.389,35.5007 255.634,35.4825 255.878,35.4642 256.123,35.4459 256.367,35.4277 256.612,35.4095 256.856,35.3912 257.101,35.373 257.345,35.3548 257.59,35.3366 257.834,35.3184 258.078,35.3002 258.323,35.282 258.567,35.2638 258.812,35.2457 259.056,35.2275 259.301,35.2094 259.545,35.1912 259.79,35.1731 260.034,35.1549 260.279,35.1368 260.523,35.1187 260.768,35.1006 261.012,35.0825 261.257,35.0644 261.501,35.0463 261.746,35.0282 261.99,35.0102 262.235,34.9921 262.479,34.974 262.724,34.956 262.968,34.9379 263.212,34.9199 263.457,34.9018 263.701,34.8838 263.946,34.8658 264.19,34.8477 264.435,34.8297 264.679,34.8117 264.924,34.7937 265.168,34.7757 265.413,34.7578 265.657,34.7397 265.902,34.7218 266.146,34.7038 266.391,34.6858 266.635,34.6678 266.88,34.6499 267.124,34.6319 267.369,34.614 267.613,34.596 267.858,34.5781 268.102,34.5602 268.346,34.5422 268.591,34.5243 268.835,34.5063 269.08,34.4884 269.324,34.4705 269.569,34.4526 269.813,34.4347 270.058,34.4168 270.302,34.3989 270.547,34.381 270.791,34.3631 271.036,34.3452 271.28,34.3273 271.525,34.3094 271.769,34.2916 272.014,34.2737 272.258,34.2558 272.503,34.2379 272.747,34.2201 272.992,34.2022 273.236,34.1844 273.481,34.1665 273.725,34.1487 273.969,34.1308 274.214,34.1129 274.458,34.0951 274.703,34.0773 274.947,34.0594 275.192,34.0416 275.436,34.0238 275.681,34.006 275.925,33.9881 276.17,33.9703 276.414,33.9525 276.659,33.9347 276.903,33.9169 277.148,33.899 277.392,33.8813 277.637,33.8634 277.881,33.8456 278.126,33.8279 278.37,33.8101 278.614,33.7922 278.859,33.7744 279.103,33.7567 279.348,33.7389 279.592,33.7211 279.837,33.7033 280.081,33.6855 280.326,33.6678 280.57,33.65 280.815,33.6322 281.059,33.6144 281.304,33.5967 281.548,33.5789 281.793,33.5611 282.037,33.5434 282.282,33.5256 282.526,33.5078 282.771,33.4901 283.015,33.4724 283.26,33.4546 283.504,33.4368 283.749,33.4191 283.993,33.4013 284.237,33.3836 284.482,33.3658 284.726,33.3481 284.971,33.3304 285.215,33.3126 285.46,33.2949 285.704,33.2772 285.949,33.2594 286.193,33.2417 286.438,33.224 286.682,33.2062 286.927,33.1885 287.171,33.1708 287.416,33.153 287.66,33.1353 287.905,33.1176 288.149,33.0999 288.394,33.0822 288.638,33.0645 288.883,33.0468 289.127,33.029 289.371,33.0113 289.616,32.9936 289.86,32.9759 290.105,32.9582 290.349,32.9405 290.594,32.9228 290.838,32.9051 291.083,32.8874 291.327,32.8697 291.572,32.852 291.816,32.8343 292.061,32.8166 292.305,32.7989 292.55,32.7812 292.794,32.7635 293.039,32.7458 293.283,32.7281 293.528,32.7104 293.772,32.6927 294.016,32.675 294.261,32.6573 294.505,32.6396 294.75,32.6219 294.994,32.6042 295.239,32.5865 295.483,32.5689 295.728,32.5512 295.972,32.5335 296.217,32.5158 296.461,32.4981 296.706,32.4805 296.95,32.4628 297.195,32.4451 297.439,32.4274 297.684,32.4098 297.928,32.3921 298.173,32.3744 298.417,32.3567 298.662,32.3391 298.906,32.3214 299.151,32.3037 299.395,32.286 299.639,32.2684 299.884,32.2507 300.128,32.233 300.373,32.2154 300.617,32.1977 300.862,32.18 301.106,32.1624 301.351,32.1447 301.595,32.127 301.84,32.1094 302.084,32.0917 302.329,32.074 302.573,32.0564 302.818,32.0387 303.062,32.0211 303.307,32.0034 303.551,31.9857 303.796,31.9681 304.04,31.9504 304.285,31.9327 304.529,31.9151 304.773,31.8974 305.018,31.8798 305.262,31.8621 305.507,31.8445 305.751,31.8268 305.996,31.8092 306.24,31.7915 306.485,31.7739 306.729,31.7562 306.974,31.7386 307.218,31.7209 307.463,31.7032 307.707,31.6856 307.952,31.6679 308.196,31.6503 308.441,31.6327 308.685,31.615 308.93,31.5974 309.174,31.5797 309.418,31.562 309.663,31.5444 309.907,31.5268 310.152,31.5091 310.396,31.4915 310.641,31.4738 310.885,31.4562 311.13,31.4385 311.374,31.4209 311.619,31.4032 311.863,31.3856 312.108,31.368 312.352,31.3503 312.597,31.3327 312.841,31.315 313.086,31.2974 313.33,31.2798 313.575,31.2621 313.819,31.2444 314.064,31.2268 314.308,31.2092 314.553,31.1915 314.797,31.1739 315.041,31.1562 315.286,31.1386" stroke="#0071bc" stroke-linecap="butt" stroke-linejoin="round" stroke-width="0.5"/>
  </g>
  <clipPath id="cp00420315">
   <polygon points="0,315 420,315 420,0 0,0"/>
  </clipPath>
  <g clip-path="url(#cp00420315)">
   <polygon fill="#ffffff" points="54.6239,280.473 380.266,280.473 380.266,177.811 54.6239,177.811" shape-rendering="crispEdges"/>
   <polyline fill="none" points="79.1309,280.473 79.1309,177.811" stroke="#191919" stroke-dasharray="1,3,1,3,1,3,1,3" stroke-linecap="butt" stroke-linejoin="miter" stroke-opacity="0.25" stroke-width="0.5"/>
   <polyline fill="none" points="93.4666,280.473 93.4666,177.811" stroke="#191919" stroke-dasharray="1,3,1,3,1,3,1,3" stroke-linecap="butt" stroke-linejoin="miter" stroke-opacity="0.25" stroke-width="0.5"/>
   <polyline fill="none" points="103.638,280.473 103.638,177.811" stroke="#191919" stroke-dasharray="1,3,1,3,1,3,1,3" stroke-linecap="butt" stroke-linejoin="miter" stroke-opacity="0.25" stroke-width="0.5"/>
   <polyline fill="none" points="111.527,280.473 111.527,177.811" stroke="#191919" stroke-dasharray="1,3,1,3,1,3,1,3" stroke-linecap="butt" stroke-linejoin="miter" stroke-opacity="0.25" stroke-width="0.5"/>
   <polyline fill="none" points="117.974,280.473 117.974,177.811" stroke="#191919" stroke-dasharray="1,3,1,3,1,3,1,3" stroke-linecap="butt" stroke-linejoin="miter" stroke-opacity="0.25" stroke-width="0.5"/>
   <polyline fill="none" points="123.424,280.473 123.424,177.811" stroke="#191919" stroke-dasharray="1,3,1,3,1,3,1,3" stroke-linecap="butt" stroke-linejoin="miter" stroke-opacity="0.25" stroke-width="0.5"/>
   <polyline fill="none" points="128.145,280.473 128.145,177.811" stroke="#191919" stroke-dasharray="1,3,1,3,1,3,1,3" stroke-linecap="butt" stroke-linejoin="miter" stroke-opacity="0.25" stroke-width="0.5"/>
   <polyline fill="none" points="132.309,280.473 132.309,177.811" stroke="#191919" stroke-dasharray="1,3,1,3,1,3,1,3" stroke-linecap="butt" stroke-linejoin="miter" stroke-opacity="0.25" stroke-width="0.5"/>
   <polyline fill="none" points="160.541,280.473 160.541,177.811" stroke="#191919" stroke-dasharray="1,3,1,3,1,3,1,3" stroke-linecap="butt" stroke-linejoin="miter" stroke-opacity="0.25" stroke-width="0.5"/>
   <polyline fill="none" points="174.877,280.473 174.877,177.811" stroke="#191919" stroke-dasharray="1,3,1,3,1,3,1,3" stroke-linecap="butt" stroke-linejoin="miter" stroke-opacity="0.25" stroke-width="0.5"/>
   <polyline fill="none" points="185.049,280.473 185.049,177.811" stroke="#191919" stroke-dasharray="1,3,1,3,1,3,1,3" stroke-linecap="butt" stroke-linejoin="miter" stroke-opacity="0.25" stroke-width="0.5"/>
   <polyline fill="none" points="192.938,280.473 192.938,177.811" stroke="#191919" stroke-dasharray="1,3,1,3,1,3,1,3" stroke-linecap="butt" stroke-linejoin="miter" stroke-opacity="0.25" stroke-width="0.5"/>
   <polyline fill="none" points="199.384,280.473 199.384,177.811" stroke="#191919" stroke-dasharray="1,3,1,3,1,3,1,3" stroke-linecap="butt" stroke-linejoin="miter" stroke-opacity="0.25" stroke-width="0.5"/>
   <polyline fill="none" points="204.834,280.473 204.834,177.811" stroke="#191919" stroke-dasharray="1,3,1,3,1,3,1,3" stroke-linecap="butt" stroke-linejoin="miter" stroke-opacity="0.25" stroke-width="0.5"/>
   <polyline fill="none" points="209.556,280.473 209.556,177.811" stroke="#191919" stroke-dasharray="1,3,1,3,1,3,1,3" stroke-linecap="butt" stroke-linejoin="miter" stroke-opacity="0.25" stroke-width="0.5"/>
   <polyline fill="none" points="213.72,280.473 213.72,177.811" stroke="#191919" stroke-dasharray="1,3,1,3,1,3,1,3" stroke-linecap="butt" stroke-linejoin="miter" stroke-opacity="0.25" stroke-width="0.5"/>
   <polyline fill="none" points="241.952,280.473 241.952,177.811" stroke="#191919" stroke-dasharray="1,3,1,3,1,3,1,3" stroke-linecap="butt" stroke-linejoin="miter" stroke-opacity="0.25" stroke-width="0.5"/>
   <polyline fill="none" points="256.288,280.473 256.288,177.811" stroke="#191919" stroke-dasharray="1,3,1,3,1,3,1,3" stroke-linecap="butt" stroke-linejoin="miter" stroke-opacity="0.25" stroke-width="0.5"/>
   <polyline fill="none" points="266.459,280.473 266.459,177.811" stroke="#191919" stroke-dasharray="1,3,1,3,1,3,1,3" stroke-linecap="butt" stroke-linejoin="miter" stroke-opacity="0.25" stroke-width="0.5"/>
   <polyline fill="none" points="274.349,280.473 274.349,177.811" stroke="#191919" stroke-dasharray="1,3,1,3,1,3,1,3" stroke-linecap="butt" stroke-linejoin="miter" stroke-opacity="0.25" stroke-width="0.5"/>
   <polyline fill="none" points="280.795,280.473 280.795,177.811" stroke="#191919" stroke-dasharray="1,3,1,3,1,3,1,3" stroke-linecap="butt" stroke-linejoin="miter" stroke-opacity="0.25" stroke-width="0.5"/>
   <polyline fill="none" points="286.245,280.473 286.245,177.811" stroke="#191919" stroke-dasharray="1,3,1,3,1,3,1,3" stroke-linecap="butt" stroke-linejoin="miter" stroke-opacity="0.25" stroke-width="0.5"/>
   <polyline fill="none" points="290.966,280.473 290.966,177.811" stroke="#191919" stroke-dasharray="1,3,1,3,1,3,1,3" stroke-linecap="butt" stroke-linejoin="miter" stroke-opacity="0.25" stroke-width="0.5"/>
   <polyline fill="none" points="295.13,280.473 295.13,177.811" stroke="#191919" stroke-dasharray="1,3,1,3,1,3,1,3" stroke-linecap="butt" stroke-linejoin="miter" stroke-opacity="0.25" stroke-width="0.5"/>
   <polyline fill="none" points="323.363,280.473 323.363,177.811" stroke="#191919" stroke-dasharray="1,3,1,3,1,3,1,3" stroke-linecap="butt" stroke-linejoin="miter" stroke-opacity="0.25" stroke-width="0.5"/>
   <polyline fill="none" points="337.698,280.473 337.698,177.811" stroke="#191919" stroke-dasharray="1,3,1,3,1,3,1,3" stroke-linecap="butt" stroke-linejoin="miter" stroke-opacity="0.25" stroke-width="0.5"/>
   <polyline fill="none" points="347.87,280.473 347.87,177.811" stroke="#191919" stroke-dasharray="1,3,1,3,1,3,1,3" stroke-linecap="butt" stroke-linejoin="miter" stroke-opacity="0.25" stroke-width="0.5"/>
   <polyline fill="none" points="355.759,280.473 355.759,177.811" stroke="#191919" stroke-dasharray="1,3,1,3,1,3,1,3" stroke-linecap="butt" stroke-linejoin="miter" stroke-opacity="0.25" stroke-width="0.5"/>
   <polyline fill="none" points="362.205,280.473 362.205,177.811" stroke="#191919" stroke-dasharray="1,3,1,3,1,3,1,3" stroke-linecap="butt" stroke-linejoin="miter" stroke-opacity="0.25" stroke-width="0.5"/>
   <polyline fill="none" points="367.656,280.473 367.656,177.811" stroke="#191919" stroke-dasharray="1,3,1,3,1,3,1,3" stroke-linecap="butt" stroke-linejoin="miter" stroke-opacity="0.25" stroke-width="0.5"/>
   <polyline fill="none" points="372.377,280.473 372.377,177.811" stroke="#191919" stroke-dasharray="1,3,1,3,1,3,1,3" stroke-linecap="butt" stroke-linejoin="miter" stroke-opacity="0.25" stroke-width="0.5"/>
   <polyline fill="none" points="376.541,280.473 376.541,177.811" stroke="#191919" stroke-dasharray="1,3,1,3,1,3,1,3" stroke-linecap="butt" stroke-linejoin="miter" stroke-opacity="0.25" stroke-width="0.5"/>
   <polyline fill="none" points="54.6239,280.473 54.6239,177.811" stroke="#262626" stroke-dasharray="16,0" stroke-linecap="butt" stroke-linejoin="miter" stroke-opacity="0.15" stroke-width="0.5"/>
   <polyline fill="none" points="136.034,280.473 136.034,177.811" stroke="#262626" stroke-dasharray="16,0" stroke-linecap="butt" stroke-linejoin="miter" stroke-opacity="0.15" stroke-width="0.5"/>
   <polyline fill="none" points="217.445,280.473 217.445,177.811" stroke="#262626" stroke-dasharray="16,0" stroke-linecap="butt" stroke-linejoin="miter" stroke-opacity="0.15" stroke-width="0.5"/>
   <polyline fill="none" points="298.856,280.473 298.856,177.811" stroke="#262626" stroke-dasharray="16,0" stroke-linecap="butt" stroke-linejoin="miter" stroke-opacity="0.15" stroke-width="0.5"/>
   <polyline fill="none" points="380.266,280.473 380.266,177.811" stroke="#262626" stroke-dasharray="16,0" stroke-linecap="butt" stroke-linejoin="miter" stroke-opacity="0.15" stroke-width="0.5"/>
   <polyline fill="none" points="79.1309,280.473 79.1309,278.85" stroke="#262626" stroke-linecap="butt" stroke-linejoin="miter" stroke-width="0.5"/>
   <polyline fill="none" points="79.1309,177.811 79.1309,179.434" stroke="#262626" stroke-linecap="butt" stroke-linejoin="miter" stroke-width="0.5"/>
   <polyline fill="none" points="93.4666,280.473 93.4666,278.85" stroke="#262626" stroke-linecap="butt" stroke-linejoin="miter" stroke-width="0.5"/>
   <polyline fill="none" points="93.4666,177.811 93.4666,179.434" stroke="#262626" stroke-linecap="butt" stroke-linejoin="miter" stroke-width="0.5"/>
   <polyline fill="none" points="103.638,280.473 103.638,278.85" stroke="#262626" stroke-linecap="butt" stroke-linejoin="miter" stroke-width="0.5"/>
   <polyline fill="none" points="103.638,177.811 103.638,179.434" stroke="#262626" stroke-linecap="butt" stroke-linejoin="miter" stroke-width="0.5"/>
   <polyline fill="none" points="111.527,280.473 111.527,278.85" stroke="#262626" stroke-linecap="butt" stroke-linejoin="miter" stroke-width="0.5"/>
   <polyline fill="none" points="111.527,177.811 111.527,179.434" stroke="#262626" stroke-linecap="butt" stroke-linejoin="miter" stroke-width="0.5"/>
   <polyline fill="none" points="117.974,280.473 117.974,278.85" stroke="#262626" stroke-linecap="butt" stroke-linejoin="miter" stroke-width="0.5"/>
   <polyline fill="none" points="117.974,177.811 117.974,179.434" stroke="#262626" stroke-linecap="butt" stroke-linejoin="miter" stroke-width="0.5"/>
   <polyline fill="none" points="123.424,280.473 123.424,278.85" stroke="#262626" stroke-linecap="butt" stroke-linejoin="miter" stroke-width="0.5"/>
   <polyline fill="none" points="123.424,177.811 123.424,179.434" stroke="#262626" stroke-linecap="butt" stroke-linejoin="miter" stroke-width="0.5"/>
   <polyline fill="none" points="128.145,280.473 128.145,278.85" stroke="#262626" stroke-linecap="butt" stroke-linejoin="miter" stroke-width="0.5"/>
   <polyline fill="none" points="128.145,177.811 128.145,179.434" stroke="#262626" stroke-linecap="butt" stroke-linejoin="miter" stroke-width="0.5"/>
   <polyline fill="none" points="132.309,280.473 132.309,278.85" stroke="#262626" stroke-linecap="butt" stroke-linejoin="miter" stroke-width="0.5"/>
   <polyline fill="none" points="132.309,177.811 132.309,179.434" stroke="#262626" stroke-linecap="butt" stroke-linejoin="miter" stroke-width="0.5"/>
   <polyline fill="none" points="160.541,280.473 160.541,278.85" stroke="#262626" stroke-linecap="butt" stroke-linejoin="miter" stroke-width="0.5"/>
   <polyline fill="none" points="160.541,177.811 160.541,179.434" stroke="#262626" stroke-linecap="butt" stroke-linejoin="miter" stroke-width="0.5"/>
   <polyline fill="none" points="174.877,280.473 174.877,278.85" stroke="#262626" stroke-linecap="butt" stroke-linejoin="miter" stroke-width="0.5"/>
   <polyline fill="none" points="174.877,177.811 174.877,179.434" stroke="#262626" stroke-linecap="butt" stroke-linejoin="miter" stroke-width="0.5"/>
   <polyline fill="none" points="185.049,280.473 185.049,278.85" stroke="#262626" stroke-linecap="butt" stroke-linejoin="miter" stroke-width="0.5"/>
   <polyline fill="none" points="185.049,177.811 185.049,179.434" stroke="#262626" stroke-linecap="butt" stroke-linejoin="miter" stroke-width="0.5"/>
   <polyline fill="none" points="192.938,280.473 192.938,278.85" stroke="#262626" stroke-linecap="butt" stroke-linejoin="miter" stroke-width="0.5"/>
   <polyline fill="none" points="192.938,177.811 192.938,179.434" stroke="#262626" stroke-linecap="butt" stroke-linejoin="miter" stroke-width="0.5"/>
   <polyline fill="none" points="199.384,280.473 199.384,278.85" stroke="#262626" stroke-linecap="butt" stroke-linejoin="miter" stroke-width="0.5"/>
   <polyline fill="none" points="199.384,177.811 199.384,179.434" stroke="#262626" stroke-linecap="butt" stroke-linejoin="miter" stroke-width="0.5"/>
   <polyline fill="none" points="204.834,280.473 204.834,278.85" stroke="#262626" stroke-linecap="butt" stroke-linejoin="miter" stroke-width="0.5"/>
   <polyline fill="none" points="204.834,177.811 204.834,179.434" stroke="#262626" stroke-linecap="butt" stroke-linejoin="miter" stroke-width="0.5"/>
   <polyline fill="none" points="209.556,280.473 209.556,278.85" stroke="#262626" stroke-linecap="butt" stroke-linejoin="miter" stroke-width="0.5"/>
   <polyline fill="none" points="209.556,177.811 209.556,179.434" stroke="#262626" stroke-linecap="butt" stroke-linejoin="miter" stroke-width="0.5"/>
   <polyline fill="none" points="213.72,280.473 213.72,278.85" stroke="#262626" stroke-linecap="butt" stroke-linejoin="miter" stroke-width="0.5"/>
   <polyline fill="none" points="213.72,177.811 213.72,179.434" stroke="#262626" stroke-linecap="butt" stroke-linejoin="miter" stroke-width="0.5"/>
   <polyline fill="none" points="241.952,280.473 241.952,278.85" stroke="#262626" stroke-linecap="butt" stroke-linejoin="miter" stroke-width="0.5"/>
   <polyline fill="none" points="241.952,177.811 241.952,179.434" stroke="#262626" stroke-linecap="butt" stroke-linejoin="miter" stroke-width="0.5"/>
   <polyline fill="none" points="256.288,280.473 256.288,278.85" stroke="#262626" stroke-linecap="butt" stroke-linejoin="miter" stroke-width="0.5"/>
   <polyline fill="none" points="256.288,177.811 256.288,179.434" stroke="#262626" stroke-linecap="butt" stroke-linejoin="miter" stroke-width="0.5"/>
   <polyline fill="none" points="266.459,280.473 266.459,278.85" stroke="#262626" stroke-linecap="butt" stroke-linejoin="miter" stroke-width="0.5"/>
   <polyline fill="none" points="266.459,177.811 266.459,179.434" stroke="#262626" stroke-linecap="butt" stroke-linejoin="miter" stroke-width="0.5"/>
   <polyline fill="none" points="274.349,280.473 274.349,278.85" stroke="#262626" stroke-linecap="butt" stroke-linejoin="miter" stroke-width="0.5"/>
   <polyline fill="none" points="274.349,177.811 274.349,179.434" stroke="#262626" stroke-linecap="butt" stroke-linejoin="miter" stroke-width="0.5"/>
   <polyline fill="none" points="280.795,280.473 280.795,278.85" stroke="#262626" stroke-linecap="butt" stroke-linejoin="miter" stroke-width="0.5"/>
   <polyline fill="none" points="280.795,177.811 280.795,179.434" stroke="#262626" stroke-linecap="butt" stroke-linejoin="miter" stroke-width="0.5"/>
   <polyline fill="none" points="286.245,280.473 286.245,278.85" stroke="#262626" stroke-linecap="butt" stroke-linejoin="miter" stroke-width="0.5"/>
   <polyline fill="none" points="286.245,177.811 286.245,179.434" stroke="#262626" stroke-linecap="butt" stroke-linejoin="miter" stroke-width="0.5"/>
   <polyline fill="none" points="290.966,280.473 290.966,278.85" stroke="#262626" stroke-linecap="butt" stroke-linejoin="miter" stroke-width="0.5"/>
   <polyline fill="none" points="290.966,177.811 290.966,179.434" stroke="#262626" stroke-linecap="butt" stroke-linejoin="miter" stroke-width="0.5"/>
   <polyline fill="none" points="295.13,280.473 295.13,278.85" stroke="#262626" stroke-linecap="butt" stroke-linejoin="miter" stroke-width="0.5"/>
   <polyline fill="none" points="295.13,177.811 295.13,179.434" stroke="#262626" stroke-linecap="butt" stroke-linejoin="miter" stroke-width="0.5"/>
   <polyline fill="none" points="323.363,280.473 323.363,278.85" stroke="#262626" stroke-linecap="butt" stroke-linejoin="miter" stroke-width="0.5"/>
   <polyline fill="none" points="323.363,177.811 323.363,179.434" stroke="#262626" stroke-linecap="butt" stroke-linejoin="miter" stroke-width="0.5"/>
   <polyline fill="none" points="337.698,280.473 337.698,278.85" stroke="#262626" stroke-linecap="butt" stroke-linejoin="miter" stroke-width="0.5"/>
   <polyline fill="none" points="337.698,177.811 337.698,179.434" stroke="#262626" stroke-linecap="butt" stroke-linejoin="miter" stroke-width="0.5"/>
   <polyline fill="none" points="347.87,280.473 347.87,278.85" stroke="#262626" stroke-linecap="butt" stroke-linejoin="miter" stroke-width="0.5"/>
   <polyline fill="none" points="347.87,177.811 347.87,179.434" stroke="#262626" stroke-linecap="butt" stroke-linejoin="miter" stroke-width="0.5"/>
   <polyline fill="none" points="355.759,280.473 355.759,278.85" stroke="#262626" stroke-linecap="butt" stroke-linejoin="miter" stroke-width="0.5"/>
   <polyline fill="none" points="355.759,177.811 355.759,179.434" stroke="#262626" stroke-linecap="butt" stroke-linejoin="miter" stroke-width="0.5"/>
   <polyline fill="none" points="362.205,280.473 362.205,278.85" stroke="#262626" stroke-linecap="butt" stroke-linejoin="miter" stroke-width="0.5"/>
   <polyline fill="none" points="362.205,177.811 362.205,179.434" stroke="#262626" stroke-linecap="butt" stroke-linejoin="miter" stroke-width="0.5"/>
   <polyline fill="none" points="367.656,280.473 367.656,278.85" stroke="#262626" stroke-linecap="butt" stroke-linejoin="miter" stroke-width="0.5"/>
   <polyline fill="none" points="367.656,177.811 367.656,179.434" stroke="#262626" stroke-linecap="butt" stroke-linejoin="miter" stroke-width="0.5"/>
   <polyline fill="none" points="372.377,280.473 372.377,278.85" stroke="#262626" stroke-linecap="butt" stroke-linejoin="miter" stroke-width="0.5"/>
   <polyline fill="none" points="372.377,177.811 372.377,179.434" stroke="#262626" stroke-linecap="butt" stroke-linejoin="miter" stroke-width="0.5"/>
   <polyline fill="none" points="376.541,280.473 376.541,278.85" stroke="#262626" stroke-linecap="butt" stroke-linejoin="miter" stroke-width="0.5"/>
   <polyline fill="none" points="376.541,177.811 376.541,179.434" stroke="#262626" stroke-linecap="butt" stroke-linejoin="miter" stroke-width="0.5"/>
   <polyline fill="none" points="54.6239,280.473 54.6239,277.227" stroke="#262626" stroke-linecap="butt" stroke-linejoin="miter" stroke-width="0.5"/>
   <polyline fill="none" points="54.6239,177.811 54.6239,181.057" stroke="#262626" stroke-linecap="butt" stroke-linejoin="miter" stroke-width="0.5"/>
   <polyline fill="none" points="136.034,280.473 136.034,277.227" stroke="#262626" stroke-linecap="butt" stroke-linejoin="miter" stroke-width="0.5"/>
   <polyline fill="none" points="136.034,177.811 136.034,181.057" stroke="#262626" stroke-linecap="butt" stroke-linejoin="miter" stroke-width="0.5"/>
   <polyline fill="none" points="217.445,280.473 217.445,277.227" stroke="#262626" stroke-linecap="butt" stroke-linejoin="miter" stroke-width="0.5"/>
   <polyline fill="none" points="217.445,177.811 217.445,181.057" stroke="#262626" stroke-linecap="butt" stroke-linejoin="miter" stroke-width="0.5"/>
   <polyline fill="none" points="298.856,280.473 298.856,277.227" stroke="#262626" stroke-linecap="butt" stroke-linejoin="miter" stroke-width="0.5"/>
   <polyline fill="none" points="298.856,177.811 298.856,181.057" stroke="#262626" stroke-linecap="butt" stroke-linejoin="miter" stroke-width="0.5"/>
   <polyline fill="none" points="380.266,280.473 380.266,277.227" stroke="#262626" stroke-linecap="butt" stroke-linejoin="miter" stroke-width="0.5"/>
   <polyline fill="none" points="380.266,177.811 380.266,181.057" stroke="#262626" stroke-linecap="butt" stroke-linejoin="miter" stroke-width="0.5"/>
   <g font-family="FreeSans" font-size="10" font-style="normal" font-weight="normal" transform="translate(46.6239,297.948) rotate(-0,8,-10)" xml:space="preserve">
    <text fill="rgb(38,38,38)" x="0 6 " y="-0">10</text>
    <text fill="rgb(38,38,38)" font-size="7" x="12 " y="-4">2</text>
   </g>
   <g font-family="FreeSans" font-size="10" font-style="normal" font-weight="normal" transform="translate(128.034,297.948) rotate(-0,8,-10)" xml:space="preserve">
    <text fill="rgb(38,38,38)" x="0 6 " y="-0">10</text>
    <text fill="rgb(38,38,38)" font-size="7" x="12 " y="-4">3</text>
   </g>
   <g font-family="FreeSans" font-size="10" font-style="normal" font-weight="normal" transform="translate(209.445,297.948) rotate(-0,8,-10)" xml:space="preserve">
    <text fill="rgb(38,38,38)" x="0 6 " y="-0">10</text>
    <text fill="rgb(38,38,38)" font-size="7" x="12 " y="-4">4</text>
   </g>
   <g font-family="FreeSans" font-size="10" font-style="normal" font-weight="normal" transform="translate(290.856,297.948) rotate(-0,8,-10)" xml:space="preserve">
    <text fill="rgb(38,38,38)" x="0 6 " y="-0">10</text>
    <text fill="rgb(38,38,38)" font-size="7" x="12 " y="-4">5</text>
   </g>
   <g font-family="FreeSans" font-size="10" font-style="normal" font-weight="normal" transform="translate(372.266,297.948) rotate(-0,8,-10)" xml:space="preserve">
    <text fill="rgb(38,38,38)" x="0 6 " y="-0">10</text>
    <text fill="rgb(38,38,38)" font-size="7" x="12 " y="-4">6</text>
   </g>
   <polyline fill="none" points="54.6239,280.473 380.266,280.473" stroke="#262626" stroke-dasharray="16,0" stroke-linecap="butt" stroke-linejoin="miter" stroke-opacity="0.15" stroke-width="0.5"/>
   <polyline fill="none" points="54.6239,254.807 380.266,254.807" stroke="#262626" stroke-dasharray="16,0" stroke-linecap="butt" stroke-linejoin="miter" stroke-opacity="0.15" stroke-width="0.5"/>
   <polyline fill="none" points="54.6239,229.142 380.266,229.142" stroke="#262626" stroke-dasharray="16,0" stroke-linecap="butt" stroke-linejoin="miter" stroke-opacity="0.15" stroke-width="0.5"/>
   <polyline fill="none" points="54.6239,203.476 380.266,203.476" stroke="#262626" stroke-dasharray="16,0" stroke-linecap="butt" stroke-linejoin="miter" stroke-opacity="0.15" stroke-width="0.5"/>
   <polyline fill="none" points="54.6239,177.811 380.266,177.811" stroke="#262626" stroke-dasharray="16,0" stroke-linecap="butt" stroke-linejoin="miter" stroke-opacity="0.15" stroke-width="0.5"/>
   <polyline fill="none" points="54.6239,280.473 57.8767,280.473" stroke="#262626" stroke-linecap="butt" stroke-linejoin="miter" stroke-width="0.5"/>
   <polyline fill="none" points="380.266,280.473 377.013,280.473" stroke="#262626" stroke-linecap="butt" stroke-linejoin="miter" stroke-width="0.5"/>
   <polyline fill="none" points="54.6239,254.807 57.8767,254.807" stroke="#262626" stroke-linecap="butt" stroke-linejoin="miter" stroke-width="0.5"/>
   <polyline fill="none" points="380.266,254.807 377.013,254.807" stroke="#262626" stroke-linecap="butt" stroke-linejoin="miter" stroke-width="0.5"/>
   <polyline fill="none" points="54.6239,229.142 57.8767,229.142" stroke="#262626" stroke-linecap="butt" stroke-linejoin="miter" stroke-width="0.5"/>
   <polyline fill="none" points="380.266,229.142 377.013,229.142" stroke="#262626" stroke-linecap="butt" stroke-linejoin="miter" stroke-width="0.5"/>
   <polyline fill="none" points="54.6239,203.476 57.8767,203.476" stroke="#262626" stroke-linecap="butt" stroke-linejoin="miter" stroke-width="0.5"/>
   <polyline fill="none" points="380.266,203.476 377.013,203.476" stroke="#262626" stroke-linecap="butt" stroke-linejoin="miter" stroke-width="0.5"/>
   <polyline fill="none" points="54.6239,177.811 57.8767,177.811" stroke="#262626" stroke-linecap="butt" stroke-linejoin="miter" stroke-width="0.5"/>
   <polyline fill="none" points="380.266,177.811 377.013,177.811" stroke="#262626" stroke-linecap="butt" stroke-linejoin="miter" stroke-width="0.5"/>
   <g font-family="FreeSans" font-size="10" font-style="normal" font-weight="normal" transform="translate(28.6294,284.473) rotate(-0,21,-4)" xml:space="preserve">
    <text fill="rgb(38,38,38)" x="0 3 9 15 " y="-0">-100</text>
   </g>
   <g font-family="FreeSans" font-size="10" font-style="normal" font-weight="normal" transform="translate(34.6294,258.807) rotate(-0,15,-4)" xml:space="preserve">
    <text fill="rgb(38,38,38)" x="0 3 9 " y="-0">-50</text>
   </g>
   <g font-family="FreeSans" font-size="10" font-style="normal" font-weight="normal" transform="translate(43.6294,233.142) rotate(-0,6,-4)" xml:space="preserve">
    <text fill="rgb(38,38,38)" x="0 " y="-0">0</text>
   </g>
   <g font-family="FreeSans" font-size="10" font-style="normal" font-weight="normal" transform="translate(37.6294,207.476) rotate(-0,12,-4)" xml:space="preserve">
    <text fill="rgb(38,38,38)" x="0 6 " y="-0">50</text>
   </g>
   <g font-family="FreeSans" font-size="10" font-style="normal" font-weight="normal" transform="translate(31.6294,181.811) rotate(-0,18,-4)" xml:space="preserve">
    <text fill="rgb(38,38,38)" x="0 6 12 " y="-0">100</text>
   </g>
   <polyline fill="none" points="54.6239,280.473 380.266,280.473" stroke="#262626" stroke-dasharray="16,0" stroke-linecap="square" stroke-linejoin="miter" stroke-width="0.5"/>
   <polyline fill="none" points="54.6239,177.811 380.266,177.811" stroke="#262626" stroke-dasharray="16,0" stroke-linecap="square" stroke-linejoin="miter" stroke-width="0.5"/>
   <polyline fill="none" points="54.6239,280.473 54.6239,177.811" stroke="#262626" stroke-dasharray="16,0" stroke-linecap="square" stroke-linejoin="miter" stroke-width="0.5"/>
   <polyline fill="none" points="380.266,280.473 380.266,177.811" stroke="#262626" stroke-dasharray="16,0" stroke-linecap="square" stroke-linejoin="miter" stroke-width="0.5"/>
   <g font-family="FreeSans" font-size="11" font-style="normal" font-weight="normal" transform="translate(-3.37064,229.142) rotate(-90,27,0)" xml:space="preserve">
    <text fill="rgb(38,38,38)" x="0 7 13 19 24 30 33 39 45 51 " y="-2">Phase[deg]</text>
   </g>
   <g font-family="FreeSans" font-size="11" font-style="normal" font-weight="normal" transform="translate(181.945,314.948) rotate(-0,35.5,-12)" xml:space="preserve">
    <text fill="rgb(38,38,38)" x="0 7 11 17 23 29 35 41 47 52 55 63 68 " y="-3">Frequency[Hz]</text>
   </g>
   <polyline fill="none" points="71.0542,275.339 71.2986,275.339 71.5431,275.339 71.7876,275.339 72.0321,275.339 72.2766,275.339 72.521,275.339 72.7655,275.339 73.01,275.339 73.2545,275.339 73.4989,275.339 73.7434,275.339 73.9879,275.339 74.2324,275.339 74.4768,275.339 74.7213,275.339 74.9658,275.339 75.2103,275.339 75.4547,275.339 75.6992,275.339 75.9437,275.339 76.1882,275.339 76.4326,275.339 76.6771,275.339 76.9216,275.339 77.1661,275.339 77.4105,275.339 77.655,275.339 77.8995,275.339 78.144,275.339 78.3885,275.339 78.6329,275.339 78.8774,275.339 79.1219,275.339 79.3663,275.339 79.6108,275.339 79.8553,275.339 80.0998,275.339 80.3442,275.339 80.5887,275.339 80.8332,275.339 81.0777,275.339 81.3222,275.339 81.5666,275.339 81.8111,275.339 82.0556,275.339 82.3001,275.339 82.5445,275.339 82.789,275.339 83.0335,275.339 83.278,275.339 83.5225,275.339 83.7669,275.339 84.0114,275.339 84.2559,275.339 84.5004,275.339 84.7448,275.339 84.9893,275.339 85.2338,275.339 85.4783,275.339 85.7227,275.339 85.9672,275.339 86.2117,275.339 86.4562,275.339 86.7006,275.339 86.9451,275.339 87.1896,275.339 87.4341,275.339 87.6785,275.339 87.923,275.339 88.1675,275.339 88.412,275.339 88.6565,275.339 88.9009,275.339 89.1454,275.339 89.3899,275.339 89.6344,275.339 89.8788,275.339 90.1233,275.339 90.3678,275.339 90.6123,275.339 90.8567,275.339 91.1012,275.339 91.3457,275.339 91.5902,275.339 91.8346,275.339 92.0791,275.339 92.3236,275.339 92.5681,275.339 92.8125,275.339 93.057,275.339 93.3015,275.339 93.546,275.339 93.7905,275.339 94.0349,275.339 94.2794,275.339 94.5239,275.339 94.7684,275.339 95.0128,275.339 95.2573,275.339 95.5018,275.339 95.7463,275.339 95.9907,275.339 96.2352,275.339 96.4797,275.339 96.7242,275.339 96.9686,275.339 97.2131,275.339 97.4576,275.339 97.7021,275.339 97.9466,275.339 98.191,275.339 98.4355,275.339 98.68,275.339 98.9245,275.339 99.1689,275.339 99.4134,275.339 99.6579,275.339 99.9024,275.339 100.147,275.339 100.391,275.339 100.636,275.339 100.88,275.339 101.125,275.339 101.369,275.339 101.614,275.339 101.858,275.339 102.103,275.339 102.347,275.339 102.592,275.339 102.836,275.339 103.081,275.339 103.325,275.339 103.569,275.339 103.814,275.339 104.058,275.339 104.303,275.339 104.547,275.339 104.792,275.339 105.036,275.339 105.281,275.339 105.525,275.339 105.77,275.339 106.014,275.339 106.259,275.339 106.503,275.339 106.748,275.339 106.992,275.339 107.237,275.339 107.481,275.339 107.726,275.339 107.97,275.339 108.215,275.339 108.459,275.339 108.703,275.339 108.948,275.339 109.192,275.339 109.437,275.339 109.681,275.339 109.926,275.339 110.17,275.339 110.415,275.339 110.659,275.339 110.904,275.339 111.148,275.339 111.393,275.339 111.637,275.339 111.882,275.339 112.126,275.339 112.371,275.339 112.615,275.339 112.86,275.339 113.104,275.339 113.349,275.339 113.593,275.339 113.838,275.339 114.082,275.339 114.326,275.339 114.571,275.339 114.815,275.339 115.06,275.339 115.304,275.339 115.549,275.339 115.793,275.339 116.038,275.339 116.282,275.339 116.527,275.339 116.771,275.339 117.016,275.339 117.26,275.339 117.505,275.339 117.749,275.339 117.994,275.339 118.238,275.339 118.483,275.339 118.727,275.339 118.971,275.339 119.216,275.339 119.46,275.339 119.705,275.339 119.949,275.339 120.194,275.339 120.438,275.339 120.683,275.339 120.927,275.339 121.172,275.339 121.416,275.339 121.661,275.339 121.905,275.339 122.15,275.339 122.394,275.339 122.639,275.339 122.883,275.339 123.128,275.339 123.372,275.339 123.617,275.339 123.861,275.339 124.106,275.339 124.35,275.339 124.594,275.339 124.839,275.339 125.083,275.339 125.328,275.339 125.572,275.339 125.817,275.339 126.061,275.339 126.306,275.339 126.55,275.339 126.795,275.339 127.039,275.339 127.284,275.339 127.528,275.339 127.773,275.339 128.017,275.339 128.262,275.339 128.506,275.339 128.751,275.339 128.995,275.339 129.24,275.339 129.484,275.339 129.728,275.339 129.973,275.339 130.217,275.339 130.462,275.339 130.706,275.339 130.951,275.339 131.195,275.339 131.44,275.339 131.684,275.339 131.929,275.339 132.173,275.339 132.418,275.339 132.662,275.339 132.907,275.339 133.151,275.339 133.396,275.339 133.64,275.339 133.885,275.339 134.129,275.339 134.374,275.339 134.618,275.339 134.862,275.339 135.107,275.339 135.351,275.339 135.596,275.339 135.84,275.339 136.085,275.339 136.329,275.339 136.574,275.339 136.818,275.339 137.063,275.339 137.307,275.339 137.552,275.339 137.796,275.339 138.041,275.339 138.285,275.339 138.53,275.339 138.774,275.339 139.019,275.339 139.263,275.339 139.507,275.339 139.752,275.339 139.996,275.339 140.241,275.339 140.485,275.339 140.73,275.339 140.974,275.339 141.219,275.339 141.463,275.339 141.708,275.339 141.952,275.339 142.197,275.339 142.441,275.339 142.686,275.339 142.93,275.339 143.175,275.339 143.419,275.339 143.664,275.339 143.908,275.339 144.153,275.339 144.397,275.339 144.642,275.339 144.886,275.339 145.13,275.339 145.375,275.339 145.619,275.339 145.864,275.339 146.108,275.339 146.353,275.339 146.597,275.339 146.842,275.339 147.086,275.339 147.331,275.339 147.575,275.339 147.82,275.339 148.064,275.339 148.309,275.339 148.553,275.339 148.798,275.339 149.042,275.339 149.287,275.339 149.531,275.339 149.775,275.339 150.02,275.339 150.264,275.339 150.509,275.339 150.753,275.339 150.998,275.339 151.242,275.339 151.487,275.339 151.731,275.339 151.976,275.339 152.22,275.339 152.465,275.339 152.709,275.339 152.954,275.339 153.198,275.339 153.443,275.339 153.687,275.339 153.932,275.339 154.176,275.339 154.421,275.339 154.665,275.339 154.91,275.339 155.154,275.339 155.398,275.339 155.643,275.339 155.887,275.339 156.132,275.339 156.376,275.339 156.621,275.339 156.865,275.339 157.11,275.339 157.354,275.339 157.599,275.339 157.843,275.339 158.088,275.339 158.332,275.339 158.577,275.339 158.821,275.339 159.066,275.339 159.31,275.339 159.555,275.339 159.799,275.339 160.044,275.339 160.288,275.339 160.532,275.339 160.777,275.339 161.021,275.339 161.266,275.339 161.51,275.339 161.755,275.339 161.999,275.339 162.244,275.339 162.488,275.339 162.733,275.339 162.977,275.339 163.222,275.339 163.466,275.339 163.711,275.339 163.955,275.339 164.2,275.339 164.444,275.339 164.689,275.339 164.933,275.339 165.178,275.339 165.422,275.339 165.666,275.339 165.911,275.339 166.155,275.339 166.4,275.339 166.644,275.339 166.889,275.339 167.133,275.339 167.378,275.339 167.622,275.339 167.867,275.339 168.111,275.339 168.356,275.339 168.6,275.339 168.845,275.339 169.089,275.339 169.334,275.339 169.578,275.339 169.823,275.339 170.067,275.339 170.312,275.339 170.556,275.339 170.8,275.339 171.045,275.339 171.289,275.339 171.534,275.339 171.778,275.339 172.023,275.339 172.267,275.339 172.512,275.339 172.756,275.339 173.001,275.339 173.245,275.339 173.49,275.339 173.734,275.339 173.979,275.339 174.223,275.339 174.468,275.339 174.712,275.339 174.957,275.339 175.201,275.339 175.446,275.339 175.69,275.339 175.934,275.339 176.179,275.339 176.423,275.339 176.668,275.339 176.912,275.339 177.157,275.339 177.401,275.339 177.646,275.339 177.89,275.339 178.135,275.339 178.379,275.339 178.624,275.339 178.868,275.339 179.113,275.339 179.357,275.339 179.602,275.339 179.846,275.339 180.091,275.339 180.335,275.339 180.58,275.339 180.824,275.339 181.068,275.339 181.313,275.339 181.557,275.339 181.802,275.339 182.046,275.339 182.291,275.339 182.535,275.339 182.78,275.339 183.024,275.339 183.269,275.339 183.513,275.339 183.758,275.339 184.002,275.339 184.247,275.339 184.491,275.339 184.736,275.339 184.861,275.346 184.98,182.944 185.225,182.944 185.469,182.944 185.714,182.944 185.958,182.944 186.202,182.944 186.447,182.944 186.691,182.944 186.936,182.944 187.18,182.944 187.425,182.944 187.669,182.944 187.914,182.944 188.158,182.944 188.403,182.944 188.647,182.944 188.892,182.944 189.136,182.944 189.381,182.944 189.625,182.944 189.87,182.944 190.114,182.944 190.359,182.944 190.603,182.944 190.848,182.944 191.092,182.944 191.336,182.944 191.581,182.944 191.825,182.944 192.07,182.944 192.314,182.944 192.559,182.944 192.803,182.944 193.048,182.944 193.292,182.944 193.537,182.944 193.781,182.944 194.026,182.944 194.27,182.944 194.515,182.944 194.759,182.944 195.004,182.944 195.248,182.944 195.493,182.944 195.737,182.944 195.982,182.944 196.226,182.944 196.47,182.944 196.715,182.944 196.959,182.944 197.204,182.944 197.448,182.944 197.693,182.944 197.937,182.944 198.182,182.944 198.426,182.944 198.671,182.944 198.915,182.944 199.16,182.944 199.404,182.944 199.649,182.944 199.893,182.944 200.138,182.944 200.382,182.944 200.627,182.944 200.871,182.944 201.116,182.944 201.36,182.944 201.604,182.944 201.849,182.944 202.093,182.944 202.338,182.944 202.582,182.944 202.827,182.944 203.071,182.944 203.316,182.944 203.56,182.944 203.805,182.944 204.049,182.944 204.294,182.944 204.538,182.944 204.783,182.944 205.027,182.944 205.272,182.944 205.516,182.944 205.761,182.944 206.005,182.944 206.25,182.944 206.494,182.944 206.738,182.944 206.983,182.944 207.227,182.944 207.472,182.944 207.716,182.944 207.961,182.944 208.205,182.944 208.45,182.944 208.694,182.944 208.939,182.944 209.183,182.944 209.428,182.944 209.672,182.944 209.917,182.944 210.161,182.944 210.406,182.944 210.65,182.944 210.895,182.944 211.139,182.944 211.384,182.944 211.628,182.944 211.872,182.944 212.117,182.944 212.361,182.944 212.606,182.944 212.85,182.944 213.095,182.944 213.339,182.944 213.584,182.944 213.828,182.944 214.073,182.944 214.317,182.944 214.562,182.944 214.806,182.944 215.051,182.944 215.295,182.944 215.54,182.944 215.784,182.944 216.029,182.944 216.273,182.944 216.518,182.944 216.762,182.944 217.006,182.944 217.251,182.944 217.495,182.944 217.74,182.944 217.984,182.944 218.229,182.944 218.473,182.944 218.718,182.944 218.962,182.944 219.207,182.944 219.451,182.944 219.696,182.944 219.94,182.944 220.185,182.944 220.429,182.944 220.674,182.944 220.918,182.944 221.163,182.944 221.407,182.944 221.652,182.944 221.896,182.944 222.14,182.944 222.385,182.944 222.629,182.944 222.874,182.944 223.118,182.944 223.363,182.944 223.607,182.944 223.852,182.944 224.096,182.944 224.341,182.944 224.585,182.944 224.83,182.944 225.074,182.944 225.319,182.944 225.563,182.944 225.808,182.944 226.052,182.944 226.297,182.944 226.541,182.944 226.786,182.944 227.03,182.944 227.274,182.944 227.519,182.944 227.763,182.944 228.008,182.944 228.252,182.944 228.497,182.944 228.741,182.944 228.986,182.944 229.23,182.944 229.475,182.944 229.719,182.944 229.964,182.944 230.208,182.944 230.453,182.944 230.697,182.944 230.942,182.944 231.186,182.944 231.431,182.944 231.675,182.944 231.92,182.944 232.164,182.944 232.408,182.944 232.653,182.944 232.897,182.944 233.142,182.944 233.386,182.944 233.631,182.944 233.875,182.944 234.12,182.944 234.364,182.944 234.609,182.944 234.853,182.944 235.098,182.944 235.342,182.944 235.587,182.944 235.831,182.944 236.076,182.944 236.32,182.944 236.565,182.944 236.809,182.944 237.054,182.944 237.298,182.944 237.542,182.944 237.787,182.944 238.031,182.944 238.276,182.944 238.52,182.944 238.765,182.944 239.009,182.944 239.254,182.944 239.498,182.944 239.743,182.944 239.987,182.944 240.232,182.944 240.476,182.944 240.721,182.944 240.965,182.944 241.21,182.944 241.454,182.944 241.699,182.944 241.943,182.944 242.188,182.944 242.432,182.944 242.676,182.944 242.921,182.944 243.165,182.944 243.41,182.944 243.654,182.944 243.899,182.944 244.143,182.944 244.388,182.944 244.632,182.944 244.877,182.944 245.121,182.944 245.366,182.944 245.61,182.944 245.855,182.944 246.099,182.944 246.344,182.944 246.588,182.944 246.833,182.944 247.077,182.944 247.322,182.944 247.566,182.944 247.81,182.944 248.055,182.944 248.299,182.944 248.544,182.944 248.788,182.944 249.033,182.944 249.277,182.944 249.522,182.944 249.766,182.944 250.011,182.944 250.255,182.944 250.5,182.944 250.744,182.944 250.989,182.944 251.233,182.944 251.478,182.944 251.722,182.944 251.967,182.944 252.211,182.944 252.456,182.944 252.7,182.944 252.944,182.944 253.189,182.944 253.433,182.944 253.678,182.944 253.922,182.944 254.167,182.944 254.411,182.944 254.656,182.944 254.9,182.944 255.145,182.944 255.389,182.944 255.634,182.944 255.878,182.944 256.123,182.944 256.367,182.944 256.612,182.944 256.856,182.944 257.101,182.944 257.345,182.944 257.59,182.944 257.834,182.944 258.078,182.944 258.323,182.944 258.567,182.944 258.812,182.944 259.056,182.944 259.301,182.944 259.545,182.944 259.79,182.944 260.034,182.944 260.279,182.944 260.523,182.944 260.768,182.944 261.012,182.944 261.257,182.944 261.501,182.944 261.746,182.944 261.99,182.944 262.235,182.944 262.479,182.944 262.724,182.944 262.968,182.944 263.212,182.944 263.457,182.944 263.701,182.944 263.946,182.944 264.19,182.944 264.435,182.944 264.679,182.944 264.924,182.944 265.168,182.944 265.413,182.944 265.657,182.944 265.902,182.944 266.146,182.944 266.391,182.944 266.635,182.944 266.88,182.944 267.124,182.944 267.369,182.944 267.613,182.944 267.858,182.944 268.102,182.944 268.346,182.944 268.591,182.944 268.835,182.944 269.08,182.944 269.324,182.944 269.569,182.944 269.813,182.944 270.058,182.944 270.302,182.944 270.547,182.944 270.791,182.944 271.036,182.944 271.28,182.944 271.525,182.944 271.769,182.944 272.014,182.944 272.258,182.944 272.503,182.944 272.747,182.944 272.992,182.944 273.236,182.944 273.481,182.944 273.725,182.944 273.969,182.944 274.214,182.944 274.458,182.944 274.703,182.944 274.947,182.944 275.192,182.944 275.436,182.944 275.681,182.944 275.925,182.944 276.17,182.944 276.414,182.944 276.659,182.944 276.903,182.944 277.148,182.944 277.392,182.944 277.637,182.944 277.881,182.944 278.126,182.944 278.37,182.944 278.614,182.944 278.859,182.944 279.103,182.944 279.348,182.944 279.592,182.944 279.837,182.944 280.081,182.944 280.326,182.944 280.57,182.944 280.815,182.944 281.059,182.944 281.304,182.944 281.548,182.944 281.793,182.944 282.037,182.944 282.282,182.944 282.526,182.944 282.771,182.944 283.015,182.944 283.26,182.944 283.504,182.944 283.749,182.944 283.993,182.944 284.237,182.944 284.482,182.944 284.726,182.944 284.971,182.944 285.215,182.944 285.46,182.944 285.704,182.944 285.949,182.944 286.193,182.944 286.438,182.944 286.682,182.944 286.927,182.944 287.171,182.944 287.416,182.944 287.66,182.944 287.905,182.944 288.149,182.944 288.394,182.944 288.638,182.944 288.883,182.944 289.127,182.944 289.371,182.944 289.616,182.944 289.86,182.944 290.105,182.944 290.349,182.944 290.594,182.944 290.838,182.944 291.083,182.944 291.327,182.944 291.572,182.944 291.816,182.944 292.061,182.944 292.305,182.944 292.55,182.944 292.794,182.944 293.039,182.944 293.283,182.944 293.528,182.944 293.772,182.944 294.016,182.944 294.261,182.944 294.505,182.944 294.75,182.944 294.994,182.944 295.239,182.944 295.483,182.944 295.728,182.944 295.972,182.944 296.217,182.944 296.461,182.944 296.706,182.944 296.95,182.944 297.195,182.944 297.439,182.944 297.684,182.944 297.928,182.944 298.173,182.944 298.417,182.944 298.662,182.944 298.906,182.944 299.151,182.944 299.395,182.944 299.639,182.944 299.884,182.944 300.128,182.944 300.373,182.944 300.617,182.944 300.862,182.944 301.106,182.944 301.351,182.944 301.595,182.944 301.84,182.944 302.084,182.944 302.329,182.944 302.573,182.944 302.818,182.944 303.062,182.944 303.307,182.944 303.551,182.944 303.796,182.944 304.04,182.944 304.285,182.944 304.529,182.944 304.773,182.944 305.018,182.944 305.262,182.944 305.507,182.944 305.751,182.944 305.996,182.944 306.24,182.944 306.485,182.944 306.729,182.944 306.974,182.944 307.218,182.944 307.463,182.944 307.707,182.944 307.952,182.944 308.196,182.944 308.441,182.944 308.685,182.944 308.93,182.944 309.174,182.944 309.418,182.944 309.663,182.944 309.907,182.944 310.152,182.944 310.396,182.944 310.641,182.944 310.885,182.944 311.13,182.944 311.374,182.944 311.619,182.944 311.863,182.944 312.108,182.944 312.352,182.944 312.597,182.944 312.841,182.944 313.086,182.944 313.33,182.944 313.575,182.944 313.819,182.944 314.064,182.944 314.308,182.944 314.553,182.944 314.797,182.944 315.041,182.944 315.286,182.944" stroke="#0071bc" stroke-linecap="butt" stroke-linejoin="round" stroke-width="0.5"/>
  </g>
 </g>
</svg>
